<svg viewBox="0 0 114 24" fill="none" xmlns="http://www.w3.org/2000/svg"><path d="M3.5 23h-2.82v-21.33h2.81v21.33Zm7.29-15.85.09 2a5.78 5.78 0 0 1 4.74-2.3c3.35 0 5.04 1.9 5.07 5.68v10.47h-2.71v-10.49c0-1.14-.27-1.99-.8-2.53-.5-.55-1.3-.82-2.38-.82-.88 0-1.65.23-2.31.7a4.77 4.77 0 0 0-1.56 1.85v11.29h-2.7v-15.85h2.56Zm13.33 7.8c0-2.44.57-4.4 1.73-5.87a5.46 5.46 0 0 1 4.52-2.22 5.5 5.5 0 0 1 4.41 1.9v-8.26h2.71v22.5h-2.49l-.13-1.7a5.52 5.52 0 0 1-4.53 2 5.43 5.43 0 0 1-4.5-2.26c-1.15-1.5-1.72-3.47-1.72-5.9v-.2Zm2.7.3c0 1.8.38 3.2 1.12 4.22a3.6 3.6 0 0 0 3.08 1.52c1.72 0 2.97-.77 3.76-2.31v-7.28a3.98 3.98 0 0 0-3.73-2.24c-1.33 0-2.37.51-3.1 1.54-.75 1.02-1.12 2.54-1.12 4.55Zm21.47 8.04c-2.15 0-3.9-.7-5.25-2.1-1.34-1.42-2.02-3.31-2.02-5.68v-.5c0-1.57.3-2.97.9-4.2a7.04 7.04 0 0 1 2.52-2.9 6.34 6.34 0 0 1 3.51-1.05c2.06 0 3.66.68 4.8 2.03 1.15 1.36 1.72 3.3 1.72 5.83v1.13h-10.74c.04 1.56.5 2.83 1.36 3.8.88.95 2 1.43 3.34 1.43.96 0 1.77-.2 2.44-.58.66-.4 1.24-.91 1.74-1.56l1.65 1.3c-1.32 2.03-3.32 3.05-5.97 3.05Zm-.34-14.2c-1.1 0-2.01.4-2.75 1.2a5.8 5.8 0 0 0-1.38 3.34h7.94v-.21a5.13 5.13 0 0 0-1.11-3.2 3.4 3.4 0 0 0-2.7-1.14Zm17.15 10.17 6.1-17.59h3.07l-7.9 21.33h-2.5l-7.9-21.33h3.07l6.06 17.6Zm17.55 4.03c-2.15 0-3.9-.7-5.24-2.1-1.35-1.42-2.02-3.31-2.02-5.68v-.5c0-1.57.3-2.97.9-4.2a7.04 7.04 0 0 1 2.51-2.9 6.34 6.34 0 0 1 3.52-1.05c2.06 0 3.66.68 4.8 2.03 1.14 1.36 1.71 3.3 1.71 5.83v1.13h-10.73c.04 1.56.5 2.83 1.36 3.8.88.95 2 1.43 3.34 1.43.96 0 1.77-.2 2.43-.58a6.1 6.1 0 0 0 1.74-1.56l1.66 1.3c-1.33 2.03-3.32 3.05-5.98 3.05Zm-.33-14.2c-1.1 0-2.02.4-2.76 1.2-.74.79-1.2 1.9-1.37 3.34h7.94v-.21a5.13 5.13 0 0 0-1.12-3.2 3.4 3.4 0 0 0-2.7-1.14Zm13.34-5.78v3.84h2.96v2.1h-2.96v9.82c0 .64.13 1.12.4 1.44.26.31.7.47 1.34.47.32 0 .75-.06 1.3-.18v2.2c-.72.2-1.41.3-2.09.3-1.2 0-2.12-.37-2.74-1.1a4.72 4.72 0 0 1-.92-3.13v-9.82h-2.88v-2.1h2.88v-3.84h2.71Zm15.37 15.49c0-.74-.28-1.3-.84-1.7a7.77 7.77 0 0 0-2.88-1.06 13.8 13.8 0 0 1-3.27-1.05 4.7 4.7 0 0 1-1.79-1.47 3.54 3.54 0 0 1-.57-2.02c0-1.3.55-2.4 1.64-3.3a6.47 6.47 0 0 1 4.22-1.34c1.8 0 3.25.46 4.37 1.39a4.41 4.41 0 0 1 1.68 3.56h-2.72c0-.74-.32-1.38-.96-1.92a3.51 3.51 0 0 0-2.37-.8 3.7 3.7 0 0 0-2.31.64c-.56.43-.84.99-.84 1.68 0 .66.26 1.15.78 1.48.52.33 1.45.65 2.8.95 1.35.3 2.45.67 3.3 1.09a4.7 4.7 0 0 1 1.85 1.52c.41.59.62 1.3.62 2.16 0 1.41-.57 2.55-1.7 3.4a7.16 7.16 0 0 1-4.41 1.28c-1.27 0-2.4-.22-3.37-.67a5.55 5.55 0 0 1-2.3-1.88 4.6 4.6 0 0 1-.82-2.62h2.71c.05.91.41 1.63 1.08 2.17.69.53 1.59.8 2.7.8a4.4 4.4 0 0 0 2.46-.62c.63-.42.94-.98.94-1.67Z" fill="#fff"/></svg>