<svg viewBox="0 0 230 210" fill="none" xmlns="http://www.w3.org/2000/svg"><g clip-path="url(#a)" fill="#284855"><path d="M156.12 185.69c.02-1.02.63-1.96.41-3.01-.02-.11.23-.29.2-.4-.11-.55.02-1.04.16-1.58.13-.56.37-1.09.45-1.64.06-.4.43-.75.07-1.26-.26-.36.25-.81.31-1.29.05-.46.4-.85.44-1.42.07-1.03 1.08-1.05 1.8-1.29.34-.1.72 0 1.08-.02.2 0 .48 0 .57-.1.6-.77 1.47-.62 2.12-.44.59.16 1.12-.34 1.67.07.33.25.2-.22.32-.29.46-.24.31-.8.61-1.14.34-.36.63-.77.87-1.2.16-.29.3-.53.6-.66.1-.03.18-.08.27-.13-.79-.85.5-1.32.38-2.07-.03-.19-.04-.52.17-.54 1.31-.14.43-.62.27-1.13-.15-.48.14-1.06.45-1.5.27-.38.47-.6-.21-.54-.33.03-.59-.09-.83-.31-.38-.35-.78-.65-1.33-.65-.18 0-.36-.1-.35-.23.06-.52-.16-.55-.6-.55-.4.01-.24-.76-.65-.74-.75.06-.64-.87-1.2-.97-.66-.13-.56-.76-.78-1.19-.28-.56-.85-.93-1.09-1.55a3.36 3.36 0 0 1-.33-1.47c.07-.96.14-.97 1.15-.83a3 3 0 0 1 1.38.5c.44.27.99.53 1.56.48.44-.05.78.12 1.14.32.34.18.67.5 1.09.07.15-.17.37-.02.54.12.53.49 1.13.22 1.64.03.4-.15.7-.3 1.12-.04.28.18.45-.2.45-.38 0-.16-.29-.36-.17-.55.52-.87.18-2 .67-2.76.34-.52-.23-.95.2-1.34.4-.34-.03-1.08.5-1.34.41-.2 1 .07 1.24-.63.1-.3.52.38.75.08.54-.73 1.03-1.5 1.52-2.26.05-.07.03-.2.01-.31-.07-.66-.12-1.36-.26-1.96a2.92 2.92 0 0 0-1.5-1.84c-.41-.2-.69-.42-.7-.9 0-.24-.16-.33-.37-.4-.53-.2-.59-.63-.56-1.14.05-.68.02-1.36 0-2.03-.02-.45.14-.92-.22-1.34-.16-.2-.15-.48.01-.72.47-.72.33-1.47.23-2.27a7.81 7.81 0 0 1-.07-1.87c.09-.92-.23-1.86.02-2.8.08-.28-.27-.4-.42-.61-.12-.18-.25-.4-.05-.54.81-.6-.1-1.32.18-1.94-.5-1.29-.31-2.72-.88-3.98.22-.76.23-1.48-.29-2.14-.05-.07-.03-.2 0-.3.03-.12 1.28-.5 1.37-.4.24.26.75.36.54.9-.24.66.67 1.35-.07 1.98.6.73.53 1.63.62 2.49.93.34.27.93.29 1.47.01.82-.43 1.78.44 2.47.24.2.17.48-.06.67-.5.45-.55.95-.24 1.52.4.7-.28 1.45.12 2.14-.51.5-.11 1.12-.22 1.65-.14.62-.03 1.24-.1 1.85-.02.31.13.73-.02.92-.43.55-.11 1 .1 1.4.18.34.38.74.22 1.01-.37.64 0 1.02.42 1.2.48.2.69.68 1.1.96.29.2.44.63.87.9.67.41.87 1.26.84 2.07-.04.92-.5 1.76-.44 2.7-.83.66-.65 2.12-1.9 2.47-.22.06-.33.37-.63.4-.26.03-1.1.93-1.14 1.18-.15.94-.15 1.92-.84 2.69-.06.06-.1.24-.06.28.54.58-.44.97-.15 1.62.23.52-.3.9-.82 1.12-.7.3-1.43-.28-2.07.21-.65-.46-1.4-.05-2.09-.28-.62-.2-1.24.31-1.84.02-.58-.29-1.14-.6-1.73-.88-.11-.05-.31-.02-.43.06-.24.13-.17.36-.03.53.83 1 1.22 2.44 2.66 2.84.47.14.47.66.78.86.27.18.65.1.93.4.58.62 1.23 1.09 2.2.94.46-.07.82.5.65.98-.11.33-.17.74-.35.98-.36.49-.64.88-.27 1.49.14.21-.17.51-.16.7.05.7-.87.84-.74 1.54.11.66-.59.9-.79 1.44-.13.36-.51.62-.43 1.1.01.09 0 .28-.04.29-1.03.33-.87 1.53-1.52 2.13-.61.58-1.4.7-2.17.88-.81-.76-1.66-.06-2.42.08-.5.1-1.06.17-1.44.08-.75-.17-1.1.05-1.4.67-.18.37-.38.73-.66 1.02-.44.46.72.3.24.7-.55.46-.25.93.12 1.19.76.54 1.15 1.47 1.98 1.9.47.25 0 1.1.6 1.12.62.02.17.8.68.8.03 0 .11.08.1.1-.38 1.15.74 1.73 1 2.63.1.35.41.6.14 1.12-.2.38.1 1 .48 1.43.4.47.2 1.4-.34 1.55-.23.07-.55.06-.57-.3-.02-.34-.06-.7-.37-.78-.83-.25-.92-.86-.85-1.57.03-.39-.03-.72-.34-.98-.27-.23-.31-.45-.11-.8.14-.26-.15-.68-.31-.74-.51-.21-.48-.59-.49-1 0-.12.02-.32-.2-.26-.1.02-.17.12-.24.19-.03.03-.08.07-.1.12-.04 1.42-.36 2.87.25 4.26.17.41.42.75.17 1.29-.13.27.04.79.22 1.1.3.49.23.83-.06 1.27-.15.22-.2.5-.51.32-.18-.1-.27-.25-.3-.55-.13-1.08-.43-2.13-.66-3.19l-.1-.6c-.03-.35.1-.72-.09-1.06-.29.23-.42.57-.56.91-.26.66-.46 1.34-1.05 1.83-.23.2-.41.63-.4.95.02.27.28.6-.12.7-.22.06-.55-.1-.78-.26-.62-.42-.94-1.1-.78-1.78a.97.97 0 0 0-.26-.96c-.35-.37-.73-.6-.33-1.2.09-.14-.3-.88-.42-.86a2.8 2.8 0 0 0-1.33.49c-.3.21-.45.65-.66 1-.34.57-.29 1.34-1.09 1.7-.36.17-.15.9-.5 1.37-.52.72-1.22 1.35-1.49 2.25-.1.35-.38.3-.62.27-.26-.03-.3-.25-.3-.46.01-.66-.13-1.37.58-1.8.21-.14.32-.36.36-.65.1-.7.37-1.28 1-1.74.4-.3.3-1.06.8-1.42.5-.34.71-.81.73-1.45 0-.23.5-.43.76-.66.41-.38.2-1.31-.36-1.48-.5-.14-1-.64-1.53-.06-.05.05-.2.05-.3.03-.56-.09-.81-.87-1.5-.7a3.2 3.2 0 0 1-1.6-.1 4.23 4.23 0 0 1-1.7-.84c-.43-.33-.98-.84-1.64-.29-.19.16-.4.06-.53-.12-.58-.87-1.64-1.15-2.27-1.95-.16-.21-.32-.27-.63-.14-.15.08-.6-.2-.72-.42-.58-1.06-1.54-1.63-2.54-2.18-.8-.42-1.25-1.41-2.31-1.43-.21 0-.4-.3-.44-.59a.75.75 0 0 0-.49-.56c-1.37-.52-1.97-1.9-3-2.8.16-.71-.44-1-.8-1.4-.27-.3-.45-.23-.66.15-.64 1.16-1.04 2.4-1.52 3.6-.44 1.12-.5 1.58.16 2.28.92.96 1.84 1.9 2.31 3.19.15.4.71.14.75.36.16 1.02 1.75 1.16 1.44 2.46-.06.22.28.2.45.27.56.27 1.2.51 1.16 1.31-.02.37.26.27.4.24.77-.11 1 .16 1.08.99.08.85.93 1.13 1.66 1.17.5.03.73.21.9.62.11.25.48.31.3.76-.12.3.51.2.58.51.16.7.83.67 1.28.89.35.17.75.15.9.62.06.16.31.37.46.36 1.13-.09 1.64.8 2.1 1.53.32.5.75.84 1.15.9.67.1.73.52.88 1 .17.55.01.9-.49.96-.3.04-.74.13-.9-.03-.81-.83-2.07-.66-2.92-1.47-.32-.3-.81-.34-.45-.94.08-.15-.06-.32-.22-.34-.3-.05-.57-.24-.8-.38-.64-.36-1.62-.32-1.9-1.04-.29-.76-1.2-.9-1.36-1.68-.09-.45-.44-.35-.73-.36-.4-.03-.76.07-.83-.59-.06-.57-.6-1.1-1.1-1.19-.57-.1-.71-.46-.95-.82a7.3 7.3 0 0 0-1.46-1.62c-.46-.37-.8-.74-1-1.24-.37-.88-1.28-1.44-1.37-2.47 0-.08-.24-.15-.37-.22a1.87 1.87 0 0 1-.97-1.32c-.12-.7-.66-.94-1.08-1.31-.31-.29-.55-.15-.61.27-.02.15-.01.39-.1.43-.96.54-1.26 1.66-2 2.37-.33.32-.65.63-.82 1.1-.18.53-.89.2-1.15.6-.24.37-.99.45-.63 1.2.05.1-.34.46-.7.44-.25-.02-.7-.06-.69.17.02.95-.68.98-1.26 1.26-.28.13-.5.47-.68.8-.41.72-.58 1.72-1.77 1.67-.2 0-.62.45-.6.64.17 1.16-.97 1.43-1.36 2.2-.15.32-.63.5-.35.98-.62.68-.89 1.7-1.92 1.94-.27.07-.54.17-.6.4-.23.69-.46 1.35-1.25 1.57.25.78-.52 1.07-.77 1.62-.25.54-.7.99-1.08 1.48.34.7-.14 1.06-.54 1.5-.42.46-.12 1.2-.54 1.71-.44.55-.61 1.28-1.1 1.84-.22.26-.55.66-.4 1.1.2.57.16.91-.37 1.36a1.81 1.81 0 0 0-.62 1.96.91.91 0 0 1-.07.74c-.23.44-.48.87-.53 1.4-.03.43-.44.5-.74.2-.58-.62-.84-1.3-.64-2.08.33-1.25.8-2.48 1.06-3.74.08-.38.4-.76.13-1.28-.12-.24.4-.77.5-1.2.13-.44.42-.76.75-.95.44-.24.69-.4.28-.88-.1-.1-.07-.28.05-.42a8.8 8.8 0 0 0 1.83-3.4c.02-.05.05-.1.1-.13 1.06-.63 1.2-1.95 2.06-2.77.86-.82 1.57-1.8 2.32-2.72.45-.55 1.07-1 1.04-1.83.86-.27.99-1.35 1.71-1.65.53-.23-.09-.77.43-.9.38-.1.72-.33 1.09-.5.04-.01.1-.06.1-.1.16-1.06 1.18-1.26 1.82-1.83.2-.18.43-.34.52-.57.26-.6.47-1.22 1.26-1.25.47-.8 1.44-1.13 1.84-1.96.15-.34.43-.38.62-.6.08-.1.11-.33-.05-.4-.7-.25-1.39-.5-2.1-.67-.35-.08-.83-.2-.94.45-.05.22-.37.17-.55.12-.34-.1-.66-.23-1-.33-.93-.25-.9-.26-1.81.2-.72.35-1.51.18-2.24.07-1.02-.15-1-.2-2.12.28-.58.24-1.2.07-1.81.13-.45.06-1.06-.3-1.27.48-.02.08-.27.13-.4.11-.8-.12-1.64.32-2.38-.23-.6.2-1.26.2-1.86.33-1.5.34-3 .73-4.54.86-.1.01-.21-.02-.3.01-1.44.42-1.75.43-3.47.03-.22-.05-.38 0-.47.24-.03.1-.05.4-.25.2-.69-.66-1.56-.3-2.33-.45-.4-.08-.76-.1-1.1-.43a2.8 2.8 0 0 0-1.04-.54c-1.16-.4-2.33-.8-3.25-1.68-.16-.16-.39-.3-.55-.18-.63.46-1.08-.09-1.4-.39a7.48 7.48 0 0 0-2.98-1.83c-.25-.07-.31-.22-.32-.44 0-.21-.11-.55-.25-.46-.63.44-.49-.77-1.02-.45-.27.15-.45.13-.58-.2-.22-.51-.44-1.04-1.12-1.02-.39-1.03-2-1.04-1.96-2.44 0-.17-.13-.32-.29-.28-1.03.24-1.11-1.04-1.92-1.2-.26-.04-.16-.46-.26-.66-.27-.51-.32-1.22-1.07-1.36-.17-.03-.39-.26-.42-.43a2.73 2.73 0 0 0-1.32-1.9c-.08-.05-.2-.17-.19-.23.28-1.35-1.17-1.48-1.59-2.34-.34-.7-1.18-1.06-1.3-1.97-.03-.29-.46-.52-.68-.81-.21-.28-.42-.2-.7-.18-.21.01-.64-.4-.62-.61.08-1.09-.87-1.23-1.43-1.62-.67-.44-1.4-.8-1.93-1.43-1.3-.24-2.26-1.2-3.53-1.56-1.11-.32-2.2-.73-3.3-1.07-.46-.14-.76-.58-1.3-.18-.12.1-.36 0-.56-.09-1.02-.49-1.99-1.13-3.24-.56-.34.16-.96-.12-1.46-.15-.65-.04-1.29-.24-1.92.1-.48.26-.85-.2-1.26-.3-.5-.12-.93-.35-1.42-.05-.35.21-.66.18-1-.05-.27-.2-.7-.22-.86-.08-.69.6-1.44.2-2.08.1-.6-.1-1.21-.05-1.8-.15a8.17 8.17 0 0 0-1.58-.07c-.66.01-1.31-.06-1.99.06-.66.1-1.24-.3-1.85-.5-.18-.06-.42-.16-.58-.1-1.28.48-2.55-.26-3.83-.02-.23.05-.51.06-.72-.14-.86-.82-2.04-.72-3.05-1.08-.28-.1-.6-.06-.82-.33-.09-.1-.28-.25-.34-.21-.85.44-1.43.23-1.84-.65-.04-.08-.44-.24-.76-.26-1-.05-1.95-.42-2.52-1.32-.24-.39-.55-.44-.89-.61-.74-.38-1.56-.7-2.09-1.43-.34-.47-1.02.02-1.38-.47-.3-.4-.11-1.05-.66-1.33-.35-.18-.5-.84-1.14-.42-.29.2-.2-.23-.29-.35-.34-.47-.41-1.16-1.27-1.13-.3 0-.72-.44-.32-.94-.34-.06.16-1.05-.71-.63-.38.17-.71-.3-.7-.78 0-.39-.02-.69-.5-.8-.2-.06-.34-.33-.43-.6a7.07 7.07 0 0 0-1.13-2c-.4-.53-.82-1.18-.71-1.96.01-.1.04-.25 0-.3-.88-1.06-.62-2.42-.96-3.61-.18-.64-.86-1-.9-1.73-.02-.6.15-1.2-.24-1.81-.2-.3-.06-.81-.07-1.22 0-.4-.03-.8.19-1.2.07-.15-.5-.32-.61-.7-.07-.22-.04-.33.03-.53.17-.49.2-1-.09-1.48-.26-.44-.17-.8.2-1.09.35-.27.3-.64.28-1-.03-.43-.5-.78-.19-1.3.22-.34-.3-.79.15-1.22.23-.2-.3-.55-.26-.97.04-.34.87-.27.34-.88-.22-.24-.03-.76.18-1.16.12-.24.6-.54.17-.92.27-.35.08-.87.28-1.16.5-.72.83-1.4.36-2.25-.02-.03-.02-.1 0-.12.75-.73.32-1.78.68-2.61.22-.5.32-1.12.12-1.5-.43-.86.33-1.79-.28-2.58-.1-.15 0-.39.12-.58.33-.56.28-1.08-.2-1.52-.22-.2-.21-.46-.24-.71-.01-.15 0-.39-.07-.44-.43-.23-.78-.39-.7-1.05.04-.39-.44-.78-.46-1.26-.01-.29-.21-.54-.44-.59-.6-.14-.72-.74-.93-1.12-.23-.41-.62-.75-.72-1.17-.1-.45-.36-.9-.33-1.31.06-.75-.4-1.25-.77-1.62-.83-.8-1.03-1.72-1.15-2.83-.1-.9-.08-1.87-.72-2.72-.34-.46-.75-1.24-.4-1.84.22-.39.6-.53-.05-.8-.04-.02-.05-.21-.01-.3.34-.78.48-1.55.01-2.34-.05-.1 0-.4.07-.42.81-.32.55-1.03.52-1.6-.03-.53.64-1.2-.26-1.65-.11-.06-.11-.6.05-.89.64-1.14.5-2.46.8-3.68.18-.72.48-1.46.36-2.25-.02-.13.16-.3.12-.42-.2-.82 1.62-.64.81-1.73.43-.61.47-1.43 1-1.99.33-.36.08-.99.5-1.24.83-.49.83-1.54 1.53-2.1.72-.6 1.63-1.06 1.66-2.2 0-.09.1-.18.18-.25.41-.32 1.09-.1 1.3-.87.14-.54.64-.88 1.3-.91.19-.01.15-.35.23-.53.21-.45.72-.7 1.17-.5.36.15.58.1.78-.17.24-.32.3-.85.74-.9.64-.08 1.21-.55 1.9-.36.03.08.05.19.1.23.08.05.16-.03.1-.1-.03-.06-.14-.08-.22-.11.67-.74 1.66-.86 2.44-1.4.24-.17.37 0 .52.1.5.35 1 .35 1.5 0a2.2 2.2 0 0 1 2.08-.27c.85.3 1.52-.08 2.22-.36.42-.17.62-.56.45-1.02-.24-.64 0-1.15.34-1.64.56-.8 1.13-1.58 1.44-2.57.12-.38.34-1.15 1.13-1 .27-.53.72-1.04.77-1.59.07-.73.72-.63 1.02-1 .23-.29.65.08.84.32.13.17.13.58-.15.67-.44.14-.67.39-.79.83-.25 1.06-.9 1.9-1.5 2.77-.32.45-.86.8-.33 1.44.04.05-.1.26-.15.4-.14.48-.23.91-.76 1.23-.4.24.33.94-.03 1.3-.45.45-.07 1.03-.4 1.45-.09.12-.18.3-.14.42.15.57-.63.43-.64.93 0 .5.45.67.58 1.05.06.17.06.45-.04.6-.38.53-.27.94.19 1.34.22.2.21.42.05.69-.35.57-.1 1.21-.14 1.82-.03.45.6.37.64.92.1 1.67 1.14 3 1.79 4.46.15.32.38.27.63.28.07.44-.18.91.2 1.31.24.25.45.35.75.07.25-.22.13-.35.04-.6-.2-.5-.63-.57-1-.78.03-.27 0-.5-.22-.7-.24-.2-.47-.45-.38-.8.23-.87-.36-1.55-.58-2.3-.12-.38-.23-.56.06-.85.24-.24.04-.3-.17-.37-.24-.08-.3-.28-.17-.49.34-.52.25-1.04.13-1.61-.12-.54.25-1.1-.14-1.69-.16-.24.4-.52.64-.77.08-.08.2-.04.2.1-.05.57.42 1 .35 1.62-.17 1.43.27 2.84.33 4.28.02.63.5 1.27.74 1.92.24.68.65 1.4 1.25 1.9.2.17.35.25.46.53.36.88 1.3 1.32 2.2 1.1.16-.05.26-.21.07-.28-.59-.24-.22-1.04-.85-1.36-.39-.2-.31-1.04-.85-1.36a.57.57 0 0 1-.28-.66c.1-.4-.1-.74-.3-1-.5-.59-.01-1.18-.1-1.7-.08-.5-.4-1.05-.44-1.57-.03-.24.16-.66.3-.97.13-.32.42-.7.74-.65.36.07.47.5.44.9v.16c-.03.4.03.86-.13 1.21-.21.5.18.74.3 1.06.17.41-.04.91.17 1.2.6.84.78 1.83 1.13 2.75.19.48.66.42.86.78.22.38-.07.86.3 1.18.12.11.18.34.45.15.6-.45.68-.76.27-1.39-.23-.35-.87-.56-.38-1.14-.29-.6-.5-1.23-.86-1.77-.46-.68-.25-1.26.05-1.87.08-.16.22-.21.37-.17.16.04.23.18.22.35-.02.58 0 1.11.48 1.57.36.34-.05 1.03.5 1.39.42.26.11.92.57 1.2.39.24.17.7.23 1.02.13.65.3.91.99.87.25-.02.52.27.8.4.17.08 1.53-.53 1.59-.69.01-.03 0-.11-.02-.12-.95-.29.2-1.48-.73-1.8-.07-.01-.12-.28-.09-.42.19-.8-.14-1.57-.39-2.23-.22-.59.17-1.16-.2-1.66-.11-.15 0-.53.2-.5.77.08.75-.74 1.18-1.03.17-.11.45-.36.51-.23.43.8 1.33-.1 1.68.44.37.58 1.03.6 1.42 1.04.36.41.85.7.88 1.39 0 .36.28.86.79 1-.03 1.1 1.03 1.84 1 2.94 0 .42.13.73.47.9.9.47.98 1.45 1.35 2.24.19.39-.17.77-.55.62-.39-.16-.86-.24-1.01-.78-.18-.63-.69-1.03-1.06-1.53-.33-.42-.87-.72-.79-1.5.04-.42-.67-.8-.58-1.48.1-.73-.55-1.25-.82-1.89-.24-.58-.88-.95-1.2-1.56-.32-.6-1.1-.08-1.52-.56l-.62 1.14c.71.6-.22 1.57.46 2.2.08.07.07.34 0 .45-.2.3-.36.52.17.59.06 0 .14.16.14.25-.02.57.33 1.05.42 1.61.05.33.53.72.7 1.17.07.2.15.37.14.59-.01.25-.22.47-.36.35-.92-.83-1.47-.18-2.07.45-.09.1-.34.21-.38.18-.54-.55-1.04 0-1.53.08-.59.1-1.12-.42-1.7-.08-.5.3-1-.11-1.54-.06-.79.06-1.62-.52-2.45.05-.17.12-.42-.04-.52-.22-.31-.51-.97-.26-1.34-.64-1.6.28-2.18-1.22-3.17-1.96-.49-.37-.84-.9-1.26-1.36-.32-.36-.86-.65-.33-1.28.13-.15-.07-.37-.2-.54-.74-.85-1.55-1.67-1.4-2.96-.47-.7-.78-1.42-.22-2.25.05-.07-.2-.32-.28-.5-.26-.67-.42-1.3-.14-2.06.42-1.15-.2-1.69-1.43-1.3-.46.14-1 .27-1.32.03-.61-.44-1.25-.23-1.5.14-.45.71-1.08.15-1.58.44-.42.25-.9.77-1.5.25-.15-.12-.34.06-.36.16-.13.77-1.02.51-1.33 1.03-.13.24-.3.1-.5.04-.48-.13-.85.13-1.1.54-.25.42-.41.7-1.05.44-.41-.16-.9.35-1.02.87-.12.53-.23.99-.92.87-.34-.05-.36.26-.5.46-.22.35-.27.95-.94.8-.12-.02-.27.25-.2.36.42.49.02.8-.28.95-1.04.5-1.5 1.54-2.25 2.31-.15.15-.34.38-.21.54.84 1-.55 1.48-.53 2.32.01.33-.65.59-.22 1.17.12.18-.67.5-.47.84.27.42.06.76-.1.94-.57.58-.63 1.26-.59 2 .01.2.02.44-.08.6-.42.62-.2 1.3-.25 1.97-.05.85.02 1.68.02 2.51 0 .1.05.25 0 .3-.49.54-.4 1.14-.31 1.77.1.66-.1 1.35.14 2 0 .04.1.1.08.12-.45.87-.38 1.58.35 2.35.3.32.2 1.12.14 1.69-.05.44-.19.73.38.94.4.15.5.48.26 1-.29.62 0 1.4.54 1.7.64.34.45 1.15 1.13 1.49.48.24 1 .92.97 1.62-.02.45.72.19.49.74-.08.2.08.58.24.79.25.33.16.68.22 1.03.05.4.41.57.65.83.6.65 1.3 1.19 1.07 2.28-.04.2-.02.72.28 1 .22.2.16.48.14.73-.04.47-.48.87-.02 1.4.27.32-.38.8 0 1.25.1.11.07.4-.09.57-.36.43-.12.58.29.76.4.17.39.43.08.8-.31.39-.46.9-.73 1.33-.17.27-.1.44.05.68.18.33.27.7-.23.86-.34.13-.08.3-.03.45.2.74.1 1.5-.4 2.02-.58.6-.26 1.24-.33 1.86-.05.42.1.86-.12 1.3-.29.56.05 1.35-.6 1.82.8.84-.58 1.86.22 2.71.15.16-.07.37-.14.55-.13.34-.59.75.12 1.03.08.03.13.45.04.56-.32.4-.35.74.09 1.05.34.23.03.4-.03.62-.18.57-.43 1.15.14 1.67.21.2.17.47.13.72-.21 1.02-.32 2.22.07 2.78.52.78.2 1.89 1.06 2.48.1.07.1.28.12.42.1.89.26 1.5.79 2.27.24.36.46.6.18 1.03-.1.15-.05.41.1.58 1.08 1.11 1.63 2.65 2.92 3.62.45.34.88.96.87 1.68.76-.07 1.08.7 1.7.9.12.75.95 1 1.19 1.73.15.46.58.94 1.27.52.22-.14.5.06.65.28.4.6.72 1.27 1.56 1.34.04 0 .1.05.11.1.17.67.52.95 1.18.55.52.79 1.63.52 2.2 1.44.37.61 1.19 1.3 2.2.85.48-.22.75.3.95.49.75.73 1.76.76 2.63 1.17.38.18.96-.15 1.32.18.4.38.82-.28 1.22.12.13.14.45 0 .7-.13.56-.28 1.18-.21 1.77-.03.7.23 1.37.37 2.12.2.6-.13 1.21.1 1.85.04.54-.05 1.18.06 1.78.23.55.16 1.13.39 1.83.1a2.03 2.03 0 0 1 1.77.13c.5.3 1.22.3 1.6.03.5-.35.98.22 1.36-.2.4.4.91.08 1.34.11.76.06 1.6.53 2.35-.1.1-.08.44-.04.57.07.37.3.83.28 1.17.18.73-.22 1.3-.01 1.93.32.57.3 1.16.73 1.9.34.14-.08.4.01.57.09.8.36 1.63.5 2.48.52.59.02 1.05.31 1.48.66.4.33.83.6 1.36.59.34-.01.56.13.8.36.3.29.52.8 1.13.4.25-.16.55.29.63.51.24.64.73.94 1.28 1.2.75.33 1.43.78 1.93 1.42.53.7 1.43.82 1.99 1.45.16.19.44.34.5.55.12.43-.4 1.03.43 1.26.5.13.6.74.97 1.1.8.74 1.35 1.73 2 2.63-.16.58.39.6.64.87.4.42 1.05.72.92 1.5-.05.3.18.39.42.53.67.43 1.1 1.1 1.42 1.8.1.22.23.28.38.4.49.36.82.92 1.23 1.3.7.65 1.25 1.41 1.93 2.07.19.18.39.3.65.36.47.12 1 .2 1.15.83.03.12.23.31.33.3.93-.14 1.3.76 1.88 1.16.84.57 1.8.83 2.63 1.4.29.19.7.3 1 .58.95.89 2.27.96 3.37 1.52.22.11.2-.13.25-.24.1-.23.29-.31.48-.17.25.18.46.41.68.63.2.21.41.26.66.05.1-.1.3-.2.4-.15.54.2 1.04 1.02 1.62.06.11.1.25.19.35.3.5.6 1.33-.06 1.82.54.15-.15.31-.28.45-.43.37-.43.77-.7 1.3-.26.14.1.3.13.42.03.67-.63 1.75.05 2.36-.78.09-.13.27-.08.42-.01.73.4 1.41.56 1.85-.44.07-.18.3-.24.53-.26.64-.07 1.3.15 1.93-.28.38-.26.58.63.95.42.26-.14.22-.55.78-.61.99-.1 1.93-.26 2.91.04.47.15 1.22 0 1.9-.32.24-.12.33 0 .5.05.46.13.87.01 1.3-.2.33-.16.64.56 1.1.1.22-.24.55-.17.83 0 .12.07.39.15.4.12.43-.74 1.06-.21 1.59-.26.55-.03 1.12.1 1.61-.28.05-.04.19.02.28.05.51.15 1.07.53 1.5.42.72-.17.8.47 1.2.66.24.12.46.1.71 0 .63-.27.74-.5 1.05-1.5.2-.67.59-1.26.68-2 .05-.39.31-.73.04-1.13-.16-.22.04-.25.16-.28 1.18-.28.94-1.33 1.12-2.14.02-.07-.06-.17-.1-.25.71-.21.77-.73.9-1.4.08-.47.54-.93.68-1.48.13-.49.45-.8 1-.68.79.15.34-.51.5-.7.42-.53-.29-1.3.5-1.74.25-.13-.2-1.05.25-1.23.56-.23.52-.79.5-1-.1-.8.4-1.57-.06-2.4a1.61 1.61 0 0 1-.08-1.4c.26-.63-.2-1.28-.47-1.86-.67-1.45-1.4-2.87-1.64-4.47a2.02 2.02 0 0 0-.4-.96 3.93 3.93 0 0 1-.82-2.54c-.02-.92-.3-1.7-.68-2.47-.27-.53-.72-.97-.36-1.62-.34-.3-.23-.76-.41-1.14-.4-.83-.32-1.79-.4-2.7a.98.98 0 0 1 .03-.45c.3-.83.38-2.35.1-3-.19-.46-.59-.86.02-1.3.2-.14-.05-.25-.1-.37-.28-.58-.3-1.13.23-1.6.38-.32.22-.42-.15-.57-.44-.17-.18-.52-.2-.83-.03-.46.83-.1.5-.72-.09-.17.17-.53.27-.8.04-.09.17-.22.16-.23-.6-.63-.31-1.19-.04-1.9.24-.63-.07-1.47.13-2.13.2-.66.64-1.26.95-1.92.22-.47.72-.75.7-1.4-.01-.55.65-.87.7-1.4.08-.9.77-1.3 1.29-1.84.22-.23.62-.3.72-.7.08-.29.66-.4.3-.86-.03-.03.14-.3.25-.33.89-.26 1.2-1.44 2.25-1.47.15 0 .35-.24.44-.42.29-.6.84-.9 1.38-1.05.9-.27 1.5-1.03 2.43-1.25.42-.1.75-.5 1.22-.15.18.13.28-.06.34-.16.53-.95 1.5-.85 2.34-.96.52-.07.97-.09 1.35-.53.34-.37 1.37-.65 1.87-.48.49.16 1.04-.18 1.47.22.12.1.17.12.23-.02.37-.86.95-.69 1.55-.32.28.17.3 0 .37-.2.05-.15.19-.2.35-.24.6-.15 1.18.4 1.72.2.56-.21 1.07-.06 1.6-.1 1.26-.06 2.53.6 3.77 0 .32-.15.49.02.65.2.36.42.87.45 1.27.31 1.4-.47 2.44.4 3.58.88.26.11.4.5.78.39.7-.2 1.17.28 1.61.65.39.34.77.58 1.24.43.27-.08.4.05.5.16.67.73 1.63.88 2.41 1.33.82.48 1.48 1.24 2.26 1.79.5.35.66 1.12 1.5 1.09.29-.02.32.9.13 1.28a4.28 4.28 0 0 1-2.38 1.97c-.97.39-1.96.71-2.85 1.27-.25.15-.55.55-.95.19-.27-.23-.48.08-.66.18-1.03.53-1.96.67-2.9.95-1.04.3-2.27-.07-3.12.89-.57-.12-1.1.7-1.7.1-.12-.13-.3-.1-.41 0-.57.55-1.41.2-2 .69-.1.08-.3.19-.4.14-.86-.4-1.33.29-1.97.6-.42.2-.7 1.07-1.41.47-.1-.1-.12.2-.2.3-.9 1.01-1.15 2.33-1.62 3.55-.08.2-.04.33 0 .53.15.96.26 1.94-.23 2.85-.07.12-.21.28-.19.37.29.8.35 1.6 0 2.4-.32.7.2 1.56-.37 2.23.51 1.16-.1 2.12-.57 3.1.35.39-.1.84-.02 1.06.36.98-.24 1.87-.1 2.82.12.77-.16.92-.96 1-.46.06-1.02-.22-1.28.5-.08.24-.48.06-.71.13-.42.14-.76-.38-1.26-.06-.3.2-.7-.24-.66-.62.06-.64-.36-1.14-.37-1.79 0-.56-.62-.95-.66-1.66-.03-.45-.48-1.09-1.09-1.34-.28-.1-.54-.26-.78-.46-.3-.27-.52-.4-.93-.13-.22.16-.58.12-.88.12-.88 0-1.55.3-1.9 1.2-.2.5-.54.96-.82 1.45-1.13.08-1.15 1.18-1.36 1.87-.24.78-.5 1.63-.46 2.5.01.46.16.96-.14 1.38-.18.24.04.34.1.51.34.89.63 1.8 1 2.69.4.97 1.48 1.94 2.56 2.06.76.08 1.14.83 1.9.82.13 0 .15.29.06.38-.26.26-.2.83-.81.76-.46-.05-.87-.28-1.4-.04-.53.24-.78-.53-1.28-.7-.46-.14-.63-.35-.8.34-.16.68-.22 1.55-1.14 1.8-.24.07-.27.45-.42.6-.42.42-.25 1.57-1.36 1.21-.04-.01-.37.52-.3.63.36.66-.32 1.34.11 1.97.1.14.1.47 0 .58-.6.7-.21 1.6-.53 2.35-.1.22 0 .52-.24.7-.5.38-.49.95-.37 1.42.2.75-.1 1.63.67 2.25.28.23.35.72.57 1.04.18.27.61-.12.82.28.17.3.64.55.64.83 0 .7.26.53.7.38.3-.1.6.03.58.47-.02.5.44.94.67.92 1.34-.17 1.67 1.8 3.07 1.44.22-.06.45.28.51.5.09.3.23.53.45.6.5.14.89.34.93.93.7.06 1.03.69 1.55 1.01 1.18.73 2.53 1.07 3.7 1.83.45.3 1.26-.05 1.45.81.04.25.2.03.32.02.83-.05 1.7-.46 2.41.35.15.16.25.03.38-.03.48-.23.97-.63 1.22.32.07.31.29-.07.44-.12.35-.1.65-.36.92.22.1.22.53.45.84.6.36.17.51.38.54.8.03.45-.36 1.1.45 1.29.01.08 0 .16-.03.23-.34.68.02 1.13.49 1.54.03.08.04.19.1.23.08.06.16-.02.1-.1-.06-.06-.17-.08-.24-.11Zm.62 1.86c.08-.04.2-.05.24-.11.05-.09-.04-.17-.12-.1-.06.03-.07.14-.1.23-.08.03-.19.04-.22.1-.06.08.01.16.1.11.05-.05.07-.16.1-.23Zm-20.63-61.9c.16 0 .28-.09.3-.24 0-.1-.03-.24-.08-.26-.2-.07-.18.1-.2.23v.3c-.07.04-.18.05-.21.11-.05.08.02.15.1.1.05-.05.06-.16.09-.24Zm6.47 13.47c-.03-.08-.05-.2-.1-.23-.1-.05-.17.03-.11.1.05.06.15.08.23.11.16.3.3.62.49.91.03.05.2.04.28 0 .16-.12.2.05.1-.08-.25-.3-.22-.98-.89-.8Zm22.47-24.38c-.04-.07-.05-.2-.1-.23-.1-.06-.18.03-.12.1.04.07.15.08.23.11.66.4 1 .55 1.22.48.08-.03.13-.14.2-.22.09-.1.07-.2-.08-.2-.45-.04-.9-.04-1.35-.04Zm-16.6 18.44c-.41.44-.54.88-.37 1.5.17.62.52 1.23.36 1.92-.02.08.08.17.13.26.05-.08.14-.15.16-.23.02-.15-.02-.3 0-.46.19-1.03-.48-1.98-.3-3.01.07-.04.19-.05.22-.12.05-.08-.03-.16-.1-.1-.06.05-.07.16-.1.24Zm8.84 52.62c-.23.3-.15.63.17.67.37.05.09-.4.22-.55.3-.35.33-.73.29-1.16-.01-.2-.04-.52.16-.55.69-.1.35-.76.63-1.08.35-.38-.1-1.18.68-1.4.09-.03.15-.75.01-.84-.32-.23-.52-.7-.8-.76-.58-.13-.27.51-.44.78-.31.48-.75.98-.28 1.62.1.14-.08.28-.24.31-.3.06-.16.2-.15.4.05.75.17 1.53-.38 2.17-.13.18.09.26.13.4Zm12.5-68.5c-.18.1-.13.28-.05.4.2.34.72.6.27 1.12-.03.03-.02.34.23.17.25-.16.51-.29.76-.45.22-.14.18-.32 0-.47-.36-.26-.82-.37-1.1-.75-.03-.02-.08-.02-.1-.03Zm-36.53 38.4c-.15.07-.25.26-.17.35.2.24.1.76.52.71.2-.03.66-.07.62-.52-.01-.18-.77-.58-.97-.55Zm2.49-1.06-.54-.68c-.13-.16-.23-.05-.35.04-.3.2-.1.39-.01.61.08.23.03.5.07.75 0 .06.1.42.2.13.12-.38.12-.78.63-.86Zm31.15-38.45c.12.09.24.27.34.25.36-.03.72-.13 1.07-.23.1-.02.06-.11-.02-.22-.21-.25-.47-.38-.79-.33-.27.05-.4.27-.6.53Zm-27.74 22.31c-.33.06-.64.57-.53.72.07.1.27.2.36.16.2-.08.47-.2.43-.47-.02-.18-.2-.32-.26-.4Zm-.59-23.8-.16-.19c-.14.26-.56.09-.6.44 0 .01.26.07.4.08.23 0 .35-.12.36-.33Zm-2 9.16c-.2.2-.17.45-.09.69.05.14.14.15.18.04.05-.18.08-.38.09-.57-.01-.05-.13-.1-.18-.16Zm26.68 33.08c-.09.03-.23.03-.24.08-.08.23.14.3.27.42.1.08.18.07.2-.07.04-.2.04-.4-.23-.43Zm-14.96-19.34c-.05.07-.13.14-.14.22 0 .08.04.22.09.24.18.03.18-.12.17-.24-.01-.08-.08-.15-.12-.22Zm-19.43-9.65c-.18.1-.11.24-.07.38.06.15.13.15.19 0 .02-.09.06-.19.04-.27 0-.06-.12-.09-.16-.11Zm35.02-13.7c.08.05.15.13.23.15.07.01.22-.04.24-.09.05-.19-.1-.21-.23-.19-.1 0-.16.08-.24.13Zm-5.48-2.56c-.02.03-.05.06-.04.09.01.03.06.1.07.09.12-.05.13-.12.06-.17-.02-.02-.06-.01-.1-.01Zm-22.73 4.86.11-.1c-.03-.03-.07-.1-.1-.1-.04 0-.08.06-.12.1l.1.1Zm33.8.14-.03.09.08.1c.1-.06.12-.13.05-.19h-.1Zm-36.16 1.95-.1-.12c-.04.04-.1.08-.1.11 0 .04.05.08.09.12l.1-.1Zm-2.88 4.48.1-.1c-.03-.04-.06-.1-.1-.11-.03 0-.07.06-.11.1l.1.1Zm-.66 1.07c0 .03-.05.06-.04.09l.08.1.05-.18h-.09Zm-.87 3.1c-.04.03-.11.07-.1.1.05.15.13.16.19 0l-.1-.1Zm7.47 5.7-.09-.1-.1.1.14.1.06-.1Zm-.44.57c-.01.03-.05.06-.04.08.01.04.06.1.07.1.1-.05.13-.12.06-.18h-.09Zm12.14 7.56-.09-.1-.09.1.13.1a.64.64 0 0 1 .05-.1Zm-.4 3.34c-.03.04-.1.08-.1.1.06.16.13.16.2.02 0-.02-.07-.08-.1-.12Zm-16.54 5.43-.09-.1-.09.08.13.1.05-.08Zm23.1 34.7-.1-.11c-.03.03-.1.07-.1.1 0 .04.07.09.1.12l.1-.11Zm-66.15-148.41c.19.52-.21.81-.34 1.18-.15.45-.56.57-1.01.49-.4-.07-.67.24-.95.4-.35.2-.67.2-1.02.23-.25.03-.39-.47-.61-.15-.16.25.17.45.24.69.07.28.52.59-.02.88-.43.23-1.03.15-1.02-.22.02-.64-.48-.7-.74-.98-1.1-1.12-2.1-2.33-3.3-3.36-.19-.17-.47-.36-.41-.62.23-.9-.49-1.33-.85-1.94-.37-.62-.61-1.3-1.13-1.85-.22-.24-.5-.62-.47-.9.07-.68-.28-1.06-.7-1.45-.18-.18-.37-.4-.15-.67.77-.9.22-1.71-.23-2.47-.3-.49-.74-.84-.27-1.49.27-.37-.15-.8-.3-.94-.82-.75-.46-1.83-.85-2.68-.07-.16-.04-.46.16-.56.74-.36.46-.9.23-1.4-.3-.65-.59-1.23-.14-2.02.26-.46-.19-1.07-.58-1.49-.22-.24-.33.12-.5.14-.56.06-.41.79-.91.95-.42.14-.87.26-1.19.63-.57.66-1.54.8-2.02 1.59-.5.82-1.5.99-2.15 1.58-.54.51-.98 1.11-1.63 1.5-.28.16-.49.36-.83.32-.32-.04-.69.06-.78.36-.23.72-1.18.28-1.4 1-.23.69-1.15.38-1.48.96-.29.52-.8-.34-1.16.21-.22.31-.6.63-1.15.4-.18-.07-.52.22-.77.37-.13.08-.24.3-.34.29-.55-.05-1.03-.24-1.48.42-.27.4-.97.47-1.44.76-.27.17-.41.1-.65-.04-.33-.18-.69-.1-1.06-.1-1.3 0-2.57-.32-3.37-1.55-.12-.16-.25-.44-.39-.45-1.61-.12-1.17-1.53-1.43-2.43-.12-.44-.3-1.02-.14-1.43.2-.54-.07-.88-.16-1.3-.11-.5.32-.83.48-1.25.12-.3.71-.16.58-.51-.14-.36.07-.47.22-.62.27-.29.14-.51.06-.83-.06-.24.62-.27.5-.75 0-.03 1.21-1.3 1.27-1.33.14-.08.28-.18.24-.35-.16-.8.28-1.14.92-1.36.04 0 .07-.07.1-.11.5-.5.92-1.15 1.43-1.53.55-.4 1.03-.9 1.62-1.26.28-.16.49-.49.64-.84a1.82 1.82 0 0 1 1.3-1.11c.68-.17 1-1 1.85-1.03.7-.02 1.16-.8 1.89-.93.44-.1.35-.73.92-.9.74-.23 1.39-.74 2.25-.6.2.04.44-.23.68-.28.5-.13.02-.82.6-.95.38-.09.62.29 1.1.12.45-.17.65-.6 1.04-.69.43-.1.92.05 1.07-.6.01-.08.25-.15.4-.16.38-.03.72-.14 1.14 0 .28.1.48-.63 1-.55.25.05.51.04.76.02.29-.03.49.11.7.27.11-.21.21-.45.37-.63.33-.37.71-.37 1.06-.02.33.33.6.5 1.04.13.21-.19.53-.26.81-.36.09-.03.29-.02.3.01.14.5.7.3.92.55.77.85 1.86.96 2.84 1.28 1.22.42 1.7.68 2.36 1.97 1.15.08.9 1.5 1.76 1.9.45.22.45.63.13 1.02.58.7.46 1.66.88 2.4.22.38.34.73.3 1.16 0 .2-.08.49.13.57.84.34.53.98.48 1.6-.03.54-.16 1.14.42 1.55.3.21.3.68.17.86-.7.98-.06 1.9.12 2.78.19.9.46 1.68-.28 2.42-.09.09-.15.36-.1.42.74.73-.38 1.66.16 2.25.44.48.15.83.11 1.21-.04.46-.5.91.13 1.32.24.16-.03.34-.06.51a4.95 4.95 0 0 0 .66 3.5c.15.23.03.34 0 .53-.1.45-.07.92-.12 1.38-.06.56.11.98.5 1.39.55.57.53.61.04 1.4-.14.22-.22.37.11.39.66.03.82.43.7.99-.04.33.43.5.19.79Zm-39.05-16.14c-.12.01-.27.02-.22.2.01.05.14.06.22.1 0 .46.02.93-.03 1.4-.05.48.15.72.57.93.76.37 1.52.76 2.19 1.27.39.3.49.42.83-.06.16-.22.79-.28 1.02.2.13.28.22.13.41.12.74-.04 1.06-.77 1.77-.92.64-.14 1.3-.54 1.78-1 .25-.22.4-.4.73-.38.4.04.8.05 1.1-.35.16-.23.4-.3.67-.28.76.06 1.3-.34 1.9-.74a4.47 4.47 0 0 1 1.93-.73c.29-.03.4.1.6-.25.27-.48.79-.78.98-1.35.05-.15.31-.34.47-.34.78.05 1.27-.31 1.75-.91.33-.41.88-.7 1.39-.84.5-.16.82-.47 1.18-.78.4-.35.85-.65 1.24-.97.49-.4 1.15-.45 1.58-.98.4-.49.9-1.05 1.71-.87.24.06.33-.05.19-.33-.31-.67-.86-.87-1.4-.35-.41.39-.83.8-1.36.9-.18.04-.5-.13-.58.13-.26.93-1.11.91-1.75 1.22-.21.1-.57-.02-.55.36.05.58-.44.75-.75.8-.97.2-1.64.9-2.44 1.37-.92.54-2 .97-2.64 1.95-.2.31-.55.23-.85.23-.7 0-1.32.23-1.63.9-.23.5-.55.66-1.08.65-.87-.02-1.46.83-2.34.8-.6 1.02-1.65.95-2.63 1.22-.68.18-1.12-.4-1.72-.16-.39.15-.75-.05-1.12-.33-.5-.38-1.11-.84-1.68-.84-.68 0-.96-.5-1.47-.68v-.33c.08-.03.2-.04.23-.1.06-.09-.02-.17-.1-.1-.05.03-.07.14-.1.22Zm35.1 4.06c-.09.03-.2.05-.24.1-.05.08.02.16.1.11.05-.03.08-.15.1-.23.08-.03.19-.05.22-.12.05-.08-.02-.15-.1-.09-.05.04-.06.15-.09.23Zm-6.16 3.1c.03.08.04.2.1.23.08.06.16-.02.1-.1-.04-.06-.15-.07-.23-.1v-.3c0-.12 0-.3-.2-.21-.05.02-.08.16-.07.24.02.16.14.23.3.24Zm-3.7-24.68c.02.33.2.38.47.25.17-.08.13-.26.08-.37-.12-.25-.22 0-.32.03l-.25.11c-.05-.09-.06-.22-.12-.25-.2-.1-.4-.06-.45.2-.02.07.05.17.08.27l.36-.2c.04-.04.1-.04.14-.04Zm-24.64 15.94c.08-.03.2-.03.25-.1.14-.16.45-.27.18-.57-.06-.07-.16-.19-.22-.17-.38.05-.14.37-.2.56-.04.08 0 .2 0 .3-.08.03-.2.04-.23.1-.05.1.02.18.1.12.07-.05.08-.16.12-.24Zm27.7 5.64c0-.09 0-.2-.02-.29-.02-.1.02-.3-.19-.21-.05.02-.08.16-.07.25.02.16.14.23.29.23-.02.15.03.36-.05.44-.39.42-.04.6.23.79.1.06.27.03.35-.13-.48-.2.12-.98-.55-1.08Zm-.6-4.4c.04.08.04.2.1.23.08.06.16-.01.1-.1-.03-.05-.15-.07-.23-.1 0-.25.02-.5 0-.75-.02-.16.1-.46-.18-.41-.22.03-.45.28-.38.55.07.3.26.53.59.58Zm-5.85-16.54c-.57-.2-1 .3-1.54.31-.1 0-.36-.01-.2.23.08.14.21.43.41.26.4-.33 1.05-.25 1.3-.82.08-.03.2-.05.24-.1.05-.09-.03-.17-.11-.12-.05.04-.07.16-.1.24Zm6.14.31-.01-.28c-.02-.12 0-.3-.2-.22-.04.02-.07.16-.07.24.03.16.14.24.3.24.04.08.08.24.12.24.8 0 1.35.3 1.4 1.2.01.32.18.44.48.43.29 0 .55.17.61.4.15.53.67.83.98.79.83-.12.62.68.59.8-.17.6.45.8.54 1.3.16.84.95 1.47 1.05 1.23.24-.64-.37-1.12-.4-1.72 0-.03-.06-.07-.1-.11-.35-.4-.97-.7-.4-1.39.1-.11-.04-.3-.2-.34-.44-.14-.56-.89-1.2-.67-.3-.45-1.06-.5-1.02-1.25.01-.26 0-.59-.26-.68-.71-.21-1.42-.67-2.22-.2Zm-.63 10.04c0-.33-.44-.75-.7-.65-.18.06-.44.36-.42.4.2.28.41.57.69.75.07.05.38-.26.43-.5Zm-4.58-10.35c.28.03.52-.05.69-.26.06-.08.1-.16.14-.25 0 0-.08-.1-.11-.08l-.95.38c-.02 0-.03.08-.02.09l.25.12Zm-21.03 13.86c-.13-.23-.2-.58-.37-.62-.18-.06-.16.26-.16.45.01.25.15.36.38.33.06 0 .1-.11.15-.16Zm8 .3c-.1-.02-.2-.1-.27-.08-.24.07-.44.22-.49.49 0 .01.18.1.27.08.26-.04.41-.22.5-.48h-.01Zm24.83-2.83c-.14.12-.12.25-.06.38.02.05.06.08.1.11.04-.12.1-.24.12-.37 0-.02-.1-.08-.16-.12Zm.3 4.68c-.01.03-.05.06-.04.08l.08.1c.1-.05.13-.11.06-.17-.03-.02-.07-.01-.1-.01Zm-34.65.06-.08-.1a1.1 1.1 0 0 0-.09.09l.13.1a.5.5 0 0 1 .04-.1Z"/><path d="M121.04 48.78c.39.12.93-.22 1.15.17.3.53.64 1.1.49 1.8a3 3 0 0 0-.08 1.06c.06.34.27.65.41.97l.1-.07c-.13-.43.57-.77.12-1.24-.1-.1-.31-.3-.3-.33.71-.96-.01-1.7-.33-2.52-.1-.3-.35-.62-.08-1.1.26-.46-.03-1.04-.36-2.22a1.4 1.4 0 0 1 .38-1.32c.06-.06.16-.06.24-.09.21.74 1.25.96 1.17 1.8-.04.52-.08.94.36 1.29.04.03.08.08.09.13.05.45-.6.78-.21 1.28.24.32.66.54.53 1.05-.1.41.22.67.33.99.33.9-.15 1.82.16 2.7-.46.67.05 1.2.39 1.63.33.42.5.85.32 1.25-.2.38.11.72-.01.96-.25.46.02.56.3.73-.42.35.24.63.08.94-.45.8 0 1.34.35 2.03.26.5.12 1.25.06 1.88-.02.26-.14.42.15.63.44.31.72.8.96 1.3-.5.56.3 1.24-.15 1.82-.14.18-.22.4-.02.56.52.44.67 1.1 1 1.65.33.57.95.96.2 1.62.39.46-.06 1.19.44 1.54.48.34.16 1.18.89 1.3-.17.56.01 1.01.4 1.41-.18 1 .5 1.58 1.02 2.24.11.14.13.2.06.34-.32.66.02 1.1.36 1.66.4.61.98 1.3.45 2.2-.18.3.09.66.28.98.26.45 1.03.71.81 1.25-.28.68.53.76.47 1.34a.95.95 0 0 0 .87 1.04c.53.06.38.7.24 1.01-.23.48-.05.5.31.5.34 0 .43.27.4.53-.06.39.08.73.29 1 .6.76.63 1.81 1.37 2.5.22.2 0 .34-.11.5-.68.84-.1.37.29.33.6-.07.88.44.55.97-.11.2-.25.32-.02.5.4.33.6.7.23 1.2-.21.27-.11.54-.05.85.13.63.18 1.34 0 1.92a3.36 3.36 0 0 1-1.9 2.17c-.22.09-.53-.03-.64.3-.27.78-.86.85-1.46.55-.32-.16-.5-.02-.65.11-.53.42-1.03.2-1.52-.01-1.16-.52-2.2-1.32-3.43-1.7-.23-.07-.27-.42-.41-.6-.2-.25-.7.48-.9-.26-.09-.36-.44-.68-.82-.86-.23-.11-.45-.23-.7-.31-.24-.1-.3-.29-.26-.49.1-.41.36-.84-.43-.82-.24 0-.53-.32-.51-.7.02-.5-.33-.8-.67-.96-.65-.28-1.01-.63-.89-1.4.05-.29-.22-.52-.44-.56-.62-.13-.7-.68-.98-1.1-.2-.3.03-.8-.56-.95-.3-.07-.21-.6-.11-.85.14-.38.17-.59-.27-.74-.15-.06-.36-.3-.35-.46.07-1.32-.8-2.24-1.3-3.3-.09-.18-.3-.45-.24-.54.83-1.2-.28-1.86-.74-2.68-.18-.33-.2-.5 0-.8.4-.64.64-1.29-.13-1.87-.35-.28.29-.55.03-.97-.17-.26-.63-.61-.3-1.08.25-.37-.33-.65-.1-.98.3-.45.1-.72-.22-1.01-.23-.2-.4-.41-.45-.78-.04-.37.35-.67.18-.97-.17-.3-.5-.53-.53-.91-.05-.64-.13-1.3-.07-1.93.02-.25.13-.44-.04-.69-.32-.5-.12-.96.35-1.14.5-.2.4-.31.11-.57a.9.9 0 0 1-.2-.24c-.43-.72-.42-.72-.38-1.89.03-.67.01-1.35.01-2.02 0-.26-.04-.53.02-.78.34-1.33.38-1.35-.1-2.25-.26-.48-.36-.88.1-1.22.49-.36.4-.78.3-1.28-.14-.57.28-1.05.4-1.6.1-.55.5-1 .23-1.66-.19-.46.41-.92.03-1.56-.32-.54.17-1.16.52-1.65.23-.3.5-.53.15-.93-.29-.33.08-.56.2-.83.19-.46.43-.85.11-1.43-.23-.41.14-.85.52-1.11.55-.4 1.12-.43 1.54-.11.08.06.2.2.2.22-.72.76.58 1.07.35 1.74-.08.04-.18.05-.22.12-.05.08.03.16.1.11.07-.04.09-.15.12-.23Zm7.08 46.58c-.03-.08-.05-.2-.11-.23-.09-.05-.17.03-.12.11.05.07.16.08.23.12 0 .2.1.32.31.32 0 .21.1.32.32.3 0 .22.11.3.31.31.04.08.04.2.1.23.09.05.16-.03.1-.11-.04-.06-.14-.07-.22-.1 0-.22-.1-.3-.3-.32 0-.21-.1-.33-.3-.32-.01-.21-.11-.32-.32-.31Zm.63-17.5c-.15 0-.28.07-.3.23-.03.22.07.36.3.38.18.83.43 1.65.88 2.4.07.1.02.3.06.45.03.14.08.28.28.13.28-.2.4-.53.3-.81-.21-.5.18-1.3-.7-1.5-.12-.03-.16-.36-.27-.52-.14-.2-.37-.13-.57-.13v-.64c.08-.04.2-.05.23-.1.05-.1-.03-.18-.1-.13-.07.05-.08.16-.11.24Zm3.37 9.06c-.05-.19-.05-.4-.13-.55-.07-.11-.26-.13-.37 0-.03.05.01.18.05.24.12.14.23.32.46.3 0 .26.06.52 0 .77-.16.64.11 1.06.6 1.38.88.58 1.3 1.4 1.39 2.47.02.27.18.59.14.88-.05.48.1.89.52 1.02.52.16.52.55.34.82-.3.46-.14.7.15 1.06.38.5.35.96-.13 1.15-.88.33-.9.98-.86 1.7-.08.04-.2.07-.24.13-.05.09.04.17.12.12.07-.04.08-.16.12-.24.22-.02.32.28.66.14.98-.41 1.16-1.45 1.75-2.14-.3-.67.41-1.52-.39-2.1-.36-.27.12-.57.02-.78-.12-.28-.64.02-.77-.35-.07-.23 0-.51-.19-.73-.24-.28.4-.63.04-.77-.77-.32-.48-1.34-1.2-1.65-.1-.05-.22-.3-.18-.39.34-.72-.04-.9-.64-.93-.26-.02-.34-.22-.32-.43.12-.77-.43-.92-.94-1.12Zm-6.65-18.07c.13.37-.08.78.17 1.17.32.5.72.95.82 1.58.01.1.21.15.33.23.03-.1.09-.18.1-.28.25-1.84-.77-3.26-1.55-4.75-.1-.2-.26-.13-.28.03-.04.3-.46.56 0 .91.3.24.87.51.41 1.1Zm1.92 4.08c-.06.06-.18.12-.18.16.05.26-.44.4-.19.65.34.34.44.77.64 1.18.07.14.47.48.7.29.25-.2-.04-.45-.21-.63-.22-.23-.37-.4-.22-.8.17-.4-.5-.45-.54-.85Zm-1.73-7.6c-.08-.05-.27-.12-.42-.23-.15-.1-.6.02-.32-.44.15-.25-.12-.4-.25-.45-.36-.12-.21.22-.25.36-.11.39-.34.82.33.95.12.02.22.21.29.34.05.12.12.37.17.31.16-.16.24-.42.45-.84Zm-2.67-11.64c.07-.04.18-.08.18-.12 0-.18.01-.4-.27-.4-.08 0-.23.06-.23.1 0 .2.16.3.32.42Zm7.63 28.65-.18-.38c-.18.14-.15.34-.14.53 0 .13.01.3.17.24.08-.02.1-.24.15-.39Zm1.44 3.49c-.08-.05-.16-.13-.24-.13-.08 0-.17.07-.25.11.08.05.15.14.24.14.08 0 .16-.07.25-.12Zm-4.69 8.95c-.05.07-.13.14-.14.22 0 .08.03.23.08.24.18.05.21-.1.18-.23-.01-.08-.08-.16-.12-.23Zm-7.26-18.13c-.03-.09-.04-.24-.09-.26-.18-.04-.22.1-.19.24.01.09.09.16.13.24l.15-.22Zm-.06-.84-.08-.1-.1.08.13.1a.58.58 0 0 0 .05-.08Zm-.6-2.51-.09-.1-.1.09c.05.03.1.06.13.1a.57.57 0 0 0 .05-.1Zm-.3-1.53-.1-.12c-.03.04-.1.07-.1.11 0 .03.06.1.1.1.02 0 .07-.06.1-.09Zm4.93-13.13-.1-.12-.11.11c.03.04.06.1.1.1.03 0 .07-.06.11-.1Zm4.6 18.13-.1-.12c-.03.04-.1.07-.1.11 0 .04.06.08.1.12a.78.78 0 0 1 .1-.11Zm-4 9.99-.1-.12c-.03.04-.1.07-.1.11 0 .03.06.1.1.1.03 0 .07-.06.1-.09Zm77 89.22c.82-.15 1.54.47 2.37.34.37-.06.79.02.76-.5-.03-.53.93-.14.69-.9-.08-.25.2-.76.66-.86.11-.03.13-.16 0-.24-.65-.42-.07-.84-.04-1.27.08-.98.66-1.92.25-2.93-.13-.3.09-.47.2-.68.24-.42.37-.82-.15-1.14-.04-.02-.1-.1-.08-.12.04-.14.07-.38.15-.4.72-.13.22-1.43 1.22-1.29.2.03.44.07.4.33-.16 1.29.61 2.61-.2 3.86-.08.13-.1.3.04.42.47.36.45.69.01 1.07-.21.2-.04.51-.13.74-.24.65.56 1.4-.13 1.96-.55.46-.58 1.25-1.2 1.7-.47.3-.19 1.03.4 1.15.63.14 1.33-.18 1.95.22.05.03.27-.1.33-.2.57-.84 1.48-1.5 1.43-2.68-.02-.64.96-.89.6-1.65.57-1.26.18-2.73.88-3.97.1-.2-.13-.36-.18-.55-.07-.29-.1-.6-.05-.9.04-.25.26-.45.51-.52.23-.07.48.12.5.27.1.63 1.2.93.53 1.84-.22.3.69.63.32.91-.31.25-.38.58-.62.83-.15.17.04.36.11.55.17.46.44.95-.31 1.25-.3.11-.2.54-.04.82.29.5.22.94-.05 1.45-.32.61-.5 1.3-.79 1.94-.14.3-.38.45-.7.14-.08-.07-.33-.01-.38.16-.05.21 0 .41.28.43.22.01.35.42.64.14.24-.24.44 0 .67.04.54.08 1.18.75 1.52.36.57-.66 1.57-.83 1.82-1.86.15-.61.51-1.28.97-1.68.83-.7.87-1.68 1.1-2.58.1-.36.09-.77.45-.9.57-.19.56-.42.26-.88-.16-.25-.06-.57.16-.84.23-.27.35-.62.56-.9.28-.4-.8-.21-.26-.72.2-.18.37-.54.36-.8-.02-.5.31-.58.58-.79.08-.06.1-.32-.08-.4-.91-.39-.55-1.28-.4-1.73.49-1.36.36-2.6-.08-3.9-.14-.4-.46-.77 0-1.24.25-.27-.34-.66-.14-.97.3-.46-.03-.66-.26-.9-.15-.16-.28-.36-.14-.54.5-.67.14-.76-.45-.8-.54-.02-1.12.17-1.62-.26-.16-.14-.36.14-.53.17-.56.09-1.19.4-1.55-.39-.05-.1-.27-.14-.41-.13a9.64 9.64 0 0 1-3.7-.58c-.37-.12-.85.23-1.34.12-.85-.2-1.72-.34-2.57-.5-.45-.85-1.38-.6-2.06-.91a5.09 5.09 0 0 0-2.37-.3c-.47 0-.9-.06-1.3-.32-.34-.22-.72-.42-1.14-.3-.77.22-1.4.14-2-.48-.2-.19-.74.26-1.13-.22-.3-.36-.3-.71-.04-.87.7-.42.83-1.18 1.26-1.74.25-.31.27-.94.95-.82.16.03.41-.28.56-.48 1.15-1.52 2.6-2.17 4.49-1.73.43-.44.7-.08 1 .2.34.31.4 1.04 1.1.81.37-.12.94.32 1.13-.44.09-.31.36.02.45.1.4.37.94 0 1.32.31.98-.69 1.22.2 1.5.79.52 1.12.49 1.13 1.66.9.61-.12 1.15.22 1.7.34.34.08.71.45.7.94-.01.59.4.58.72.46.38-.15.77-.52 1.1-.11.5.64 1.7.74 1.56 1.9-.05.38.25.64.22 1-.05.43-.75.7-.36 1.2.26.31.76.14 1.15.26.58.19.87.51 1.15 1 .45.8.53 1.74 1.17 2.45.19.22-.35.78.34 1 .25.08.1.76.25 1 .28.52-.5.9 0 1.44.43.45-.25.9-.35 1.37-.03.15-.18.33-.13.41.55.92.05 1.96.37 2.88.07.22.5.5.73.46 1.14-.2 1.73.98 2.75 1.06.15.01.35.26.4.44.19.68.72.95 1.29 1.2.51.21.85.63.85 1.13 0 1.1.61 1.89 1.08 2.76.3.53.62 1.05.5 1.71-.04.3-.08.65.22.86.6.42.4 1.03.38 1.57-.03.51-.41 1.01 0 1.54.05.06.04.25 0 .3-.72.6-.64 1.28-.3 2.04.1.21.07.55-.16.72-.79.58-.75 1.54-.97 2.34-.36 1.27-.3 1.36-1.07 2.28-.06.08-.17.15-.19.24-.26 1.45-1.16 2.47-2.2 3.4-.25.22-.42.48-.33.82.16.68-.24 1.06-.7 1.42-.75.6-1.57 1.1-1.85 2.17-.1.39-.64.65-.92 1.02-.3.39-.19 1.16-1 1.1-.04 0-.18.26-.16.38.12.56-.18.93-.56 1.2-.9.63-1.69 1.43-2.77 1.74-.27.08-.42.27-.62.41-.4.3-.83.56-1.24.85-.4.3-.9.14-1.35.28-.58.18-1.08.52-1.63.76-.34.13-.63.32-.99.1-.11-.06-.22-.2-.35.01-.62 1.13-1.7 1.08-2.75 1.05a5.4 5.4 0 0 0-2.52.35c-.49.24-.96.24-1.47.27-1.13.05-2.25.2-3.4.07-.64-.07-1.32-.05-1.98-.04-.98 0-1.98.18-2.94.45-.52.15-1.04.26-1.45.02-.7-.42-1.56.12-2.2-.45-.06-.05-.26.08-.4.13-1.3.38-2.53.42-3.59-.58-.36-.35-.77-.18-1.16-.2-.71-.05-1.5.2-1.97-.64-.6.28-.77-.75-1.26-.46-.66.38-.75-.42-1.14-.45-.53-.05-.96-.31-1.4-.55-.24-.13-.5-.04-.74-.1a6.36 6.36 0 0 1-2.04-.8c-1.26-.8-2.66-1.37-4-2.03-.6-.3-1.36-.4-1.48-1.28-.03-.27-.26-.27-.47-.27-.1-.01-.2-.02-.29-.06-.48-.25-.41-1.02-.95-1.15-.48-.12-1-.05-1.38-.5-.2-.25-.67-.25-.62-.75.03-.28-.2-.27-.4-.34a6.2 6.2 0 0 1-2.64-1.71c-.13-.13-.37-.25-.16-.49.14-.15.28-.37.5-.3.6.22 1.29.2 1.77.72.17.19.4.5.58.47.94-.12 1.47.5 1.85 1.14.41.67 1.24.17 1.57.73.3.51.58.95 1.24 1 .67.06.63 1.02 1.3 1.13.78 1.3 2.18 1.55 3.43 1.92.57.17 1 .36 1.39.78.27.3.48.57.98.24.32-.2.69.08.9.4.24.38.61.3.96.4.55.16 1.25-.05 1.65.62.09.14.47.13.71.13.54-.01 1.03.15 1.31.59.18.27.35.34.6.32 1.04-.09 2 .11 2.82.79.24.2.43.17.67-.01.27-.21.57-.18.85 0 .18.13.35.24.54.08.37-.3.71-.26 1.12-.02.36.22.77.16 1.16-.05a.7.7 0 0 1 .42-.1 8.4 8.4 0 0 0 3.06.04c.53-.15 1.13.08 1.6-.32.42.5.9.05 1.35.1a6.9 6.9 0 0 0 2.02-.2c.78-.19 1.61-.2 2.42-.28.25-.02.56.08.75-.02 1.02-.6 2.17-.38 3.24-.6.37-.06.72-.23.94-.41.47-.4.95-.44 1.5-.57.85-.2 1.62-.7 2.47-.94.08-.03.19-.14.19-.22 0-.99.65-.91 1.36-1a3.92 3.92 0 0 0 2.4-1.33c.63-.68 1.13-1.54 2.05-1.91.22-.1.35-.27.16-.61-.29-.5-.05-1 .45-1.1.8-.15 1.15-.73 1.41-1.32.34-.78 1.05-1.37 1.14-2.28.01-.13.15-.3.27-.35.68-.3.9-1.07 1.46-1.46a2.2 2.2 0 0 0 1.05-1.53 2.1 2.1 0 0 1 1.17-1.58c.51-.25.81-1.14.57-1.55-.41-.7-.04-1.17.06-1.74.18-.9.97-1.68.34-2.71-.19-.3.2-.54.4-.78.25-.3.25-.53-.17-.68-.39-.14-.36-.55-.2-.76.37-.49.13-1.02.25-1.5.14-.61-.52-.63-.69-1.06-.38-.97-.56-2-1.09-2.94-.36-.63-.95-.84-1.31-1.37-.39-.58-.94-.93-1.7-.81a.62.62 0 0 1-.7-.5c-.12-.7-.81-.27-1.1-.63-.06-.08-.43.14-.4.45.07 1.02-.14 1.39-.57 2.38-.26.63-.86 1.34-.26 2.13.1.15.14.34.03.41-.83.62-.75 2.07-1.99 2.3-.43.08-.24.25-.14.5.14.37-.16.64-.41.72-.5.15-.77.52-1.03.89a3.92 3.92 0 0 1-3.44 1.68c-.2 0-.49.02-.54-.2-.15-.56-.4-.46-.78-.22-.28.18-.56.07-.86-.08a4.6 4.6 0 0 0-2.49-.45c-.72.06-1.42.05-2.04-.42-.17-.13-.34-.24-.55-.2-.97.18-1.76-.32-2.54-.76-.34-.19-.54-.22-.67.2-.08.24-.27.28-.49.16-.7-.4-1.55-.37-2.24-.7-.48-.24-.83.1-1.23 0-.42-.11-.82-.32-1.25-.43-.1-.03-.26.13-.4.2-.29.12-.53.05-.51-.3.03-.81-.4-1.82.79-2.23.36-1.26 1.59-2.02 1.85-3.36.06-.3-.1-.86.54-.97.31-.05-.18-.35.02-.62.24-.32-.17-.21-.3-.27-.47-.17-.96-.42-1.11.39-.02.08-.13.2-.2.2-1.32.07-1.78 1.29-2.54 2.05-.78.78-1.56 1.56-1.9 2.72-.19.68-1.05 1.1-.97 2 .01.18-.34.17-.54.13-.25-.05-.35-.3-.26-.46.38-.7.08-1.68.87-2.2.1-1.25 1.33-1.86 1.61-3.02.04-.14.31-.22.47-.33.45-.32.8-.75 1.28-1.07.36-.24.28-.97.88-1.13.05-.01.05-.18.1-.27.23-.43-.42-.87-.05-1.24.4-.4.4-.81.35-1.28-.05-.48.5-.8.33-1.31-.07-.18-.03-.42.24-.47.25-.04.4.14.5.3.44.66.65 1.34.35 2.15-.45 1.2-.23 1.2.86 1.57.96.33 1.6 1.32 1.22 2.25a17.95 17.95 0 0 1-2.63 4.88c-.16.19-.24.44-.38.65-.16.23-.16.34.14.38.4.05.82-.13 1.2.12.36.24.98.36 1.1.07.2-.47.83-.68.76-1.27-.08-.67.17-1.2.49-1.74.5-.84.15-1.8.41-2.66-.38-.44-.01-.93.12-1.22.26-.52.12-1.02.24-1.5.11-.43-.57-.68-.2-1.14.18-.25.58-.42.26-.88-.03-.04.24-.44.56-.4.28.03.24.26.3.46.15.54.38 2.28.17 2.86-.18.5.45.92-.06 1.4-.37.35-.32.87-.14 1.36.07.2-.06.4-.21.55-.17.18-.36.34-.39.64-.05.56.25 1.36-.17 1.63-.7.43-.3 1-.48 1.48-.06.19-.18.36-.27.53-.08.04-.2.06-.24.11-.06.08.02.16.1.11.13-.03.14-.15.18-.23Zm11.39-22.81c.3.09.75-.2.92.3.06.16.13.33.29.29.56-.17 1.1-.51 1.7-.04.12.1.14-.16.2-.26.15-.2.3-.48.5-.55.4-.13.3-.23.1-.48-.38-.5-.84-.84-1.48-.92-.13-.01-.25-.21-.37-.02-.46.73-1.55.78-1.85 1.7h-.28c-.12.02-.3 0-.22.2.01.05.16.09.25.08.16-.03.23-.15.24-.3Zm-14.47-2.19h2.15c.3 0 .58 0 .68-.43.06-.28.6-.41.65-.56.22-.57 1.09-.55 1.1-1.15.04-.59.3-.68.76-.7.14 0 .23-.2.18-.36-.02-.09-.1-.22-.16-.22-.66-.01-1.34-.08-2 .03-.32.06-.58.5-.83.77a5.3 5.3 0 0 1-1.5 1.12c-.6.3-1.08.73-1.02 1.5-.08.04-.2.05-.23.12-.06.08.02.16.1.11.07-.04.09-.15.12-.23Zm10.8-2.41c-.07-.17-.1-.33-.14-.33-.3 0-.47-.4-.8-.23-.47.24-.92.7-1.48.18-.05-.03-.2.03-.28.07a7.38 7.38 0 0 0-2.83 2.06c-.53.67-.35 1.18.45 1.27.6.06 1.2.02 1.77.32.07.03.42-.29.72-.57.43-.4.88-.77 1.34-1.11.6-.45.72-1.23 1.25-1.66Zm3.2 1.86c.21-.4-.05-.36-.14-.36-1.04-.03-2 .14-2.72 1.01-.28.33-.4.81-.9.96-.12.04-.41.2-.26.44.12.2.37.48.6.32.46-.3.84-.33 1.26 0 .12.08.28.07.43-.05.39-.32.65-.8 1.19-.93-.35-.73.62-.92.53-1.4Zm-113.42-75.21c.12 1.09-.56 1.75-.95 2.46a3.3 3.3 0 0 1-1.7 1.5c-.57.21-1.02.68-1.28 1.14-.74 1.28-2.03 1.8-3.17 2.5-.3.2-.6.2-.6.65 0 .28-.24.5-.47.57-1.2.37-2.16 1.24-3.34 1.67-1.1.41-1.38.63-1.76 1.08-.33.38-.45.98-1.17.9-.52-.05-.85.53-1.41.58-.26.02-.86-.19-.94.5-.04.32-.53.47-.77.3-.57-.43-.9-.14-1.31.22-.25.22-.63.3-.97.4-.35.11-.7-.2-.97-.14-.17.05-.3.45-.61.58-.2.09-.32.11-.52-.01-.19-.11-1.9.33-2.1.4-.34.09-.63.53-1.06.18-.06-.06-.28.03-.4.1-1.47.83-3 1.47-4.68 1.72-.26.04-.5.06-.67.27-.5.58-1.26.35-1.69.2-.79-.29-1.76.04-2.4-.73-.1-.1-.4-.03-.59 0-1.15.22-2.05-.01-2.7-.96-.32-.44-.52-.56-.99-.36-.1.04-.38-.09-.38-.13.03-.97-1.1-1.2-1.26-2.1-.07-.42-.22-.94-.75-1.24-.52-.31-.05-1.25-.74-1.58-.08-.04-.04-.16.06-.24.51-.45.5-.9.16-1.5-.29-.47.43-.88.31-1.44-.03-.16.17-.38.16-.57-.1-1.2.59-2.09 1.17-3.03.3-.49.53-1.02 1.07-1.25.3-.13.4-.34.34-.59-.19-.72.26-1 .77-1.27a8.26 8.26 0 0 0 2.77-2.52c.46-.64.8-1.44 1.63-1.74.16-.86 1.12-1.11 1.38-1.9.77.01 1.08-.68 1.6-1.05.43-.3.39-1.16 1.19-1 .03 0 .15-.25.17-.39.08-.52.34-.95.7-1.31.35-.37.7-.9 1.13-1.01.65-.17.45-.79.8-1.12.34-.34.55-.81 1.06-1 .13-.04.3-.22.28-.33-.02-.62.32-.87.81-1.15.31-.18.12-.89.75-1 .26-.05.63-1.31.66-1.91.02-.3.16-.48.37-.65.82-.65.84-.65 1.18-1.95.07-.27.29-.25.4-.37.49-.52.25-1.5 1.1-1.79-.25-.77.47-1.2.69-1.8.18-.53.54-1 .57-1.6.02-.3.2-.54.41-.6.47-.14.53-.58.76-.9.12-.15.14-.49.27-.51 1-.26 1.1-1.2 1.17-1.92.05-.65.9-.97.57-1.7-.02-.04.12-.22.19-.22.96-.03.96-1 1.4-1.5.45-.52.98-1.03 1.07-1.8.03-.17.2-.44.33-.47.58-.12.85-.6 1.26-.92.4-.32.78-.55 1.03-1.04.08-.17.5-.36.63-.29.35.21.3 0 .48-.21.4-.5.72-1.14 1.53-1.18.23-.01.47-.36.68-.57.36-.35.33-1.06.8-1.21.5-.16.91-.44 1.38-.58.72-.19 1.22-.71 1.87-1.02.7-.32 1.47-.3 2.14-.63.18-.09.42 0 .47.26.11.56-.38 1.3-.93 1.26-.88-.08-1.5.48-1.92 1.01-.46.59-.8.92-1.57.9-.52-.02-1.11.17-1.13.95-.01.17-.2.35-.32.5-.38.45-1.09.47-1.38.87-.32.44-.5.83-1.12.85-.19 0-.6.2-.34.64.13.22-.12.2-.23.26-.4.19-.76.3-.8.92-.02.28-.46.62-.94.66-.45.04-.72.34-.7.84.02.25.03.47-.22.68-.62.54-.7 1.57-1.59 1.88-.14.05-.27.12-.38.22-.09.08-.3.18-.1.36.58.52.42.8-.27 1a.7.7 0 0 0-.5.73c.07.8-.32 1.07-1.04 1.2-.27.04-.69.34-.37.82.04.07.1.17.09.25-.05.39-.89.2-.63.76.24.5-.2.62-.34.91-.19.36-.26.9-.54 1.07-.82.45-.43 1.49-1.05 1.98.2.2.1.36-.08.48-1.24.88-1.52 2.53-2.71 3.45.46.79-1.04 1.1-.47 1.9-.86.24-.92 1.19-1.42 1.75-.4.44-1.14.8-1.02 1.64.01.06-.22.19-.35.22-.57.1-.98.3-.64 1 .13.26-.15.36-.28.45-.8.5-1.7.87-1.79 2.03-.01.25-.25.28-.47.29-.22 0-.32.12-.44.32a9.7 9.7 0 0 1-2.8 3.1.76.76 0 0 0-.31.48c-.23.84-1.19 1.15-1.4 2.03-.06.27-.4.58-.81.63-.74.07-1.24.37-1.16 1.25.03.27-.25.25-.41.35-.42.28-.83.59-1.23.9-.34.25-.53.59-.76.96-.22.37-.8.55-1.26.76-.43.2-.05.5-.12.73-.2.69-.94 1.08-.93 1.86-.87.87-.35 2.07-.71 3.05.32.36.18.7.07 1.12-.1.38-.27 1.01.52 1.22.5.14 1.23.38.7 1.3-.2.33.35.72.56.73 1.03.02 1.42.92 2.06 1.44.16.13.28.3.48.27 1.12-.14 2.19.34 3.3.34.57.01 1.12.37 1.58-.27.07-.08.3-.02.43-.07.47-.2.99.47 1.36.03.36-.42.83-.38 1.24-.52.55-.2 1.08-.5 1.71-.5.32 0 .62-.32.96-.39.35-.08.04-.98.75-.57.44.24.67-.5.87-.4.58.24.86-.1 1.28-.36.36-.22.72-.33.84-.8.06-.24.37-.16.47-.3.3-.46.97.04.97-.17 0-.7.5-.63.88-.82.35-.18.62-.54.91-.82.48-.45.76-1.09 1.33-1.46.03-.02.02-.1.04-.14.23-.53.78-.09 1.07-.36.3-.28.03-.84.51-1.07a.6.6 0 0 1 .43-.05c.14.04.38.36.41 0 .06-.87.7-1.36 1.25-1.68a5.07 5.07 0 0 0 2.08-2.53c.23-.5.37-.91 1.05-.58.22.1.47-.22.55-.46.45-1.47 1.64-2.36 2.57-3.46.42-.5 1.1-.7 1.54-1.23.17-.2.48-.17.7-.04.22.12.14.36.15.56a1 1 0 0 1-.25.7c-.22.28-.55.61-.54.91.06 1.4-1.36 1.85-1.76 2.93-.02.07-.17.13-.25.13-.92 0-1.12.78-1.45 1.4-.29.51-.49.93-1.14 1.22-.58.27-1.3.8-1.4 1.7-.05.48-.56.58-.89.49-.38-.1-.56.24-.54.3.3.94-.55 1.24-.99 1.4-1.17.46-1.88 1.43-2.81 2.15-.24.18-.9.33-.66.64.24.32.9-.02 1.27-.13.64-.2 1.24-.67 1.74-1.15.43-.42.68-1.03 1.42-.64.11.06.2.06.22-.08.13-.78.71-.7 1.28-.78.37-.05.8-.3 1.02-.61a7.6 7.6 0 0 1 2.36-1.95c1.56-.92 2.83-2.17 4.23-3.28.49-.39.18-1.3 1.03-1.33.27-.53.96-.78 1.14-1.26.37-.95 1.12-.24 1.62-.53.25-.1.22.39.24.48Zm-18.92 12.26.11-.1c-.04-.03-.07-.1-.1-.1-.04 0-.08.06-.11.1l.1.1Zm-15.25-40.59c.41-.22.82-.45 1.16.12.1.17.18.43.32.47.43.15 1.15-.14.99.76-.07.42.63.8.07 1.25l.7 3.04c.04.2.12.38.16.58.13.53-.48.87-.35 1.46.1.46.67.9.17 1.41-.1.1-.12.16-.02.25.27.24.22.57.18.87-.03.34.2.87-.2.98-.54.15-.08.46-.23.65-.49.65-.61 1.4-.35 2.16.09.25.07.4-.1.5-.64.37.02 1.38-.7 1.6-.72.2-.41.98-.9 1.28-.3.18-.3.53-.27.85.08 1.12-1 1.64-1.28 2.58-.95.33-1.2 1.32-1.76 2-.28.34-.48.63-.94.64-.3 0-.6-.02-.7.42-.05.21-.39.29-.51.18-.64-.57-1.27-.12-1.85.03-.88.24-1.8.34-2.7.3-.4 0-.79 0-1.18.23-.55.34-1.02-.25-1.55-.33-.27-.05-.23-.54-.02-.8.24-.32.16-.53-.1-.78-1.11-1.06-1.75-2.47-2.52-3.77a2.87 2.87 0 0 1-.32-2.39c.14-.48.03-1.04.02-1.56 0-.27.06-.5.27-.68.22-.2.41-.3.62 0 .4.58.16 1.26.23 1.9.02.1-.2.2-.05.38.54.64.47 1.52.69 2.26.25.85.92 1.4 1.13 2.27.15.6.9 1.06 1.12 1.77.08.26.29.31.48.25.47-.14.76.25 1.14.32.36.07.71-.39 1.08-.01.04.03.18-.05.28-.07-.03-.08-.03-.2-.09-.24-.15-.13-.34-.22-.51-.33-.2-.12-.3-.32-.13-.5.35-.38.12-.63-.13-.91-.85-.94-.75-2.3-1.39-3.32-.03-.05.03-.18.07-.24.49-.69.38-1.38.14-2.14-.13-.42-.3-.9-.07-1.42.14-.3.15-.8 0-1.07-.44-.8-.22-1.35.43-1.86.39-.3.34-.81.15-1.15-.27-.46-.21-.74.17-1.05.3-.26.64-.49.25-.98-.14-.18.03-.47.18-.7.78-1.16 1.37-2.43 2.07-3.64.25-.43.82-.7 1-1.16.2-.45.25-.82.86-.81.22 0 .42-.29.46-.56.03-.24.23-.48.36-.46.87.08.86-1.12 1.63-1.14.18-.64.7-.7 1.2-.6.34.06.51-.36.82-.18.43.27.3.73.33 1.13-.52-.05-1.17-.05-1.2.58-.03.61-.44.62-.72.86-.18.15-.49.06-.57.42-.15.63-.6 1.04-1.18 1.23-.52.18-.34.58-.34.9.01.48.47.64.76.91.02.02.16-.08.24-.13l1.77-.57c.93-.08 1.04.13 1.12 1.07.06.65-.38 1.27-.14 1.82.26.62.18 1.24.2 1.82.06.98.73 2.06-.22 3-.14.14-.05.5-.08.75-.09.65-.16 1.3-.35 1.94-.2.7-.67 1.23-.93 1.87-.15.37-.6.69-.25 1.2.12.18-.04.44-.23.52-.5.22-.82.75-1.39.84-.2.04-.43.03-.47.29-.15 1.04-.96 1.48-1.73 1.97-.26.15-.52.37-.44.74.03.14-.07.51.27.29.3-.2.61-.05.88-.15.6-.22 1.27-.4 1.6-.99.49-.88 1.2-1.51 1.92-2.17.27-.24.76-.6.45-1.15-.24-.42.1-.82.26-.88.43-.18.47-.47.45-.84 0-.17.02-.17.63-.7.1-.08.24-.3.2-.34-.54-.75.09-1.23.4-1.78.16-.32.56-.68.5-.91-.25-.77.23-1.43.16-2.18-.06-.77-.67-1.53-.13-2.32-1.07-.35-.13-.89-.08-1.3.03-.24.26-.46 0-.66-.54-.42-.45-1-.43-1.57.03-.68-.01-1.27-.56-1.89-.55-.64-.57-1.63-.38-2.53Zm-4.37 4.52c-.11-.2-.26-.13-.4-.08-.04.02-.11.1-.1.1.08.14.22.19.37.14.06 0 .1-.11.13-.16Z"/><path d="M194.2 155.94c-.36.33.12.53.12.83 0 .46.28.85.02 1.4-.26.56.19 1.18.38 1.74.14.42.24.72 0 1.15-.33.63.11 1.44-.4 2.06.18 1.16-.96 2.04-.66 3.23.1.38-.76.44-.37.98.28.41-.22.63-.28.97-.07.38-.45.7-.54 1.08-.1.43-.84.67-.36 1.3.12.15-.15.38-.3.49-.27.17-.66.19-.32.7.15.22-.19.56-.38.57-.6.03-.79.5-1.08.87-.13.16-.28.33-.45.41-.42.2-1.07-.13-1.29.23-.25.43-.71.37-.91.6-.5.58-.4-.74-.86-.2-.23.26-.71.19-1 0-.34-.23-.75-.52-.86-.87-.3-.89-1.25-1.09-1.71-1.88-.33-.56.21-.96-.09-1.38-.27-.37-.68-.95-.48-1.21.64-.82-.24-1.45-.12-2.22.11-.72.3-1.55-.24-2.25-.07-.1-.06-.4 0-.44.85-.46.3-1.24.41-1.86.12-.6.08-1.26 0-1.87-.07-.41-.19-.64.26-1.02.38-.3.39-1.08.54-1.66.06-.25-.07-.57.16-.73.8-.54.83-1.49 1.22-2.23.32-.62.86-.97 1.3-1.44.36-.4.3-1.17.61-1.66.26-.4.6-.81 1.14-1 .65-.22 1.32-.42 1.79-1.05.23-.32 1.71.3 1.76.7.05.38-.26.62-.52.68-.86.19-1.48.8-2.2 1.2.14.45-.68.22-.48.74.15.4-.23.5-.49.6-.5.2-.18.63-.3.94-.04.1-.1.23-.16.25-.77.2-1.17.68-1.15 1.5-1.06.68-.44 2.04-1.13 2.87.14.6-.23.87-.57 1.26-.35.38.4.82.22 1.28-.15.38-.27.74-.3 1.16-.03.46-.41.88 0 1.38.11.14.08.65-.05.72-.69.42-.15 1-.27 1.47-.16.6.31 1.1.09 1.75-.19.54.62 1.01.57 1.67 0 .09.08.17.13.26.05-.08.15-.17.15-.25-.01-.78.41-1.6.23-2.26-.22-.84 0-1.68-.25-2.43-.28-.84.02-1.55.27-2.26.18-.48.06-.94.16-1.37.1-.47.44-.88.56-1.4.17-.75.38-1.49 1.1-2.03.45-.35 1.13-.84.76-1.7-.07-.18.12-.24.24-.33.5-.36 1.2-.56 1.56-.24.5.42.72.37 1.07-.06.16-.2.37-.39.59-.07.14.21.58.3.3.72-.1.16-.16.37-.25.55-.07.14-.15.27.05.35.1.03.2.03.3 0 .14-.04.38-.1.39-.16.1-.66.64-1.09.8-1.68a1.9 1.9 0 0 0-.33-1.63c-.28-.43-.55-.91-.28-1.48-.56-.38-.47-.97-.48-1.54 0-.26-.02-.51.2-.72.15-.15.32-.34.45-.08.4.8 1.1 1.4 1.23 2.4.13 1.03.5 2.03.79 3.04.05.22.11.4-.02.56Zm-9.13 15.04c.04.09.05.2.11.25.07.05.16-.03.1-.11-.03-.07-.15-.08-.23-.11-.03-.08-.04-.2-.1-.24-.07-.06-.15.02-.1.1.03.06.15.07.22.1Zm.9.93c0-.29-.22-.29-.4-.3-.05 0-.13.18-.12.19.13.13.27.24.42.37l.1-.26Zm-140.65-122.82c.37-.04.79.18.99-.43.14-.43.63-.62 1-.89.75-.53 1.61-1.05 1.72-2.15.01-.13.13-.34.23-.37.67-.16.94-.65 1.24-1.23.26-.52.82-.86 1.12-1.42.25-.44.84-.72 1.32-.99.41-.22 1.14.16 1.45.6.2.28-.05.37-.16.49-.4.42-1.1.57-1.06 1.33-.75.13-.73.9-1.12 1.33-.35.38-.68.8-1.15 1.07-.42.25-.8.66-.67 1.29.09.47-.04.8-.62.78-.27-.02-.28.23-.3.44-.03.3.15.47.34.65.1.1.16.09.24 0 .98-1.08 2.23-1.85 3.12-3.01a11.1 11.1 0 0 1 3.93-2.9c.11-.04.22-.29.33-.02.05.08.06.2.04.3-.14.54-.5 1.19-.88 1.3-.5.13-.66.39-.83.73-.16.32-.46.5-.67.74-.58.66-1.38 1.04-1.8 1.93-.4.84-1.53 1.18-1.97 2.11-.13.26-.45.17-.7.2-.5.07-1.03-.17-1.48.16-.22.16-.29-.02-.35-.1-.14-.2-.2-.51-.38-.65-.34-.25.11-.98-.54-.95-.37.02-.44.66-.65.73-.7.24-1.24 1.3-2.17.5-.1-.09-.29-.07-.43-.12-1.04-.37-1.04-.37-.85-1.45.04-.2.2-.43.14-.58-.25-.58.48-1.03.18-1.58a4.2 4.2 0 0 0-1.15 1.4c-.27.54-.95.24-1.2.8-.18.4-.28 1.02-.74 1.1a2 2 0 0 0-1.43.86c-.38.52-1.46.2-1.79-.4-.12-.22-.2-.46-.33-.68-.41-.69-.52-1.34.2-1.91a.32.32 0 0 0 .07-.42c-.15-.23-.25.02-.34.09-.34.24-.5.61-.68.99-.18.35-1.05-.03-.83.76-.55.09-.6.65-.88.98-1.06 1.2-1.76 1.06-2.83.44-.3-.17-.52-.48-.8-.7-.28-.23-.32-.42-.1-.75.13-.18.14-.59.02-.75-.36-.49-.29-.84.15-1.18.43-.34-.34-.95.32-1.3.35-.19.4-.74.87-.98.37-.2.6-.8.75-1.26.39-1.16 1.54-1.59 2.19-2.5.32-.45.85-.22 1.3-.22.13 0 .3.07.14.28l-.3.35c-.92.95-1.45 2.2-2.4 3.12-.17.17-.24.33-.22.53.03.54-.18.83-.68 1.06-.28.13-.57.53-.34.97.09.15.06.28.02.43-.07.26-.66.44-.34.67.31.21.4.39.42.7.01.17.11.27.3.28.2.02.27-.1.3-.27.15-.9 1.17-1.2 1.34-2.07.65-.08.98-.42.85-1.11 0-.04.04-.12.07-.12.9-.16 1.1-.87 1.24-1.61.73.25.75-.63 1.27-.85.56-.24 1.03-.58 1.68-.5.25.03.64.05.6-.27-.1-.9.5-1.1 1.13-1.34.33-.13.54-.88.95-.43.3.34.35 1.11-.07 1.41-.65.47-.65 1.64-1.72 1.59-.04 0-.1.04-.12.08-.42 1.56-1.86 2.56-2.24 4.14-.05.24-.03.51-.02.77a.38.38 0 0 0 .15.26c.16.1 1.36-.44 1.36-.65-.01-.57.37-.89.75-1.08.92-.49 1.7-1.07 2.07-2.11 1.05-.05 1.06-1.41 2.09-1.64.6-.14 1-.95 1.64-1.32.38-.23.69-.5 1.17-.6.3-.05.55-.5.8.01.25.52.16 1.05-.25 1.12-.48.07-.6.38-.7.69-.33.9-.6 1.8-1.57 2.24-.07.73-.99 1.1-.78 1.97.1.35.03.74.03 1.09-.07.04-.18.06-.22.12-.05.08.02.16.11.1.06-.03.07-.14.1-.22Zm143.74 139.72v-1.4c0-.2-.05-.5.06-.6.88-.87.58-1.93.42-2.91-.05-.3.16-.47.1-.66-.1-.38.44-.64.2-.97-.26-.35.14-.69.07-.8-.48-.73.14-1.23.31-1.81.17-.54.68-.69 1.18-.45.34.16.5.64.22.85-.76.53-.16 1.4-.6 2.02-.12.18.39.71.78.78.44.1.93-.02 1.24.45.11.16.22.08.37.01.44-.2.87-.2 1.29.1.23.16.5.16.71-.02.47-.4.78-.1 1.02.23.39.54.8.4 1.3.22.58-.2 1.1-.44 1.84-.1a3.6 3.6 0 0 0 2.2.38c.28-.06.5.09.67.3.19.22.35.27.6.06.53-.45 1.1-.24 1.66-.06.19.06.36.26.52.24 1.24-.1 1.72-.03 2.55.46.13.08.25.2.38.22.25.03.62.05.57-.3-.12-.94.84-1.55.68-2.48a.37.37 0 0 1 .1-.27c.26-.2.35-.75.77-.51.18.1 1.07.42.14.86.48.84.02 1.65-.1 2.47a.35.35 0 0 0 0 .16c.2.59-.5.78-.54 1.18-.02.35.55.8.47 1.07-.35 1.12-.25 2.31-.66 3.4a3.64 3.64 0 0 0-.03 2.55c.2.58.22 1.15.08 1.68-.1.35-.33.61 0 .96.1.1.1.3-.03.42-.65.55-.69 1.1-.04 1.68.2.17-.04.26-.1.37-.16.26-.3.54-.5.75-.17.17-.44.34-.66.32-.17 0-.1-.35-.16-.53-.18-.6-.7-1.2-.45-1.82.25-.63-.02-1.27.19-1.81.2-.56.09-1.03.02-1.57-.1-.69-.14-1.4.16-2.13.2-.54.1-1.22.1-1.83a6.02 6.02 0 0 1 .46-3c.19-.36-.22-.57-.25-.56-.75.44-1.41-.32-2.16-.12-.36.1-.82.14-1.17-.17-.07-.07-.19-.14-.27-.12-.69.1-1.35.58-2.05.2-.72-.38-1.34-.22-2 .1a.8.8 0 0 1-.6-.02c-.33-.16-.4-.9-1.02-.36-.3.26-.66-.31-1.1.04-.23.2-.75.1-1.1-.26-.47-.47-1.08-.64-1.73-.32-.54.27-.95-.54-1.56-.16-.5.32-.89-.27-1.34-.4-.32-.08-.75-.45-1-.11-.24.31-.57.75-.07 1.2.46.44-.19.7-.23 1.02-.1.75-.2 1.5-.35 2.25-.25 1.3-.16 2.65-.6 3.91a.82.82 0 0 0 .12.74c.25.33.24.67-.04.99a.69.69 0 0 0-.09.73c.4.7.1 1.35-.02 2.02-.04.25.04.53-.32.6-.35.06-.6-.1-.79-.37-.2-.28-.21-.57 0-.86.1-.14.12-.3-.07-.3-1.02.04-.75-.81-.62-1.2.25-.77.27-1.54.4-2.31.04-.33.1-1.05.06-1.13-.26-.45-.35-.78.26-1.1.38-.2.11-.77.15-1.17.04-.31 0-.63 0-.94v.02Zm-117.92-108.17c-.02.09-.03.22-.1.27-.62.5-.47 1.2-.46 1.85 0 .4-.06.82-.43.92-.67.18-.9.99-1.62 1.05-.55.04-.93.7-1.6.44-.12-.05-.37.13-.53.24-.54.4-1.08.64-1.77.3-.35-.18-.74.25-1.23 0-.36-.2-.72-.14-1.02-.64-.39-.63-.75-1.34-1.4-1.8-.3-.19-.07-.6-.14-.76-.16-.45.39-.8.05-1.2-.27-.33.12-.44.25-.6.37-.46.94-.78.82-1.56-.07-.51.32-.06.46-.14.22-.1.33-.38.48-.55.3-.34.67-.82 1.25-.4.2.14.35.05.55-.04.83-.36 1.69-.56 2.52.02.2.14.45.14.53-.04.33-.74 1.05.13 1.44-.38.03-.04.57.17.6.33.24.96.97 1.64 1.31 2.54.03.05.04.1.04.15Zm42.95-6.71c.27.74-.32 1.34-.12 1.98-.63.85-.18 1.68.11 2.45.2.5.27.87-.16 1.24a.74.74 0 0 0-.23.85c.28.58.63 1.08-.18 1.54-.27.15.07.17.15.23.63.54.68.59.24 1.15-.37.46.02.9-.08 1.23-.22.78-.26 1.47.09 2.21.17.36-.04.7-.33.96-.2.18-.3.37-.14.67.5.93.63 2.3.64 3.36 0 .42-.3.92.16 1.37.36.37.48.9.08 1.4-.1.13-.14.48-.05.59.92 1.04.32 2.65 1.35 3.64.04.03.1.1.09.12-.63.8.14 1.55.07 2.33-.04.47 0 .94.42 1.26-.14.95.39 1.66.78 2.43.14.28.02.59-.23.84-.3.31-.52.14-.79-.03-.43-.27-1.46-1.6-1.38-2.07.1-.58-.44-.94-.35-1.47-.75-.62-.56-1.48-.59-2.3-.01-.29.06-.63-.23-.85-.44-.33-.42-.8-.4-1.27 0-.14.01-.37-.07-.43-.7-.54-.47-1.3-.52-2-.05-.6.11-1.23-.28-1.81-.13-.2-.02-.6.07-.9.07-.2.12-.25-.11-.43-.43-.32-.84-.75-.35-1.38.08-.1.03-.3.03-.45.04-.73-.3-1.4-.01-2.19.26-.69-.2-1.54.23-2.27.02-.04.03-.11.01-.13-.51-.47-.65-.92-.26-1.62.25-.45-.11-1.13.23-1.64.19-.28.05-.47-.1-.69a.96.96 0 0 1-.05-.9c.25-.53.47-1.02.1-1.59-.07-.1.08-.35.17-.51.25-.47.47-.87.09-1.42-.21-.31.32-3.45.52-3.84.04-.1.03-.23.1-.29.23-.23.43-.73.76-.55.33.17.9.43.55 1.07-.03.03-.03.11-.03.1Zm8.16-33.42c0 .13-.03.25-.07.37-.15.38-.6.52-.85.21-.64-.79-1.63-1.38-1.74-2.49-.06-.6-.42-.74-.77-.98-.21-.13-.43-.24-.65-.36-.5-.28.2-1.18-.56-1.23a1.84 1.84 0 0 1-1.32-.66c-.36-.4-1.08-.4-1.14-1.12 0-.04-.06-.07-.1-.11-.96.86-1.45-.65-2.28-.47-1.3-.93-2.95-.74-4.36-1.3-.29-.12-.34.12-.5.16-.7.15-1.4.07-2.08.3-.7.22-1.42-.25-2.14-.02-.18.05-.38-.36-.67-.22-.41.2-.58.77-1.05.84-.35.04-.6-.36-1.1-.06-.56.33-1.29.23-1.76-.43-.14-.2-.23-.3.1-.4.97-.34 1.8-1.02 2.86-1.18.36-.05.7-.05 1.06-.06.3-.02.53-.29.94-.07.34.18.91.03 1.32-.13.47-.2.86-.48 1.27.07.16.2.35.03.54-.02a5.1 5.1 0 0 1 2.52 0c1.8.34 3.49 1.08 5.3 1.42.7.14 1.4.52 1.73 1.28.2.4.5.61.98.59.24-.01.69 0 .7.08.15.67.96.34 1.16.8.4.9 1.28 1.41 1.73 2.3.34.68.46 1.45.92 2.06.1.12.02.4.02.83Zm-36 64.83c0-.2-.07-.51.04-.6.6-.54.44-1.22.44-1.87 0-.14.18-.34.13-.41-.7-.98.07-1.85.22-2.74.1-.62.43-1.2-.01-1.81-.1-.13-.18-.26-.02-.38.56-.41.49-.81 0-1.23-.1-.09-.16-.38-.15-.4.93-.45.12-1.51.7-2.08.13-.11.06-.23.03-.37-.17-.9-.37-1.82.14-2.68-.4-.25.28-.88-.34-1.05-.13-.03-.2-.13-.13-.19.83-.7.2-1.5.05-2.2-.1-.46.15-.66.3-.92.12-.19.45-.14.7-.02.52.23 1.58 1.6 1.58 2.1 0 .29-.21.48-.4.6-.46.3-.39.6-.2 1.01.32.7 0 1.46.11 2.2.1.64.36 1.34-.1 1.99-.05.07.06.28.13.41.37.74.47 1.42.12 2.06-.21.38-.25.6 0 .95.13.2.15.57-.1.7-.83.44-.58 1.02-.13 1.47.41.42.05.7-.06.92-.23.5-.98 2.32-.85 2.7.44 1.36-.54 2.06-1.2 2.9-.27.34-.86.16-.96-.28-.06-.24 0-.51 0-.76l-.05-.02Zm-37.96-42.47c0 .5-.23 1.07.41 1.4.3.17.27.5.34.81.13.58.54 1.14.5 1.69-.05.66.49.8.7 1.2.44.84.61 1.84 1.44 2.45.22.16-.1.22-.2.23-.9.13-1.65-.31-2.03-1.04-.32-.62-.76-1.17-1.06-1.8-.22-.48-.45-.9-.45-1.47 0-.45-.3-.87-.31-1.38 0-.28-.42-.6-.54-1.03-.12-.4-.3-.72-.03-1.12.2-.28.1-.55-.02-.86-.19-.54.08-1.2.57-1.53.18-.12.48-.04.45.18-.1.77.45 1.5.23 2.27Zm54.61-12.51c-.29-.16-.85-.35-.84-.49.05-.5-.67-.87-.23-1.4.18-.23.5-.4.44-.77-.16-1.06.8-.84 1.3-1.07.5-.25.96.13 1.29.56.08.11.17.27.17.4-.04.72-.59 1.25-.7 1.97-.07.47-.6.44-1 .54-.13.04-.25.15-.43.26Zm65.43 83.2c-.1-.02-.2-.06-.3-.06-.61-.06-.98.71-1.65.53-.63-.18-.99.33-1.28.67-.29.34-.63.5-.97.63-.52.21-1.25 0-1.2-.24.05-.28.16-.58.32-.82.14-.21.26-.63.67-.26.03.02.18-.03.24-.1.84-.86 2-1.02 3.06-1.42.65-.24 1.03-.03 1.48.2.23.11.44.35.3.62-.11.24-.3.58-.67.25Zm-79.71-83.54c-.35 0-.9.07-1.06-.47-.17-.57-.53-1.18-.06-1.82.42-.55 1.52-1 2.15-.8.27.08.7.95.6 1.28-.12.32-.23.64-.32.99-.17.7-.43.82-1.31.82Zm78.82 90.27c-.48.31-.59.7-.38 1.26.04.11-.3.41-.6.35a2.28 2.28 0 0 1-1.2-.58c-.1-.1-.2-.3-.18-.4.19-.6.47-1.15.91-1.62.1-.1.13-.14.22-.08l1.1.8c.07.06.09.17.13.27Z"/></g><defs><clipPath id="a"><path fill="#fff" d="M0 0h230v210h-230z"/></clipPath></defs></svg>