<svg viewBox="0 0 185 288" fill="none" xmlns="http://www.w3.org/2000/svg"><path d="M108.4 83.25c.14-.43.51-.68.83-.95.1-.08.42-.06.4.1-.11.78.87 1.08.77 1.84-.08.03-.19.04-.23.11-.06.09.02.16.1.1.06-.04.08-.15.11-.23.1-.04.25-.06.27-.12.26-.8.61-1.46 1.5-1.75a5.74 5.74 0 0 1 3.46-.29c.16.04.3.13.44.2.61.27 1.16-.3 1.84-.09.45.15 1.06.77 1.62.1.64.49 1.39.24 2.05.16.76-.1 1.2.53 1.9.59.51.04.99.37 1.51.01.2-.15.45-.18.59.01.27.37.82 0 1.08.58.27.58.55-.7 1.1-.15.34.34.84-.16 1.16-.29.75-.3 1.5.2 2.2-.2.51.4.65-.04.78-.38.34-.82.19-1.82.93-2.5.17-.17-.01-.4-.14-.59-.18-.24-.22-.65-.02-.74.79-.33.56-.97.56-1.53-.01-.6-.02-1.23.35-1.7.43-.55.15-1.2.37-1.72.22-.53.63-.94.28-1.59-.2-.37.26-.68.37-1.04a5.9 5.9 0 0 0 .3-2.06c-.03-.27-.12-.69.01-.8.62-.52-.22-1.1.12-1.61.34-.5.17-1.07.17-1.6 0-.64.14-1.28-.25-1.92-.22-.37-.11-.94.06-1.43.3-.88.41-1.8-.15-2.64-.21-.32.01-.73-.16-.96-.35-.45.13-.7.14-1.04.01-.43-.75-.28-.59-.63.42-.91-.34-1.58-.36-2.38-.01-.58-.25-1.14-.68-1.4-.74-.45-1.04-1.31-1.87-1.66-.37-.16-.74-.5-.75-1 0-.54-.16-.5-.54-.25-.18.12-.4 0-.47-.3-.12-.48-.59-.74-.97-.77-1.15-.07-1.92-1.45-3.23-.9-.22.1-.4-.13-.56-.27-.08-.08-.19-.22-.25-.2-.73.16-1.36.33-2.03-.34-.5-.5-1.41-.36-2.08-.75-.24-.14-.64-.05-.97-.06-.42-.02-.85.06-1.26-.22-.2-.14-.55-.16-.79-.1-.51.13-1.03.55-1.53.26-.53-.3-.92.07-1.35.1-.84.06-1.6-.3-2.46-.21-.61.05-1.19-.1-1.56.55-.07.12-.2.3-.38.17-.58-.4-1.1-.18-1.67.08-.37.17-.88.09-1.3.03-.78-.11-1.55-.51-2.31 0-.44-.43-.9.03-1.33.01-.5-.02-1.03-.1-1.48.05-.6.2-1.15.03-1.66-.1-.37-.1-.47-.2-.66.22-.14.3-.58.23-.86.01-.8-.62-1.8-.4-2.6-.3-.7.09-1.25 0-1.85-.23-.15-.06-.27-.15-.4-.23-.64 1.12-1.13-.28-1.75-.11-.28.07-.59-.11-.98-.03-.97.2-1.87-.34-2.7-.8-.69-.38-1.2-1.17-2.16-.57-.09.05-.8-.1-1-.35-.8-.98-1.87-.86-2.92-.88-.27 0-.73-.07-.74.16-.02.32.42.19.64.18.73 0 .6.82 1.08 1.06.4.2.48.54.06.86-.24.18-.3.45-.27.74.04.37-.06.6-.48.7-.46.13-.2.75-.33.84-.83.57-1.16 1.78-2.47 1.8-.72 0-.97.7-.66 1.37.38.87.88 1.7 1.18 2.6.25.77 1.07.56 1.48 1.09.37.47.97.22 1.55.13.9-.15 1.72-.58 2.7-.5.75.07 1.58-.27 2.25-.75.12-.08.33.03.36.21.02.1-.01.27-.07.3-.52.21-.92.6-1.26 1.02-.48.6-1.07.9-1.86.76-.78-.12-.98.88-1.7.93-.05 0-.06.47.19.7.3.26.93.01.95.76 0 .52.85.1 1.1.64.2.47.9.45 1.17.71.68.65 1.36 1.1 2.28 1.26.23.03.25.32.25.54 0 .15.06.4.22.28.54-.41.8.03 1.1.3.31.27.95-.07 1.04.6.04.25.34.2.56.22a3.6 3.6 0 0 1 2.52 1.27c.26.33.53.48.96.15.31-.24.7-.23.9.29.15.4.58.39.82.2.48-.39.78-.2 1.1.19.13.17.3.31.45.48.23.26.39.26.78.13.75-.26 1.42.01 2.03.65a4.2 4.2 0 0 0 2.5 1.34c.78.12 1.58.81 2.13 1.46.4.46 1.22.16 1.35.94.1.64.65 1.07.9 1.67.13.34.65.5.2.97 1.12 1.37 1.09 3.06 1.41 4.69.19.93.05 1.83.15 2.74.03.23-.2.48-.3.73-.16.35-.4.34-.64.11-.32-.3-.81-.57-.4-1.17.06-.08-.27-.38-.25-.55.07-.5-.42-.92-.06-1.5.18-.29.18-.86-.13-1.24-.22-.27-.14-.48.03-.73.2-.3.17-.6-.03-.9-.57-.9-1.3-1.72-1.52-2.8-.83-.5-1.3-1.33-1.93-2-.04-.05-.1-.11-.13-.1-.77.12-1.16-.58-1.75-.82-.64-.26-1.25-.6-1.97-.6-.14 0-.4-.12-.4-.19 0-1.13-.86-.72-1.42-.78a2.4 2.4 0 0 1-1.2-.36 5.51 5.51 0 0 0-2.68-.92c-1.09-.08-2.04-.58-3.1-.75-.29-.05-.72-.2-.92-.57-.06-.13-.2-.36-.27-.34-1.65.23-2.42-1.29-3.65-1.88-.94-.45-2-.9-2.48-2-.83-.08-1.35-.68-1.98-1.1-.15-.1-.4-.1-.6-.21-.53-.32-.45-.98-.79-1.35-.32-.37-.97-.33-1.22-.92-.22-.54-.45-1.13-1.14-1.27-.45-1.23-1.59-2.11-1.76-3.49 0-.1-.05-.23-.12-.29-.69-.58-.49-1.36-.61-2.11-.12-.78.22-1.7-.48-2.39-.1-.1.27-.44-.04-.66.75-.36.1-1.12.47-1.64.36-.52.53-1.18.86-1.72.2-.32.53-.75.81-.77.86-.03 1.47-.61 2.26-.8 1.1-.28 2.16-.46 3.1.15.56.36 1.07-.07 1.6.24.5.28 1.04.53 1.58.75.8.31 1.54.83 2.44.61.49-.12.11.84.76.48.63-.35 1.06.57 1.6.46.57-.12 1.04-.3 1.69-.13.47.12.38 1.01 1.01.6.4-.24.86-.13 1.26-.2.62-.1 1.39-.5 1.93.26.03.04.11.1.13.1 1-.58 2.14-.07 3.15-.4.32-.1.62-.16.94-.15.46.01.91.64 1.35.17.44-.46.9.35 1.3-.15.1-.11.43-.03.65-.04.7-.02 1.3.47 2.05.34.69-.12 1.32-.5 2.07-.35.38.06.92.15 1.03-.5 0-.06.24-.14.26-.12.66.8 1.55-.4 2.24.27.12.11.44.06.65.02 1.1-.22 2.18-.45 3.3-.1.47-.39.86-.1 1.34.06.45.14.93.24 1.48.14.39-.06.9.52 1.35.81.65-.6.92.16 1.36.36.13.07.36.12.47.04.63-.43 1.08-.23 1.5.33.09.12.24.2.36.3.44-.73.98.39 1.45-.1.3-.33.55-.1.84.1.63.43.68.47 1.87.5.35.01.47.22.62.38.27.27.5.57.7.89.15.22.82-.1.92.44.07.43.37.65.64.91l.81.83c.93.93 1.3 2.23 2.16 3.2.05 1.67 1.31 3.06 1.05 4.8-.09.59.56 1.12.3 1.7-.26.6.01 1.12.02 1.68 0 .32.1.7-.03.98-.2.41-.4.71 0 1.17.15.17.1.7-.04.93-.27.4-.06.66.02 1.03.12.55.27 1.21-.32 1.67a.92.92 0 0 0-.2.24c.66.74-.11 1.44-.04 2.15.1 1.11-.34 2.12-.5 3.18-.09.48.51 1.04.01 1.29-.62.3-.34.88-.58 1.19-.47.6-.25 1.26-.35 1.88-.1.66-.5 1.2-.57 1.82-.06.68-.1 1.29-.67 1.76-.05.04-.08.35.32.31.6-.05.91.41.98.99.08.55-.12.94-.67 1.15-.65.25-1.2.78-1.97.65-.36-.07-.64.07-.87.34-.1.11-.2.31-.37.2-.56-.37-1.36-.42-1.72-.15-.56.42-1.09-.14-1.61.22-.28.2-.92.23-1.26-.07-.56-.52-1.14.42-1.77-.16-.33-.3-1.03-.21-1.63-.08-.9.21-1.78-.3-2.71-.38-1.24-.11-1.24-.34-2-.05a.68.68 0 0 1-.59 0 5.74 5.74 0 0 0-2.98-.54c-.16.02-.33 0-.5-.03-.92-.17-.9-.16-1.27.58-.29.57.1 1.12.4 1.18.92.19 1.6 1.22 2.67.76.2-.09.29-.03.4.07.25.22.46.52.74.64.26.11.06-.57.44-.41 1 .39 2.11.36 3.06.87.36.19.65.08 1 .03.56-.09 1.23-.73 1.7.16 1-.2 2 .29 2.95.07.53-.12.96-.45 1.46.02.06.05.3.01.3 0 .2-.77.82-.68 1.3-.58.57.11.94-.47 1.55-.26.34.11.95-.33 1.19-.59.55-.62 1.06-.12 1.56-.16.05 0 .09.07.14.1.4.18 1.32-.34 1.54-.71.23-.38.1-.75.19-1.12.1-.38.58-.68.85-.52.28.17.38.34.22.77-.29.79.07 1.72-.4 2.53-.2.33.14.65.32.88.57.7 1.03 1.58 1.85 2 .8.4 1.14 1.36 2.07 1.56.06.02.1.4.22.33 1.05-.67 1.31.2 1.72.82.14.22.37.4.56.6.61.59 1.33 1.1 1.82 1.77.46.65.61 1.49 1.27 2.04.14.12.15.4.27.57.3.48-.18 1.21.33 1.52.44.26.9.54 1.07.95.13.34 1.02.43.42 1.05-.05.05.1.28.17.42.34.83.97 1.54 1.1 2.47.06.5.5.63.85.88.39.26-.06.86.32 1.2.13.11.24.23.37.32.13.1.4.19.4.23-.23 1.06.7 1.64.98 2.46.37 1.11 1.08 1.96 1.73 2.87.32.46.72.86.84 1.43.15.74 1.01.82 1.31 1.52.2.47.57.97.6 1.45.06.6.56.83.73 1.3.18.5.5.94.5 1.53 0 .35.2.76.43 1.02.46.5.74.92.27 1.57-.2.28.07.55.3.67.54.25.83.67.92 1.22.05.29.07.61.32.71.71.28.76.8.7 1.44-.05.49-.02.94.39 1.36.32.32.51.79.62 1.29.12.5.3 1 .89 1.23.24.1.49.38.38.66-.25.66-.14 1.06.58 1.3.3.1.5.44.43.82-.08.42.15.78.36 1.05.87 1.15 1.4 2.5 2.21 3.68.39.57 1.04 1.02.46 1.83-.08.1 0 .33.18.4.73.29 1.18.74 1.1 1.6-.02.37.32.57.55.78.34.33.58.6.18 1.1-.3.38.2.7.35 1 .34.74 1.31 1.27.65 2.29.27.51.48 1.07.82 1.54.26.37.41.57.2 1.11-.31.85-.34 1.9.03 2.72.4.88.04 1.48-.35 2.1-.34.52-.85.93-.5 1.66.05.09-.09.3-.19.42-1.16 1.26-1.7 2.87-2.6 4.3-.23.38-.37.5-.76.27-.09-.05-.3-.05-.25.24.14.58-.21.98-.6 1.36-.55.53-.74 1.38-1.29 1.83-.56.46-1.23.78-1.66 1.42-.2.32-.58.51-.55.97a.64.64 0 0 1-.42.65c-1.09.37-1.44 1.42-2.1 2.19-.13.16-.12.45-.27.56-.47.35-1.27.54-1.4.96-.2.65-.6 1.02-1.01 1.43-.26.25-.85-.04-.95.62-.06.42-.86-.17-1 .6-.06.38-.61.8-1.03.98-.56.22-.42.86-.93 1.07-.4.18-.54.87-1.1.8-.63-.09-.38.66-.8.73-.71.13-.96.87-1.5 1.2-.81.49-1.04 1.8-2.3 1.66-.33.6-.98 1.01-1.05 1.75-.03.37-.34.35-.52.52-.32.28-.79-.17-1.07.3a2.1 2.1 0 0 1-.82.8c-.38.22-.78.37-.9.85-.05.17-.2.32-.36.23-.74-.4-1.25.03-1.62.54-.6.84-1.59 1.12-2.39 1.64-.63.42-1.55.3-2.34-.06-.45-.2-.47-.13-.32.38.25.9.21 1.84-.3 2.67-.18.3-.3.56-.26.92.06.47-.04.82-.56 1.01-.24.09-.39.35-.47.64-.19.66-.43 1.3-.63 1.96-.06.2.04.45-.03.65-.23.7-1.41.59-1.31 1.68.08.85-.82 1.24-1.35 1.74-.57.54-1.4.44-2.01-.09-.24-.2-.39-.55-.81-.33-.44.24-.81.5-1 .98-.1.28.14.25.25.24.5-.04.66.2.65.68-.02.37-.03.74.22 1.1.24.32.12.72 0 1.09-.07.2-.18.4-.23.6-.17.66.61 1.2.12 2-.34.56-.26 1.38.19 2.02.05.08.08.25.03.31-.56.82-.2 1.51.23 2.23.18.3.17.64-.1.9-.43.38-.58.75-.15 1.25.52.6.33 1.34.35 2.03.02.7-.16 1.4.44 2.02.13.13.28.8-.13 1.16-.47.42-.42.85.01 1.27.2.2.3.42.34.72.08.52-.2 1.12.3 1.55.44.38.04.98.4 1.39.13.16.38.39.25.56-.63.8-.03 1.3.39 1.84.3.4.17.78.01 1.17.85.53.52 1.48.8 2.22.25.7.62 1.38.5 2.17-.01.06-.01.15.01.16.92.5 1.24 1.22.78 2.22-.02.04.11.18.2.24 1.01.66 1.1 1.77 1.32 2.8.15.71.24 1.43 1 1.85.65.37.1 1.14.42 1.67.27.46.95.53.95 1.35 0 1.3.64 2.55 1.54 3.38.7.64.84 1.14.62 1.92-.04.12-.29.3-.02.36.82.18.58.92.85 1.38.37.63.66 1.47 1.6 1.64.4.07.72.37.64.81-.16.93.24 1.45 1.08 1.76.18.06.44.31.43.46-.04.84.75.98 1.14 1.44.4.49 1.12.77 1.03 1.59.55.24.84.75 1.24 1.15.2.22.7.36.66.63-.05.52.4.96.15 1.52-.16.38-.24.95-.05 1.27.43.74.15.79-.52 1.03-.56.2-1.14.8-1.38 1.36-.45 1.09-1.35 1.59-2.26 2.07a5.8 5.8 0 0 0-1.5 1.13c-.17.18-.37.55-.29.72.18.38.4-.1.64-.1.65.03.83.15.77 1-.03.36.19.24.3.36.45.51 1.15.13 1.68.53.54.4.77.66.33 1.1-.53.51-.45 1.06-.44 1.66-.09.03-.2.04-.24.11-.06.08.02.16.1.1.06-.03.08-.15.12-.23.15-.12.75.36.46-.42-.22-.56.25-1.02.73-.77.62.33 1.06.27 1.39-.3.3-.52.14-1.43-.44-1.71-.73-.36-.57-1.4-1.4-1.58.5-.68.11-.76-.5-.88-.34-.06-.33-.88-.02-1.3.23-.3.47-.22.84-.12.86.24 1.03 1.2 1.78 1.52.12.06.06.15-.02.27-.23.32-.24.56.23.7 1 .33 1.62 1 1.84 2.06.08.4.27.87.56 1.13.61.57.56 1.08.2 1.74a9.37 9.37 0 0 1-1.66 1.95c-.87.8-2.06 1.03-3.03 1.65-.19.12-.64.1-.78-.04-.47-.47-.91-.69-1.52-.26-.1.06-.34 0-.46-.09-.25-.15-.2-.75-.66-.5-.33.16-.1.61-.19.9-.18.62-.63 1.12-.69 1.8-.02.23-.35.2-.56.23-.13.01-.24 0-.27.24-.2 1.3-.38 1.53-1.41 2.06-.1.05-.24.06-.28.14-.68 1.25-1.85 2.02-2.9 2.9-.24.2-.07.53-.2.76-.3.57-.76.62-1.4.6-.46-.01.19 1.06-.64 1.27-.91.24-1.44 1.11-2.27 1.52-.48.25-.8.85-1.51.44-.25-.15-.44.27-.68.37-.38.16-.67.78-1.24.31-.07-.06-.31.03-.44.12-.17.12-.33.29-.46.46-.44.56-.92.2-1.44.17-.46-.03-.72 1.07-1.28.8-1.18-.54-2.08.1-3.01.5-.48.21-.35-.18-.5-.26a4.43 4.43 0 0 0-2-.54c-.78 0-1.65-.71-1.88-1.53-.1-.36-.41-.63-.39-1.06.02-.3-.38-.64.23-.8.22-.06.2-.46.1-.6-.31-.45-.05-.55.3-.75.3-.18.77-.2.81-.7.7-.14.62-.7.54-1.16-.07-.37-.34-.72.33-.63.47.07.78-.36 1.23-.34.35 0 .46-.22.46-.53 0-.5.43-.56.69-.42.6.31 1 .02 1.38-.32.21-.18.4-.36.7-.38.49-.02 1.03.7 1.33.22.35-.54.76-.46 1.2-.6.4-.13 1.02-.15 1-.86-.03-.39.29-.4.57-.4.62-.01 1.06-.22 1.08-.94 0-.38.31-.4.58-.38.5.06.88-.12 1.01-.6.08-.3.33-.44.44-.67.35-.7 1.54-.58 1.57-1.53.03-.83.92-1.1 1.04-1.86.1-.52.65-.34.98-.26.39.09.54.54.49.86-.11.68-.36 1.32-.52 1.99-.06.25-.2.33-.4.43-.43.21-.82.44-1.1.88-.15.22-.66.22-.4.66.26.42.78.54 1.15.32.09-.05.2-.12.25-.2.54-.95 1.51-1.27 2.38-1.78.66-.4 1.6-.47 1.87-1.41.15-.52.78.6.94-.29.07-.36.56-.66.88-.95.4-.36.54-.7.02-1.05-.75-.5.09-1.15-.14-1.74-.05-.12.21-.56.18-.9-.02-.15-.1-.3-.15-.44l-.26.2c-.17.14-.37.25-.52.4-.44.45-1.07-1.03-1.46.16-.22.69-1.07.4-1.5.86-.36.4-.93.5-1.38.9-.76.65-1.96.44-2.84 1-.4-.47-.74-.1-1.15.02-.57.16-1.42-.78-1.29-1.34.04-.16 1.3-1 1.42-.88.45.42.77-.18 1.2-.07.46.13.6-.17.69-.63.08-.4.34-.86.93-.54.16.1.29.13.34-.08.16-.58.64-.58 1.1-.77.94-.41 2.1-.57 2.6-1.7.03-.1.17-.2.24-.19.95.24 1.1-.69 1.6-1.09.08-.07.15-.17.25-.22.78-.43 1.53-.82 1.64-1.9.05-.54.63-.65 1.4-.5.4.08.8.1.78-.5-.01-.53.52-.6.79-.68.48-.14.85-.31 1.13-.73.06-.09.39-.16.3-.21-.52-.36-.42-1.1-.9-1.44-.22-.16-.49-.27-.6-.51-.23-.48-.29-1.23-.64-1.41-.43-.22-.88-.38-1.22-.73-.35-.36-.99-.48-.93-1.18.02-.16-.26-.34-.41-.49a2.5 2.5 0 0 1-.92-1.73c-.05-.34-.29-.56-.46-.55-.92.05-1.02-.56-1.19-1.24-.2-.88-.5-1.7-1.2-2.4a4 4 0 0 1-.8-1.53 8.6 8.6 0 0 0-1.19-2.31 1.47 1.47 0 0 1-.18-1.42c-.64-.13-.87-.58-.88-1.2-.94-.39-.7-1.36-.9-2.06-.16-.5-.27-.95-.68-1.23-.6-.41-.66-1.1-.93-1.67-.21-.44.13-1.14-.65-1.33-.06-.02-.13-.31-.1-.45.17-.7.42-1.36-.5-1.8-.34-.17-.25-.74-.08-1.07.14-.29.19-.45-.09-.64-1.22-.84-1.5-2.16-1.62-3.49-.09-.9.06-1.84-.53-2.65-.18-.25-.23-.57-.12-.78.35-.64-.05-1.24 0-1.82a3.92 3.92 0 0 0-.44-2.03c-.3-.64 0-1.47-.7-1.94-.16-.1-.15-.25-.02-.4.81-.88.22-1.86.03-2.73-.1-.47-.17-.94-.23-1.41-.08-.7-.04-1.41-.1-2.1-.05-.64.08-1.36.1-2.04 0-.58.1-1.17-.24-1.75-.17-.3-.16-.78-.05-1.12.49-1.45.35-2.89.12-4.34-.02-.1-.13-.2-.01-.26.9-.49.18-1.14.16-1.71-.01-.36-.31-.45-.55-.2-.17.18-.16.5-.52.52-.48.03-.8-.32-1.2-.47-.24-.09-.29-.42-.4-.67-.15-.34-.43-.66-.8-.15-.47.63-1.29.8-1.78 1.42-.36.45-.92.17-1.4.18-.08 0-.24-.14-.23-.19.14-.66-.3-1.06-.67-1.49.57-.4-.1-.97.23-1.43.1-.15.08-.42.07-.63-.01-.16-.08-.3-.13-.46-.12.1-.33.17-.36.28-.29 1.15-1.57 1.28-2.14 2.13-.11.17-.27.08-.4-.03a6.34 6.34 0 0 1-1.92-3.27 1.47 1.47 0 0 1-.02-.5c.12-.88.03-1-.8-1-.32 0-.63.08-.93-.18-.27-.23-.45-.1-.58.23-.26.61-.7.85-1.3.43-.28-.2-.52-.16-.7.09-.35.48-.86.47-1.34.44a6.59 6.59 0 0 0-3.57.82c-.31.17-.6.23-.92.05-.12-.07-.24-.3-.4-.08a2 2 0 0 1-1.82.9c-.2-.01-.17.35-.19.56-.03.34.42.5.28.9-.16.4-.08.99.08 1.27.09.14.29.36.26.4-.75.9.46 1.88-.1 2.75-.22.34.14.46.14.7.01.68.65 1.3.14 2.02-.17.25.1.23.22.28.43.16.4.6.28.83-.38.7.21 1.32.04 1.98-.07.31.16.51.36.7.31.3.4.66.16 1.03-.15.24-.02.36.05.56.17.54.77.9.51 1.67-.16.5.22 1.17.23 1.76 0 .66.1 1.27.33 1.88.47 1.25.43 2.61.94 3.86l.53 1.3c.4 1.04.89 2.08 1.12 3.17.1.52.57.94.42 1.52.64.34-.03.85.17 1.27.69 1.43.87 3.08 1.84 4.36.37.5.55 1.02.8 1.56.6 1.28.96 2.67 1.76 3.87.19.28.41.64.36 1.06-.03.26-.02.63.26.72.76.24.83.97 1.01 1.51.14.43.27.8.6 1.1.3.27.32.66.47.99.44.99.52 2.18 1.43 2.94.2.18.5.44.47.63-.13 1.09.57 1.81.99 2.68.17.36.3.62.65.78.14.07.33.24.33.36-.05.89.4 1.34 1.22 1.57.14.04.3.36.28.55-.07 1.2 1.06 1.86 1.3 2.92 1.17.53 1.55 1.64 2.07 2.7.24.48 1.26.62.58 1.5-.03.03.13.3.24.34 1.28.4 1.36 1.7 1.98 2.58.52.73.66 1.72 1.6 2.14.11.05.14.28.22.42.45.7.87 1.38 1.52 1.94.57.49.37.93-.36 1.06-.2.04-.42.06-.62.12-.48.14-.9-.1-1-.45-.35-1.15-1.17-1.91-1.95-2.73a19.15 19.15 0 0 1-2.24-2.77l-1.79-2.83c-.6-.93-1.55-1.65-2.2-2.6-.17-.27-.52-.45-.45-.82.14-.69-.11-1.14-.75-1.4-.07-1-.92-1.34-1.54-1.9-.52-.47-.52-1.15-.67-1.76-.08-.31-.02-.57-.42-.77-.61-.32-1.3-.75-.72-1.66-.3-.49-.53-1.03-.9-1.45-.4-.47-.93-.84-.41-1.53-.28-.5-.46-1.03-.71-1.52-.91-1.74-1.98-3.38-2.53-5.32-.18-.64-.8-1.21-1.34-1.69a2.36 2.36 0 0 1-.64-1.04c-.4-.98-.6-2.07-1.38-2.87-.35-.38-.24-.89-.4-1.33-.06-.13.08-.28-.2-.4-.59-.24-.87-.69-.46-1.3.14-.2.01-.27-.06-.4-.26-.54-.55-1.07-.47-1.7-.67-.21-.47-.9-.72-1.27-.25-.38-.48-.75-.7-1.15a4.53 4.53 0 0 1-.55-2.34c0-1-.03-1-.89-2.57-.17-.32-.41-.82-.28-1.02.35-.55.05-.8-.28-1.1-.23-.21-.3-.59-.17-.75.46-.53.18-.81-.15-1.24-.57-.74-.49-1.45-.63-2.82-.08-.78.04-1.73-.65-2.4-.32-.32-.32-.68-.08-1.04.39-.56.3-1.27.1-1.75-.43-1.09-.16-2.12-.15-3.19 0-.69 0-1.44-.32-2.11-.16-.36-.27-.71.25-.93.4-.17.12-.27-.08-.33-.27-.08-.32-.31-.27-.52.2-.83.28-1.64.02-2.5-.14-.47.24-.75.69-.95.41-.19.37-.42-.06-.66-.5-.27-.91-.24-1.5-.09-.75.2-1.47.95-2.37.45-.04-.02-.13-.02-.15.01-.84 1.03-2.2.28-3.18.92-.42.27-1.02-.23-1.62.01-.52.21-.88 1.07-1.55.63-.56-.36-1.13.51-1.6-.14-.72.4-1.62-.23-2.31.4-.1.1-2.42.28-2.62.3-.35.05-.79.02-1.02.21-.67.56-1.6.3-2.27.8-.2.15-.42.2-.58 0-.43-.58-.76-.35-1.12.07-.25.29-.53.59-.96.22-.24-.2-.3.11-.28.17.4.78-.91 1.24-.36 2.02-.84.92-1.28 2.1-1.98 3.1-.23.32-.86.36-1.3.53-.04-.08-.05-.2-.12-.24-.09-.05-.16.02-.11.1.04.07.16.09.24.12a5.17 5.17 0 0 1-3.32 1.35c-.39 0-.28.25-.08.4.55.39.3.77.1 1.25-.15.32-.59.26-.59.46 0 .23.27.45.23.75-.03.27.03.54-.19.77-.71.77-.64 2-1.56 2.67-.35.25.38.64-.07.96-.32.22-.5.52-.5.97.03.63-.26 1.19-.73 1.56a4.45 4.45 0 0 0-1.57 2.9c-.03.23-.12.4-.21.6-.25.46-1.34.42-.81 1.33-.48.4-.62.97-.8 1.55-.08.3-.25.7-.5.8-.55.22-.74.54-.67 1.1.01.15-.07.4-.16.44-.95.35-.83 1.4-1.35 2.03a4.32 4.32 0 0 0-1.13 2.17c-.05.43-.4.64-.66.9-.23.23-.23.4-.07.68.16.3.04.6-.14.92-.56.95-1.05 1.97-1.64 2.9-.43.68-.34 1.56-1.05 2.14-.42.35.36.84.19 1.34-.16.46-.9.32-.9.83.02 1.26-.73 2.16-1.3 3.16-.15.26-.53.61-.07.98.04.04 0 .28-.04.3-1.16.38-.68 1.87-1.63 2.38-.25.13-.05.37-.08.5-.37 1.36-.59 2.76-1.62 3.9-.67.75-.78 1.94-1.49 2.76.52.92-.06 1.72-.52 2.32-.52.7-.48 1.7-1.33 2.17-.1.06-.2.34-.16.4.6.82-.1 1.26-.45 1.83-.28.46-.81.86-.34 1.58.25.37-.23.63-.58.8-.1.05-.43.18-.17.25.62.16.56 1.08 1.13 1.04.92-.08 1.32.67 1.97.99.42.2.67.56 1 .82.3.22.65-.12.98.17.18.16.5.23.63.48a2.72 2.72 0 0 0 2.58 1.55c.14 0 .41.1.41.17.01.75.8.81 1.16 1.26.52.64 1.26 1.24 2.23 1.2h.16c.38.1 1.88 2.36 1.78 2.7-.04.15-.18.27-.28.4-.12.15-.23.12-.4.03-.55-.34-1.08.54-1.77-.07-.7-.6-1.5-1.2-2.49-1.38-.03-.08-.05-.2-.1-.24-.1-.06-.17.02-.11.1.04.06.16.08.24.12-.05.2-.05.44-.17.6-.3.47-.54.9-.2 1.45.08.11.09.37 0 .48-.64.9-.08 1.6.34 2.35.32.59.19 1.14-.41 1.36-.35.14-.6.2-.58.61.02.26-.16.35-.4.43-1.03.37-1.42 1.28-1.53 2.23-.07.57-.34.73-.73.91-1.38.63-2.7.85-3.8-.54-.33-.4-1.06-.37-1.16-1.06-.03-.25-.29-.22-.52-.14-.65.2-1.3-.1-1.37-.65-.09-.66-.48-.95-.82-1.36-.15-.17-.31-.4-.2-.59.43-.7-.37-1.46.14-2.13.09-.12.1-.25 0-.24-.62.09-.98-.75-1.5-.53-.9.38-1.64-.1-2.28-.43-.66-.34-1.34-.7-1.98-1.1-.18-.1-.4-.18-.53-.35a4.18 4.18 0 0 0-1.67-1.41c-.42-.19-.76-.79-.95-1.27-.27-.7-.86-.98-1.43-1.23-.93-.4-1.96-.6-2.14-1.87-.03-.22-.35-.38-.6-.5-.61-.3-1.1-.71-.98-1.53.07-.47-.45-.38-.64-.6-.34-.38-1-.66-.41-1.33.1-.1.08-.39-.1-.42-.9-.17-.83-1.38-1.77-1.57-.37-.07-.54-.64-.3-.98.37-.5.1-.72-.17-1.11-.68-1.01-1.38-2.06-1.22-3.39.05-.37-.17-.6-.38-.86-.09-.1-.34-.22-.14-.37.48-.37.4-.99.72-1.42.57-.8 1.89-.85 2.73-.07.44.4.72 1 1.45.9.34-.05.23.28.31.44.31.58.6 1.03 1.38 1.2.53.12 1.36.52 1.2 1.46-.03.18.11.4.23.38 1.14-.23 1.02 1.08 1.77 1.44.66.3 1.59.55 1.79 1.5.57.07.78.72 1.37.84.36.08.72.3.93.77.22.5.82.7 1.36.77.75.1 1.47.26 2.06.76.34.29.71.23 1.09.22.38 0 .48.29.71.48.54.46-.21.93.15 1.32 0 0-.12.17-.18.17-.5 0-1.2.2-1.45-.05-.81-.83-2.15-.43-2.87-1.37-.2-.27-.36-.03-.5.1-.18.15-.07.3.05.39.63.5 1.08 1.23 2.04 1.34.53.06 1.08.5 1.47.92.43.45 1.03.6 1.44 1.05.33.38.4.08.49-.2.03-.07.2-.18.25-.16.87.33 1.74-.27 2.62.07a7.3 7.3 0 0 1 2.34 1.35c.32.3.48.58.1.96-.2.19-.42.37-.4.69.05.9-.75.63-1.19.78-.69.25-1.53-.29-2.18.38-.05.06-.24.05-.31 0-.37-.25-.81-.27-.86.17-.03.35.45.49.88.52.64.04 1.34-.1 1.88.55a.7.7 0 0 0 1.16-.36c.2-.54.68-.97 1.03-1.45.22-.29.38-.32.77-.13.53.26 1.1.7 1.83.24.42-.27.62.3.82.55.22.28.23.74.69.2.9-1.07.72-1.95-.65-2.55-.34-.14-.6-.2-.59-.6 0-.15-.03-.41-.2-.29-.64.45-.85-.15-1.23-.4a6.25 6.25 0 0 1-1.57-1.58c-.44-.58-.9-1.3-1.85-1.15-.06 0-.15.01-.16-.01-.7-1.26-2.34-1.24-3.16-2.36-.28-.39-.6-.65-.1-1.08.16-.13.38-.4.33-.53-.32-1.11.57-1.91.75-2.91.11-.67.6-1.33.94-1.99.57-1.08 1.2-2.12 1.35-3.4.04-.28.2-.74.6-.9.33-.13.43-.33.22-.61-.25-.33-.17-.55.06-.86.52-.67 1.18-1.28 1.1-2.27-.02-.2.33-.41.5-.62.15-.16.44-.36.42-.5-.25-1.16.71-1.85 1.02-2.8.33-.94.8-1.83 1.24-2.73.17-.36.35-.68.63-.93.38-.35-.36-.65 0-1.01.12-.13.01-.49.14-.61.91-.9.9-2.3 1.75-3.23l.2-.26c.44-.62-.16-1.53.58-2.07.69-.5.6-1.41 1.09-2.02.13-.17.29-.38.3-.57.01-.64-.09-1.3.66-1.63 0-.63.47-1.07.67-1.62.4-1.02 1.23-1.86 1.34-3 .03-.31.21-.51.43-.68.48-.37.68-.83.58-1.43-.06-.38.14-.53.48-.71.5-.28.46-.34.75-1.35.1-.4.18-.71.58-1.03.55-.46.88-1.2 1.29-1.83.1-.18.21-.42.18-.6-.14-.77.29-1.25.8-1.7.7-.6.65-1.72 1.52-2.21-.27-1.24 1.19-1.89 1.05-3.14-.06-.57.79-.8 1-1.43.18-.5.32-1.06.88-1.43.45-.32.17-1.03-.35-.88-1.04.29-1.54-.44-2.25-.83-.57-.32-.93-.92-1.58-1.13-.25-.09-.37-.36-.41-.66-.12-.95-.17-1.94-.91-2.68.16-.72-.85-1.5.1-2.2.24-.18.15-.5.16-.77.02-.55-.06-1.1.47-1.5.1-.08.2-.34.15-.42-.25-.4-.2-.9-.06-1.22.2-.44.83-.46 1.23-.71.71-.45 1.5-.77 2-1.53.28-.42.84-.65 1.28-.96.15-.1.35-.13.45 0 .47.64 1.13.57 1.8.56.87-.01 1.72.03 2.16 1.02.19.42.67.25 1.04.33.83.18 1.03.45 1.06 1.3.02.47-.16 1.05.65 1 .2 0 .32.13.31.3 0 .44.17.74.54.94.37-.58 1 .22 1.4-.27.43-.51 1.16.34 1.55-.33.35-.6 1.06-.13 1.49-.5.25-.21.48-.2.73.02.27.24.53.14.7-.1.34-.55 1-.32 1.44-.68.18-.15.58-.13.73.15.14.25.14.52.5.18.61-.62 1.4-.68 2.24-.76.78-.07 1.5.4 2.32.06.67-.3 1.45-.24 2.15-.6.65-.31 1.53.15 2.2-.4 1.12.2 2.08-.46 3.12-.65.4-.08.7-.59 1.2-.15.14.14.23-.16.19-.27-.3-.68.14-1.33.03-1.99-.08-.48.2-1.1-.54-1.36-.25-.09-.2-.5-.05-.74.33-.5.41-1.01.02-1.5-.34-.43.5-.9-.08-1.3.23-.36.23-.66-.15-.93-.2-.13-.25-.35-.13-.57.54-.99.3-2.07.18-3.06-.08-.66.01-1.28.17-1.81.15-.49.19-.95.24-1.42.05-.47-.25-.99-.16-1.37.14-.5.2-.99.13-1.45-.26-1.52.44-2.85.71-4.27.07-.4.46-.6.74-.85a.3.3 0 0 1 .43.01c.07.07.09.19.1.29.07.56-.4.98-.35 1.56.03.32-.3.66.13.94.1.07.22.2.08.4-.36.54-.07 1.18-.18 1.76-.28 1.44-.3 2.9-.38 4.35 0 .14-.2.36-.16.4.46.45.84.9.3 1.55.52.45.02 1.18.5 1.65.17.19.03.4-.12.59-.78.86-.46 1.78-.19 2.72.2.7.65 1.41.24 2.18-.19.35.2.54.2.87 0 .55.52 1.02.04 1.67-.36.47.35.97.3 1.54-.02.2.32.3.53.23.44-.16.97-.63 1.27-.5.47.18.96-.55 1.29.12.74-.84 2.04-.26 2.79-1.08.16-.18.38-.18.6-.18.6 0 1.18 0 1.74-.3.2-.12.63-.12.78.02.58.5.89.12 1.23-.27.3-.35.57-.56 1.1-.22.35.23.77-.15.84-.68.06-.5-.2-1.13.57-1.31-.42-.6.31-.79.45-1.19.16-.52.72-.75 1.08-1.12.42-.43.7-.89 1.37-.97.09-.01-.14-.62.45-.6.33.01.8-.23.96-.5.19-.34.45-.61.68-.9.07-.1.14-.2.24-.24 1.76-.72 3-2.2 4.56-3.21.09-.06.22-.05.3-.1.33-.23.83-.54 1-.22.16.29.07.95-.36 1.2-.81.48-1.08 1.53-2.03 1.88-.44.17-.45.72-.64 1.09-.23.43-.48.72-1 .68-.47-.04-.78.13-.67.64.1.51-.22.88-.44 1.18-.4.52-.86.96-1.18 1.56-.32.6-.9 1.06-1.36 1.58-.09.09-.38.03-.18.3.48.64-.03 1.15-.31 1.61a4.35 4.35 0 0 0-.7 2.44c.03.43-.02.8-.22 1.12-.21.32-.12.48.1.67.2.15.38.2.59.02.5-.46 1.17-.8 1.43-1.45.36-.89 1.17-1.48 1.54-2.31.3-.66.73-.4 1.09-.37.45.06.3.51.3.81-.01.48.1 1.01-.4 1.36a.45.45 0 0 0-.2.26c-.03.38-.16.81-.02 1.13.29.68-.35 1.44.27 2.09.33.33.87.37.94-.1.08-.48.44-.55.68-.8.88-.94 1.73-1.92 2.33-3.07.21-.41.48-.44.77-.35.33.1.24.44.26.7.04.55-.03 1.07-.34 1.56-.23.36-.44.76-.35 1.22.05.26-.1.62.21.74.34.13.36-.25.54-.42.44-.43 1.16-.47 1.5-1.14.08-.18.22-.2.2-.52 0-.37.43-.73.87-.86.73-.2 1.26.2 1.31 1 .03.32.01.65.02.98-.09.05-.21.07-.25.13-.06.09.03.18.13.13.06-.04.08-.16.12-.25.21 0 .45.07.6-.14.49-.7.67-1.57 1.24-2.22-.4-.92.36-1.31.84-1.81.16-.17.27-.3.07-.53-.17-.2-.1-.41.06-.58.38-.4.99-.72.53-1.43.56-.46.5-1.31 1.03-1.76.6-.5.61-1.23.9-1.85-.6-.4-1.13-.91-1.91-1.06-1.32-.26-1.33-.28-1.93-.9-.35-.37-.7-.66-1.26-.63-.5.02-.82-.3-.82-.81 0-.4-.25-.7-.51-.78-1.39-.4-1.82-2.02-3.25-2.43-.92-.25-.89-1.39-1.3-2.12-.24-.4-.27-.55.22-.85 1.03-.61 1.6-1.8 2.72-2.33.17-.72 1.16-1.25.47-2.16-.08-.1-.07-.42.01-.48.55-.37-.17-.8.13-1.3.4-.65.63-1.47.5-2.3-.01-.15.04-.44.11-.46.74-.17.16-.64.24-.94.13-.43-.39-.95-.1-1.13.76-.47-.1-.53-.13-.78-.04-.3.2-.35.3-.5.15-.23.31-.41.1-.72-.43-.66-.08-1.4-.17-2.1-.04-.26 0-.53.38-.57.4-.05.65.12.82.42.25.42-.05 1 .4 1.38-.58.65.15 1.17.2 1.76.02.2.2.36.1.6-.26.8-.54 2.24-.2 2.8.43.73.06 1.3-.28 1.57-.8.63-.06 1.2-.1 1.77 0 .19.24.2.33.05.26-.41.93-.36 1.04-.95.03-.13.22-.34.33-.34.98.01 1.36-.48 1.43-1.43.02-.3.49-.36.83-.39.92-.09 1.66-.45 2-1.4.11-.3.36-.58.73-.56.42.03.49-.27.69-.53.28-.37.54-.85 1.14-.83.14 0 .38-.09.42-.2.35-1.02 1.54-1.31 1.94-2.28.04-.1.04-.27.11-.3 1.07-.44 1.61-1.45 2.38-2.2.76-.75 1.5-1.5 2.42-2.08.82-.5.88-1.53 1.36-2.28.17-.27.35-.45.57-.67.86-.9 1.66-1.87 2.52-2.77.35-.36.03-.54-.15-.6-1.37-.44-2.09-1.65-3.1-2.5-.13-1.26-1.71-1.87-1.48-3.28-.76-.4-.87-1.27-1.37-1.87-.74-.9-1.58-1.75-1.63-3.07-.02-.47-.31-1.08-.88-1.29-.56-.2-.74-.55-.74-1.12 0-.67-.6-1.23-.44-1.94.07-.28-.12-.21-.25-.26-.47-.19-.65-.54-.6-1.03 0-.16 0-.4-.1-.46-.44-.3-.4-1.18-1-1.07-.5.09-.1.78-.26 1.15-.39.9-.23 1.94-.7 2.76-.28.49.22.87-.1 1.31-.27.37-.3.9-.52 1.32-.69 1.4-.73 2.98-1.36 4.38-.16.37-.3.68-.27 1.08.02.21 0 .59-.1.61-1.24.39-.7 1.71-1.31 2.41-.15.17-.34.4-.19.57.55.65.14 1.05-.23 1.57-.26.37-.44.82-.52 1.33-.1.65-.15 1.4-.75 1.88-.26.22-.17.45-.04.72.22.5.47 1.02-.3 1.34-.29.12-.27.51-.19.74.29.8-.8 1.53-.1 2.34.03.02-.23.37-.4.43-.24.1-.54.04-.8.07-.5.06-.95-.25-1.4-.28-.43-.03-.68.56-1.24.65-.62.11-1.16.5-1.82.05-.37-.25-.67.13-.76.4-.15.45-.27.43-.66.22-1.34-.7-2.72-.16-4.09-.03-.17.02-.25.14-.31.32-.18.53-.8.43-.96.3-.76-.7-1.22-.43-1.63.33-1.03.17-2.02 1.23-3.1.14-.13-.13-.3-.12-.45-.04-.33.16-.8.58-.96.48-.88-.54-1.86.04-2.72-.33-.14-.06-.2-.16-.41-.09-.48.17-.78.64-1.22.74-.39.1-.63-.5-1.25-.35-.62.15-1.35.14-2.05-.18-.66-.3-1.02-.47-1.08-1.1-.05-.6-.02-1.22-.03-1.83 0-.26-.14-.44-.4-.36-.37.12-.03.3 0 .46.02.04-.04.1-.08.13-.42.44.12.96-.05 1.3-.17.35-.74.46-1 .78-.55.7-1.06 1.4-1.84 1.89-.28.18-.43.6-.56.95-.12.34-.33.72-.62.69-.96-.1-.44.65-.62.97-.03.05.13.19.12.26-.13.68-1.29.13-1.24 1.02.04.76-.4.87-1.03 1.15-1.03.45-1.78 1.4-2.57 2.22-.37.4-.66.87-1 1.29-.42.51-.85.93-1.53 1.2-.97.4-1.81 1.1-2.7 1.69.07.76-.81.65-.97.98-.34.76-.91.42-1.38.5-.2.04-.34.14-.33.29.07.9-.72 1.11-1.25 1.29-1.05.34-1.9 1.22-3.15 1.11-.24-.02-.75.16-.92.54-.25.58-.53.95-1.2.44-.19-.15-.4.06-.58.18-.22.15-.52.22-.68.4-.46.55-.95.13-1.42.19-.33.04-.59.7-.88 1.08a.4.4 0 0 1-.13-.03c-.66-.6-1.21.26-1.84.13-.43.76-1.1.3-1.68.31-.43.01-.84-.04-1.28.2-.52.29-1.07.8-1.76.17-.2-.17-.5.16-.71.3a6.38 6.38 0 0 1-3.98.96c-.72-.02-1.5.21-2.13-.03-.66-.25-1.37.46-1.91-.25-.9.22-1.81.36-2.75.3-.59-.04-1.18.17-1.73-.28-.2-.17-.7-.15-.96-.02-.77.4-1.32.22-1.77-.48-.18-.28-.47-.23-.75-.2-.71.09-1.4-.54-2.15-.01-.17.12-.41-.07-.56-.24-.24-.28-.4-.32-.79-.13-.34.17-.88.2-1.2-.22a.95.95 0 0 0-1.02-.38c-.66.16-.95-.49-1.43-.61-.42-.11-.86.4-1.38.28-.3-.06-.45-.29-.66-.46-.89-.72-1.82-1.34-3.06-1.2-.53.07-1-.09-1.3-.54-.58-.86-1.7-.95-2.38-1.66-.24-.26-.51.15-.71.13-.72-.1-1-.91-1.58-1.18-.6-.27-1.38.08-1.95-.58-.56-.63-1.49-.88-1.8-1.79-.08-.25-.37-.35-.69-.33-1.31.09-1.17-1.42-2-1.86.54-.75.03-.8-.54-.77-.31.02-.5-.16-.7-.35-.47-.43-.8-1.03-1.6-1.02-.25 0-.6-.35-.53-.73.13-.86-.44-1.16-1.08-1.41-.53-.21-.94-.47-.96-1.14a.65.65 0 0 0-.66-.62 1.58 1.58 0 0 1-1.24-.63c-.21-.28-.64-.7-.14-1.14-.43-.52-.8-1.1-1.31-1.52-.48-.4-.6-.84-.75-1.41-.26-.95-.7-1.88-1.7-2.35-.29-.13-.6-.26-.84-.47-.43-.36-.85-.78-.44-1.4.3-.45.17-.81-.12-1.18-.83-1.03-1.19-2.31-1.85-3.44-.38-.64-.6-1.37-1.2-1.9-.6-.56-.26-1.37-.27-2.05-.02-.9-.17-1.9-.6-2.43-.1-.13-.25-.23-.33-.37-.23-.41-.4-.84-.06-1.3.3-.37.4-.66-.02-1.11-.4-.43-.72-1-.34-1.7.2-.37-.32-.71-.28-1.04.06-.62.04-1.14-.33-1.7a1.9 1.9 0 0 1-.21-1.2c.07-.34.22-.56-.1-.83-.58-.51-.55-1.02.02-1.52.05-.04.11-.1.1-.12-.15-.43-.4-.85-.46-1.3-.05-.42.82-.62.55-1.06-.4-.66-.28-1.09.21-1.57.26-.26.17-.59.05-.91-.17-.45-.7-.83-.53-1.32.16-.43.11-.76-.01-1.16-.21-.63.7-.77.66-1.4-.03-.47-.2-1.05.15-1.43.76-.81.68-1.62.23-2.54-.16-.34-.1-.72.44-.87.64-.17.92-.59.84-1.32-.07-.65.18-1.31.02-1.99-.07-.3.06-.61.32-.97.41-.58.68-1.31 1.12-1.92-.43-1.17 1.03-2 .57-3.2-.14-.35.22-.6.47-.8.61-.47.95-1.02.8-1.84-.1-.51.07-.83.7-.8.66.04.95-.17.67-.96-.26-.7.46-1.01.96-1.34.03.08.04.2.11.24.09.05.17-.03.11-.11-.04-.06-.16-.08-.24-.12.02-.83.89-1.31.83-2.22-.02-.28.45-.73.97-.75.52 0 .78-.3.85-.8.01-.16.06-.33.13-.47.24-.46 1.2-.43 1.06-.85-.17-.51-.03-.78.13-1.18.1-.26.32-.4.47-.28.5.41.63-.1.9-.28.42-.3.28-.8.48-1.18.38-.73.75-1.35 1.6-1.64.99-.33 1.6-1.17 2.18-1.99.16-.23.3-.47.57-.55.87-.3 1.19-.44 1.53-1.03.27-.45.44-.9 1.07-.42.04.03.44-.3.45-.6.02-.69.36-1 1.05-.96.1.01.25.04.32-.02 1.1-.93 2.54-1.34 3.66-2.24.47-.38.9-.84 1.46-1 .52-.14.87-.88 1.56-.48.06.04.26-.12.37-.21.34-.29.56-.83 1.16-.39.15.1.24-.13.35-.25.37-.48.75-.99 1.44-.45.42-.34 1.06-.14 1.43-.63.3-.38.74-.55 1.22-.72.5-.17.74-.45 1.32-.05.41.29 1.1-.16 1.58-.44.32-.19.57-.51.83-.8.2-.21.53-.38.73-.23.59.46 1.1.03 1.64-.05.76-.1 1.46-.44 2.3-.13.47.17 1.18-.02 1.72-.34.4-.24 1-.39 1.2-.02.5.94.8.28 1.18-.03.45-.38 1.23-.48 1.71-.1.34.25.57.47.95.06.52-.56 1.06-.82 1.74-.15.18.17.63.1.95.09.72-.02 1.46-.1 2.03.4.42.36.78-.32 1.17.07.31.31.67.18 1.05-.01.54-.27 1.07.1 1.45.35 1.1.7 1.11.5 2.51.7 1.15.17 2.55-.17 3.46.88.3.34.58-.2.81.14.15.23.39.39.6.57.07.07.23.18.25.16.88-.73 1.4.58 2.18.37.87.62 1.85.77 2.89.66.59.59 1.67.42 2.02 1.43.26.77 1.17.66 1.8.85.42.13.89.15 1.1.56.3.56 1.1.22 1.32.8.21.56.67.64 1.16.74.2.05.41.23.5.42.31.66.79.95 1.52.83.23-.03.4.07.48.34.11.38.35.72.8.66.8-.11.2 1.04 1 1.01.45-.01.92.27 1.27.6.08.08.2.19.2.27-.03.53.2 1.13.53 1.28.45.21.81.4 1.06.83.1.19.32.25.55.3.6.1.92-.05.85-.6-.19-1.5.4-2.9.35-4.37-.02-.27.06-.45.3-.68.68-.6 1.22-1.36 1.88-2 .32-.3.54-.7.7-1.07.56-1.31.58-1.38 1.78-2.18.18-.12.46-.24.5-.4.15-.88.78-1.03 1.5-1.34.64-.28 1.07-1.04 1.65-1.53.6-.51 1.06-.37 1.6-.05 0 .11 0 .21-.02.32-.08.5-.93.37-.84.8.1.56.87-.07 1.15.4l.04.16c-.7.04-.89.85-1.5 1.02-.15.88-1.2.54-1.57 1.18-.39.65-1.16 1.04-1.29 1.89-.04.24-.32.5-.6.48-.5-.03-.57.32-.8.62-.44.55-.75 1.19-1.28 1.67-.26.24-.39.63-.54.97-.04.07.04.2.07.3.08-.04.18-.04.25-.09.37-.25.34-.8.76-1.03 1.6-.85 2.68-2.31 4-3.5.3-.26.52-.65.93-.78.69-.22.72-1.18 1.5-1.27-.38-.51.3-.99.06-1.5.1-.03.25-.05.25-.1a3.8 3.8 0 0 0-.66-1.62Zm1.34 34.36c-.07.03-.19.05-.23.1-.06.1.02.18.1.12.06-.04.07-.16.1-.24.14-.01.3-.02.26-.21-.02-.06-.16-.07-.25-.11-.19-1.42.36-2.77.35-4.17 0-.1.03-.28.09-.3.93-.39.44-1.2.55-1.83.3-.01.68.1.66-.41 0-.05-.03-.12-.07-.13-.33-.06-.38.26-.54.42-.03.03-.02.1-.03.15-.16-.01-.33 0-.49-.04-.14-.04-.3-.23-.4-.18-.15.06-.16.32-.04.41.6.5-.17.87-.1 1.32.09.5-.01.8-.66.82-.47.03-.69.36-.33.9.27.39.32.88.37 1.38.05.58.12 1.23.64 1.65.02.12.02.24.02.35Zm-8.61-21.5c.16-.01.29-.09.31-.26.01-.08-.02-.24-.08-.26-.2-.07-.2.11-.2.24v.3c-.1.04-.2.06-.24.12-.06.09.02.16.1.1.06-.04.07-.16.1-.24Zm-70.07 165.9c-.04-.08-.05-.2-.11-.24-.08-.06-.17.02-.11.1.04.07.16.08.25.12 0 .17.07.3.24.32.08.02.24-.02.26-.07.1-.22-.1-.21-.22-.22h-.3Zm72.4-166.86c-.42.06-.33.38-.34.65-.98.48-.84 1.45-.99 2.3 0 .07.09.18.14.27.06-.06.15-.11.18-.19.3-.77.88-1.47.66-2.38.63-.06.63-.06.33-.67.23.03.34-.09.34-.32.1-.03.21-.05.29-.11.17-.16.35-.28.57-.13.21.15.18.43.12.6-.13.36-.39.65-.52 1-.25.65-.62 1.22-.83 1.9-.37 1.14-.44 2.31-.6 3.47-.05.4-.67.72-.22 1.18.5.5-.3.85-.14 1.34.24.7 1.12-.04 1.32.65.03.1.08.22.16.27.07.06.21.08.3.05.17-.06.25-.28.16-.4-.34-.44-.22-.8-.09-1.33.22-.87.7-1.76.17-2.74-.18-.33 0-.86.04-1.29.1-1.39.65-2.71.6-4.13-.02-.28 0-.58.27-.73.58-.35.32-1.1.8-1.55.41-.42.57-1.1.84-1.65 1.31.05.24-.82.46-1.18.09-.14.2-.32.32-.37.68-.24.82-.94 1.23-1.4.3-.34.3-.9.85-1.09.3-.1 0-.26-.07-.34-.09-.1-.17-.34-.36-.15-.44.45-1.06.7-1.3 1.34-.16.42-.36.75-.86.89-.44.11.05.94-.64.95-.58.95-1.65 1.43-2.22 2.43-.17.3.15 1.14-.75.93-.18-.04-.2.31-.25.53-.06.42.22.72.34 1.07-.22-.02-.31.1-.31.33Zm29.73 185.35c.24-.1.37.5.63.1.05-.05.01-.24-.05-.29-.28-.23-.48-.15-.56.2-.1.05-.22.06-.27.13-.05.09.04.18.13.13.08-.05.09-.18.12-.27Zm-27.43-121.91c-.03-.08-.05-.2-.1-.24-.1-.06-.18.02-.12.1.04.06.16.07.24.12 0 .26 0 .52-.22.72-.13.1-.12.19.03.23.15.04.36.1.4-.08.1-.3.35-.71-.23-.85Zm10.91-54.53c-.27-.05-.52-.03-.73.22-.16.18-.25.3-.03.51.2.19.32.2.52 0a.86.86 0 0 0 .24-.73c.13-.09.3-.14.4-.25.07-.09.33-.2.08-.35-.14-.08-.35-.06-.42.12-.06.14-.04.32-.06.48Zm-3.98 4.28c.76-.3 1.03-.99 1.33-1.65.23 0 .35-.17.48-.32.05-.05.08-.2.06-.23-.12-.12-.33-.11-.4 0-.08.17-.08.39-.12.58-.94.15-1.14.9-1.32 1.66-.2 0-.42-.08-.57.12 0 .02.09.16.16.17.26.06.37-.1.38-.33Zm-4.27 48.9c.04.09.05.2.12.25.08.06.15 0 .1-.1-.04-.07-.16-.08-.24-.11 0-.33.05-.66.01-.99-.06-.64.13-1.3-.13-1.92-.43.62-.14 1.3-.19 1.96-.01.3-.28.79.33.92Zm27.08 121.27c.8.05 1.15-.72 1.8-.96.1-.04.16-.27.19-.42.04-.22.05-.47-.2-.55-.22-.07-.44 0-.44.3 0 .36-.1.57-.49.72-.37.16-.74.47-.83.94-.67.03-1.22.3-1.62.83-.05.07-.03.2 0 .3.03.16.1.16.22.07.3-.22.81.22 1-.37.09-.3.25-.57.37-.86Zm-100.14-12.2c.02-.43-.7-.25-.6-.62.2-.9-.53-1.16-1.02-1.44-.56-.31-1.13-.48-1.18-1.24 0-.09-.24-.17-.37-.25-.04.15-.09.3-.11.45-.15.87.56 1.3 1 1.84.6.69 1.27 1.32 2.3 1.24.21.68.75 1.76 1.1 1.9.73.25 1.09.88 1.62 1.35.36.32.6.75 1.2.76.47.01.91.46.93.81.05.96.6.7.93.39.55-.51.9.19 1.35.1.1-.02.25-.02.3-.08.18-.25-.1-.21-.2-.26-.24-.12-.5-.21-.72-.36-1.07-.67-2.49-.89-3.07-2.24-.48-.05-.65-.68-1.06-.69-.74-.02-1.09-.45-1.38-.98-.24-.43-.67-.48-1.02-.68Zm76.35-159.3c.45-.02 1.03.2 1.02-.62-.01-.3.27-.45.48-.63.67-.58 1.5-1.05 1.96-1.76a9.42 9.42 0 0 1 1.97-2.15c.73-.6 1.12-1.57 2.1-1.88.25-1 1.16-1.26 1.94-1.46.46-.12.64-1.03 1.32-.49.03.02.51-.32.43-.6-.16-.55-.38 0-.56.02-1.65.21-2.87 1.22-4.02 2.31-1.59 1.5-3 3.17-4.7 4.58-.82.68-1.29 1.8-1.92 2.7-.17.01-.3.1-.31.26-.02.1.02.25.08.27.22.08.18-.11.2-.23v-.31Zm-74.7 67.09c.54.02 1.05.02 1.57-.28.34-.2.38-.24.12-.5-1.25-1.31-2.5-2.64-4.16-3.42-.61-.28-.86-1-1.56-1.09-1.01-.12-1.63-.82-2.23-1.5-.9-1.06-1.79-2.1-3.18-2.54-.3-.1-.5-.39-.49-.78.01-.49-.25-.54-.62-.3-.18.13-.32.3-.5.43-.41.3-.44.6-.03.64.74.07.97.54 1.16 1.12a3.8 3.8 0 0 0 2.14 2.27c.18.1.44.03.5.3.16.72.88.72 1.34 1.06.5.37.65 1.08 1.34 1.32.65.23.96 1 1.7 1.18 1.24.3 2.01 1.3 2.91 2.11-.08.04-.19.05-.23.12-.06.08.02.16.1.1.07-.05.09-.16.12-.24Zm68.42-70.38c.41-.04.32-.35.34-.6.02-.33-.13-.75.16-.93.32-.2.41-.26.27-.66-.06-.2.25-.58.45-.82.29-.32.64-.6.96-.9.46.53-.24.86-.28 1.33-.05.46-.08 1.22-.69 1.57-.07.03-.14.2-.11.24.29.4.31.78 0 1.2-.28.4-.09.92-.34 1.4-.4.8.2 1.82-.35 2.68-.06.1.17.38.27.56.02.05.09.13.1.12.07-.04.2-.11.2-.15-.15-1 .36-1.9.4-2.88.05-1.1.47-2.17 1.3-3 .1-.08.35-.16.45-.1.2.11.22.31.08.55a9.7 9.7 0 0 0-1.18 3.27 13.54 13.54 0 0 0-.36 3.53c.01.15-.14.49.23.4.15-.03.47-.23.3-.45-.27-.33.05-.47.12-.69.03-.1.1-.19.13-.29.07.06.2.13.19.18-.09.44.48.85.04 1.3-.04.04.04.2.06.3.09-.03.2-.03.26-.08.08-.07.2-.17.2-.25 0-1 .7-1.84.74-2.75.06-1.2.8-1.78 1.51-2.48.28-.26.76-.52.78-.8.04-.74.5-.98 1.01-1.33.43-.29.79-.7 1.07-1.21.32-.59.78-1.3 1.34-1.5.75-.28 1.14-.8 1.59-1.32.44-.52 1.05-.92 1.73-1.44 1.08-.82 2.51-1.2 3.34-2.3a3.9 3.9 0 0 1 1.82-1.23c.53-.21 1.37-.23 1.6-.6.4-.66 1.12-.47 1.59-.99.59-.66 1.5-1 2.5-.78.9.19 1.73-.1 2.39-.7a2.4 2.4 0 0 1 1.93-.63c.38.03.87-.14 1.13.04.73.48.98-.55 1.58-.4.17.05.17-.19.04-.32-.41-.43-.8-.9-1.38-1.12.03-.96-1.02-1-1.39-1.64-.16-.27-.42-.2-.7-.02a10.52 10.52 0 0 1-6.36 1.8c-.52-.03-1 .47-1.37.24-.65-.39-1.3-.25-1.91-.21-.58.04-1.12-.29-1.67-.1-.69.25-1.1-.27-1.62-.5-.33-.14-.5.03-.73.2-.18.12-1.56.14-1.76.05-.62-.29-1.12-.86-1.92-.68a.55.55 0 0 1-.44-.15c-.67-.71-1.68-.63-2.47-1.06-.34-.18-.6-.14-.92.27-.7.87-1.02 1.96-1.82 2.75-.33.33.03.97-.4 1.37-.13.12 0 .37.27.46.9.31 1.78.68 2.68 1 .82.28 1.57.69 2.13 1.37.2.25.23.51-.17.6-.28.05-.44.29-.85.11-.67-.28-1.38-.65-2.18-.43a.63.63 0 0 1-.72-.26c-.54-.85-1.48-.46-2.21-.73-.44-.15-.72.1-.68.62.03.43.1.87-.29 1.23-.04.03.12.39.16.39 1.17-.1 1.96.89 3.02 1.05.37.05.57.29.8.52.13.13.38.26.12.5-.16.14-.31.37-.55.27-1.18-.47-2.53-.38-3.61-1.14-.3-.2-.53-.15-.7.1-.22.37-.4.75-.57 1.15-.05.12 0 .34.08.46.14.2.45-.4.56.09.08.35-.12.6-.28.9-.25.46-.37.99-.57 1.48-.2.49-.22 1.06-.7 1.4.36.48.19 1.03.24 1.56-.08.03-.21.05-.25.12-.06.09.03.18.12.12.07-.02.08-.14.12-.23Zm36.37 76c-.12.9.74 1.1 1.17 1.6.14.15.38-.04.56-.18.2-.17.16-.27.04-.5-.4-.75-.95-1.06-1.79-.9-.02-.53.15-1.08-.28-1.56-.14-.16.1-.39.26-.55.23-.24.41-.07.5.1.2.36.3.78.85.39.07-.05.3.08.42.18.5.44 1.4.2 1.71 1.01.07.2.36 0 .56-.1a3.99 3.99 0 0 0 1.88-1.94c.24-.49.34-1.12 1.14-.66.22.13.23-.11.24-.25.05-.63-.08-1.41 1.01-.98.12.04.4-.18.53-.34.93-1.06 2.18-1.84 2.86-3.13.12-.23.4-.56.64-.4.47.33.61-.08.93-.21.99-.4.94-1.95 2.23-1.99.03 0 .06-.2.06-.3.02-.22.04-.42.3-.5.66-.22 1.21-.5 1.05-1.36-.03-.15.14-.3.33-.3 1.17.09 1.57-.96 1.88-1.66.29-.66.61-.81 1.18-1.07.48-.22 0-1.2.68-1.53.14-.07.26-.3.38-.3.92.03 1.13-.71 1.47-1.3.37-.64.56-1.53 1.1-1.88.6-.39.85-.95 1.27-1.41.76-.82.9-2.06 1.8-2.8-.03-1.22.57-2.29.8-3.45.17-.87.5-1.76-.25-2.56-.09-.1-.12-.32-.09-.46.3-1.26-1.14-2.1-.8-3.37-.67-1.3-1.71-2.43-1.72-4-.51-.45-.7-1.1-.95-1.67-.26-.6-.26-1.34-1-1.66-.1-.05-.16-.3-.14-.44.1-.73-.42-1.09-.84-1.52-.38-.39-.93-.72-.96-1.28-.06-1.05-.87-1.7-1.19-2.6-.07-.23-.17-.35-.4-.43-.56-.2-.65-.68-.6-1.22.04-.43.11-.9-.3-1.21a4.26 4.26 0 0 1-1.28-2.17c-.26-.84-.88-1.43-1.14-2.28-.24-.8-.21-1.86-1.12-2.4.12-.74-.89-1.1-.72-1.71.34-1.2-.1-1.98-1.02-2.64-.13-.1-.28-.23-.32-.37-.24-.91-1.23-1.52-1.28-2.37-.07-1.02-.93-1.58-1.03-2.47-.07-.57-.46-.86-.78-1.22-.43-.48-1.42-.61-1-1.62-1.09-.72-.97-2.1-1.66-3.05-.53-.74-.53-1.86-1.6-2.25-.2-.07-.23-.33-.3-.54-.24-.77-.84-1.3-1.38-1.87-.6-.62-1.2-.15-1.8 0-.04.02-.1 0-.16 0-.82.02-1.75-.25-2.42.16-.67.4-1.14 1.03-2.02.6-.05-.03-.28.17-.35.3-.35.64-.94.97-1.55 1.28-.28.15-.61.27-.82.5-.2.23-.27.58-.42.87-.16.3-.4.47-.72.61-.3.14.15.64-.3.86-.26.13-.48.45-.6.75-.19.43-.53.69-.85.98-.06.05-.23.03-.31-.01-.18-.08-.21-.33-.13-.42.83-.8.71-2.18 1.75-2.84.11-.07.13-.28.2-.43.45-1.11 1.3-1.96 2.12-2.78.39-.4 1.17-.38 1.48-.92.43-.74 1.12-.03 1.68-.42.75-.53 1.74-.47 2.67-.4.6.04 1.22.03 1.82 0 .13 0 .27-.1.4-.16-.1-.12-.2-.32-.33-.36-.79-.24-1.37-.85-2.15-1.13-1.38-.52-2.93-.6-4.15-1.55-.36.38-1.14-.54-1.34.45-.05.24-.49.56-.61.4-.55-.73-1.24.41-1.76-.2-.15-.17-.42-.06-.49.21-.06.26-.23.35-.47.36-.54 0-1.08-.08-1.48.45-.37.5-1-.35-1.4.22-.4.57-1-.1-1.42.25-.6-.4-1.06-.42-1.39.36-.07.16-.5.3-.69.25-.81-.25-1.59.08-2.28.28-.76.21-1.4.83-2.28.56-.06-.01-.17.13-.26.2-1.16.88-2.45 1.6-3.4 2.74-.47.57-1.3.78-1.55 1.56-.03.1-.14.21-.23.22-.89.11-1.24.85-1.8 1.39-.62.58-1.13 1.26-1.79 1.81-.6.51-.92 1.37-1.32 2.09-.14.23-.35.4-.47.57-.84 1.22-1.8 2.42-1.58 4.07.1.75.3 1.51.02 2.3-.1.28-.08.64.17.93.23.28.19.66.11.94-.22.8 0 1.52.18 2.27.17.69-.08 1.37.12 2.1.16.6.78 1.45-.2 2 .26.25 0 .55.07.82.16.56.27 1.15.53 1.66.33.69.39 1.28.04 1.99-.23.48-.4 1.09.05 1.61.55.64-.12 1.55.47 2.19.01.02-.15.3-.27.34-.73.28-.75.78-.54 1.43.37 1.19.35 1.2-.05 2.59-.02.05-.03.13-.01.16.36.47.23.81-.1 1.29-.2.3-.22.77-.5 1.14-.27.33-.53.81.07 1.2.28.2-.14.35-.14.54 0 .34-.54.59-.3.87.65.8.07 1.51-.2 2.11-.6 1.33-.73 2.77-1.18 4.13-.24.73.5 1.32.08 2.15-.3.62-.18 1.53-.03 2.27.11.54.1 1.07.23 1.59.14.6-.25 1.17.01 1.81.1.28-.4.7.41.73.83.03 1.62.16 2.45-.02.41-.1.9-.06 1.3.07.28.08.47-.01.7-.02 1.5-.05 3-.65 4.5-.38a5.05 5.05 0 0 0 3.44-.7c.18-.09.25-.25.52-.1 1.12.56 2.28.02 3.43.03.36 0 .61-.58 1.22-.27.44.23.96-.48 1.53-.29.87.28 1.14-.6 1.72-.88.6-.28-.18-.62-.02-.95.04-.1.03-.22.06-.32l1.84-5.26c.17-.47.62-.88.11-1.46-.19-.22-.03-.7.3-.84.96-.39.99-1.18 1-2.01a4.71 4.71 0 0 1 1.12-3.12c.21-.24.44-.45.53-.8.4-1.54.65-3.13 1.2-4.62.04-.1.1-.21.07-.3-.07-.31-.67-.67.03-.9.78-.26-.2-.8.19-1.01.57-.33.06-1.15.7-1.41-.21-.56-.47-1.13.38-1.4-.03-.03-.06-.1-.1-.1-.5-.1-.45-.29-.15-.61.35-.38.85-.87.5-1.38-.53-.75-.03-1.8-.85-2.4.08-.52-.3-.78-.61-1.08-.36-.33-.4-.67-.27-1.17.24-.84.21-1.68-.34-2.47-.22-.31-.2-.72-.61-1.03-.27-.2-.06-.95-.25-1.37-.63-1.32-.64-2.79-1.07-4.16-.09-.28-.06-.65-.15-.97-.14-.55.36-.58.65-.78.36-.24.5.14.58.33.17.34.4.68.11 1.15-.17.27-.1.73.16 1.08.42.53.53 1.17.47 1.84-.03.34.11.6.31.9.81 1.2.78 2.75 1.62 3.95.2.27-.26.52-.17.7.33.74.28 1.73.73 2.25.43.49.48.89.5 1.4.01.58.7.78.68 1.43-.03.83.5 1.51.98 2.16.41.56.5 1.27.94 1.82.2.26-.07.6-.25.89-.04.06 0 .27.06.29 1.25.45.95 1.65 1.29 2.55.18.47.28 1.25 1.12 1.22.35-.01.43.21.47.53a7.18 7.18 0 0 0 2.63 4.58c.55.46.92 1 .59 1.7-.17.37-.02.33.2.53.92.83 1.77 1.76 2.5 2.78-.15.77.51.86.95 1.1.47.26 1.13.35 1.31.87.21.59.76.8 1.03 1.25.29.5 1.05.65.96 1.4-.6.15-1.08-.36-1.7-.24-.2.04-.47-.23-.72-.33-.4-.17-1.09.01-1.11.36-.1 1.61-1.97 2.23-2.1 3.81 0 .07-.18.1-.26.17-.45.4-.93.77-1.35 1.19-.43.43-1.16.64-1.1 1.44 0 .07-.15.2-.24.22-1.37.38-1.8 1.8-2.85 2.53-.17.12-.36.35-.36.52 0 .93-.78 1.33-1.33 1.78-.5.42-.9 1.18-1.6 1.2-1.04.02-.64 1.16-1.29 1.43-.14.06-.26.2-.4.27-.8.41-.94.56-1.4 1.4-.2.35-.43.65-.89.59-.44-.06-.63.13-.85.53a4.2 4.2 0 0 1-1.18 1.53c-.5.34-1.1.54-1.41 1.12-1.09.13-1.64.91-2.12 1.78-.13.22-.38.44-.69.24-.49-.32-.91.07-1.04.32-.31.62-.85 1-1.3 1.46-.3.34-.36.5-.02.89.3.36.53.78 1 .96.66.24 1.3.49 1.38 1.33.02.13.2.3.34.34 1.3.38 1.5 2.12 2.93 2.35.08.01.2.15.2.24.09.6.62.7 1.03.93.92.54 1.98.75 2.87 1.44.46.36 1.32.6 1.95-.2.38-.47.96-.79 1.43-1.2.36-.3.39-.92.98-1 .14-.73-.86-.42-.9-.97-.03-.41-.37-.45-.61-.65-.47-.38-.76-.9-.77-1.53 0-.31.48-.67.61-.49.55.69 1.5.27 2.07.77Zm-36.65-55.6c-.46-.68-.26-1.53-.42-2.3-.06-.31-.14-.85-.73-.96-.28-.06-.53-.36-.54-.74a8.68 8.68 0 0 0-1.41-4.7 1.29 1.29 0 0 1-.23-.76c0-.21-.07-.43-.15-.63-.13-.39-.72-.27-.83-.7-.12-.42.08-.86-.15-1.29-.44-.84-.58-1.87-1.54-2.36-.24-.13-.33-.28-.31-.5.03-.48-.11-.86-.5-1.14-.32-.23-.32-.51-.32-.9 0-.53-.7-.36-1.06-.55-.39-.18-.51-.54-.46-.96.02-.22.05-.5-.2-.55-.69-.17-1.15-.53-1.25-1.25-1.25-.53-1.7-1.76-2.4-2.77-.48-.7-1-1.29-1.85-1.69-.77-.36-1.83-.66-2.02-1.82-.04-.22-.32-.45-.64-.42-.3.04-.51-.12-.72-.31a6.01 6.01 0 0 0-3.12-1.84 1.5 1.5 0 0 1-.84-.48c-.8-.9-2.11-1.12-2.84-2.12-.08-.11-.28-.16-.43-.18-1.22-.2-2.52-.13-3.4-1.24-1.02.28-1.48-.9-2.38-.93-.08-.57-.34-.4-.6-.12-.2.2-.48.41-.71.27-.54-.33-1.2-.13-1.69-.46-.72-.5-1.5-.56-2.33-.5-.5.03-.98.06-1.19-.58-.02-.07-.56-.53-.79-.22-.71 1.02-1.75-.23-2.48.42-.38-.73-.99-.33-1.52-.27-.6.06-1.2-.35-1.8 0-.58-.5-1.18-.12-1.79-.05-.13.02-.3-.12-.42-.2-.22-.15-.45-.12-.59.07-.47.66-1.18.52-1.8.49a7.72 7.72 0 0 0-3.02.28c-.2.06-.43.04-.63 0a4.02 4.02 0 0 0-3.27.7 8.54 8.54 0 0 1-3.05 1.32c-.72.2-1.39.42-2.07.75-1.03.49-2.01 1.1-3.2 1.3-.87.15-1.87.53-2.14 1.64-.07.27-.28.32-.5.29-.9-.15-1.5.29-2.2.8-1.01.76-2.05 1.45-3 2.32-1.38 1.28-2.7 2.55-3.55 4.28-.4.84-.9 1.67-1.78 2.22a9.7 9.7 0 0 0-2.51 2.65c-.38.52-.85 1-.67 1.75.07.3-.11.52-.33.7-.36.33-.66.71-1.15.89-.26.1-.56.33-.23.74.2.25-.11.48-.22.72a8.55 8.55 0 0 1-1.66 2.56c-.37.38-.2.4.14.63.17.12.62.59.26.9-.75.67-1.57 1.24-1.13 2.43-.75.62-.67 1.56-.93 2.37-.18.56-.35 1.15-.95 1.45-.16.09-.42 1.14-.28 1.24.58.4.28.92.2 1.4-.1.7-.37 1.4-.29 2.07.06.5-.45.86-.13 1.35.3.45-.64 1 .07 1.45-.2.44-.43.87-.59 1.32a.82.82 0 0 0 .06.62c.34.48.17.86-.04 1.35-.25.6-.43 1.32.22 1.87.38.32.52.72.24 1.15-.28.43-.25.78.04 1.2.22.32.4.7.13 1.14-.41.67.7.58.62 1.14-.02.15.07.38 0 .48-.58.68.1 1.31.02 1.97a2.6 2.6 0 0 0 .57 1.96c.3.4.33 1.14.23 1.68-.07.4.1.5.28.6.94.54 1.07.61.77 1.32-.18.44-.14.65.12 1 .42.55.89 1.12 1.1 1.76.13.4.33.79.44 1.17.15.52.38.82.82 1.06.2.1.32.32.29.55-.21 1.4.82 2.38 1.21 3.58.17.5.5.82.87 1.14l2.45 2.14c.24.21.48.43.43.83 0 .13.1.39.19.4 1 .1 1.05 1.07 1.54 1.62.26.3.28.8.92.78.36-.01.84.35.5.94a.46.46 0 0 0-.04.26c.8.18 1.1 1.09 1.7 1.32 1.14.44 1.76 1.51 2.84 1.96.62 1.4 2.3 1.29 3.23 2.23.06.06.21.11.26.08.41-.31.64-.25.83.27.13.38.5.56.94.51.2-.02.52-.05.58.18.18.68.58.51 1 .32.15-.07.3-.15.35.07.06.36.45.51.54.8.2.59.3 1.18.97.34.05-.06.26-.07.3-.02.38.45 1.08.14 1.44.66.45.66 1.18.87 1.92 1.05a8 8 0 0 0 2.73.22c.16-.02.33 0 .49.02.58.05.38 1.15.93.91.57-.24.89-.21 1.26.2.27.29.6.27.9.1.24-.14.43-.24.74-.1.43.19.74-.31 1.12-.34.42-.04.55.6 1.09.57.29-.03.45-.4.86-.15.69.43 1.25.35 2-.08.16-.09.35-.14.44-.02.34.4.6-.2.87-.06.28.16.5.46.78.58.3.13.7.54.94-.2.19-.56.8-.5 1.3-.39.23.05.43.44.7.23.64-.48 1.2-.07 1.83-.01.6.06 1.11-.58 1.67-.9.08-.05.22-.04.33-.02 1.32.25 2.58-.27 3.87-.38 1-.08 2.03-.3 2.85-1.11.51-.51 1.27-.76 1.93-1.13.83.53 1.45-.3 2.2-.38.42-.05.87-.27 1.1-.79.18-.37.53-.9.97-.77.83.21 1.11-.75 1.75-.7.97.09.98-.87 1.53-1.24.31-.22.55-.52 1-.46.37.06.58-.07.69-.48.06-.24.3-.5.61-.48.63.04.95-.1 1.08-.82.13-.66 1-.32 1.37-.62.43-.34-.03-1.24.71-1.52.25-.09.65.08.74-.22.18-.55.54-.7 1.06-.85.57-.16.31-.95.68-1.34.07-.08.16-.22.21-.21.8.15.76-.67 1.16-.97.6-.44.69-1.37 1.55-1.59.24-.06.27-.42.37-.67.67-1.65.84-2.24 2.4-3.13.15-.08.1-.13.1-.24-.04-1.44 1.43-2.15 1.7-3.46.8-.47.76-1.25.73-2.03 0-.26.05-.52.1-.8.12-.53.03-1.27.58-1.46 1.03-.33-.05-1.14.46-1.53.18-.14.3-.32.48-.46.27-.23.26-.6.4-.85.25-.44.04-.78 0-1.17-.07-.64.52-.74.9-1.01 0 0-.05-.1-.09-.14-.43-.5.5-1.1-.13-1.64-.2-.17.04-.58.25-.88.45-.65.53-1.38.4-2.35-.03-.26-.04-.52.13-.78.15-.22.66-.36.26-.76-.34-.34.18-.59.04-1.02-.36-1.15-.13-2.4-.13-3.6 0-1.18-.07-2.34-.22-3.5-.07-.6.1-1.28-.37-1.78-.39-.4-.56-.78-.22-1.3.13-.17.13-.41.2-.7Zm-35 80.45c.66-.1 1.15.1 1.31-.53.07-.27.28.08.36.03.32-.2.77.14 1.08-.41.2-.36 1.2-.3 1.36-.65.4-.84 1.29-1.04 1.78-1.75.32-.45.4-.72.1-1.06-.37-.41-.6-.88-.75-1.4.66-.63-.04-1.2-.15-1.76-.11-.62-.5-1.1-1.33-1.2-.32-.04-1.07-.05-1.12-.46-.15-1.07-.8-.95-1.37-.61-.6.35-1.08-.53-1.49-.1-.36.37-.56.91-1.04 1.18-1.04.57-1.46 1.19-1.25 2.12.1.4.2.76-.15 1.03-.41.32-.38.74-.4 1.18-.01.82.9 2.74 1.66 3.52.46.46.88 1 1.4.87Zm73.1-107.09c.44-.07.78.05.84-.35.03-.26.03-.47-.27-.68a9.8 9.8 0 0 1-2.36-2.11c-.39-.52-1.03-.71-1.55-1.08-1.1.62-1.8-.17-2.61-.7-.47-.3-.99-.64-1.65-.16-.28.2-.9.18-1.26.03-.6-.25-1.1.3-1.65.1-.8.9-1.99.62-2.98.95-.86.28-1.98.22-2.56.76-.71.66-1.51.8-2.3 1.14-.47.2-.91.54-1.39.8-.33.17-.3.55-.13.84.17.3.34.42.75.16.67-.42 1.48-.54 2.13-1.03.29-.22.63-.43 1.05-.35.38.07.73-.43 1.15-.08.26-.35.91-.08 1-.42.21-.81.7.05.97-.23 1.18-1.18 2.83-.78 4.22-1.25.3-.1.5.11.52.45.02.34-.1.56-.44.52a4.83 4.83 0 0 0-3.22.85c-.2.12-.4.13-.61.15-1.16.1-2.15 1.04-3.4.69-.07-.02-.21.08-.26.17-.37.57-1.07.45-1.58.76-.45.28-1 .44-1.5.64-.54.23-1 .66-1.6.7-.45.02-.69.3-.98.53-1.29 1.05-2.83 1.81-3.69 3.33a.23.23 0 0 1-.13.1c-.14.03-.34.04-.32.22.02.07.28.13.44.13.3 0 .64.1.78-.36.15-.48.6-.78.96-1.1.35-.31.59-.92 1.25-.6.76-.66 1.4-1.59 2.62-1.33.77-.7 1.7-.87 2.7-.91.41-.02.93-.21 1.17-.42.57-.47 1.27-.8 1.88-.8.66-.03 1.43-.73 2.06.12.1.14.26-.1.37-.19.2-.19.4-.38.7-.34.82.11 1.34-.63 2.13-.69a6.13 6.13 0 0 0 2.04-.46c.79-.35 1.93-.56 2.48.03 1.28 1.36 3 .83 4.23 1.47Zm-126.09 20.43c.17-.02.6.13.65-.16.2-1.03 1.11-1.67 1.4-2.69.33-1.21.22-2.67 1.5-3.5.04-.03.1-.09.1-.13-.02-1.36 1.45-2.14 1.39-3.53-.01-.12.16-.29.29-.38.86-.62 1.35-1.54 1.93-2.38.42-.62.78-1.28 1.28-1.85l1.19-1.32c.36-.4.77-.81 1.18-1.2.95.28.41-1.08 1.14-1.04.67-.99 1.74-1.6 2.43-2.6.32-.47.95-.92 1.51-1.18.53-.25.83-.86 1.54-.84.67.01.59-1.15 1.47-1.06.2.02.62-.4.89-.56.63-.37 1.03-.96 1.62-1.35.86-.59 1.84-.84 2.74-1.28.72-.35 1.45-.7 2-1.31.3-.36.23-.5-.18-.7-.75-.38-1.4.06-2 .3-.63.26-1.13.83-1.68 1.26-.82-.33-1.09.62-1.72.76-.19.04-.3.28-.55.32-.39.07-2.66 1.23-2.83 1.48-.77 1.18-1.98 1.84-3 2.73-.25.22-.43.38-.75.44-.73.14-1.02 1.02-1.84 1.09-.41.04-.38.62-.62.9-.54.64-.99 1.41-1.65 1.87-.76.53-1.19 1.33-1.74 1.97-.61.73-1.53 1.3-1.78 2.28-.3 1.18-1.27 1.85-1.95 2.74-.35.47-.4 1.27-.92 1.41-.96.26-.56 1.08-.85 1.59-.31.56-.12 1.4-.99 1.64-.08.02-.15.16-.18.26-.39 1.25-1.32 2.28-1.4 3.7-.03.41-.01 1.2-.77 1.44-.24.07-.12.35.01.54.28.4.66.37 1.14.34Zm85.8 36.65c-.85 0-1.27.37-1.23 1.15 0 .23 0 .37-.16.55-.53.62-.98 1.32-1.55 1.89-.6.6-.5 1.7-1.48 1.98-.02.01 0 .21.03.3.06.17.32.3-.05.47-.7.33-1.05 1.14-1.84 1.35-.2.89-1.33 1.08-1.52 2-.03.16-.15.26-.34.28-1 .1-1.41.95-1.92 1.63-.45.6-.8 1.26-1.68 1.37-.41.05-.67.36-.66.8 0 .24-.04.4-.3.5a4.2 4.2 0 0 0-2.24 2c-.16.3-.5.54-.88.7-.54.22-.97.68-1.5.91-.42.2-.45.53-.33.79.13.31.37.67.89.45.78-.33 1.68-.47 2.21-1.22.25-.34.68-.3.95-.6.23-.25.35-.7.85-.59.7.16.17-.56.48-.69.44-.17.82-.51 1.35-.46.13.02.56.1.34-.27-.31-.53 0-.63.39-.8a4.15 4.15 0 0 0 1.83-1.45 9.85 9.85 0 0 1 2.23-2.46 4.18 4.18 0 0 0 1.44-1.64c.35-.77 1.3-.94 1.5-1.79.16-.68.78-1.02 1.26-1.45.12-.11.5-.02.27-.36-.24-.38-.14-.57.29-.7.19-.05.42-.26.46-.43.26-1.23 1.02-2.2 1.62-3.25.35-.59.06-.96-.7-.96Zm-87.14-34.99c-.44.01-.39.04-.63.54-.63 1.25-.23 2.68-.69 3.93-.4 1.1.27 2.48-.91 3.36-.09.06-.06.32-.03.48.17.9.21 1.83.4 2.71.07.35.2.56-.13.79-.49.35.16.62.08 1-.1.48-.66.6-.67 1.08 0 .05 0 .12.02.15.7.85.1 1.86.36 2.7.2.64-.08 1.2.01 1.81.1.56.28 1.16.25 1.76-.08 1.32.51 2.52.71 3.79.1.6.53 1.16.84 1.73.06.11.16.27.37.17.91-.4 1.37-1.51.76-2.27-.36-.46-.24-1.05-.64-1.43.22-1.06-.4-2.1-.06-3.16.07-.24.06-.6-.08-.79-.36-.45-.21-.94-.22-1.42 0-.6.01-1.2-.04-1.8-.04-.58-.63-1.27-.23-1.7.59-.6-.02-1.16.19-1.77.26-.77-.08-1.71.37-2.51-.45-.57.1-1.1.11-1.65.01-.45.3-1.1.11-1.38-.46-.68.1-1.13.12-1.68.01-.42.13-.88-.24-1.24.69-.65.25-1.54.49-2.28.22-.72.05-.94-.62-.92Zm84.6-14.66c.06-.31-.05-.41-.2-.5-1.05-.58-1.4-1.74-2-2.66-.43-.65-.67-1.33-1.58-1.33-.36 0-.38-.28-.54-.5-.2-.27-.14-.47.01-.7-.25-.06-.58-.05-.76-.2-.54-.45-.85-1.09-1.17-1.7-.24-.46-.48-.84-1.13-.96a3.81 3.81 0 0 1-1.74-1.1c-.25-.26-.36-.76-.48-1.17-.12-.39-.7.27-1.06 0-.27-.2-.56-.4-.71-.68a3.39 3.39 0 0 0-1.56-1.27c-.72-.36-1.31-.9-2.12-1.13a2.8 2.8 0 0 1-1.19-.8c-.41-.44-1.02-.34-1.46-.67a2.95 2.95 0 0 0-1.28-.64c-.56-.06-1-.45-1.56-.41-.17-.65-.63-.41-1.05-.36-.12.01-.26-.18-.38-.3-.22-.23-.31-.34-.5.1-.43 1-.42 1.1.51 1.62.35.2.67.35 1.07.3.34-.05.71-.06.89.27.26.5.48.68 1.15.55.65-.12 1.28.47 1.82.87 1.09.8 2.7.91 3.26 2.44.03.1.29.18.42.15.58-.1.95.22 1.27.6.23.26.55.34.8.52.7.45 1.38.9 1.81 1.67.32.56.82 1 1.47 1.27.54.22.9.61 1.26 1.14.7 1.04 1.72 1.85 2.3 3 .07.14.22.3.36.33.63.2.84.8 1.24 1.18.52.49.81 1.27 1.62 1.45.21.04.3.52.63.24.24-.2.43-.46.57-.62Zm-24.76-16.73c.09-.04.24-.07.27-.13.11-.37.21-.74-.01-1.1-.23-.38-.69-.59-.98-.36-.57.46-.9.2-1.22-.22-.2-.27-.56.4-.7-.2-.13-.51-.75-.39-1-.24-.57.35-1-.06-1.45-.17-.58-.13-1.5-.43-2.12-.39-.1.01-.24.07-.26.05-.41-.85-.98-.54-1.6-.26-.34.15-.74.13-1.1-.09-.6-.37-1.13-.25-1.62.22-.08.07-.21.35-.36.07-.27-.54-.84-.36-1.24-.44-.56-.12-1.2-.22-1.76.14-.18.11-.27.02-.41-.04-.79-.31-1.6-.38-2.2.02-.91.61-2.11.04-2.95.8-.05.04-.23 0-.3-.06-.62-.51-1.23-.5-1.85-.01-.63-.47-.89.63-1.34.38-.8-.44-.83.58-1.26.56-.6-.04-1.16.42-1.6.26-.65-.2-.75.44-1.1.43-.45 0-.68-.7-1.26-.55-.1.03-.22 0-.33.03-.16.04-.32.15-.25.34.2.5.42.97.82 1.37.43.43.64-.2 1.03-.09.6.18 1.14-.25 1.66-.46.6-.25 1.3-.05 1.83-.5.97.63 1.75.08 2.48-.45.37-.27.83-.35 1.05-.18.57.4 1.02.03 1.5-.05.5-.08.97-.52 1.47-.02.45-.48 1.22.18 1.65-.45.17-.26.49-.18.76-.18h2.3c.72 0 1.46-.09 2.15.03.72.13 1.41.23 2.13-.02.1-.03.26-.04.32.01.79.75 1.69 1.02 2.74.66.4.4.95.45 1.39.27.64-.25.69.44 1.12.55 1.19.34 2.46-.15 3.6.47Zm-3.78 91.54c.39 0 .94.16 1.13-.03.5-.52 1.5.13 1.76-.8.65-.22 1.44-.28 1.92-.7.65-.58 1.35-.28 2-.46.64-.18 1.08-.98 1.81-.95.72.02 1.25-.22 1.75-.66.15-.14.37-.22.57-.28.8-.23.8-.22.6-.8-.08-.26-.05-.63-.22-.74-.27-.18-.55.14-.8.27-.26.13-.56.33-.76.17-.45-.35-.79-.01-1.16.1-1.23.35-2.44.78-3.53 1.47-.13.08-.32.15-.45.12-.45-.13-.94-.42-.82.44l-1.88.78c-.53-.61-.97.4-1.48.1-.42.59-1.04.02-1.59.27-.43.2-.97.54-1.63.1-.45-.3-1.04.46-1.69.32-.42-.1-.83.03-1.23.28-.96.58-2.1.3-3.12.66-.27.1-.5-.1-.73-.26-.66-.43-.56-.36-.9.25-.3.58.07 1 .1 1.48.02.2.43.3.51.06.28-.77.87-.64 1.32-.39.6.34 1.22.32 1.74.15.7-.23 1.29-.4 1.98 0 .22.13.75.2.91-.1.4-.8.93-.58 1.49-.3.26.13.68.2.75.04.34-.89 1.07-.5 1.65-.59Zm37.72-48.95c.14-.2-.04-.3-.16-.37a1.99 1.99 0 0 1-.87-.88c-.18-.39-.4-.37-.53.16-.13.52-.95.9-.3 1.58.03.03.03.12 0 .16-.4.52.08 1.19-.12 1.57-.37.72.22 1.22.17 1.85-.03.54.14 1.07-.2 1.6-.25.38-.32.86-.04 1.23.38.5.07 1-.03 1.38a8.86 8.86 0 0 0-.43 2.54 2 2 0 0 1-.16.78c-.27.64-.3 1.4-.68 1.94-.46.65-.22 1.37-.48 2-.09.24.1.6-.28.69-.35.08-.41.32-.38.6.1 1.1-.6 1.93-1 2.84-.15.35-.19.5-.03.8.16.28.26.6.34.9.06.2 0 .44.32.47.31.02.27-.31.4-.4.42-.29-.2-.97.3-1.03.78-.09.25-.76.6-1.02.4-.3.94-.67.2-1.2-.13-.1-.08-.15 0-.27.63-1.01.9-2.17 1.32-3.26.17-.43.4-.82.55-1.28.55-1.64.6-3.35.94-5.01.05-.26.32-.43.15-.86-.24-.63.2-1.4-.12-2.11-.32-.7.62-1.55-.27-2.19l.04-.12c.62-.9.05-2.05.65-2.95.05-.05.07-.09.1-.14Zm-50.42 48.87c0-.9-.7-1.28-1.56-.82-.22.12-.35.04-.54.03-1.2-.05-2.28-.75-3.49-.58-.73.11-1.37-.17-2.04-.36-1.07-.3-2-1.06-3.22-.86-.22.03-.48-.2-.73-.3-.95-.44-1.78-1.28-2.98-1-.04.01-.13-.01-.14-.04-.28-.56-.88-.33-1.31-.53-.54-.25-1.1-.46-1.51-.91-.23-.24-.47-.2-.7.04-.17.2-.4.38-.54.61-.27.48-.02.95.5 1.28.45.29.97.41 1.44.67.6.33 1.36.47 2.01.83.36.2.85-.05 1.28.19.41.23.87.4 1.34.5.43.08.96-.12 1.3.07.41.25 1.03.07 1.26.55.35.7.73-.22 1.05.07.04.03.12.02.15.06.56.7 1.34.6 2.1.58.35-.01.64.04.87.34.13.16.34.43.54.29.35-.26.75-.02 1.12-.22.57-.3.38.7.94.61.73-.1 1.56.45 2.18-.35.6.06.76-.26.68-.75Zm49.9-54.31a7.7 7.7 0 0 0-.74-2.96c-.15-.4-.62-.83-.54-1.12.32-1.07-.42-1.77-.67-2.63-.18-.6-1.08-1.07-.42-1.85-.6-.45-.54-1.15-.62-1.78-.04-.33.02-.68-.45-.71.11-.8-.67-1.2-.85-1.87-.48-1.72-1.55-3.12-2.4-4.64l-.42-.66c-.24.22-.5.44-.72.67-.2.2-.1.47.1.53.77.22.42.84.43 1.25.02.7 1.15.72.92 1.12-.37.69.34.63.4.94.1.5.76.66.7 1.26-.1.84.38 1.55.71 2.25.5 1.02.8 2.05.97 3.18.09.64.23 1.33.7 1.9.3.4.65 1.11.5 1.46-.42.9.1 1.7.18 2.48.1.89.3 1.91 1 2.65.16.18.31.49.64.19.2-.2.8-.22.47-.63-.36-.47.34-.7.1-1.03Zm-92.56 22.68c-.11.06-.26.1-.28.17-.04.15-.06.37.13.43.35.12.43.24.4.69-.06.75-.07 1.66.3 2.26.47.77.72 1.72 1.48 2.3.3.22.43.6.24.87-.49.68-.15.96.44 1.22.2.08.4.24.49.42.85 1.59 1.92 3 3.25 4.23.26.24.32.66.63.92.27.21.5.41.87.38.22-.01.49.03.59-.19.14-.33-.08-.43-.39-.53-.45-.15-.65-.65-.73-1.03-.2-.98-1.09-1.62-1.25-2.56-.16-1-1.04-1.5-1.47-2.33-.41-.8-1.03-1.48-1.05-2.44a.87.87 0 0 0-.36-.7 4.2 4.2 0 0 1-1.55-2.76c-.18-1.2-1.17-.92-1.74-1.35Zm105.22 137.23c.63.15 1.15-.18 1.71-.18.17 0 .34-.29.53-.03.16.21.38.65.42.63.37-.16.15-.54.21-.82.06-.27.23-.3.44-.4.4-.17.73-.48 1.14-.59.34-.1.73-.03 1.1.11.36.15.4-.65.95-.48.58.18 1-.2 1.44-.55a4.7 4.7 0 0 1 1.66-.95c.33-.07.65-.03.88-.32.1-.12.16-.26.23-.38-.15-.04-.32-.15-.45-.11-1.2.4-2.44.74-3.47 1.52-.25.2-.43.46-.83.47-1 .02-1.98.3-2.95.59-.32.1-.64.08-.88-.21-.26-.33-.6-.47-1.02-.41-.3.04-.52-.11-.73-.3-.28-.23-.48-.74-.88-.62-.33.09-.58.47-.86.72-.27.26-.58.5-.82.8-.47.56-.3.99.41 1.06.35.04.65.05.87.34.3.41.62.35.9.11Zm-72.36-10.34c-.79-.04-.93.05-1.47.32-.5.26-.2.68-.32 1-.06.14-.15.28-.22.42-.16.32-.08.55.29.54.45 0 .79.22.88.58.13.46.59.64.7 1.07.18.63.57.68 1.07.39.77.46.7-.25.53-.5-.53-.78-.29-1.52.19-2.08.6-.72.33-1.67.83-2.4.15-.2-.15-.36-.3-.51-.17-.18-.28-.02-.39.08-.2.18-.43.36-.56.58-.32.56-.67.9-1.23.51Zm-17.34-16.69c-.35-.21-.35-.8-1-.65-.4.1-.82-.15-.9-.42-.13-.47-.65-.61-.7-1.06-.08-.66-.72.15-.92-.4-.16-.43-.54-.78-.83-1.16-.12-.16-.29-.12-.43-.05-.1.05-.09.16 0 .26a7.25 7.25 0 0 1 1.48 2.61c.15.38.32.7.78.7 1-.03 1.66.32 1.6 1.46 0 .05.15.14.24.15.1 0 .23-.04.27-.1.22-.39-.05-.89.4-1.34Zm75.44-102.65c-.16-.54-.5-.93-.45-1.44.01-.04-.06-.09-.1-.13-.05.08-.17.18-.16.24.2.87-.21 1.36-.9 1.84-.35.24-.46.83-.67 1.27-.09.19.1.27.2.37.22.2.27.1.42-.13.3-.44.53-.41.59.01.03.33.35.63.26.88-.28.7.38.76.64 1.08.03.03.23 0 .3-.06a.35.35 0 0 0 .12-.28c-.07-.46-.69-.82-.44-1.26.45-.83-.64-1.69.2-2.39Zm10.13 32.27c-.03-.04-.06-.09-.1-.1-.14-.08-.32-.13-.43.02-.45.65-1.22 1.11-1.14 2.07 0 .15-.35.36-.03.48.23.09.7.06.7-.2-.01-.63.51-.92.7-1.39.12-.28.06-.63.3-.88Zm-16.14-86.66v1.2c0 .09.08.26.12.26.2.02.24-.14.22-.3-.1-.5.6-.9.27-1.36-.44-.64-.32-1.09.22-1.54.27-.23-.02-.38-.16-.49-.29-.23-.25.08-.36.23-.5.63-.22 1.36-.31 2Zm-2.55-3.3c-.19.18-.42.35-.56.58-.29.47.26.3.4.42.35.3.38.77.69 1.09.1.1.14.25.22.38.05-.15.15-.3.15-.44-.03-.31.22-.49.3-.74.04-.14 0-.4-.16-.31-.85.4-.69-.3-.8-.7-.04-.13.02-.32-.24-.28Zm42.89 167.22-.12-.31c-.07.04-.16.05-.2.1-.07.14-.1.3-.18.43-.11.17-.07.27.11.3.09 0 .23-.04.27-.1.07-.14.08-.3.12-.42Zm-62-219.65c-.35-.12-.44-.18-.53-.18-.19.02-.28.16-.25.34.02.08.13.2.14.2.19-.09.36-.19.65-.36Zm28.39 107.27c-.18.24-.12.49-.05.73.05.16.14.17.18 0 .05-.19.06-.39.06-.59 0-.04-.12-.09-.2-.14Zm.54 5.86c0-.2.03-.42-.14-.57 0 0-.09.03-.1.06-.03.2-.06.4-.06.6 0 .05.1.11.16.17l.14-.26Zm29.81 117.14c.08.06.15.15.24.16.08.01.23-.03.26-.1.07-.2-.1-.22-.24-.2-.1.02-.18.09-.26.14Zm1.77-2.09c-.05.08-.13.16-.15.24 0 .08.04.24.09.25.2.05.2-.11.18-.24-.02-.08-.08-.16-.12-.25Zm-61.02-224.69c-.02-.1-.04-.24-.08-.25-.19-.05-.24.08-.2.23.01.08.09.16.13.24a2 2 0 0 0 .15-.22Zm20.83 49.21c-.03-.09-.05-.24-.1-.25-.2-.05-.2.12-.18.25.02.08.08.16.13.25l.15-.25Zm7.67 53.65c.08.06.16.14.24.16.09 0 .24-.04.25-.1.06-.2-.1-.22-.24-.19-.08.02-.16.09-.25.13Zm-7.01-57.97-.14-.28c-.05.1-.14.18-.14.27 0 .09.08.18.13.27l.15-.26Zm36.2-3.25c-.02.03-.1.07-.1.1.06.15.14.16.21 0l-.1-.1Zm-36.89 4.74c-.03-.04-.08-.12-.1-.11-.16.05-.17.13-.01.2.02.01.07-.06.11-.1Zm18.16 91.5-.1-.1-.1.1.15.1.05-.1Zm-17.61-86.67c-.04.04-.11.09-.1.11.04.17.13.18.2.02 0-.04-.07-.09-.1-.13Zm-70.95 159.68c-.04-.03-.08-.09-.11-.09-.04 0-.07.06-.11.1l.16.1.06-.1Zm75.69-154.93-.11-.12-.12.11c.03.04.07.1.1.1.05.01.09-.05.13-.09Zm-24.3-61.21c-.01.03-.06.08-.04.1.01.04.07.12.1.11.13-.06.14-.14.06-.2-.03-.02-.08-.01-.12-.01Zm26.44 69.38-.05.1c.02.05.08.12.1.12.12-.06.14-.15.06-.22h-.1Zm3.82-3.55c-.04-.03-.09-.11-.11-.1-.17.05-.18.14-.01.2.02.01.08-.06.12-.1Z" fill="#284854"/><path d="M43.26 63.24c.18 1.03-.15 1.72-.69 2.4-.46.58-.8 1.26-1.2 1.9.59.5.74 1.28 1.2 1.87.31.4.5.9 1.05 1.14.7.3.57 1.2.95 1.8.36.54 0 1.01-.75 1.3-.5.21-.7.55-.39.9.5.54.73 1.2 1.06 1.82.31.58.16.82-.55.93-.32.05-.67-.03-.63.49.02.33.14.5.48.5.44.01.77.26.78.67 0 .36-.3.67-.31 1.07-.01.24-.33.2-.53.26-1.36.38-2.61-.03-3.78-.63-.4-.2-.75-.41-1.2-.39-.42.02-.77 0-.74-.57.02-.4-.29-.58-.57-.72-.63-.32-.91-.95-.71-1.46.28-.7-.15-1.03-.34-1.53-.15-.4-.67-.35-.73-.94-.14-1.27-.68-2.49-.61-3.8 0-.12-.02-.3.02-.33 1.23-.54.27-1.35.25-2.03-.02-.96-.27-1.9-.3-2.88-.02-.55.46-.71.56-1.2.13-.66.15-1.14-.41-1.35-.6-.23-.67-.7-.75-1.14a4.89 4.89 0 0 1 0-1.8c.14-.59.88-.84 1.02-1.52.06-.28.51-.3.72-.2.58.27 1.11 0 1.66 0 .46 0 .99-.47 1.22.4.12.46.61.33.95.08a.8.8 0 0 0 .3-.38c.2-.77.45-1.54.67-2.3.16-.61.03-1.3-.28-1.9.5-.6.35-1.18 0-1.8-.07-.12-.03-.33.02-.48.57-1.77.57-1.76.34-3.7-.01-.1-.05-.27 0-.3.8-.63.19-1.57.52-2.3.09-.2.14-.47.06-.64-.43-.95.08-1.85.15-2.77.02-.21.05-.35-.04-.55-.38-.81-.47-1.6.19-2.36.11-.13.04-.42.06-.63.05-.68-.18-1.41.25-2.05-.53-.61.1-1.26 0-1.78-.16-1 .34-1.84.31-2.7-.03-.9-.01-1.7.4-2.5-.52-.8.04-1.54.13-2.29.1-.75-.52-1.55.15-2.25.02-.02-.11-.17-.17-.27-.4-.74-.27-1.58-.03-2.25.18-.5-.36-1.02.18-1.43.04-.04-.18-.64-.31-.66-1.1-.13-1.25-1.36-2.2-1.72-1.1-.41-1.48-1.59-2.04-2.54l-.46-2.24c.2-.2-.04-.28-.12-.39-.25-.3-.57-.55-.17-.97.17-.19.11-.38-.05-.58-.58-.75-.32-1.5.15-2.15.4-.54.61-1.19.62-1.78.03-1.13.65-1.65 1.52-2.09.52-.26 1.1-.45 1.29-1.14.08-.3.42-.52.8-.44.67.14 1.27-.03 1.93-.2.46-.12 1.13-.35 1.76.13.5.38 1.36.26 1.76 1 .13.22.4.32.69.38 1.2.27 1.87.82 2.51 2 .03.05.03.1.06.14.36.42.84.71.92 1.36.09.62.5 1.22.51 1.83.01.45.15.7.38 1.04.25.35.46.7.01 1.24-.4.48-.34 1.3-.54 1.97-.27.86.1 2.05-1.22 2.4-.06.01-.12.17-.12.27 0 .8-.63 1-1.19 1.37-1.34.88-2.83 1.47-4.27 2.15-.47.22-.3.32-.2.65.12.4.66.79.09 1.33-.2.19-.09.74-.05 1.12.06.76.03 1.51.1 2.28.06.75-.1 1.55-.11 2.33-.01.77-.1 1.56.02 2.3.21 1.32.1 2.59-.24 3.86.46.52-.83.9-.11 1.44-.58.39.35.96-.2 1.41-.43.36.54.78 0 1.32-.33.35-.18.92.13 1.36.15.21-.17.45-.13.57.2.73-.49 1.37-.15 2.1.21.46-.17.83-.32 1.23-.17.44.59.72.2 1.2-.21.26.25.7-.23.92a.48.48 0 0 0-.28.55c.37 1.22-.47 2.51.26 3.7.05.08.06.25.01.3-.47.52-.41 1.23-.4 1.78 0 .51-.22 1.1.12 1.6.07.12.02.34-.01.5-.17.95-.07 1.36.65 1.55.94.25 1.6.84 2.28 1.45.63.6 1.43.98 2 1.65.35.42.82.75.72 1.4-.02.15.02.37.12.45 1.19.94.4 2.18.51 3.28.03.26-.14.39-.4.4-.23.01-.54-.03-.53-.25 0-.56-.43-.97-.4-1.55.08-1.66-.97-2.77-2.02-3.83-.88-.87-2.04-1.29-3.15-1.79-.47-.21-.68-.07-1 .12-.13.08-.4.18-.38.21.2.93-1.32.85-1.05 1.8.1.36-.1.64-.36.86-.6.54-.46 1.32-.58 1.98-.14.73.02 1.49-.32 2.22-.1.22-.16.7.24.84.32.12.53 0 .76-.37.58-.91.8-1.68.7-3.05-.04-.67.47-1.16.72-1.74.03-.05.21-.08.3-.05.09.02.2.14.2.22-.05.94.71 1.75.33 2.56Zm.69-34.5c-.03-.1-.04-.2-.1-.26-.09-.06-.17.02-.12.1.04.07.16.1.24.13.04.08.05.2.12.24.08.06.16-.03.1-.11-.04-.06-.16-.08-.24-.1Zm-.65 12.53c.63-.2.32-.74.3-1.1-.03-.6.26-1.24-.19-1.8-.28.52-.06 1.07-.14 1.6-.02.15-.13.3-.21.43-.24.38.22.57.24.87-.57.44-.34 1-.23 1.54 0 .01.09.04.1.03.26-.4.07-.83.13-1.25v-.32Zm.91-35.35c-1.58-.01-1.59-.03-2.19.33-.46.27-.9.57-1.34.86.25.81-.6 1.24-.7 1.9-.09.68.19 1.43-.53 1.96-.16.12.1.26.14.39.12.3.44.74.34.86-.52.66.13 1.28 0 1.8-.28 1.23.88 1.6 1.2 2.43.91.15.9 1.15 1.47 1.61.12.1.03.49.36.25.15-.11.24-.23.18-.52-.2-.9-.06-1.76.45-2.58.27-.43.28-.33.38.04.02.1.09.21.17.28.1.09.25.14.37.21.03-.1.09-.2.08-.3-.02-.5.23-.9.72-.87.55.02.1.67.43.93.26.2.15.43 0 .7-.23.41-.54.81-.48 1.34.03.26-.04.57.36.62.22.03.53.04.57-.18.18-.8.9-.85 1.46-1.1.87-.4 2.04-.41 2.03-1.84 0-.2.55-.42.71-.78.1-.2.26-.39.1-.59-.45-.53-.31-1.11-.32-1.74 0-.6-.54-1.17-.05-1.83.1-.13-.17-.17-.3-.23-.23-.1-.33-.38-.22-.53.4-.62-.05-.85-.46-.98-.57-.18-1.12-.26-1.31-.99a1.1 1.1 0 0 0-.7-.65c-1.03-.25-1.9-1.15-2.92-.8Zm-7.28 58.18c-.45-.03-.57.13-.55.38 0 .27-.04.6.1.78.31.4.2.68-.1.98.31.29.47.7.3 1.04-.3.54-.16.97.3 1.17.64.27.89.88 1.36 1.3 1.25 1.1 2.87 1.45 4.21 2.35.1.06.24.32.36.04.05-.11.01-.34-.08-.44-.76-.82-1.56-1.62-1.6-2.86 0-.15-.27-.4-.46-.43-1.37-.25-1.6-1.58-2.32-2.43a.55.55 0 0 1-.11-.3c-.06-.43-.73-1.38-1.1-1.53-.16-.05-.32-.05-.31-.05Zm-.32 7.1c.75.56-.3 2.09 1.24 2.5.09.03.16.28.17.42.06.7.47.92 1.11.85.47-.05.69.22 1 .57a2.5 2.5 0 0 0 2.68.78c.46-.14.68-.61.36-.95a23 23 0 0 0-2.86-2.6c-.44-.35-.87-.37-1.34-.45-.19-.04-.46-.22-.5-.38-.13-.7-.76-.86-1.23-1.18-.14-.1-.23-.42-.48-.23-.09.08-.07.3-.15.67Zm1.58-7.84c.04-.04.12-.09.11-.1-.22-.5.9-.32.48-.92.46-.4-.13-.9.18-1.4.63-.94.43-.87-.39-1.55-.75-.64-1.4.35-2.1-.17-.2-.14-.74 1.02-.43 1.37.3.33.27.67.33 1.04a5.75 5.75 0 0 0 1.82 1.73Zm.2 12.95-.29.1.12.27c.51 1.15 1.58 1.74 2.53 2.42.38.26.98.54 1.58.18.66-.39.68-.5.16-1-1.11-1.08-2.76-1.04-3.93-1.98-.03-.02-.1 0-.16 0Zm4.27-22.9c.1-.17.25-.35.21-.44-.1-.18-.28-.41-.45-.44-.45-.06-.2.4-.22.42-.6.56.28 1 .1 1.52a.6.6 0 0 0 .15.6c.14-.26.46-.6.38-.78-.13-.3-.23-.57-.16-.87Zm.96-21.83v.32c.05.28-.12.8.34.72.73-.15.17-.51.03-.8a.2.2 0 0 1-.01-.15c.16-.33.32-.8-.16-.84-.4-.04-.1.5-.2.75Zm-.36 3.86c.05.14.08.4.16.42.32.08.17-.26.29-.4.14-.16.29-.34.25-.58-.02-.16-.06-.43-.12-.44-.22-.02-.39.16-.47.34-.07.2-.07.43-.1.66Zm-.62 15.35h.01v-.32c0-.2.03-.41-.2-.53-.05.15-.12.3-.13.44-.02.38-.01.75 0 1.13 0 .1.1.27.13.26.16-.04.2-.17.2-.33-.02-.22 0-.43 0-.65Zm1-13.77-.17-.35-.41.81c0 .01.14.13.21.13.37.02.36-.26.37-.59Zm.29-3.38c0-.16-.1-.24-.28-.27-.2-.02-.29.09-.31.25-.04.26.1.39.36.36.17-.01.26-.13.23-.34Zm-.63 10.12c-.02.01-.03-.07-.17-.11-.22-.07-.4-.04-.45.22-.02.09 0 .24.05.27.24.1.3-.17.57-.38Zm.87-13.95c-.06.04-.19.1-.18.12.02.14.08.27.13.4.04-.03.08-.06.1-.1.08-.15.1-.3-.05-.42Zm-1.2 17.71-.16-.26c-.05.09-.13.17-.16.26-.03.14 0 .3.2.27.05 0 .08-.17.11-.27Zm-.35 8.24-.14-.25c-.05.08-.13.16-.15.25-.02.12-.01.29.18.26.06 0 .08-.17.11-.26Zm.27 21.32c-.03-.02-.07-.05-.1-.05-.04.01-.1.08-.1.09.05.12.13.14.19.06.02-.02 0-.06 0-.1Zm-.08-3.7c-.04.04-.11.08-.1.1.04.16.12.17.2.01.01-.01-.06-.07-.1-.1Zm-.39-24.09-.05.1c.02.05.09.13.1.12.13-.07.15-.15.06-.22h-.1Zm1.7-22.94.11-.1-.1-.12c-.04.04-.1.07-.1.11 0 .03.05.07.08.11Zm.44-9.68-.1-.13c-.03.04-.1.08-.1.11 0 .04.06.08.1.12l.1-.1Zm55.9 188.79c0 .05.03.15 0 .16-.48.31-.11 1.03-.57 1.29-.5.28.06 1.07-.51 1.1-.65.05-.06.96-.73.86-.07-.01-.17.13-.26.2-.77.51-.94 1.43-1.46 2.12-.48.63-1.15 1.04-1.47 1.9-.36.97-1.3 1.67-1.77 2.65-.44.9-1.48 1.42-1.57 2.54 0 .05-.07.09-.1.14-.23.41-1.11.27-.98.86.16.64-.37.66-.57.98-.18.27-.67.38-.33.9.1.16-.26.43-.52.53-.7.26-1.14.85-1.56 1.41-.16.22-.55.53-.24.97.26.38-.03.65-.3.8-.64.35-1.05.75-1.32 1.5-.25.7-1.06 1.2-1.03 2.11 0 .15-.29.31-.46.45-.11.1-.38.22-.37.24.46 1.14-.6 1.26-1.14 1.7-.4.34-.15.91-.6 1.3-.46.4-.77.98-.81 1.7-.04.61-.56 1.15-1.05 1.38-.93.43-.94 1.26-1.06 2-.1.55-.37.95-.6 1.43a13.25 13.25 0 0 1-2.26 3.27c-.17.19-.32.53-.29.97.06.68-.49 1.25-1.17 1.57-.14.06-.37.1-.15.3.72.62.23.84-.33 1.07-.18.07-.2.33-.11.42.35.38.06.58-.2.76-.2.14-.43.18-.55.5-.56 1.41-1.85 2.36-2.5 3.7-.28.57-.34 1.26-.84 1.72-.28.25.05.5-.04.66-.22.34.14.76-.3 1.1-.28.22-.56.63-.4 1.22.07.26-.65.68-.53 1.27a.65.65 0 0 1-.12.45c-.38.51-.9.85-1.02 1.6-.09.53-.83.89-.63 1.65.04.17-.43.46-.63.71-.34.42-.51.8-.26 1.4.3.71-.23 1.28-.85 1.58-.58.28-.92.46-.51 1.2.27.46-.38.68-.63 1.01-.17.25-.7.44-.46.74.7.86-.05 1.15-.42 1.74a4.76 4.76 0 0 1-1.62 1.71c-.33.2-.73-.02-.74-.42-.02-.3.52-2.16.75-2.57.02-.05.06-.09.1-.13.29-.45-.1-1.04.23-1.42.3-.37.44-.74.44-1.2 0-.32-.14-.64.22-.92.54-.4.73-1 .92-1.65.39-1.28.9-2.52 1.71-3.61.25-.33.02-.8.44-1.17.3-.27.54-.79.5-1.32 0-.19.18-.4.3-.58a8.37 8.37 0 0 0 1.35-3.35c.05-.34.3-.72.56-.96.5-.44.33-1.32.7-1.53.67-.36.74-1.05 1.2-1.5.27-.23.65-.7.3-1.29-.17-.3.26-.53.57-.58.32-.06.59.05.36-.52-.17-.44.3-.96.3-1.53 0-.34.39-.62.84-.63.57 0 .27-.28.1-.45-.2-.22-.38-.53-.02-.6.8-.16.98-.83 1.3-1.38.34-.6 1.06-1.01.76-1.9-.08-.23.27-.27.48-.28.15 0 .41-.08.34-.17-.66-.83.56-.83.6-1.4.02-.5.6-.9.53-1.49.7-.19.52-1 .96-1.35.33-.29.36-.63.33-1.03-.04-.48.03-.9.68-.83.17.01.28-.11.31-.3.33-1.67 1.52-2.82 2.55-4.05.4-.46.17-1.2.83-1.52.56-.29.97-.76 1.27-1.36.28-.55.58-1.14 1.18-1.45.04-.02.11-.09.1-.12-.42-1.18.72-1.72 1.09-2.57.13-.3.3-.57.27-.91-.05-.4.12-.65.55-.6.57.08.56-.35.82-.68.56-.73.6-1.83 1.67-2.26.44-.18.92-.92 1.02-1.37.11-.52 1.16-.44.66-1.19-.02-.03.28-.35.46-.42.48-.15.77-.41.77-.92 0-.32.22-.52.44-.65.46-.28.9-.53.65-1.2-.02-.06.05-.23.1-.24.85-.25 1.07-1.09 1.52-1.67.46-.6.7-1.35 1.43-1.72.07-.03.12-.17.13-.28.18-1.42 1.56-1.83 2.34-2.74.16-.17.37-.24.58-.07.14.14.33.27.35.51Zm19.52-135.08c-.06-1.27.37-2.28.49-3.33.05-.49-.14-.98.36-1.36.23-.19.23-.57.08-.76-.28-.38-.07-.57.17-.8.07-.08.21-.22.2-.24-.78-1.05 0-1.92.38-2.78.35-.84.05-1.82.64-2.59-.25-1.36.64-2.47.88-3.72.07-.38.22-.8.08-1.11-.54-1.17.41-2.13.38-3.2 0-.06.03-.11.07-.15.18-.2.32-.51.64-.42.19.05.36.23.49.4.33.42-.2 1.21.35 1.37.33.1.6-.66.9-1.03.35-.42 1.35-.11 1.46.48.14.66.33 1.18.94 1.56.12.07.46.46.24.82-.43.68-.04 1.27.26 1.83.42.78.7 1.43.33 2.4-.26.68-.26 1.6.1 2.41.3.67.1 1.4.17 2.11.03.31-.18.5-.38.69-.16.15-.33.3-.1.52.58.53.6 1.1.19 1.75-.14.21-.1.52.06.77.34.49.29.92-.17 1.3-.42.33-.3.8-.29 1.22.03.89-.31 1.64-.68 2.42-.42.9-.7 1.88-.93 2.85-.09.35-.24.59-.47.83a26.7 26.7 0 0 1-2.99 1.74c-.25.1-.42.24-.68 0a6.2 6.2 0 0 0-1.18-.85c-.47-.28.08-.76-.3-1.1-.3-.26-.3-.85-.6-1.12a3.14 3.14 0 0 1-1.09-2.9Zm5.63 2.3c-.2.05-.4.05-.57.14-.11.06-.14.26 0 .38.03.03.18 0 .22-.04.12-.16.22-.34.32-.5.09-.04.2-.06.25-.12.05-.1-.03-.17-.1-.1-.07.04-.08.16-.12.24Zm-.66-16.85c-.3 0-.45.24-.6.44-.06.09-.05.34.03.4.14.14.23-.08.33-.16.24-.18.23-.45.22-.71.08-.04.2-.05.23-.12.06-.1-.02-.17-.1-.1-.06.05-.08.17-.1.25Zm-1.67 17.83c-.04-.09-.05-.2-.11-.26-.09-.06-.18.03-.13.13.04.06.17.08.26.12.05.5.45.32.72.33.25.01.62 0 .56-.35-.11-.59-.34 0-.51 0-.27 0-.53.02-.79.03Zm-.33-1c1-.4.73-1.21.5-1.9-.18-.56-.35-1.09.14-1.5.68-.54.17-1.23-.1-1.37-.9-.5-.64-1.34-.45-1.85.31-.86.79-1.62.26-2.55-.05-.09.06-.32.16-.43.29-.3-.01-.78.36-1.05.2-.15.15-.4.1-.61-.06-.26-.28-.3-.5-.3-.16.01-.42.07-.36.19.32.62-.34.94-.4 1.43-.03.33.38.52.3.9-.1.36.05.74-.15 1.12-.57 1-.5 1.02-.54 2.27-.01.74.17 1.48-.25 2.24-.21.39.01 1.03.1 1.56.12.74.94 1.1.84 1.87-.08.04-.2.06-.23.12-.06.09.03.17.1.1.07-.05.08-.16.12-.24Zm4.44-11.7c.34-.68-.78-.79-.58-1.38-.4.3-.12.74-.23 1.1-.05.2-.29.52-.24.56.4.38-.3.76-.03 1 .75.66.5 1.25.08 1.95-.07.14-.09.6 0 .78.29.55.33 1.02-.04 1.52-.17.25-.09.53-.08.8.01.1.05.26.1.28.21.06.18-.15.24-.27.12-.28.92-.24.34-.87-.2-.22-.17-.8-.02-1.11.7-1.43 0-2.94.46-4.36Zm.1-3.6c-.57-.67-.04-1.54-.3-2.35a.68.68 0 0 0-.18-.27c-.14-.13-.02-.44-.3-.45-.04 0-.04.31-.13.43-.4.56.26 1.2-.03 1.62-.46.69.1 1.22.05 1.82-.03.36.09.81.38.79.53-.04.2-.55.25-.85.03-.21 0-.43.27-.74Zm-1.32 10.8c-.24-.12-.2.12-.22.24l-.64 2.9c-.04.2.08.3.26.34.2.05.33-.08.35-.23.08-.9.27-1.76.65-2.59.12-.27-.14-.48-.4-.66Zm-1.64-9.33c-.18-.12-.36-.36-.52-.33-.6.07.03.7-.35.92-.05.03-.02.39.18.24.26-.2.64-.38.7-.83Zm.57-4.95c-.23.2-.48.32-.47.63 0 .09.05.24.12.26.17.05.54-.46.5-.7-.02-.06-.1-.12-.15-.2Zm-.7 3.35c-.13.13-.13.27-.06.42.02.04.1.11.1.1.14-.08.2-.22.14-.38-.02-.06-.12-.1-.17-.14Zm-75.78 15.45c.04-.49.13-1.34.8-1.98.55-.51.75-1.25.77-1.88.04-1.06.76-1.56 1.32-2.2.32-.38.93-.4 1.2-.15.44.39 1.18.5 1.23 1.35.01.34.23 1 .94.9a.3.3 0 0 1 .3.32c-.12.78.44 1.06.91 1.53.53.53.54 1.48 1.08 2.1-.13 1.26.8 2.01 1.6 2.57.72.49.5 1.3 1.12 1.81.48.4 1.23.69 1.35 1.48.03.2.22.38.25.59.03.26.1.58-.17.75-.3.2-.47-.1-.68-.26-1.51-1.24-2.73-2.79-4.26-4-.21-.18.32-.59-.29-.66-.45-.05 0-.82-.45-.91-.46-.1-.42-.47-.56-.71-.28-.48-.32-.6-.75-.65-.46-.05-.31-.2-.19-.5.23-.5-.54-.52-.49-.62.48-.95-.08-1.12-.83-1.23-.25-.04-.24-.32-.24-.54 0-.28 0-.55-.04-.83-.01-.08-.12-.18-.2-.21-.1-.03-.25-.03-.3.03a5.5 5.5 0 0 0-.83 2.4l.02.15c.07.64-1.09.62-.76 1.4.32.76-.45.9-.76 1.27-.37.43-.97.25-1.08-.28-.06-.23-.01-.45-.01-1.04Zm37.91 107.28c-.18 1.14.06 2.05-.89 2.58.45.78-.25 1.24-.53 1.78-.3.57-.47 1.19-.7 1.77-.2.48-.15 1.09-.83 1.26-.4.1-.04.3-.01.45.09.6.04 1.05-.55 1.53a4.59 4.59 0 0 0-1.51 2.16 8.36 8.36 0 0 1-2.22 3.62c-.18.17-.49.22-.54-.02-.1-.38-.46-.6-.43-1.04.03-.4-.02-.75.51-.87.23-.05.08-.41.18-.58.38-.6.24-1.54 1.19-1.75-.1-.75.61-1.1.85-1.7.34-.86.73-1.74 1.29-2.48.57-.78.44-1.87 1.24-2.51.16-1.68 1.48-2.81 2.01-4.31.05-.15.12-.37.22-.4a.98.98 0 0 1 .62 0c.1.03.15.28.14.42-.02.14-.15.26-.04.1Zm-82.81-94.63c.1.03.2.03.26.08.74.55 1.76.68 2.27 1.58.1.18.3.43.47.44 1.12.1 1.6 1.06 2.28 1.72.49.46 1 .9 1.63 1 .77.14 1.17.64 1.6 1.17a9.2 9.2 0 0 0 2.46 2.2c.1.07.19.31.14.42-.04.1-.27.22-.38.19a7.3 7.3 0 0 1-2.23-1.03c-.88-.57-1.54-1.42-2.7-1.67-.66-.15-1.2-.87-1.8-1.34.26-.77-.23-.8-.8-.94-.47-.1-.75-.6-1.1-.93-.45-.41-.68-1-1.41-1.16-.57-.13-.6-.96-1.03-1.37l.34-.36Zm10.59-6.41c.12.03.3.03.43.1 1.08.57 2.75 1.82 3.32 2.7a6 6 0 0 0 2.06 2.01c.64.39.83.97.68 1.54-.13.49-.72.78-1.17.52-.37-.21-.7-.48-1.06-.72.5-.56-.26-.51-.39-.77a3.58 3.58 0 0 0-1.46-1.45c-1.03-.63-1.53-1.9-2.73-2.4-.22-.09-.19-1.16 0-1.38.06-.07.19-.09.32-.15Zm13.77-67.32c0-.49.5-1.14-.27-1.6-.08-.04-.1-.36-.02-.46.77-1.08.27-2.57 1.14-3.6.29-.35 0-.9.43-1.2-.07-1.63 1.22-2.79 1.46-4.31.03-.13.21-.25.34-.35a.4.4 0 0 1 .3-.08c.2.03.19.14.11.32-.46 1.07-.35 2.3-1 3.33a.77.77 0 0 0-.15.44c.11 1-.17 1.88-.65 2.75-.15.26-.47.62-.06 1 .08.07 0 .31.03.47.14.64-.72.8-.66 1.42.05.47.66.9.24 1.34-.57.6.28 1 .1 1.49-.06.19.19.64-.3.48-.3-.1-.68.25-.9-.24-.18-.38-.07-.75-.14-1.2Zm82.03 43.78c-.23-.26-.37-.02-.55.05-.4.14-.73.03-1.02-.3-.4-.43-.8-.91-1.3-1.23-.36-.24-.9-.39-.73-.86.25-.66.31-1.52 1.14-1.81.1-.04.3.09.4.19.06.05.05.22.02.31-.31 1.2.87 1.34 1.4 1.91.13.15.94 0 1.08-.25.22-.38.7-.65.67-1.16-.02-.14-.1-.26.01-.4.23-.3.45-.87.63-.85.47.04.65.63.7.99.13.78 0 1.61-.3 2.33-.15.35-.98.4-1.15.74-.28.6-.6.46-1 .34Zm-89.01-48.63c-.6-.58.34-.52.42-.91.29-1.58 1.36-2.85 1.97-4.31.08-.2.26-.34.42-.48.07-.06.2-.07.3-.05.15.02.17.1.12.2-.88 1.6-.99 3.46-1.73 5.1a9.96 9.96 0 0 0-.8 3.57c-.02.43.1.88-.36 1.2-.16.11-.3.27-.12.52.4.55.03.91-.34 1.26-.12.1-.24.18-.37.27-.04-.15-.1-.3-.13-.45a6.19 6.19 0 0 1 .23-4.23c.19-.53.6-1.06.4-1.69Zm154.9 155.22c-.18.02-.28.3-.43.07-.08-.13-.1-.38.1-.41.43-.07.63-.4.9-.66.16-.16.34-.37.25-.57-.37-.75-.05-1.3.46-1.8.32-.32.3-.78.2-1.1-.2-.5.43-.84.13-1.32-.36-.57.38-.69.48-1.07.14-.46-.08-1 .37-1.39.1-.1.11-.33.22-.4.12-.07.32-.04.48-.01.16.03.38.2.26.32-.69.74.21 1.62-.23 2.4-.08.11.28.34.05.67-.4.57-.45 1.33-.75 1.92-.35.67-.6 1.33-.75 2.07-.15.82-.96 1.26-1.75 1.28Zm-169.48-57.79c-.05.06-.11.2-.17.19-1-.06-2.08.53-2.99-.4-.49-.5-1.17-.32-1.7-.2-.56.13-.88.18-1.02-.47-.09-.37-.55-.52-.63-.93-.07-.36.17-.66.52-.56.15.04.28.23.42.23.53 0 1.03.05 1.57-.22.51-.26.75.74 1.4.59 1.39-.33 1.7 1.03 2.5 1.63.05.02.06.08.1.14Zm178.36 51.76c.44 1.75-.37 3.11-1.09 4.51-.14.28-.24.5-.56.43-.38-.09-.74-.27-1.16-.04-.08.05-.38-.19-.5-.35-.17-.26.14-.37.28-.48 1.1-.8 1.7-1.83 1.6-3.22-.01-.28-.13-.69 0-.8.36-.29-.26-1.13.62-1.06.8.07.8.07.8 1.01Zm-144.39 1.69-.37.22c-.02 0-.08-.06-.13-.1-.97-.87-1.8-1.87-2.87-2.67-.5-.37-.61-1.2-1.28-1.55-.1-.06-.1-.3-.16-.44-.15-.36-.12-.91-.83-.55-.14.07-.43-.38-.52-.73-.35-1.2-1.3-2.03-2.18-2.72-1.1-.85-1.69-2.1-2.7-3-.3-.28-.6-.73-.9-1.11-1-1.29-1.95-2.62-2.7-4.07-.08-.14-.08-.33.1-.43.13-.07.3-.12.43.04.71.85 1.83 1.34 2.2 2.5.14.44.4.76.86.85.6.1-.29.85.3.8.68-.07.65.47.9.76.25.29.38.66.62.95.63.75 1.17 1.65 1.96 2.16.74.48 1.2 1.2 1.73 1.78.52.56 1.23 1.12 1.44 1.98.11.47.97.4.93.99-.04.7.42.62.84.7.07.01.14.16.17.26a9.25 9.25 0 0 0 2.1 2.94c.14.16.13.18.06.44Zm2.8-6.64c-.06.1-.1.25-.16.26-.21.03-.56.1-.62 0a3.47 3.47 0 0 0-1.66-1.42c-.54-.24-1.03-.95-1.29-1.69-.1-.3-.62-.45-.92-.79-1.09-1.23-1.9-2.71-3.2-3.76-.41-1.37-2.07-1.74-2.49-3.1-1.3-.72-1.8-2.14-2.78-3.13a10.49 10.49 0 0 1-1.64-2.23c-.36-.62-.72-1.3-1.43-1.73-.48-.3-.7-1.02-.63-1.68 0-.07.13-.17.22-.2.09-.02.26.01.29.07a4.5 4.5 0 0 0 1.9 2.15c.31.2-.38.8.34.76.01.76.75.93 1.15 1.37.39.42.43 1.13 1.16 1.29.17.03.29.42.4.66.4.9 1 1.74 1.86 2.08.68.26.54.83.88 1.19a111.7 111.7 0 0 1 4.75 5.65c.75.93 1.66 1.86 2.67 2.59.6.43.93 1.02 1.2 1.66Zm49.58-24.46c-.75 0-.93-.85-1.63-1.07-.5-.16-.82-.85-1.39-1.18-.85-.48-1.6-1.15-2.45-1.67a1.81 1.81 0 0 1-.54-.52c-.4-.56-.82-1.14-1.64-1.22-.27-.02-.54-.37-.74-.61-.59-.73-1.57-1.1-1.89-2.08-.03-.1-.23-.18-.38-.24-1.4-.6-2.27-1.8-3.27-2.87-.77-.82-1.67-1.5-2.4-2.37a4.72 4.72 0 0 1-.7-1.07c-.1-.2-.24-.42.01-.55.18-.09.55-.12.6-.03.46.68 1.27.98 1.72 1.64.92 1.34 2.2 2.3 3.48 3.27.08.07.18.11.28.15.58.18.04 1.17.87 1.18.7.01.92.7 1.35 1.09.41.35.93.66 1.1 1.2.12.4.5.4.74.54.69.4 1.36.7 1.85 1.45.3.47.98.85 1.5 1.2 1.08.74 1.73 1.93 2.94 2.51.33.16.66.7.58 1.25h.01Zm-65.11-3.23c.05-.08.09-.3.2-.35.21-.08.33.07.49.26.86.97 1.87 1.78 2.5 2.98.22.42.57.86 1 1.2.21.17.43.43.69.58.26.16-.25.83.5.68.38-.08.34.43.5.66.6.8 1.26 1.52 2.01 2.18.6.5.76 1.4 1.57 1.73.29 1.07 1.28 1.63 1.82 2.53.51.86 1.32 1.53 1.7 2.5.07.16.4.2.51.35.14.2 0 .43-.2.56-.09.06-.2.35-.35.07-.73-1.38-1.93-2.36-3-3.44-.59-.58-.65-1.63-1.63-1.84-.18-.88-1.33-1.06-1.44-2.01-.07-.57-1-.01-1.08-.74-.06-.5-.41-.9-.8-1.2-.45-.34-.64-.84-.94-1.3-.08-.13-.1-.3-.2-.43-.49-.6-1.39-.74-1.6-1.74-.14-.74-1.02-1.23-1.27-2.02-.08-.28-.28-.3-.5-.3-.63-.02-.43-.49-.48-.9Zm64.72 21.55c-.02.04-.04.1-.08.11-.1.03-.27.08-.3.04-.8-.96-2.18-1.15-2.96-2.15-.08-.11-.28-.14-.43-.2a5.1 5.1 0 0 1-2.5-2.06c-.16-.27-.39-.54-.78-.52-.1 0-.27 0-.31-.05-.26-.39-.48-.78-.71-1.18-.5.56-.87-.12-1.31-.16-.13-.01-.25-.2-.36-.33a26.81 26.81 0 0 0-4.24-3.91c-.45-.36-.72-.94-1.08-1.4-.1-.15-.11-.33.01-.44.12-.09.3-.1.45-.13.25-.03.44.1.55.3.56.99 1.59 1.55 2.41 2.21.84.68 1.3 1.75 2.33 2.16 1.06.42 1.77 1.29 2.66 1.9.57.4.7 1.19 1.48 1.38.7.17 1.18.74 1.7 1.22l3.26 2.95c.1.07.15.18.21.26Zm-14.08-21.28c.3-.05.47.05.65.2 1.3 1.03 2.7 1.9 4.05 2.86 1.18.82 2.27 1.81 3.45 2.68.3.22.56.46.93.62.5.21 1.16.28 1.36.95.03.1.16.2.25.2 1.61.21 2.22 1.92 3.6 2.45.08.03.15.17.16.27.02.16.04.35-.02.48-.14.3-.25 0-.35-.06-.63-.4-1.29-.77-1.87-1.24a6.92 6.92 0 0 0-2.05-1.23c-.73-.26-1.19-1.11-1.98-1.45-.92-.4-1.56-1.23-2.4-1.68-1.52-.8-2.59-2.3-4.3-2.77-.4-.8-1.12-1.32-1.7-1.96-.1-.1-.13-.2-.02-.24.09-.06.2-.07.24-.08Z" fill="#284854"/><path d="M92.88 126.53c.09.04.2.06.24.12.06.1-.04.19-.12.13-.07-.04-.09-.16-.13-.25h.01Zm-33.82-7.95c-.39 0-.84.13-1.14-.02-.62-.32-1.09-.13-1.63.13-.78.37-1.66 0-1.7-.8-.06-1.14-.38-2.3-.06-3.45.09-.3.21-.6.51-.4.49.33.85.3 1.35.01.36-.2.87-.2 1.21.18.62.68 1.24.44 1.9.08a8.5 8.5 0 0 1 1.48-.6 3 3 0 0 1 1.63 0c.7.16 1.51.14 2.1-.17.09-.05.22-.2.26-.17 1.17.74 2.52-.34 3.67.37.53.32.96.27 1.53.04.82-.34 1.47-.1 1.77.65.27.7.6 1.55.36 2.2-.25.64-1.12.96-1.88.96-.53 0-.95.27-1.38.42-.63.21-1.1.4-1.6-.19-.28-.34-.85-.34-1.05-.17-.66.61-1.68.82-2.02 1.8-.07.2-.3.44-.02.52.87.23.47.83.43 1.32-.05.52-.5 1.14.46 1.32.27.06.03.26-.02.37-.24.56-.16 1.23-.86 1.63-.4.24.17.98-.18 1.44.99.33.2.95.14 1.36-.09.67-.16 1.49.35 1.74.88.44.48 1.2.7 1.78.17.48.2 1.14-.2 1.73-.26.38.33.86.01 1.47-.26.5-.8 1.26-.1 1.93-.58.71-.12 1.16.4 1.6.18.16.18.28.1.53-.42 1.2-.22 2.57-1.05 3.67-.22.29 0 .59.23.67.7.25.71.65.37 1.2-.08.13 0 .38-.08.47-.43.5 0 .8.3.8a3.2 3.2 0 0 1 2.52.94c.12.12.3.1.44-.02.17-.14.32-.31.5-.43.8-.51.92-.5 1.64.12.17.14.33.29.5.41.72.5.76.5.48 1.47-.1.37.4.54.13.86-.33.39-.92.34-1.2.81-.13.24-.27.02-.37-.07-.85-.66-1.69-.67-2.5.03-.33.28-.57.2-.87-.02-.79-.57-1.57-.57-2.4-.02-.63.42-1.33.51-1.94-.1-.46-.45-.95-.4-1.5-.15-.68.31-1.36.53-2.04-.04-.27-.22-.61-.13-.91.04-.28.16-.56.36-.86.46-.72.23-1.42-.42-1.48-1.17-.05-.63.73-1.17.15-1.85-.15-.18.15-.18.27-.23.6-.2 1.07-.97 1.89-.39.15.11.57-.21.88-.25.32-.05.73-.1.96.06.41.28.7.05.74-.22.04-.31.63-.58.15-.95-.44-.34-.42-.67-.11-1.12.21-.31.46-.68-.07-1.09-.6-.44.42-.95.08-1.48-.25-.38-.62-.7-.4-1.24.23-.58.15-1.18.04-1.77-.02-.1-.2-.2-.18-.26.16-.56 1.19-.78.55-1.69-.42-.6.17-1.3.08-1.97-.03-.16.35-.32.01-.5-.87-.46-.65-1.06-.2-1.68.32-.46-.07-1.09.37-1.52a6.05 6.05 0 0 1 .28-3.46c.03-.1.13-.23.1-.3-.72-1.3.15-2.82-.56-4.13-.2-.38.07-.7.23-1.06.12-.28.27-.55.1-1-.47-1.41-.39-1.44-1.79-1.44Z" fill="#284854"/></svg>