<svg viewBox="0 0 195 258" fill="none" xmlns="http://www.w3.org/2000/svg"><path d="M58.41 111.81c-.06.36-.54.6-.12 1.1.21.26.07.81.1 1.23.04.41-.02.83.27 1.2.36.47.07.87-.11 1.35-.16.42.72.64.68 1.19-.08 1.03.33 2.12-.33 3.1-.02.91-.1 1.83-.04 2.74.04.75-.28 1.35-.55 1.98a1.2 1.2 0 0 1-.42.48c-.98.7-.97 1.66-.59 2.62.29.7.4 1.3-.1 1.96-.2.27-.18.67.06.98.44.58.4 1.19.07 1.77-.3.49-.33.92.03 1.36.1.13.08.2-.02.36-.3.5-.38 1.08-.08 1.6.19.3.05.46-.04.72-.19.54-.24 1.1.14 1.6.28.39.25.8-.02 1.18-.33.46-.3.9.02 1.36.33.46.25.91-.11 1.35-.15.18-.16.4-.01.57.22.25.2.45 0 .72-.1.15-.08.4-.12.6-.07.45.65.78.33 1.14-.5.55.18.87.1 1.33-.07.4-.09.89.08 1.24.17.37.21.6-.05.9-.15.19-.12.92-.07 1.45.04.4.05.8-.14 1.23-.3.68-.7 1.4-.64 2.14.05.65.46 1.28.7 1.93.13.33.16.67-.04 1-.14.24-.2.54-.38.74-.33.35-.39.73-.34 1.17.07.69-.2 1.42.25 2.07.03.05.11.14.1.17-.71 1.12-.16 2.36-.37 3.52-.04.2-.16.38-.23.57-.06.2-.12.4-.16.6-.1.52.52.81.42 1.38-.06.4-.05.9.15 1.22.47.75.21 1.5.24 2.27a.52.52 0 0 1-.16.37c-.72.52-.53.95.03 1.47.16.15.2.54.14.79-.1.43-.68.78-.14 1.3.2.2-.08.38-.21.5-.47.44-.58.87-.32 1.5.39.94.33 1.32.03 2.2-.3.87-.28 2.49.1 3.47.14.35.23.72 0 .99-.41.5-.21.84.05 1.31.12.2-.29.7-.18.9.4.7.4 1.31-.04 1.98-.13.2-.1.53-.1.81-.02 1.06-.03 2.13-.02 3.2 0 .56.08 1.12-.38 1.58-.08.08-.03.27-.07.4-.1.45.63.85.07 1.31-.02.5.04 1-.07 1.48-.12.53.61.98.1 1.51.5.54.27 1.22.33 1.83.05.56.03 1.08-.35 1.6-.2.29-.11.83-.04 1.24.06.42-.56.64-.2 1.13.24.33-.53.67-.11 1.1.26.27.32.6.3.97l-.04 1.28c-.02.48.07.97-.3 1.4-.3.35-.21.88-.05 1.22.22.44.3.72-.11 1.05-.45.36-.54.84-.21 1.31.26.39.39.8.15 1.17-.25.4-.45.72-.07 1.12.22.23-.08.35-.15.52-.25.64-.63 1.23-.52 1.98.08.61-.15 1.24.28 1.84.3.4.23.95 0 1.4-.15.33-.35.63-.29 1 .18 1.14-.53 2.14-.53 3.25-.54.4.3.8.05 1.09-.43.52-.26 1.22-.65 1.73-.11.15-.06.4-.13.6-.12.36.44.55.23.93-.16.3-.3.64-.49.92-.22.33-.17.67-.18 1.02l-.02 2.34c-.98 1.2.12 2.8-.75 4.03.62 1.05.2 2.2.3 3.3.03.2-.15.36-.4.36l.02.01c-.06-.34-.3-.49-.6-.39-.45.15-.64 1.05-1.35.47-.28.22-.62.42-.6.81 0 .68-.15 1.25-.71 1.68-.28.22.02.35.13.48.38.43 1.06.43 1.38.96.07.11.24.25.34.23 1.08-.18 1.83.69 2.78.82.58.07.86.4 1.25.7.15.1.48.2.57.11.49-.43.79-.12.97.26.2.41.34.76.9.68.35-.05.7-.04 1 .24.09.09.26.1.36.18.8.61 1.64 1.06 2.7.85.6-.11.97.56 1.6.45.2-.03.49.24.68.43.35.34.68.53 1.1.14.13-.12.21-.1.35.04.6.62 1.36.88 2.19 1.1.72.2 1.4.63 2.06 1.01.61.35.68 1 .16 1.61-.29.33-.58.53-.17 1.01.18.21.08.68.05 1.03-.03.37-.46.84-.83.84-.67 0-1.26.06-1.72.63-.27.33-.64.23-.93-.04-.18-.17-.41-.19-.59-.08-.87.55-1.71.5-2.6-.01-.2-.12-.62-.11-.8.02-.44.35-.9.33-1.4.33-1.08 0-2.15.03-3.23 0a1.6 1.6 0 0 1-.78-.25c-.38-.24-.65-.14-.93.15l-.31.3c-.23.19-.47.27-.77.12-.42-.22-.85-.55-1.28-.57-.36-.01-.74.35-1.1.55-.41.23-.85.07-1.27.1-.44-.52-.85-.06-1.27.05-.87.21-1.27.23-1.92-.13-.32-.17-.6-.28-.98-.32-.62-.05-1.3.2-1.86-.26-.06-.05-.24.04-.34.1-.4.25-.8.24-1.2 0-.11-.05-.3-.17-.34-.13-.65.57-1.03.13-1.38-.35-.55-.74-.6-.77-1.29-.43-.3.16-.72.28-.85.54-.27.55-.57.95-1.24.96-.57.02-1.14.12-1.6-.35-.14-.13-.4-.09-.59.08-.3.27-.61.35-.93.05-.14-.13-.23-.15-.36-.05-.43.35-.87.4-1.36.1-.6-.37-1.18-.26-1.8 0-.82.33-1.2.22-1.57-.54a2.9 2.9 0 0 0-.75-1c-.57-.45-.64-1.04-.62-1.7.02-.37.2-.66.3-.99.08-.25-.22-.6-.27-.92-.05-.27-.07-.6.06-.82.57-1 .35-2.04.24-3.07-.52-.4.27-.76.06-1.1a2.27 2.27 0 0 1-.38-1.4c.03-.42-.04-.85.03-1.27.11-.7-.23-1-.83-1.24-.68-.27-1.31.02-1.34.7v1.28c.01.41-.07.84.24 1.22.24.3-.35.74.14 1.03.16.73.07 1.33-.55 1.9a12.2 12.2 0 0 1-3.04 2.22c-.2.1-.22.26 0 .27.43.02.76.71 1.3.17.14-.14.62-.14.8 0 .25.2.36.56.53.86.03.05.06.14.04.17-.42.72-.68 1.65-1.62 1.82-.55.1-.9.32-1.26.68-.39.39-.76.95-1.41.36-.43.2-.87.36-1.29.58-.3.16-.52.06-.77-.11-.27-.2-.55-.73-.82-.55-.5.33-1.01-.12-1.48.24-.7.53-1.54.6-2.41.54-.65-.05-1.08-.24-1.3-.86-.2-.6-.64-.89-1.3-.83-.22.01-.43-.01-.63-.08-.45-.13-.69-.7-.41-1.17.2-.37.26-.65-.07-.92-.4-.33-.5-.84-.79-1.23-.24-.36-.11-.6.01-.96.1-.24-.21-.6-.23-.91-.04-.64.02-1.28 0-1.91-.01-.7.12-1.4-.37-2.04-.13-.17-.1-.62.04-.8.34-.44.3-.91.33-1.4.03-.55-.02-1.08.34-1.62.25-.37.21-.94-.09-1.4-.15-.23-.2-.6-.4-.71-.14-.08-.46.17-.7.21-.63.1-1.25-.32-1.26-.85-.03-1.42 0-2.84 0-4.26.6-.82.31-1.76.39-2.66a.93.93 0 0 0-.25-.78c-.17-.17-.21-.43-.09-.57.45-.49.42-1.07.31-1.6-.09-.47.56-.72.27-1.12-.27-.4-.21-.8-.24-1.22-.03-.43 0-.85-.03-1.28-.02-.2-.16-.38-.21-.57-.06-.2-.19-.47-.1-.58.43-.59.46-1.1.01-1.73-.17-.24-.09-.68-.07-1.03.05-.64.05-1.6-.2-2.06-.36-.62-.22-1.17-.06-1.8.35-1.3.46-2.62-.05-3.91-.13-.3-.1-.53.08-.77s.3-.53.19-.79c-.28-.63-.74-1.24-.07-1.9-.67-1.03-.28-2.18-.35-3.27-.06-1.06-.03-2.13 0-3.2 0-.56-.57-.95-.42-1.6.11-.47.02-.99.02-1.48 0-.56-.15-1.14.32-1.61.07-.07.08-.32 0-.39-.53-.53-.31-1.2-.32-1.82l-.01-4.25c0-.56.03-1.11-.35-1.62-.13-.18-.15-.6-.02-.8.6-1 .45-1.98.04-2.99-.13-.3-.11-.69-.11-1.03-.01-1.28.02-2.56 0-3.83-.02-.7.11-1.43-.4-2.03-.07-.1-.02-.27-.04-.42-.04-.43.63-.84.04-1.28 0-.43-.03-.85-.03-1.28v-2.76c0-.5-.03-1-.03-1.49 0-.35-.06-.71.23-1 .21-.2.24-.48.24-.77 0-.78-.06-1.57.02-2.34.06-.57-.58-.83-.47-1.36.07-.32.35-.67.27-.92-.1-.33-.33-.63-.25-1 .05-.24.28-.48.27-.72 0-.25-.2-.5-.28-.77-.15-.43.55-.76.09-1.32-.34-.4.15-.9.26-1.36.1-.43.18-.94-.14-1.42-.43-.63-.34-1.34-.05-2 .12-.26.25-.5.25-.79-.02-1.35-.02-2.7 0-4.04 0-.38-.17-.66-.33-.97-.2-.4-.2-.85.18-1.16.8-.65.7-1.48.47-2.3-.42-1.55-.45-1.59-.04-3.24.03-.13.08-.22-.06-.35-.4-.41.2-.84.08-1.1-.2-.4-.36-.76-.3-1.19.11-.89-.26-1.86.4-2.66-.01-.7.14-1.47-.1-2.1-.35-.92-.45-1.72.1-2.6a.8.8 0 0 0-.17-.97c-.5-.47-.96-.93-.25-1.58 0-.64.19-1.34 0-1.9-.4-1.1-.6-2.09-.02-3.2.24-.45.02-1.11.04-1.68.03-.42-.22-.65-.51-.86-.28-.2-.62-.32-.9-.52-.44-.31-.32-.9.2-1.2.15-.07.23-.1.36.05.14.16.28.31.44.46.2.17.44.07.64-.23.18-.26.03-.37-.19-.4-.87-.14-.8-1.3-1.62-1.48a2.18 2.18 0 0 1 .03-1.82c.25-.45.2-.73-.03-1.14-.16-.28-.09-.68-.13-1.03-.04-.28 0-.62-.16-.8-.45-.55-.17-.9.22-1.26.39-.34.42-.66.11-1.09-.42-.57.05-1.42-.56-1.96.18-.44.3-.94.58-1.32.35-.48.14-.76-.19-1.08-.1-.1-.2-.2-.27-.32a.7.7 0 0 1-.1-.39c.03-.38.62-.66.23-1.12-.25-.3-.22-.64-.28-.98-.08-.57.1-1.07.29-1.58-.59-.48-.03-.86.1-1.29a.49.49 0 0 0-.1-.39c-.24-.25-.14-.45.02-.71.19-.3.23-.69 0-1-.4-.52-.4-1-.01-1.54.14-.2.11-.53.15-.8.03-.35-.06-.79.11-1.01.32-.4-.05-.62-.06-.9 0-.33.25-.63.32-.97.06-.27.11-.6 0-.84-.3-.65-.66-1.26-.05-1.93.03-.03-.17-.22-.2-.34-.18-.55-.28-1.1.12-1.6.2-.25.23-.51.02-.76-.27-.31-.31-.6-.03-.93.31-.38.28-.4.21-1.17-.04-.42-.16-.92.01-1.25.49-.95.33-1.92.4-2.9.04-.61.56-1.1.45-1.8-.09-.55-.13-1.13.32-1.6.07-.09.05-.27.06-.41.05-.76-.1-1.54.4-2.26.17-.25.06-.69.07-1.04 0-.43-.11-.9.04-1.26.17-.41.24-.7 0-1.1-.07-.14.3-.48.3-.73-.02-.22-.41-.42-.1-.69.9-.74.75-1.54.21-2.43-.3-.5-.26-.55-.93-.24-.29.14-.56.22-.77-.02-.45-.55-1-.74-1.7-.69-.18.01-.38-.14-.55-.25-.95-.58-1.23-1.7-1.98-2.45-.12-.12-.15-.4-.13-.6.08-.56-.16-.95-.57-1.29-.39-.32-.39-.78-.16-1.15.25-.42.2-.56-.27-.69-.13-.03-.25-.33-.25-.51-.03-1.06 0-2.13-.03-3.2-.03-.84.65-1.53.52-2.4.76-.94.72-2.24 1.45-3.19.3-.38.07-.83.35-1.19.26-.32.63-.55.74-1.01.08-.34.41-.34.7-.34.22 0 .46-.1.48-.3.08-.7.8-.93 1.03-1.57.19-.55.76-1.05 1.3-1.36a8.47 8.47 0 0 0 1.5-1.14c.15-.14.35-.23.53-.3 1.03-.44 1.07-.48.4-1.09-.63-.56-1-1.18-.84-2.05.12-.6-.07-1.1-.56-1.5-.09-.08-.13-.22-.16-.34 0-.05.08-.11.11-.17.42-.82 0-1.82.62-2.62.35-.43.59-.95.82-1.46.36-.83.86-1.42 1.86-1.47.32-.01.64-.26.95-.43.67-.35.95-1.17 1.88-1.3a3.58 3.58 0 0 0 1.99-1.1c.13-.11.4-.06.6-.13.73-.24.7-.28.52-1.11-.1-.49-.18-.9-.52-1.32-.51-.63-.49-1.6-1.21-2.13.08-1.22-.68-2.23-.88-3.38a16 16 0 0 0-1.39-3.4c-.11-.17-.3-.37-.29-.54.1-.94-.6-1.72-.5-2.66.08-.64-.55-1.1-.42-1.8.13-.64 0-1.29-.36-1.82-.17-.26-.02-.7-.04-1.05-.03-.35.03-.75-.14-1.03-.55-.97-.3-1.86.08-2.8.13-.31.18-.65.36-.96.75-1.32 1.09-2.84 1.86-4.16.13-.24.36-.43.5-.67.29-.5 1.01-.4 1.26-1.05.18-.5.72-.85 1.09-1.29a3.47 3.47 0 0 1 1.96-1.13c.79-.17 1.37-.72 2.12-.9.79-.9 1.85-.9 2.91-.86.47.01.84-.04.96-.6.02-.1.37-.24.54-.21.75.13 1.36-.28 2.04-.4.69-.14 1.42-.04 2.14-.09.18 0 .47-.33.53-.28.68.54 1.55.11 2.24.44.42.21.75.36 1.14 0 .09-.07.34-.13.38-.08.59.68 1.54.1 2.18.66.18.15.55.19.8.13.84-.2 1.44.58 2.23.48.21.26.38.57.65.75.21.15.55.1.8.21.45.2.85.5 1.31.66.6.2.86.63 1.1 1.16.15.33.34.61.3.98-.09.66.06 1.2.56 1.73.46.49.7 1.18 1.02 1.8.08.18.17.4.13.59-.19 1.14.62 1.96.95 2.93.05.15.45.22.55.15.16-.1.17-.18.03-.32-.29-.29-.35-.76-.18-.99.52-.64.34-1.33.37-2.02.05-.83-.21-1.71.41-2.44-.02-.48.15-.98-.18-1.43-.5-.69-.1-1.17.4-1.64.27-.26.47-.43.86-.14.2.14.56.13.83.1.92-.11 1.56.26 2.25.87.61.55 1.37.96 2 1.52.17.16.53.14.8.14.38 0 .8.05.92.4.27.83 1.14.97 1.61 1.56.45.55.99 1.03 1.51 1.5.2.2.48.29.72.43.23.16.45.35.68.5.54.39.48 1.26 1.12 1.5.64.23 1.03.71 1.48 1.15.2.2.45.46.44.68-.05 1.27.9 2 1.52 2.88.28.4.54.82.83 1.2.45.55.84 1.14 1.09 1.78.27.7 1.13.56 1.4 1.19.16.37.39.73.63 1.06.26.34.61.6.87.94.11.15.08.4.15.59.06.18.15.39.3.5 1.47 1.15 1.48 1.14 2.3 3.05.14.35.37.59.63.83.37.34.68.7.65 1.26-.02.24.16.4.38.43.25.05.4.19.43.4.05.36.06.7.34.98.34.36.78.7.9 1.14.13.4.33.77.42 1.15.15.56.24 1.06.72 1.46.44.37.18.93.2 1.41.02.4.1.66.55.76.33.08.37.4.34.69-.09.75.16 1.31.65 1.91.57.7.63 1.66 1.04 2.46-.19.88.39 1.6.6 2.38.22.78.38 1.64.9 2.3.48.58-.04 1.45.64 1.95.05.95.55 1.7 1.16 2.39.25.27.15.66-.2.9-.29.2-.6.35-.91.5-.58.29-1.2.08-1.26-.57-.05-.68-.52-1.13-.68-1.72-.07-.27-.28-.55-.23-.79.18-.88-.15-1.5-.83-2.02-.49-.37-.5-.77-.12-1.26.17-.24.06-.51-.3-.64-.25-.1-.46-.3-.69-.46-.16-.11-.15-.22-.04-.35.2-.22.32-.45.16-.76-.29-.55-.67-1.04-.77-1.7-.1-.6-.45-1.14-.43-1.8.01-.47-.39-.74-.8-.9-.22-.08-.45-.19-.42-.39.15-.94-.69-1.68-.47-2.64.1-.47-.16-.73-.65-.9-.34-.1-.78-.42-.3-.94.13-.14.11-.37-.03-.58-.2-.29-.32-.62-.52-.9-.4-.57-.78-1.16-1.25-1.67a4.7 4.7 0 0 1-1.15-2.17 5.14 5.14 0 0 0-2.05-2.72c-1.1-.83-1.72-2.04-2.59-3.05a1.16 1.16 0 0 0-.69-1c-.94-.5-1.32-1.38-1.77-2.23-.16-.3-.28-.65-.52-.89-1.1-1.09-1.8-2.5-2.84-3.6-1.06-1.14-1.93-2.43-3-3.54a19.5 19.5 0 0 0-2.42-2.04c-.84-.62-1.63-1.32-2.48-1.95-.48-.36-1.1-.16-1.54-.63-.32-.35-.81-.54-1.23-.8-.05-.02-.16-.03-.16-.02-.05.12-.16.3-.12.37.3.5.42 1.02.38 1.6-.03.56 0 1.1.36 1.61.12.18-.26.67-.15.9.15.34.27.66.23 1-.08.8.16 1.52.41 2.23.11.32.33.64.31.95 0 .24-.4.53-.23.76.64.91.27 1.93.37 2.89 0 .08-.17.27-.23.26-.12-.03-.23-.15-.34-.24-.23-.2-.3-.46-.3-.76-.05-.69.1-1.38-.29-2.05-.3-.53.07-1.29-.49-1.8-.07-.07-.01-.27-.05-.4-.11-.44.65-.85.04-1.3-.03-.48-.04-.98-.1-1.47 0-.1-.13-.2-.2-.3-.06.13-.15.24-.17.37-.14.75.23 1.57-.35 2.24.66.82-.27 1.53-.12 2.35a4 4 0 0 1-.73 3.19c-.03 1.4-1.3 1.9-2.07 2.77-.66.04-.9.64-1.33 1a1.3 1.3 0 0 1-.97.34c-.43-.02-.85-.04-.96.56-.01.12-.36.29-.51.25-.77-.2-1.3.54-2.04.47-.16-.02-.43.18-.5.34-.32.74-.85 1.05-1.65.92-1.14.78-2.75.77-3.56 2.08-.37.6-1.06.33-1.51.65-.46.32-.71.96-1.32 1.03a1.9 1.9 0 0 0-1.11.52c-.52.46-.9 1.05-1.65 1.3-.56.18-.87.98-1.65.81-.55.8-1.92.71-2.13 1.9-.86.45-1.54 1.25-2.52 1.44-.89.16-1.56.57-2.16 1.18-.51.5-1.13.85-1.84.97-.4.06-.67.17-.73.6-.01.05-.08.14-.13.15-1.54.28-2.53 1.72-4.15 1.85-.41.03-.75.36-.8.85-.2 0-.41 0-.6.03-.06.02-.1.15-.13.24 0 .02.1.09.15.1.3.04.5-.08.54-.4 1-.12 1.62.28 1.9 1.24.26.92.84 1.77.69 2.79-.04.3.12.52.27.77.1.16.1.39.15.59 0 .06.02.17-.02.2-.63.6-.19 1.5-.67 2.16-.27.37.09 1.17.5 1.12.9-.11 1.58.62 2.45.5.14 0 .36-.05.41.02.53.65 1.4.16 1.98.6.32.23.58.2.96.06.72-.27 1.47-.43 1.98-1.07 1.01.08 1.52-.7 2.05-1.33.35-.42.44-1.01 1.22-.89.2.03.46-.29.66-.49.61-.6 1.2-1.21 1.8-1.82.33-.32.79-.2 1.06.24.25.39.29.79.05 1.18-.21.36-.55.6-.74 1.02-.33.71-.86 1.3-1.8 1.22-.48.36-1.16.47-1.35 1.2-.1.42-.13.48.3.48.57 0 1.15-.02 1.72 0 .41.01.84-.05 1.23.23.37.28.56-.34.93-.23.13.04.34-.05.41.02.66.65 1.49.31 2.24.4.75.1 1.58-.22 2.25.4.12.11.46.1.62.01.97-.55 2.05-.84 3.07-1.27.19-.09.35-.25.5-.4.59-.58 1.26-.58 1.93-.21.37.2.62.14.97-.04.35-.19.82-.18 1.17-.4.43-.26.59.24.93.22.7-.05 1.44-.13 2.02.42.7-.11 1.2.35 1.74.63.36.19.65.26.95-.02.14-.13.21-.1.37 0 .4.28.84.5 1.23.79.24.18.47.3.77.27.72-.05 1.24.21 1.47.93.07.22.2.37.45.36h.64c.5 0 .93-.02 1.17.64.15.44.97.05 1.28.55.22.36.42.72.68 1.05.11.15.36.3.53.28.59-.04.93.3 1.25.68.27.31.4.8.73.98.34.2.5.4.65.73.18.4.56.59.98.74.32.1.19.69.66.74.36.04.42.34.42.63 0 .59.3.92.83 1.07.64.19.92.6.9 1.25 0 .38.3.43.6.44.66.05 1.01.4 1.1 1.05.01.14-.02.33.06.41.48.53.83 1.1.92 1.83 0 .06.07.11.13.16.77.65 1.18 1.52 1.62 2.4.5.99 1.02 1.97 1.85 2.76.61.59 1.1 1.28.98 2.22a.9.9 0 0 0 .27.77c.35.37.03.99.53 1.32.36.25.48.63.55 1.09.08.44.38.85.58 1.28.32-.29.68-.54.93-.88.27-.35.96-.23.97-.7.03-.88.56-1.2 1.24-1.51a.84.84 0 0 0 .52-.85c-.03-.42.18-.63.58-.75.14-.05.23-.33.26-.52.06-.27.06-.55.39-.68.32-.14.62-.34.95-.44.35-.1.43-.33.42-.63 0-.6.34-.9.84-1.08.23-.08.33-.2.41-.42.23-.55.99-1.34 1.66-1.86.25-.19.6-.37.25-.82-.34-.42-.14-.95-.15-1.44-.02-.55.1-1.13-.35-1.6-.13-.15-.1-.4.06-.58.2-.22.38-.5.18-.75-.35-.43-.33-.93-.34-1.41-.01-.92.02-1.84 0-2.77-.02-.59.04-1.1.57-1.5.22-.17.77-1.91.72-2.33-.07-.72.25-1.2.75-1.66.32-.28.59-.62.9-.9.25-.22.43-.63.82-.54.25.06.44.33.64.53.14.13.26.12.29-.09.04-.41.24-.65.68-.6.3.03.52-.14.77-.26.67-.3.74-.26 1.17.32.12.17.2.4.38.5.7.44 1.38.84 1.8 1.66.35.66.93 1.22 1.22 1.93.2.5.47.85 1 1 .1.04.3.2.28.26-.25.95.76 1.28 1.01 2.02.25.7.42 1.44.73 2.13.08.19.07.43.19.59.63.83.78 1.77.7 2.78a.98.98 0 0 0 .28.77c.41.47-.05 1.1.31 1.6.35.5-.24.84-.36 1.27-.06.2-.25.4-.22.57.23 1.15-.66 2.14-.43 3.29.09.45-.12.83-.47 1.12-.48.4-.81 1-1.5 1.12-.12.02-.1.19.04.32l.32.28c.25.2.72.11.75.62.03.38-.19.65-.31.97-.18.5-.72.9-.55 1.54-.33.03-.44.23-.41.53 0 .06.08.16.1.15.1-.01.25-.05.26-.1.04-.2.02-.4.03-.6h.64c.37.03.8.04.35.57.19.28.48.53.55.82.2.77.48 1.47 1.15 1.93.5.35.14.97.52 1.34.35.34.7.7 1 1.1.11.14.07.4.08.6.02.15 0 .3 0 .43.09.59.87.76.85 1.41-.03.59.04 1.13.57 1.51.33.24.22.64.33.97.11.3.41.55.62.82.19.24.27.48.07.77-.09.15-.33.38.01.47.75.19 1.05.66 1 1.39-.04.6.35 1.05.6 1.53a10 10 0 0 0 1.22 1.68c.26.3.4.6.33.95-.15.75.57 1.24.57 1.98 0 .26.45.52.67.8.17.2.47.47.44.67-.16.9.55 1.4.86 2.08.36.8 1.03 1.51.91 2.51-.02.18.17.37.24.56.2.58.68 1.06.6 1.75-.08.64.67 1.08.45 1.8-.12.38.2.63.43.9.5.6.9 1.27.82 2.09-.05.49.5.73.42 1.15-.1.57.5.87.45 1.38-.05.5.3.77.6 1.06.22.22.32.48.28.77a3.4 3.4 0 0 0 1.02 3.06c.3.3.29.63 0 .93-.12.13-.1.2.04.34.73.75 1.5 1.48 1.56 2.66 0 .23.32.44.47.67.12.17.33.38.3.53-.19.82.58 1.43.47 2.22a.9.9 0 0 0 .4.93c.49.3.06.76.22 1.02.3.47.17.96.27 1.44.1.46.66.36.87.82.41.95.63 1.98 1.2 2.87.04.08-.05.26-.1.38-.08.17-.33.3-.1.53.2.2.39.42.6.6.35.3.58.64.5 1.11-.1.66.12 1.25.47 1.78.43.66.58 1.41.77 2.13.17.66.7 1.23.52 2-.04.15.14.37.25.54.2.28.63.47.55.86-.15.63.64.95.45 1.58-.22.75.3 1.34.5 1.99.12.39.4.72.61 1.08.24.42.28 1.05.81 1.17.6.14 1.24.22 1.87-.06a16 16 0 0 1 2.15-.73c1.03-.28 1.8-1 2.64-1.6.15-.11.22-.43.35-.45.7-.1.92-.81 1.6-1a2.85 2.85 0 0 0 1.7-1.18c.4-.66 1.4-.67 1.65-1.52.03-.11.36-.14.56-.2.13-.03.37-.03.39-.1.4-1.26 2.18-1.32 2.46-2.7.01-.06.11-.14.16-.14 1.1.15 1.04-.88 1.51-1.4a6.7 6.7 0 0 1 1.97-1.52c.58-.29.85-.64 1.08-1.19.18-.44.44-.89.78-1.23.32-.31.87-.38 1.02-.92.02-.08.24-.14.37-.14.38-.02.67-.09.78-.54.06-.26.39-.5.36-.73-.06-.78.5-1.11.95-1.55.24-.24.7-.12.8-.6.13-.61.96-.87.88-1.63-.04-.36.26-.41.53-.52.34-.14.7-.42.68-.75-.05-.87.61-1.24 1.1-1.72.75-.76 1.44-1.52 1.56-2.65.02-.21.18-.35.43-.37.34-.04.69 0 .84-.47.2-.64 1.06-1 .89-1.84-.01-.06.2-.21.31-.24.48-.1.5-.43.5-.8-.01-.42-.05-.85.56-.97.2-.03.29-.26.29-.5 0-.27 0-.6.34-.68.47-.1.7-.47 1-.75.22-.19.44-.4.39-.71-.13-.84.44-1.44.72-2.14.22-.53.49-.96 1.1-1.18.58-.21.82-.72.77-1.36-.03-.28 0-.57-.01-.85-.02-.4.11-.66.54-.76.2-.05.31-.26.3-.5-.03-.58 0-1.12.7-1.32.09-.02.15-.23.15-.36 0-.82.6-1.4.92-2.07.24-.52.5-1.02.4-1.6-.12-.62.24-1.1.51-1.54.67-1.1.73-1.08.73-1.49.01-.45.06-.83.63-.94.11-.02.26-.36.23-.51-.14-.62.32-1.05.44-1.58.1-.46-.12-1 .33-1.38-.22-.4-.2-.73.2-1.01.41-.3.42-.73.37-1.15-.07-.62.09-1.11.58-1.5.33-.27-.1-.5-.06-.7.08-.32.27-.63.46-.92.15-.23.27-.46.33-.75.13-.68.38-1.33.91-1.83.18-.17.18-.2.03-.67-.11-.35-.18-.69.04-1 .15-.25.34-.48.2-.77-.13-.24-.36-.44-.05-.7.4-.33.67-.7.59-1.27-.07-.5-.1-1 .31-1.4-.9-.6.56-1.44-.2-2.05.35-.64.28-1.34.3-2.02 0-.2 0-.42.05-.62.1-.4.8-.55.62-.96-.19-.41-.4-.86-.25-1.2.67-1.42.34-2.9.44-4.34.02-.26.32-.5.32-.75s-.23-.5-.34-.74c-.28-.59-.31-.61.07-1.03.32-.34.5-.64.13-1.1-.34-.41-.25-.93-.09-1.4.18-.48 1.06-.7.6-1.41-.36-.54.39-.84.19-1.33-.21-.53.53-.95.33-1.36-.26-.54-.21-.86.25-1.2.33-.25.26-.64.24-.98a4 4 0 0 1 .4-2.02c.26-.52-.1-1.23.33-1.82.18-.25.19-.69.13-1.01-.2-1.09.37-2.04.49-3.08.08-.65.54-1.26.87-1.87.08-.15.33-.24.52-.28.41-.06.84.04 1.22-.27.29-.24.46.21.72.22.7.02 1.41-.08 2.04.35.34-.38.7-.19.82.14.27.71.7 1.18 1.42 1.44.17.06.43.31.41.45-.1.94.96 1.36.98 2.26 0 .24.22.51.42.7.87.8 1.41 1.73 1.26 2.96-.05.4.2.65.47.9.34.31.5.6.19 1.08-.43.66-.37 1.34.23 1.91.34.32.55.66.16 1.08-.13.14-.06.2.02.36.5.99.52 2.13.98 3.13.1.2.13.42-.03.58-.41.41-.32.93-.3 1.4.04.67-.03 1.26-.63 1.7-.24.18-.17.5-.25.77-.16.54.62.99.13 1.53.12.51.63.8 1.09.53.34-.19.6-.33.94-.04.32.27.56.61 1.04.7.24.06.51.33.6.57.33.79.72 1.52 1.3 2.13-.03.82.48 1.43.83 2.1.03.05.08.12.08.19.01.57.01 1.13.04 1.7.03.49.44.83.44 1.38 0 .79-.11 1.51-.49 2.2-.1.19-.32.5-.3.52.6.5-.2.86-.1 1.33.1.55 0 1.13.01 1.7.01.43-.01.83-.31 1.2-.22.26-.03.52.14.75.22.26.19.55-.04.75-.44.4-.75.82-.71 1.46 0 .17-.3.35-.32.53-.05.5-.5.68-.7 1.04-.18.36-.14.87-.38 1.15-.33.39.24.7-.1 1.1-.32.37-.1.73.32.69.8-.07 1.5.24 2.24.41.55.13.97.32 1.12.82.15.46.46.47.81.48.35.03.51.22.5.55 0 .62.16 1.27-.35 1.81-.07.08-.07.34 0 .4.62.53.01 1-.02 1.5-.05.65-.5 1.13-.55 1.79a5.14 5.14 0 0 1-.56 1.96c-.3.57-.14 1.27-.64 1.74.08.57-.26.9-.62 1.28-.5.54-1.3.94-1.15 1.9-.5.51-.87 1.09-.95 1.81-.6.22-.88.63-.77 1.28.05.3-.15.52-.35.73-.95 1.04-1.63 2.3-2.74 3.2-.15.13-.34.4-.3.53.34 1.02-.75 1.46-.9 2.27-.63.43-.69 1.38-1.52 1.63-.28.56-.52 1.16-1.26 1.28-.13.02-.11.18.03.3.16.15.37.43.48.4.9-.24 1.6.5 2.47.48.68-.03 1.08.42 1.09 1.02.03 1.7.03 3.4.04 5.1 0 .42-.2.62-.6.74-.13.04-.27.35-.25.52.05.49-.37.75-.5 1.15-.09.31-.37.58-.62.83-.3.31.36.58 0 .9-.2.18-.25.65-.42.68-.84.14-.65 1.27-1.43 1.4-.4.06-.78.34-.8.63-.04.9-.75.91-1.31 1.27-1.12.7-2.15 1.55-3.4 2.05-.06.03-.11.1-.17.13-.47.34-.45 1.04-.99 1.33-.5.27-1.1-.04-1.62.34-.66.5-1.43.85-2.12 1.31-.38.26-.38.53.16.65.1.02.25.18.25.29.04.63.03 1.26.47 1.79.03.04.02.14.02.21-.02.28.05.63-.1.82-.56.77-.16 1.83-.83 2.54-.13.13-.35.21-.55.24-.28.05-.53.06-.66.4-.31.78-.6 1.62-1.75 1.35-.43.22-.88.42-1.3.68-.52.33-1.05.68-1.52 1.09-.37.33-.8.24-1.18.39-.37.13-.25.83-.84.8-.36-.01-.72.03-1.08.02-.33-.01-.63.2-.69.42-.22.8-.76.92-1.46.84a2.01 2.01 0 0 0-1.74.54 2.9 2.9 0 0 1-2.34.73c-.2-.02-.4.09-.6.15-.55.2-.34 1.15-1.12 1.12-.5-.02-1 .04-1.39.4-.61-.14-1.04.38-1.59.44-.49.06-.94.17-1.41.36-.5.2-1.13.13-1.7.1-1.14-.07-2.25-.04-3.24.66-.38.28-.93.33-1.22.14-.81-.54-1.45-.1-2.1.22-.35.17-.62.31-.95.03-.52-.45-1.28.04-1.81-.47-.2-.19-.37.08-.5.21-.56.65-1.22.6-1.92.3-.26-.1-.5-.24-.76-.36-.4-.2-.44-.22-.67.03-.5.54-1.03.71-1.69.26-.29-.2-.62-.31-.93-.47a1.04 1.04 0 0 0-1.01 0c-.31.16-.65.27-.94.47-.33.24-.62.27-.95.01-.3-.24-.77-.31-.99-.1-.58.55-1 .16-1.52-.05-.38-.16-.66-.53-1.16-.47-.34.03-.54.12-.38.42.2.4.33.78.09 1.18-.18.28-.4.54-.61.8.56.5.09 1.27.48 1.8.33.43.33.96.21 1.41-.1.4-.33.7-.01 1.1.07.1-.1.37-.18.57-.04.12-.16.25-.14.37.06.53.73 1.01.25 1.55-.43.47-.12 1.13-.57 1.56-.04.04 0 .24.07.34.45.7.09 1.18-.4 1.65-.23.21-.31.46-.14.75.46.8.44 1.58.04 2.4-.12.23-.19.54-.16.8.1.8-.17 1.5-.42 2.23-.25.72-.56 1.43-.43 2.22.06.34.06.71-.21 1-.35.35-.22.8-.2 1.2.06.9.07 1.95-.21 2.52-.16.33-.25.64-.25 1 0 .48-.02.94-.27 1.42-.21.4-.24.98-.15 1.44.23 1.16-.59 2.14-.5 3.26-.38.4-.45.9-.33 1.39.17.65-.46 1-.47 1.6 0 .54.18 1.13-.3 1.61-.09.1-.15.27-.12.38.19.88-.66 1.56-.45 2.44.14.54-.17.94-.56 1.3a.83.83 0 0 0-.14 1.15c.53.75.27 1.31-.31 1.85-.33.3-.26.62.01.92.17.18.2.44.07.58-.37.42-.26.93-.38 1.4-.15.59-.54 1.13-.41 1.78-.44.53-.43 1.16-.42 1.8-.58.56-.41 1.3-.42 2-.01.56.06 1.1-.38 1.6-.14.16-.02.54-.04.82-.04.56.05 1.1-.31 1.63-.18.26-.18.69-.13 1.03.1.74-.22 1.37-.52 1.98-.19.4-.33.75-.33 1.18 0 1.28-.03 2.55-.03 3.82 0 .3-.01.58-.26.77-.49.35-.34.71-.22 1.21.15.65.26 1.42-.32 2-.03.64.12 1.35-.12 1.9-.27.6-.28 1.2-.35 1.81-.12 1.03.26 2.11-.34 3.09.46.45.24.85-.04 1.3-.17.3-.12.7.15 1 .2.22.35.56.2.77-.62.85-.13 1.94-.7 2.8-.28.42-.26.99.03 1.4.29.43.28.73-.01 1.14-.3.42-.14.96-.11 1.44.02.32.29.63.33.96.03.23-.3.6-.21.7.35.41-.08.63-.13.93-.05.27 0 .56-.04.85-.1.61.17 1.26-.25 1.85-.36.5-.01 1.12-.21 1.65-.1.26-.27.48-.49.65a3.4 3.4 0 0 1-1.11.58c-.57.15-1.33-.16-1.53.74-.02.04-.12.11-.17.1-1.02-.18-1.85.75-2.87.47-.7-.19-1.18.42-1.82.43-.55 0-1.15-.14-1.62.32-.08.07-.33.1-.4.03-.67-.64-1.5-.3-2.25-.34-.72-.05-1.43-.03-2.15-.01a1.6 1.6 0 0 1-1.17-.38c-.78-.68-1.41-1.4-1.14-2.53.02-.14.02-.29 0-.43-.03-.13-.09-.26-.13-.39-.1.05-.25.06-.32.15-.35.38-.7.71-1.28.6-.49-.1-.81.18-1.11.5-.23.24-.42.26-.7.04-.21-.18-.53-.2-.75-.36-.37-.25-.66-.15-.95.1-.28.22-.53.1-.77-.09-.34-.28-.6-.13-.95.04-.53.26-1.57-.3-1.6-.8-.02-.14-.03-.28-.02-.42.02-.35-.11-.73.15-1.03.47-.56.22-1.22.27-1.83.57-.07.4-.52.43-.85.28 0 .68.09.75-.2.25-.99 1.16-1.09 1.84-1.49l-.02-.02.02 1.29c-.47-.08-.86.07-1.1.47-.34.6-.68 1.2-.95 1.83-.13.3-.1.67-.12 1.01 0 .13.05.31.13.36.3.17.27-.11.34-.27.42-.92.6-1.98 1.52-2.62.27-.19.17-.51.17-.79.5.03 1 .1 1.42-.29.1-.1.21-.05.26.15.02.06.03.16 0 .2-.36.44-.69.9-1.1 1.28-.6.52-1 1.17-1.36 1.86-.15.28.02.6.34.6.78.02 1.6.14 2.35 0 .73-.15 1.45-.42 2.17-.69 1.26-.47 1.28-.4 2.3-1.51.18-.2.49-.27.72-.4.24-.14.24-.43.13-.55-.4-.41-.4-.9-.35-1.39.05-.45-.67-.8-.36-1.12.5-.54-.03-.9-.08-1.31-.09-.63.3-1.06.4-1.6.13-.64-.66-1.1-.4-1.78.08-.2.06-.44.18-.6.24-.31.24-.56.06-.94-.4-.87-.37-1.77.05-2.63.2-.42.2-.82-.06-1.19-.24-.34-.27-.66.07-.91.5-.37.4-.75.18-1.22-.2-.4.36-.84.22-1.13-.2-.4-.2-.8-.28-1.2-.17-.83.32-1.49.43-2.23.12-.79-.57-1.43-.4-2.23.03-.2 0-.43.04-.63.05-.19.29-.4.24-.52-.55-1.36-.17-2.78-.3-4.17-.03-.42-.04-.84.29-1.2.12-.13.14-.39.16-.59.01-.5-.06-1 0-1.48.1-.8-.23-1.35-.82-1.82-.33-.25-.52-.7-1.03-.68-1.07.04-1.31-1.22-2.27-1.41-.3-.06-.17-.5-.23-.77-.05-.21-.26-.27-.42-.4-.65-.45-1.48-.39-2.12-.82 0-.07 0-.19-.03-.2a3.94 3.94 0 0 1-1.88-1.58c-.41-.72-1.25-1.05-1.5-1.89-.3-1.12-1.62-1.54-1.95-2.67-.96.02-.86-1.24-1.68-1.38a3.07 3.07 0 0 0-1.15-1.46c-.63-.41-.68-1.23-1.25-1.66-.08-.06-.3-.08-.31-.05a.65.65 0 0 0-.08.39c.03.13.15.24.23.35.28.37.05.63-.18.92-.26.3-.43.08-.7 0-.52-.18-.91-.7-1.54-.56-.1-.48-.38-.76-.87-.84-.03-.17-.02-.37-.28-.31-.02 0-.03.12-.01.13.1.06.21.1.32.14.02.82.03.83.85.87.21.66.8 1.08 1.13 1.7.35.65 1.05 1.12 1.6 1.66.81.8 1.62 1.58 2.42 2.4a22.5 22.5 0 0 0 5.46 3.78c.49.26.93.26 1.42.24-.02.23-.17.35-.38.42-.13.04-.25.11-.36.17.07.08.12.2.21.25.68.33 1.38.6 2.03.97.28.16.62.35.63.77l.03-.04c-.21 0-.46.04-.64-.03-2.21-1-4.22-2.4-6.42-3.42-.1-.05-.2-.21-.23-.33-.1-.55-.7-.41-.96-.72-.13-.15-.24-.12-.3.08a.5.5 0 0 0-.03.2c.03.4.44.54.58.85.3.65.64 1.2 1.42 1.42a.77.77 0 0 1 .54.82c-.03.4.22.63.42.92.6.83 1.58 1.15 2.3 1.83.8.78 1.68 1.47 2.63 2.08.43.28.9.7 1.53.62.35-.05.69.59 1.06.02.5.16.77.81.49 1.15-.19.21-.4.4-.58.62-.26.3-.46 0-.7-.01-.68-.04-.61-.86-1.22-1.02-.44-.1-.77-.61-1.22-.78-.54-.2-.77-.96-1.4-.86-.74.12-.58-.71-1.05-.84-.66-.18-.9-.93-1.49-1.14-.69-.24-.78-.93-1.24-1.32a3.07 3.07 0 0 1-.89-1.14c-.2-.47-.6-.96-1.2-1.1-.05-.1-.06-.26-.15-.32-.1-.07-.22.03-.15.15.05.08.21.1.33.15.02.27-.11.58.16.8.45.36.65.89.94 1.37.22.38.13.63-.11.94-.23.27-.14.6.15.68.87.24 1.07.82 1.02 1.6-.01.18.12.4.25.53.88.98 1 .98.97 1.86-.02.47.7.83.15 1.31.21.5.4 1.03.81 1.41.1.1.2.21.26.34.06.12.12.34.06.39-.89.72.05 1.26.21 1.85.1.33.29.63.27.99-.02.36.1.66.31.97.7 1.02 1.3 2.1 2.3 2.9.65.5 1.1 1.24 1.62 1.88a.41.41 0 0 1-.13.13c-.05.03-.14.07-.2.05-.25-.1-1.56-1.12-1.75-1.32-.57-.63-1.15-1.24-1.73-1.86-.13-.14-.24-.15-.31-.03-.04.06-.08.12-.09.19-.04.48-.04.95-.26 1.43-.17.4.3.84.24 1.34-.12 1.03.29 2.1-.38 3.1-.2.3.33.6.36.93.1 1.19.11 2.39-.6 3.44-.24.34-.24.6 0 .94.28.37.24.77 0 1.17-.07.1-.16.3-.13.33.52.49.1.86-.07 1.3-.15.44-.47.7-.73 1.03-.2.25-.14.53-.16.8-.28.02-.44.15-.43.43-.12.05-.3.08-.34.16-.28.53-.51 1.09-.8 1.62-.07.15-.1.25.1.3.12.02.34.01.38-.06.37-.63.78-1.26.63-2.05.3 0 .43-.14.43-.43.35.04.56.34.4.57-.47.63-.4 1.31-.38 2.01-.59.07-.4.51-.43.86-.65.32-.83 1.04-1.25 1.56-.17.22.1.8-.3.91-.47.13-.99.05-1.48.03-.12 0-.34-.14-.34-.2.08-.81-.68-1.2-.91-1.83-.12-.3-.15-.84.03-1.02.5-.51.34-1.2.65-1.76.32-.58.22-1.42 1.14-1.58.37-.49.77-.97 1.12-1.48.1-.16.08-.4.07-.61a4 4 0 0 1 .65-2.6c.22-.33.22-.8.38-1.17.08-.2.1-.32.01-.53-.13-.31-.1-.69-.22-1.01-.22-.6.44-1.06.12-1.75-.25-.52-.08-1.25-.09-1.88l-.02-2.13.02-1.9c0-.64-.03-1.28 0-1.92a3.68 3.68 0 0 0-.57-2.4 1.6 1.6 0 0 1-.31-1.2c.09-.62-.1-1.08-.6-1.47-.47-.36-.08-1.12-.64-1.49-.56-.36-.34-1.02-.5-1.54-.27-.85-.65-1.67-1-2.5-.17-.37-.42-.72-.6-1.1-.16-.29-.28-.61-.4-.92.52-.52-.14-.68-.3-1-.16-.3-.35-.6-.47-.91-.12-.32-.1-.72-.3-.98-.19-.26-.57-.38-.85-.58-.1-.07-.27-.22-.26-.32.13-.9-.7-1.07-1.17-1.51-.31-.3-.58-.58-.7-1.03-.11-.4-.32-.78-.61-1.08-.47-.48-.62-1.26-1.4-1.47-.22-.06-.4-.41-.49-.66-.13-.34-.37-.37-.65-.42-.2-.03-.5-.09-.55-.22a2.7 2.7 0 0 0-1.6-1.58c-.1-.04-.16-.22-.19-.35-.19-1-.95-1.68-1.49-2.47-.24-.35-.65-.58-.87-.93-.2-.34-.2-.8-.4-1.15-.3-.48-.37-1.1-.91-1.4-.1-.86-1.32-1.17-1.1-2.2-.27-.32-.53-.66-.82-.96-.25-.26-.5-.5-.46-.9.04-.42-.23-.71-.54-.85-.49-.23-.85-.47-.74-1.08.1-.48-.15-.82-.5-1.09-1.04-.78-1.1-2.05-1.6-3.1-.03-.05-.02-.16.02-.2.52-.53.1-.58-.32-.77-.4-.17-.7-.5-.63-1.01a3.63 3.63 0 0 0-.66-2.79c-.29-.37-.2-.82-.17-1.22.03-.5-.18-.82-.52-1.1-.25-.23-.27-.42-.06-.7a.84.84 0 0 0 .13-.6c-.08-.34-.25-.64-.36-.96-.11-.32.5-.5.15-.91-.36-.42-.1-.97-.2-1.44-.11-.49.4-.7.44-1.15.04-.47-.38-.77-.38-1.17 0-.25.26-.49.34-.75.18-.66-.19-1.43.38-2.03l.05-1.9c.03-.69.05-1.35.37-2.04.25-.53.17-1.26.1-1.89-.14-1 .1-1.96.43-2.86a6.3 6.3 0 0 0 .43-2.22c.02-.62-.16-1.27.3-1.84.2-.26.04-.52-.17-.74-.28-.3-.51-.6-.62-1.06-.33-1.37-1.25-2.46-1.97-3.63a.92.92 0 0 0-.51-.35c-.34-.09-.45-.29-.47-.6 0-.14.03-.36-.05-.4-.84-.58-.74-1.62-1.22-2.37a2.48 2.48 0 0 1-.46-1.78c.06-.37-.15-.66-.3-.98-.12-.23-.1-.54-.1-.81 0-.16.4-.35.52-.28.5.28 1.06.67 1.1 1.2a2 2 0 0 0 .8 1.41c.42.36.5.8.62 1.3.06.25.5.41.77.62-.17.77.59 1.09.8 1.64a3 3 0 0 0 .72 1.02c.35.35.7.67.7 1.25 0 .24.2.55.4.7.74.5.9 1.42 1.52 2 .13.11.1.39.18.58.07.2.14.5.26.53.97.18 1 1.1 1.44 1.7-.12.67.36 1.03.75 1.43.3.3.63.57.2 1.03-.08.08.05.38.12.56.33.91.63 1.82 1 2.7.2.5.02.99.12 1.47.04.18.15.45.29.5.71.2.67.73.42 1.16-.5.87-.4 1.6.3 2.27.22.22.28.5.24.78-.07.73.27 1.35.45 2.02.17.66.6 1.29.43 2.01-.1.49.41.77.37 1.17-.05.41-.43.86.32 1.02.08.01.14.23.15.36.02.42 0 .85.03 1.27 0 .2 0 .52.12.6.95.57.48 1.7 1.02 2.44.08.1.13.26.12.38-.1.95.26 1.74.68 2.57.33.64.67 1.38.61 2.16-.04.51.1.95.4 1.38.42.63.32 1.52.9 2.06.53.5.77 1.17 1.25 1.68.5.52.72 1.15.9 1.85.17.65.41 1.34 1 1.78.83.6 1.17 1.58 1.84 2.3.1.1.14.24.14.38 0 .52.2.78.76.77.5-.02.76.37.94.75.64 1.4.84 1.69 1.71 2.41.27.23.66.46.73.75.16.67.7.83 1.18 1.05.4.19.64.43.85.83.3.59.47 1.38 1.34 1.48.33 1.13 1.63 1.52 2 2.66.13.42.61.82 1.04 1.03.76.37 1.53.69 2.12 1.3 1.59.47 2.55 1.74 3.66 2.81.36.34.67.67 1.26.69.61.01.92.6 1.26 1.05.22.3-.1.89.48 1.04.6.16.63.76.8 1.16.18.42.45.7.73 1 .2.23.22.5.2.79-.02.44-.03.84.57.95.12.03.26.32.27.5.04.56.03 1.13 0 1.7-.03.4.16.67.44.9.45.38.46.71.16 1.28-.36.68-.31 1.56.01 2.24.22.45.14.97.46 1.37.26.32.27.62 0 .94-.27.3-.07.7-.18 1-.25.72.55 1.18.4 1.8-.18.67-.52 1.28-.42 2.02.08.63.12 1.3 0 1.9-.11.56.53.92.13 1.56-.26.42-.14 1.1-.11 1.66.03.58-.6.94-.47 1.57.1.47.07.96-.27 1.41-.15.19-.14.54-.1.81.12.9-.24 1.64-.66 2.37-.23.4-.34.94-.95.99-.47.68-.95 1.35-1.4 2.04-.08.1-.01.28-.01.42-.28 0-.62-.08-.77.2-.16.3-.29.56-.67.7-.28.1-.65.47-.66.73 0 .53-.4.88-.47 1.32-.08.47 0 .97.02 1.45 0 .06.08.13.13.16.03.02.12-.02.14-.06.17-.3.42-.58.47-.9.13-1 .64-1.78 1.26-2.53.25-.3.35-.73.52-1.1.36.05.55.34.4.59-.86 1.28-1.22 2.79-1.9 4.15-.08.17-.15.28.03.3.19.03.39-.04.58-.08.06-.02.12-.09.15-.14.25-.43.72-.86.7-1.27-.06-1.06.5-1.7 1.18-2.36.14-.13.19-.36.28-.54.02-.04.1-.05.14-.07.06.12.16.24.16.36.01.2-.02.42-.1.6-.44 1.1-.78 2.22-1.42 3.22-.11.17.1.52.32.63.28.15.36-.1.5-.2.34-.25.22-.65.32-.97.17-.53.8-.8.9-1.4 0-.06.09-.11.14-.16.07.11.2.23.2.34.02.48.03.95-.28 1.41-.27.4-.07.7.33.73.93.07 1.8-.18 2.7-.38a5.1 5.1 0 0 0 2.44-1.09c.31-.27.72-.58 1.1-.6.83-.02 1.07-.35 1.04-1.15-.03-.75-.15-1.56.4-2.24.1-.14-.03-.43.03-.63.15-.44-.5-.72-.23-1.13.27-.4.22-.81.22-1.23 0-.44.08-.83.38-1.17.06-.07 0-.27-.02-.4-.35-1.44-.36-1.44 0-3.41-.55-.53.13-1 .09-1.52-.06-.8-.2-1.66.36-2.45.2-.28.13-.84.04-1.25-.12-.5.49-.91.22-1.33-.3-.5 0-.76.15-1.15.12-.3.12-.7.06-1.04-.06-.33-.26-.63-.4-.95-.18-.42.47-.73.2-1.14-.28-.42.25-.58.22-.92-.02-.35-.06-.78.11-1.03.31-.45.38-.93.3-1.4-.1-.63.48-1.02.45-1.6-.02-.5-.05-1 .02-1.5.05-.39.46-.66.43-1.15-.03-.42.3-.75.05-1.3-.35-.78.38-1.58.4-2.4.4-.39.4-.89.4-1.38l.01-2.56c0-.55-.03-1.07.3-1.62.23-.37.12-.96.11-1.45 0-.65-.01-1.28.6-1.7.23-.16.12-.34-.01-.52a.88.88 0 0 1-.07-1c.25-.37.47-.71.08-1.1-.12-.13-.08-.21.03-.36.24-.34.4-.75.66-1.06.27-.3.33-.5.08-.87a.88.88 0 0 1-.02-.8c.36-.6.84-1.18.76-1.9-.08-.69.56-1.12.49-1.8-.07-.7 0-1.41 0-2.12 0-.21-.02-.43 0-.63.04-.2.06-.47.2-.57.66-.5.71-1.18.62-1.9-.05-.4.3-.64.38-.96.1-.4.67-.8.12-1.3-.07-.05.1-.37.17-.55.06-.13.21-.25.2-.36-.16-1.24.1-2.37.83-3.38-.05-.62.2-1.27-.2-1.85-.33-.47-.32-.97.12-1.33.75-.61.52-1.4.52-2.17-.38-.35-.28-.7 0-1.07.11-.17.17-.38.3-.55.2-.28.12-.5-.05-.76-.1-.17-.25-.45-.18-.56.34-.58.63-1.11.1-1.73-.04-.05.06-.23.1-.34.22-.53.69-1.04.2-1.66.2-.51.51-.98.42-1.58-.09-.56-.12-1.14.33-1.6.01-.02-.05-.12-.1-.17-.52-.67-.23-1.19.3-1.66.4-.37.36-.7.02-1.09a.63.63 0 0 1-.13-.38c-.01-.93-.04-1.85.02-2.77.05-.6.5-1.11.46-1.8-.04-.6-.29-1.27.22-1.83-.15-.51-.23-1.05-.47-1.52-.17-.33-.18-.66-.26-.99-.14-.52.76-.96.08-1.49l-.03-1.48c-.01-.57-.1-1.15 0-1.7.07-.56-.62-.94-.38-1.36.42-.72-.2-1.3-.1-1.96.07-.48-.42-.81-.99-.9h-.43c-.29 0-.54-.03-.68-.37-.22-.5-.52-.99-.75-1.49-.08-.18-.05-.4-.11-.6-.12-.36.5-.52.21-.94-.2-.28-.33-.61-.49-.92-.06-.12-.16-.26-.14-.38.1-.8-.12-1.5-.44-2.22-.3-.69-.35-1.47-.72-2.14a.61.61 0 0 1-.03-.58c.07-.17.38-.28.12-.52-.2-.2-.38-.43-.6-.61-.4-.36-.55-.8-.5-1.33.03-.35 0-.7.02-1.06 0-.64 0-1.26-.6-1.72-.48-.36-.09-1.14-.65-1.48-.5-.3-.45-.82-.56-1.3-.2-.93-1.21-1.46-1.23-2.57-.01-.87-.85-1.57-.9-2.5-.02-.18-.27-.33-.4-.5-.19-.21-.4-.4-.37-.73.08-.72-.2-1.34-.41-2.01-.21-.68-.53-1.27-.8-1.9-.24-.56-.67-1.07-.52-1.77.1-.5-.17-.95-.42-1.38-.33-.55-.62-1.1-.05-1.69.05-.04-.06-.24-.1-.38-.1.04-.23.06-.32.13-.17.12-.33.27-.47.43-.15.16-.27.15-.3-.07-.04-.35-.06-.7-.08-1.05 0-.28.03-.59-.21-.78-.47-.4-.72-.87-.67-1.49-.52-.42-.36-1.03-.42-1.58-.02-.2.02-.52-.1-.6-.92-.57-.56-1.86-1.47-2.47-.6-.4-.76-1-.3-1.64.1-.16.1-.25-.1-.3-.27-.09-.56-.14-.58-.5-.02-.56.07-1.15-.41-1.58.14-.67-.38-1.01-.73-1.45-.11-.15-.1-.4-.16-.58-.32-.99-.66-1.96-1.13-2.88-.23-.48-.7-.9-.6-1.54.06-.39-.38-.56-.56-.85a1.4 1.4 0 0 1-.23-.56c-.14-1.35-.1-1.38-.47-1.78a2.87 2.87 0 0 1-.88-2.27c.03-.34-.22-.5-.4-.72-.13-.16-.39-.33-.38-.49a2.3 2.3 0 0 0-.85-2.05c.1-.73-.48-1.27-.57-1.98a2.56 2.56 0 0 0-.8-1.42c-.83-.78-1.08-1.77-1.24-2.79a4.52 4.52 0 0 0-.7-1.71c-.22-.35-.64-.55-.64-1.05 0-.63-.66-1.11-.43-1.8.22-.63-.33-1.05-.47-1.58-.12-.42-.56-.69-.73-.56-.29.22-.5.48-.5.88-.02.34.15.86-.21.97-.79.24-.54.83-.68 1.33a3 3 0 0 1-.77 1.45c-.87.75-1.1 1.75-1.35 2.75-.12.46-.35.82-.73.96-.4.14-.6.29-.57.72 0 .28-.03.56-.1.83-.1.39-.83.51-.57.97.26.46-.19.61-.2.92 0 .24-.17.4-.4.4-1.05.05-1.2.86-1.26 1.6-.06.7-.17 1.25-.95 1.42a.98.98 0 0 0-.75.7c-.11.55-.68.74-.83 1.19-.15.42-.4.74-.7 1.04a.9.9 0 0 0-.28.77c.07.53-.1.96-.51 1.3-.44.38-.88.73-.78 1.41.02.12-.1.26-.19.37-.39.5-1.33.57-1.16 1.5-.34.51-1 .85-.83 1.64.03.13-.22.4-.4.46-.52.18-.88.7-1.5.7-.19.01-.52.11-.54.22-.16.7-.78 1-1.15 1.5-.15.2-.17.52-.22.79-.04.24-.17.41-.39.42-.56.02-.98.15-.91.83.02.25-.15.38-.36.46-.58.22-1.26.32-1.72.7-.5.41-1.08.68-1.63.97-.46.25-.95.53-1.58.48-.62-.04-1.19.3-1.56.86-.33.48-.87.66-1.4.8-.57.14-1.13.03-1.5-.52-.23-.32-.46-.14-.7.02-.18.12-.44.16-.58-.03-.63-.84-1.9-.62-2.5-1.5-.04-.06-.32-.06-.38 0-.4.51-.73-.04-1.1-.05-.05-.1-.07-.26-.16-.31-.12-.07-.22.04-.14.15-.03.05.13.07.24.11Zm20.19 90.25c0 .27.13.43.42.43-.1.18-.23.35-.29.55-.1.33.22.55.42.6.77.22 1.16.76 1.39 1.45.3.91 1.05 1.46 1.76 2.04.07.06.26-.03.4-.05-.02-.11 0-.26-.06-.33-.48-.52-1.1-.93-1.25-1.67-.83-.83-1.2-2.07-2.4-2.57 0-.29-.15-.42-.42-.42 0-.27-.12-.44-.42-.45.01-.27.05-.54-.16-.77-.43-.44-.81-.94-1.3-1.3-.57-.44-.62-1.22-1.18-1.62-.1-.07-.25-.09-.37-.13-.02-.34.12-.78-.43-.85-.65-1.3-1.2-2.63-2.1-3.8-.32-.43-.62-.96-.46-1.57.05-.19.12-.39.22-.55.08-.14.57.08.74.27.2.22.36.44.32.74-.07.6.64.95.47 1.58-.03.1.13.24.22.35.72.91 1.9 1.5 2.05 2.83.9.41 1.06 1.64 2.11 1.89.54.92 1.36 1.59 2.1 2.33.7.07.96.8 1.56 1.02.06.02.16.03.2 0 .08-.07.2-.2.17-.27-.2-.51-1.79-2.69-2.48-3.35-1.17-1.13-1.91-2.62-3.18-3.66-.14-.12-.13-.41-.26-.55-1.02-1.07-1.51-2.52-2.6-3.54-.22-.2-.28-.46-.36-.73-.16-.53-.45-1.02-.65-1.53-.35-.9-1.06-1.65-1.12-2.68 0-.19-.22-.23-.26-.09-.18.67-.63 1.04-1.27 1.25-.08.03-.16.25-.14.36.13.55-.45.86-.45 1.37 0 .66.62.91.85 1.41l.4.74c-.57.54.11 1 .13 1.5.02.43.36.9.69 1.23a5.96 5.96 0 0 1 1.83 2.61c.22.6.62.93 1.3.83.02.34-.17.79.42.86a3.75 3.75 0 0 0 1.26 2.35c.27.24.42.52.48.9.1.59.15.58.83.61l.43-.03c0 .3.16.4.44.4Zm-3.02-10.64c0 .28.14.44.43.43 0 .21-.08.52.03.62.53.48.75 1.17 1.23 1.68.2.2.4.38.62.57.03.02.11.01.15-.01.05-.04.12-.11.12-.17 0-.21.06-.44 0-.63a3.08 3.08 0 0 0-2.15-2.05c0-.29-.14-.44-.44-.42-.01-.17-.01-.36-.28-.31-.02 0-.04.13-.02.13.1.07.2.11.31.16Zm-6.87-5.53c0 .2 0 .4.03.61 0 .06.12.15.12.14.1-.06.22-.13.24-.22.06-.3-.07-.5-.41-.51l-.04-.6c0-.05-.08-.1-.12-.14-.08.07-.21.12-.22.2-.05.3.07.5.4.52Zm-52.4-178.37c.67.09 1.12-.42 1.64-.7.12-.06.1-.53 0-.76-.14-.35-.34-.02-.44.08-.43.43-.98.78-1.2 1.4-.2.01-.4-.02-.58.05-.22.07-.25.3-.2.48.02.1.14.22.25.24.2.06.41 0 .48-.2.06-.18.04-.4.04-.6Zm52.38 172.01c.15-.92-.44-1.67-.61-2.5-.03-.13-.19-.21-.29-.3-.05-.05-.11-.08-.17-.12-.06.1-.2.25-.16.31.45.81.4 1.82 1.05 2.55.04.03.14.02.2.03.07.43-.18.77-.32 1.14.48.34.15.95.47 1.35.18.22.32.47.28.76-.18 1.14.56 1.98.94 2.93.02.05.1.09.14.13.07-.12.17-.23.2-.35.25-1.36-.55-2.59-.47-3.93 0-.1-.12-.26-.23-.34-.5-.38-.6-.92-.7-1.48 0-.08-.21-.12-.33-.18Zm-26.17 64.71c-.47-.05-.99.14-1.4-.28-.24-.25-.49-.1-.74.04-.28.16-.4.7-.8.46-.49-.31-.72.23-1.13.2-.7-.05-1.4.01-2.1.03-.07 0-.18.1-.17.1.03.13.08.24.16.34.17.2.35.43.65.15.29-.27.74-.35.97-.16.75.64 1.77.25 2.55.78.25.16.63.22.93.4.3.16.62-.02.6-.33-.05-.65.15-1.22.45-1.76.2 0 .41.01.6-.03.18-.04.22-.17.13-.26-.05-.04-.1-.1-.16-.1-.31-.03-.51.09-.54.42Zm26.18-68.98-.04-1c0-.06-.08-.12-.13-.16-.02-.01-.12.02-.12.05-.05.25-.13.51-.12.76.01.21.18.34.42.34-.1.77.05 1.55.45 2.22.24.43.46.84.4 1.37-.01.19.07.42.18.59.95 1.53 1.41 3.28 2.24 4.88.88 1.72 1.88 3.38 2.75 5.1.13.25.28.25.45.08.12-.14.24-.31.27-.48.02-.1-.21-.23-.21-.35 0-.52-.63-.79-.54-1.34.1-.52-.35-.93-.35-1.37 0-.68-.45-1-.8-1.42-.04-.06-.12-.13-.1-.18.1-.64-.27-1.05-.67-1.47-.27-.3-.32-.73-.12-.98.48-.6.3-1.03-.2-1.44-.38-.32-.38-.77-.31-1.17a2.9 2.9 0 0 0-.47-2 2.36 2.36 0 0 1-.4-1.58c.07-.47-.18-.78-.36-1.16-.17-.37-.67-.81-.1-1.27-.02-.42-.02-.84-.07-1.25-.02-.13-.17-.23-.21-.36-.1-.33-.17-.67-.27-1-.07-.27-.22-.5-.27-.77-.07-.34.07-.71-.2-1-.28-.3-.3-.65-.25-1 .14-.93-.6-1.7-.5-2.63.02-.14-.26-.32-.4-.47-.05-.05-.11-.11-.18-.12-.03 0-.1.1-.11.15-.12.96-.03 1.93.29 2.85.23.7.16 1.56.05 2.31-.13.83.46 1.48.42 2.23a5.22 5.22 0 0 0 .85 3.37c.04.05.03.14.01.21a.32.32 0 0 1-.11.16c-.03.03-.11.03-.16 0-.4-.16-.51-.69-1.01-.7Zm-58.41-113.23c.38-.07.7-.35.77-.66.17-.81.52-1.56.76-2.35.05-.15.15-.24.02-.35-.4-.31-.13-.83-.37-1.17-.28-.38-.4-.73-.04-1.13.27-.3.1-.68.15-1.02.04-.27.06-.56.13-.82.03-.07.24-.13.35-.12.12.02.27.11.31.22.05.1.04.3-.04.4-.47.63-.3 1.34-.3 2.03 0 .06.08.17.12.16a.74.74 0 0 0 .34-.12c.28-.24.43-.55.4-.93-.01-.35-.1-.75.25-.98.75-.5.5-1.42.98-2.05.27-.37-.09-.99-.55-1.23a1.7 1.7 0 0 0-1.25-.07c-.41.11-.3.56-.32.9 0 .08-.15.16-.25.2-.04.02-.14-.05-.17-.1a4.36 4.36 0 0 1-.28-.47c.48-.32-.16-.69.08-1.1.22-.37-.51-.92-.9-.68-1.39.83-2.88 1.57-3.8 2.95-.38.58-.82 1.1-1.25 1.65-.43.54-.8 1.13-1.13 1.74-.18.34-.21.76-.31 1.15.52.68-.45.74-.49 1.15a2.44 2.44 0 0 1-.8 1.64c-.09.09-.13.25-.13.39-.01.7.1 1.43-.04 2.12-.12.68.58 1.25.14 1.92.42.39.3.9.32 1.39.04.55.65.72.84 1.18.05.12.03.28.02.42 0 .33.18.49.5.58.35.1.33.4.35.68 0 .13.04.34.11.37.5.18 1.01.31 1.52.45.01 0 .1-.13.08-.17-.07-.18-.14-.38-.25-.54-.96-1.33-1.76-2.7-1.4-4.43a.25.25 0 0 1 .14-.16c.05-.01.12.05.17.1.1.09.27.18.3.3.2 1.26 1.06 2.2 1.64 3.3l.62 1.09c.17.29.02.52-.16.75-.1.15.15.53.35.6.35.14.34-.17.3-.3-.1-.62.62-.99.44-1.6-.18-.62.36-1.03.5-1.57.35-1.42.4-1.41-.05-2.96-.02-.07 0-.14 0-.21l-.02.02c.32-.06.71.09.85-.4.08-.24.4-.6.34-.68-.48-.57.3-1 .12-1.5l-.01.02Zm119.4 88.55-.03-.03-.4.87c-.12.05-.27.07-.33.15-.08.1.03.22.15.15.08-.05.1-.21.16-.32l.86.01c-.34.71-.84 1.21-1.7 1.3-.46.05-.82.46-1.36.45-.35 0-.62.33-.75.65-.05.13.08.43.21.5.16.1.45.12.6.04.85-.46 1.88-.47 2.65-1.08.25-.2.52-.14.8-.15l-.04-.02c-.1.17-.17.39-.32.5-.8.6-2.11 1.07-3.25 1.22-.25.03-.16.07-.43.68-.17.4-.38.75-.22 1.17.06.13.36.26.52.24.17-.04.33-.24.48-.39.26-.28.5-.43.84-.09.14.14.4.12.57-.04.4-.4.92-.3 1.4-.3h-.01c.12.52.56.8.95 1.1.34.26.55-.31.92-.25.41.08.84-.03 1.23.25.38.28.8.25 1.18-.04.34-.26.64-.22.95.04.3.26.72.28 1 .08.45-.33.92-.31 1.42-.3.27 0 .65-.03.8.13.36.37.64-.14.9 0 1.02.53 2.1.19 3.15.26.62.05 1.02-.43 1.56-.55.18-.04.29-.28.54-.1.64.48 1.38.19 2.08.2.7.02 1.44.22 2.04-.34.72.03 1.38-.2 2-.51.32-.16.57-.46.96-.39.82.16 1.44-.6 2.26-.44.32.06.51-.2.7-.4.27-.24.52-.46.93-.45.76.03 1.53.12 2.23-.28.27.26.49.17.69-.09.09-.1.22-.2.25-.33.2-.73.65-.98 1.4-1 .76-.04 1.44-.59 2.25-.46.04 0 .13-.09.14-.14.15-.79.76-.68 1.32-.7.2-.02.42-.12.57-.25.95-.81 2.3-1.07 3.08-2.14.09-.12.4-.11.6-.13.6-.04.94-.4.96-.93.03-.68.37-.83.95-.83.1 0 .28-.13.3-.23.06-.2.01-.41-.2-.53-.18-.1-.48-.18-.51-.33-.12-.44-.24-.55-.68-.27-.28.17-.72.08-.98.26-.43.3-.77.35-1.11-.05-.42-.5-.95-.6-1.54-.5-.26.05-.56.36-.74.28-.32-.13-.62-.3-.99-.31-.4-.01-.68-.3-.8-.62a2.89 2.89 0 0 1-.04-1.66c.02-.1.2-.18.32-.24.5-.26 1-.5 1.5-.77.37-.21.8-.1 1.2-.33.47-.26 1.1-.2 1.6-.39.75-.27.74-.3 1.88-.24.3.01.58-.02.77-.26.46-.57 1.23-.64 1.72-1.2a2.3 2.3 0 0 1 1.5-.65c.68-.01 1.03-.2 1.26-.82.09-.2.43-.38.68-.44.47-.1 1.03.12 1.37-.39.31-.46 1.08-.38 1.22-1.06.03-.13.33-.23.52-.27.28-.05.6-.03.68-.38.14-.5.6-.77.9-1.17.2-.27.3-.65.55-.86.31-.26.7-.46 1.1-.58.49-.13.46-.46.47-.81.01-.36-.02-.73.31-.97.53-.39.56-.93.57-1.5.01-.55.57-.94.42-1.59-.14-.6.07-1.22-.36-1.81-.45-.61-.43-.72-1.03-.22-.4.34-.8.58-1.34.51-.4-.06-.67.14-.94.4-.15.15-.3.37-.48.4-1 .12-1.99.1-2.88-.44-.14-.09-.24-.33-.28-.52-.12-.6.13-1.07.58-1.5.32-.31.77-.38 1.06-.66.33-.34.58-.77.83-1.19.23-.38.86-.2.97-.72.09-.46.5-.67.77-1 .19-.2.5-.44.49-.66-.04-.85.58-1.24 1.07-1.73.2-.2.53-.42.53-.64.03-1.08 1.02-1.63 1.33-2.55.1-.26.2-.54.39-.73.55-.54 1.03-1.1 1.16-1.92.05-.37.61-.67.66-1.03.07-.56.32-.9.69-1.25.41-.4.87-.77 1.17-1.24.36-.56.86-1.1.76-1.89-.08-.57.29-.93.78-1.12.29-.1.5-.2.52-.55.06-.97.62-1.69 1.32-2.3.29-.26.38-.56.38-.94 0-.9-.1-1.8.38-2.67.15-.25.03-.69-.04-1.02a.53.53 0 0 0-.9-.29c-.25.25-.53.48-.75.76-.4.5-.89.65-1.5.59-.45-.05-.62.24-.63.65-.01.3-.09.5-.43.63-.71.29-1.37.71-1.91 1.26-.34.34-.81.56-1.25.77-.7.34-1.43-.14-1.54-.9a3 3 0 0 1 .93-2.67c.68-.66.97-1.46 1.27-2.34.26-.75.46-1.55 1.05-2.23.9-1.04.97-2.57 1.88-3.66.07-.1 0-.29.04-.42.2-.58.38-1.19.66-1.73.2-.39.13-.63-.08-.96-.31-.48-.2-.94.22-1.31.34-.3.5-.64.49-1.11 0-.61-.21-1.26.25-1.84.59-.73-.4-1.28-.26-1.98.05-.27.08-.54.16-.8.05-.2.24-.37.25-.56.05-1.12.15-2.27-.57-3.25-.43-.58-.21-1.22-.28-1.84-.04-.36-.05-.7-.36-.95-.15-.12-.29-.32-.5-.1-.28.27-.84.15-.9.77-.03.26-.43.59-.72.7-.44.14-.53.39-.51.77v.21c.14.77-.35 1.33-.62 1.96-.27.65-1.03.36-1.47.67-.5.35-.73-.29-1.13-.23-.17-.52-.69-.88-.66-1.5.03-.43 0-.84.35-1.17a3.1 3.1 0 0 0 .94-2.67c0-.14.05-.3 0-.42-.34-.96.57-1.7.47-2.64-.04-.3.2-.66.4-.95.4-.64.63-1.26.03-1.9-.02-.77-.25-1.55.14-2.29.06-.1.15-.28.1-.33-.5-.61-.25-1.14.1-1.73.14-.26.1-.66-.27-.93-.6-.44-.69-.65-.42-1.14.22-.4.35-.68.03-1.12-.35-.5-.57-1.1-.85-1.66-.08-.13-.07-.22.05-.36.28-.3.24-.6-.02-.93-.21-.27-.34-.6-.5-.92a.54.54 0 0 1 .02-.58c.1-.17.23-.37.24-.56.02-.4-.37-.33-.59-.47-.36-.24-.69-.53-.63-1.03.08-.63-.2-1.07-.66-1.48-.49-.42-.92-.9-1.4-1.33-.14-.14-.33-.24-.51-.35-.16-.09-.76.01-.78.17-.08.55-.5.84-.82 1.21-.2.25-.26.63-.12.79.49.55-.13 1.02-.02 1.52.16.68-.31 1.03-.68 1.45-.26.3-.3.71-.1.99.33.47.38.84 0 1.3-.2.26-.27.62-.4.93.65.55.03 1.04-.13 1.5-.14.4-.32.65-.04 1.09.34.51-.51 1.08-.08 1.67l-.61.83c.52.5-.07.71-.3.99-.27.33-.25.62.03.93.22.24.2.52-.02.75-.27.3-.17.67-.26 1-.13.45.53.73.23 1.12-.3.4-.27.81-.2 1.21.1.59-.64 1.12-.07 1.73.07.06-.1.37-.2.55a3.4 3.4 0 0 0-.14 1.86c.62.5.22.96 0 1.48a5.8 5.8 0 0 0-.44 1.58c-.03.24.34.55.27.76-.1.3-.42.54-.62.82-.13.18-.1.4.03.58.47.62.38 1.19-.2 1.66-.4.32-.23.56.01.85.04.04.05.16.02.2-.59.74-.2 1.8-.83 2.54-.13.15-.2.36-.3.55-.12.25.38.37.12.7-.41.54-.24 1.4-.94 1.8-.14.09-.09.2.03.34.45.55.27 1.02-.17 1.5-.54.57-.43.61-.53 1.76a3.4 3.4 0 0 1-.65 1.9c-.27.33-.66.58-.58 1.08.09.53-.52.8-.42 1.38.13.77-.58 1.4-.46 2.22.02.15-.16.4-.32.51-.43.35-.54.79-.5 1.31.04.42.03.82-.3 1.2-.38.42-.96 1.9-.99 2.44-.02.45-.15.8-.47 1.13-.37.4-.88.68-.85 1.38.02.53-.62.93-.44 1.57.08.27-.05.52-.4.63-.71.24-.92.78-.86 1.5.03.33.04.7-.2 1.01-.3.38-.48.93-.85 1.17-.8.51-1.16 1.14-1.12 2.05a.9.9 0 0 1-.16.58c-.32.37-.73.68-.82 1.2-.53.12-.62.78-1.01.94-.55.21-.59.55-.55.98a1 1 0 0 1-.58 1.05c-.49.23-.84.47-.73 1.08.1.5-.22.78-.53 1.08a8.4 8.4 0 0 0-2.2 3.03c-.31.8-.46 1.74-1.55 2.03-.43.1-.44.68-.66 1.03-.32.54-.47 1.19-1.23 1.35-.12.02-.25.33-.25.5-.02.4-.26.54-.53.79a5.96 5.96 0 0 0-1.56 1.92c-.38.86-1.35 1.25-1.58 2.19-.8.06-.62 1.15-1.28 1.25-.67.1-.6.71-.91 1.05-.4.42-.87.7-1.36.97-.05.03-.1.12-.08.18.07.6-.31.86-.8 1.06-.33.13-.61.51-.94 1.16-.1.2-.2.33-.45.38-.62.14-.86.88-1.63.9-.68.03-.66 1-1.22 1.33-.24.14-.44.31-.75.31-.3 0-.57.03-.66.39-.11.44-.39.77-.83.88-.38.1-.63.35-.85.6a6.57 6.57 0 0 1-2.69 1.99c-.12.04-.3.14-.32.24-.2 1.03-1.17 1.13-1.9 1.43-.64.26-1.38.26-1.67 1.06-.05.12-.36.17-.56.2-.2.04-.5-.07-.63.03-.68.6-1.64.27-2.38.73-.38.24-.98.26-1.42-.05-.33-.24-.5-.08-.69.13-.2.22-.28.46-.13.76.12.24.32.54.27.76-.17.9.53 1.6.5 2.45 0 .06.16.13.26.18.01 0 .12-.1.12-.16.03-.42-.04-.86.08-1.27.17-.64.38-1.28 1.13-1.59.31-.13.44-.17.68.07.44.46.46.44.96.1.57-.41 1.13-.83 1.73-1.2.16-.07.43 0 .64-.02Zm-118.96 84.28h.02v2.13c0 .24.13.36.36.43.2.06.42.14.55.29.44.46.87.76 1.44.2.68.12 1.14-.53 1.8-.5.36.02.72-.02 1.07.02.28.03.6.08.79.24.33.27.55-.35.91-.01.33.3.78.23 1.18-.01.6-.36 1.22-.31 1.81.01.6.33 1.1.23 1.5-.28.43-.52.84-.36 1.3-.03.08.07.52-.11.52-.19.02-.98.03-1.96-.02-2.95-.03-.63-.1-.64.1-.84.3-.33.59-.64.19-1.09-.27-.3-.18-.66-.18-1-.01-.64.01-1.28-.04-1.92-.02-.25-.28-.49-.28-.73.01-.25.26-.5.3-.76.04-.3.2-.53.26-.78.05-.2-.2-.48-.23-.73-.05-.49-.03-.99-.04-1.48-.01-.42.13-.98-.09-1.24-.47-.56.2-.88.12-1.33a6.3 6.3 0 0 0-.27-1.2c-.3-.86-.4-1.75.13-2.64.17-.27.61-.64.32-1.07-.27-.4.36-.58.2-.93l-.56-1.11c-.42-.88-.53-1.72.25-2.5.45-.47.44-.58 0-1.05-.48-.52-.78-1.01-.26-1.67.08-.1.17-.25.16-.37-.15-1.1.33-2.26-.38-3.3-.12-.18-.02-.56.06-.81.1-.33.3-.63.47-.94.1-.17.26-.3.05-.52-.36-.37 0-.98-.45-1.37-.29-.25-.22-.65-.07-.98.17-.38.37-.75.6-1.1.14-.2.19-.46.05-.58-.47-.43-.13-1.12-.57-1.55-.23-.23-.16-.48.01-.75.15-.24.24-.5.36-.75.19-.4.21-.43-.04-.69-.3-.32-.55-.61-.52-1.1.04-.78.03-1.56.03-2.34a1 1 0 0 1 .28-.76c.15-.15.3-.3.43-.48.16-.25-.32-.35-.13-.7a2.6 2.6 0 0 0 .1-2.43c-.45-.92-.3-1.77-.07-2.64.05-.21.1-.34-.02-.53-.4-.58-.23-1.07.27-1.5.37-.3.53-.64.15-1.06-.22-.25-.18-.52.03-.76.26-.31.33-.64-.02-.91-.74-.59-.78-1.31-.4-2.08.17-.33.1-.76.26-1 .69-.9.32-1.72-.05-2.55-.17-.38-.38-.7-.47-1.14-.17-.8.91-1.05.7-1.6-.2-.56-.84-.95-.64-1.68.05-.2.1-.43.21-.58.2-.25 0-.37-.1-.53-.19-.34-.21-.71-.01-1 .57-.84.3-1.62-.15-2.35-.42-.67-.54-1.23-.02-1.92.22-.3.01-.84.37-1.16-.2-.27-.4-.55-.62-.81a.76.76 0 0 1-.1-.8c.22-.4.15-.68.03-1.1-.18-.58-.18-1.2-.42-1.8-.23-.56-.04-1.26-.1-1.9-.03-.32-.35-.72-.24-.93.23-.44.33-.75-.02-1.14-.04-.05.03-.25.1-.34.18-.26.22-.5 0-.76-.18-.23-.3-.47-.11-.76.5-.85.45-1.76.12-2.63-.34-.84-.42-1.6.07-2.4.19-.28.01-.53-.17-.75-.22-.27-.15-.53.06-.75.18-.17.3-.42.68-.2.35.2.82.2 1.18.38.3.16.53.4.22.84-.1.14.26.5-.02.87a.81.81 0 0 0 .14 1.14c.5.4.58.9.59 1.5 0 .68-.07 1.38.32 2.06.3.54.23 1.27-.09 1.82-.26.46-.23.75.09 1.12.22.27.35.6.54.88.17.24.17.23.05.85-.04.2-.05.41-.03.62.05.57.07 1.3-.08 1.49-.26.31-.31.58-.01.88 0 1.38.05 1.62.7 2.77.1.15.14.21.06.35-.15.24-.2.54-.38.74-.42.48-.22.83.06 1.3.34.6.7 1.26.48 2-.06.18-.35.4-.3.51.1.25.25.4.05.72-.34.5-.29 1.08.05 1.58.32.49.3.92-.05 1.35-.12.14-.1.21.03.35.33.33.84.64.24 1.17l.06 4.66c.5.28-.14.72.16 1.05.4.44-.07.76-.19 1.13-.1.3.2.5.32.75.18.37-.37.66-.2.92.24.4.44.94.16 1.16-.53.42.3.9-.2 1.28-.28.2-.2.64-.02.98.08.16.35.25.13.53-.2.27-.32.62-.5.91-.18.28-.15.5.02.77.23.35.43.72.59 1.11.13.33.19.7-.08 1-.35.36-.17.8-.27 1.2-.1.4-.26.78-.4 1.17.59.43-.08.85-.02 1.28.05.3-.14.52-.25.78-.18.4.35.51.47.8.09.2.22.4.2.59-.18 1.02.4 2.13-.4 3.06-.04.57-.2 1.19.1 1.66.29.44.06.62-.18.85-.22.21-.33.38-.1.69.39.5.58 1.06.15 1.66-.07.09-.04.3.02.4.29.5.68.96.06 1.47.63.67.24 1.5.35 2.24.07.55-.2.92-.56 1.3-.4.46-.37.5.08 1.06.19.24.13.24.1 1.02-.03.61-.23 1.24.18 1.85.42.63.25 1.35.05 2.03-.37 1.26-.35 1.75.05 3.23.17.62.27 1.26-.35 1.74-.35.27-.3.53-.05.86.21.27.4.6.47.93.07.25.05.68-.1.79-.95.66-.49 1.45-.29 2.22.05.2.16.38.25.57.34.7.27 1.3-.29 1.92-.56.63-.55.94.07 1.62.51.56.5 1.14.3 1.76-.1.32-.26.67-.48.93-.34.4.26.87-.18 1.23.43.4.3.91.33 1.4.02.26.05.56.17.8.51 1.02.2 2.08.25 3.12.02.68-.42 1.16-.71 1.7-.17.31-.11.53.07.76.32.39.55.46 1.08.22.27-.11.51-.27.77-.04.42.37.94.31 1.43.29.68-.04 1.26.07 1.72.62.2.24.47.21.76.03.29-.19.61-.32.92-.48.53-.28 1.11-.37 1.6-.03.45.3.76.3 1.12-.08.35-.38.7-.66 1.27-.25.25.19.67.17 1.02.18.79.02 1.58-.03 2.37 0 .86.02 1.68-.13 2.4-.61.25-.16.48-.3.79-.28.7.06 1.41-.1 2.07.32.2.13.6.16.82.06.38-.19.75-.35 1.19-.4.32-.05.67-.96.52-1.32a1.2 1.2 0 0 1 .06-1.2c.42-.72.83-1.44.66-2.35-.05-.23.2-.5.29-.76.15-.43.22-1.83.16-2.31-.05-.35-.05-.7.2-1 .3-.37-.36-.57-.2-.93.03-.06.06-.13.1-.18.32-.55.3-.55.29-1.55-.02-.71 0-1.43.03-2.13 0-.2.04-.43.14-.6.17-.28.6-.56.57-.8-.05-.3-.37-.58-.32-.96.03-.27.05-.56.16-.8.13-.25.27-.47.28-.77.03-.62-.03-1.24.38-1.83.21-.3-.01-.91.21-1.2.39-.5-.14-.76-.19-1.12-.1-.79.34-1.35.66-1.94.27-.49.14-.74-.17-1.1-.67-.77-.7-.93.03-1.77.5-.59.39-1.15.21-1.76-.07-.27-.23-.5-.34-.76-.08-.17-.37-.31-.2-.52.48-.57.15-1.24.3-1.84.07-.25.27-.5.47-.69.24-.23.33-.4.03-.65-.55-.47-.81-1-.28-1.66.1-.13.11-.21-.02-.35-.29-.31-.24-.64.04-.93.18-.19.17-.4.08-.59-.13-.24-.3-.4-.08-.71.49-.71.71-1.5.58-2.39-.04-.27.02-.56.01-.85 0-.56.01-1.1-.35-1.61-.23-.33-.12-.8.23-1.15.18-.17.56-.32.37-.64-.2-.33-.29-.6-.05-.95.3-.42-.23-.7-.21-1.14.07-1.48.02-2.98 0-4.46 0-.29 0-.58.24-.78.72-.61.8-1.25.23-2.03-.18-.25-.07-.66-.27-1-.33-.57-.27-1.23-.14-1.84.45-2.1.48-2.1.12-3.66-.04-.15-.14-.23 0-.36.36-.34.25-.79.26-1.2 0-.43 0-.86-.02-1.28-.01-.42.1-.97-.13-1.22-.36-.4.2-.75-.1-1.11-.3-.34-.27-.8 0-1.17.27-.38.35-.8.1-1.17-.2-.3-.17-.45.04-.71.6-.74.67-1.13.56-2.38l-.01-.42c-.05-.83.18-1.71-.43-2.45.04-.62-.2-1.27.2-1.85.27-.38.27-.78.03-1.18-.1-.19-.17-.31-.04-.54.37-.65.2-1.38.23-2.07.02-.64.14-1.36-.12-1.89-.36-.74.37-1.27.12-1.96-.2-.53-.03-1.09.33-1.56-.48-.46-.32-1.05-.34-1.6-.02-.42-.14-.95.07-1.25.63-.93.26-1.93.35-2.9.04-.41-.15-.95.05-1.25.64-.92.3-1.92.39-2.87.05-.5.02-1 0-1.49a4.32 4.32 0 0 0-.22-1.22c-.13-.39.15-.9.2-1.35a.88.88 0 0 0-.15-.59c-.33-.41-.32-.78.09-1.1.58-.45.56-.9.1-1.44-.17-.2-.27-.48-.37-.74-.05-.12-.11-.35-.05-.4.63-.47.27-1.2.47-1.79.44-1.3.4-1.3-.04-2.98-.07-.25-.1-.62.04-.8.34-.44.37-.9.36-1.4 0-.43-.02-.85-.04-1.28-.02-.27.01-.64-.15-.78a3.5 3.5 0 0 0-1.09-.59c-.19-.07-.42-.02-.63-.03-1.12-.03-2.27.2-3.34-.36-.22-.12-.65-.14-.84 0-.77.55-1.63.34-2.47.39-.49.03-.95.01-1.44.22-.78.32-1.65.32-2.47-.01-.26-.1-.53-.17-.8-.2-.69-.09-1.4.19-2.05-.37-.28-.24-.6.28-.93.34-.67.14-1.43-.2-2.04.37-.07.07-.27.03-.4 0-1.92-.48-1.93-.46-2.98-.03a1.3 1.3 0 0 1-.4.09c-.5 0-1 .02-1.5-.02a.91.91 0 0 1-.55-.26c-.55-.62-1.22-.71-1.92-.42-.29.12-.45.19-.73 0-.4-.25-.93-.26-1.39-.43-.47-.19-1.28-.53-1.56.47-.08.28-.52.34-.75.22-.78-.46-1.63-.39-2.48-.4-.5-.01-1.11.18-1.47-.04-.94-.58-1.93-.33-2.9-.38-.86-.04-1.72.03-2.57 0-.98-.03-.99-.06-1.39.23-.26.19-.49.21-.76.02-.5-.36-.5-.32-1.4-.27-.49.02-.98-.04-1.48-.06-.53-.65-1-.1-1.5.06-.3.09-.49.28-.66.5-.26.34.22.45.24.7.03.35.03.68.22 1.02.33.57.38 1.19-.06 1.77-.23.3-.2.67-.04 1 .18.37.38.73.6 1.09.22.33.25.72.03.99-.29.34-.12.6 0 .9-.5.51.14.68.31.99.04.06.1.1.13.17.03.13.12.32.06.4-.44.5-.46.93-.01 1.48.17.21.03.68.03 1.04.01.35.05.7.03 1.06-.02.41.06.93-.16 1.22-.3.38.13.65 0 .9-.54.95-.4 1.97-.15 2.88.3 1.06.48 2-.06 3.01-.15.29-.2.78-.05 1.03.66 1.06.33 2.2.42 3.3.02.27 0 .58-.12.8-.55 1.08-.28 2.21-.26 3.31.68.93.42 1.82-.03 2.76-.15.32-.08.8.08 1.23.44 1.2.47 1.3.11 2.19-.17.42-.2.81-.2 1.23 0 .27 0 .62.14.8.35.4-.1.62-.13.92 0 .12.02.29.1.38.5.64.45 1.42.17 2.01-.3.66-.42 1.16.05 1.74.07.08.08.32.01.39-.5.54-.4 1.2-.35 1.82.05.68-.22 1.42.34 2.03.07.08.09.33.02.4-.6.52-.22.97.03 1.48.11.22.11.58-.12.8-.45.42-.16 1.1-.59 1.54-.23.25-.18.67.05.99.18.23.36.49.26.77-.2.6-.29 1.05.24 1.62.42.44.36 1.17-.2 1.7-.23.24-.19.27-.06 1.04.05.35-.1.8.07 1.04.7.91.21 2.07.77 3 .19.32.2.95 0 1.24-.61.93-.3 1.92-.37 2.88-.04.47.1.83.45 1.14.49.45.55.96.12 1.5-.2.24-.16.52-.16.8 0 .37.24.69.27.98.03.35-.36.7-.27 1.16.09.47-.03.95.29 1.42.27.4.26.97-.01 1.4-.42.68-.47 1.31.01 1.97.14.19.16.41.01.58-.23.25-.14.44-.03.72.09.23-.22.51.04.88.28.4.25.96-.04 1.4-.2.3-.04.45.04.7.23.76.23 1.52-.24 2.21.51.7.47 1.44.21 2.2a.42.42 0 0 1-.12.18c-.13.12-.12.22.04.34.38.31.07.85.36 1.18.44.5-.34.82-.17 1.33.13.38.03.84.02 1.26-.02.57-.02 1.1.37 1.61.2.26.14.69-.12.98-.17.19-.16.34 0 .51.5.58.28 1.2.22 1.87-.11 1.41-.04 2.84-.02 4.25 0 .2.08.42.19.58.17.24.26.5.24.78-.02.43 0 .86-.04 1.28-.04.43-.41.83-.12 1.29-.45.66-.46 1.3.02 1.96.13.18.15.41 0 .58-.33.35-.3.78-.3 1.2.05.52.05 1.01.05 1.51Zm44-108.98c.25 0 .6.02.96-.01.2-.02.4-.12.58-.2.26-.14.38-.5.18-.67-.56-.47-.8-.94-.24-1.6.12-.15-.04-.54-.1-.8-.04-.18-.32-.3-.1-.54.27-.28.25-.65.25-1v-4.68c0-.5-.03-.98-.39-1.39-.07-.07-.05-.32.02-.39.3-.31.22-.55.01-.88-.12-.2-.12-.64.01-.8.54-.6.26-1-.22-1.42a.9.9 0 0 1-.3-.76c.01-.28-.01-.57.01-.85.05-.65-.04-1.11-.88-1.08-.55.02-.34-.94-1.02-.9-.08 0-.24-.34-.25-.52-.05-.67-.4-1.08-1.05-1.1-.68 0-.9-.63-1.42-.84-.26-.1-.63-.23-.7-.42-.29-.9-1.21-1.34-1.57-2.19-.11-.24-.33-.45-.52-.65-.22-.24-.7-.12-.79-.6-.04-.24-.29-.46-.48-.67-.08-.09-.25-.12-.38-.14-.87-.09-1.33-.63-1.73-1.35-.3-.54-.34-1.44-1.39-1.27-.17.03-.44-.34-.6-.55-.16-.2-.11-.52-.42-.68-.94-.5-1.85-1.05-1.9-2.3-.01-.08-.2-.18-.33-.22-.51-.19-.88-.48-.87-1.06 0-.4-.23-.66-.48-.91-.25-.26-.45-.55-.42-.94.02-.23-.09-.44-.3-.5-1.02-.28-1.35-1.2-1.75-1.98-.42-.82-.8-1.63-1.5-2.25-.14-.13-.31-.38-.28-.54.12-.57-.27-.98-.51-1.34-.5-.74-.39-1.46-.28-2.22 0-.05.09-.13.13-.13.06 0 .15.05.18.1.58.89 1.3 1.65 1.97 2.46.44.53.68 1.17 1.44 1.4.21.07.4.4.48.65.3 1 1.01 1.66 1.73 2.34.57.53 1.12 1.1 1.66 1.66.2.2.45.45.45.67-.03.59.3.9.65 1.26.36.34.77.66.7 1.24-.04.26.15.36.36.46l1.32.63c.5.25 1.1.41.9 1.19.45.5.74 1.25 1.62 1.2.24-.02.4.12.47.33.17.51.47.81 1 .98.4.13.6.54.81.92.18.32.69.45.97.74.17.18.23.5.25.77.03.25.16.44.35.45.72.03 1.15.33 1.42 1.03.2.5.63.97 1.2 1.14.44.14.7.47 1 .76.72.69 1.45 1.37 2.13 2.1.49.53 1.01.98 1.7 1.22.48.18.76.51.98.97.15.3.45.56.82.17.46.14.93.25 1.36.44.3.13.18.71.67.7.37 0 .67.17.98.34.23.12.64.2.8.08.42-.3.72-.22 1.13-.02.2.1.54-.04.8-.11.13-.04.23-.17.33-.27l.61-.6c.38-.38.58.23.92.16.42-.09.69-.51 1.17-.43.65.1 1.13-.14 1.35-.75.12-.3.3-.4.57-.53.7-.35 1.05-1.16 1.86-1.37.38-.72.75-1.4 1.42-1.94.4-.32.46-1.03.84-1.4.41-.43 1.11-.58 1-1.4 0-.07.36-.17.52-.28.23-.18.45-.36.66-.56.26-.24.52-.5.13-.84.22-.27.38-.66.65-.79.81-.37 1.17-.92.99-1.8-.09-.4.16-.69.43-.91.38-.3.94-.49 1.16-.86.22-.4.18-.94.5-1.34.17-.22.26-.5.43-.72.75-1 1.47-2.04 1.93-3.2.24-.62.8-1 1.06-1.56.53-1.18 1.72-2 1.88-3.4.03-.16.27-.33.44-.45.83-.66 1.08-.9 1.14-1.78.05-.6.4-1.04.56-1.57.05-.18.25-.33.42-.47.28-.27.35-.6.34-.97 0-.56.82-.35.82-.82 0-.68.42-1.17.66-1.73.17-.39.42-.73.6-1.11.2-.4.13-.82-.26-1.13-.86-.7-1.72-1.46-2.67-2.03-.68-.4-1.12-1.02-1.85-1.38a5 5 0 0 1-1.7-1.58c-.46-.64-1.38-.7-1.68-1.5-.1-.28-.47-.26-.75-.24-.38.02-.4.28-.47.56-.2.83-.43 1.33-.94 1.8a4.5 4.5 0 0 0-1.06 1.54c-.25.6-.55 1.1-1.26 1.29-.32.08-.5.44-.65.79-.12.3-.4.68-.68.76-.57.16-.62.52-.58.96.05.48-.17.8-.5 1.1a15.79 15.79 0 0 0-3.06 3.49c-.6 1.01-1.25 2-1.97 2.94-.42.57-.73 1.17-1.46 1.42-.2.07-.29.28-.27.5.03.59-.32.96-.8 1.13-.44.14-.53.4-.53.77 0 .29.02.57 0 .86-.01.34-.9.9-1.23.75-.51-.22-1.06-.4-1.32-.98-.07-.18-.2-.47-.31-.48-.66-.05-.56-.89-1.24-1.01-.76-.14-.5-1.06-.8-1.58a.39.39 0 0 0-.15-.15c-.62-.32-.33-1.08-.7-1.46-.43-.44-1-.74-1.5-1.12-.17-.13-.37-.31-.4-.5-.1-.72-.76-.98-1.13-1.47l-1.27-1.65c-.14-.17-.29-.36-.47-.43-1.07-.39-1.65-1.29-2.31-2.1-.13-.16-.15-.41-.37-.47-.93-.22-.94-1.13-1.38-1.73.09-.86-.55-1.37-1.15-1.63-.64-.28-1.04-.75-1.44-1.2-.44-.52-1.17-.53-1.56-1.06-.2-.28-.55-.45-.61-.85a.56.56 0 0 0-.21-.35c-.34-.24-.7-.46-1.06-.66-.44-.25-.28-.97-.9-1.09-.22-.03-.37-.19-.36-.44 0-.56-.02-1.1-.41-1.58-.05-.06.02-.31.1-.36.36-.21.72-.44 1.11-.53.4-.1.6.32.86.55.31.27.57.57.99.77.32.15.45.66.73.95.23.26.54.46.83.65.63.43 1.46.7 1.87 1.28.47.66 1.13 1 1.67 1.52.28.25.36.58.52.89.28.55.57 1.09 1.24 1.3.62.2 1.06.52 1.3 1.2.18.5.71.85.95 1.37.1.22.45.53.63.5.85-.16.89.55 1.17.99.15.24 1 1.1 1.25 1.29.22.16.58.4.57.58-.07.86.51 1.3 1.03 1.76.86.75 1.44 1.7 2.03 2.65.19.3.5.54.6.85.27.83 1.16.96 1.63 1.54.1.14.2.1.34-.04.27-.32.57-.63.85-.95-.14-.77.52-1.1.88-1.6.57-.78 1.06-1.62 1.6-2.43.2-.29.16-.53-.05-.75-.25-.26-.51-.5-.77-.74-.42-.4-.8-.77-.8-1.42 0-.32-.18-.73-.41-.93-.69-.59-.78-1.46-1.16-2.19-.41-.8-.7-1.67-1.46-2.26-.23-.18-.41-.41-.37-.72.07-.56-.33-.96-.58-1.32-.24-.34-.6-.74-.96-.97-.42-.26-.64-.48-.62-.95.01-.43.03-.82-.6-.9-.7-.1-.46-1.2-1.25-1.3-.1-.01-.2-.18-.26-.3-.45-1.18-1.2-2.2-1.85-3.26-.3-.5-.44-1.22-1.23-1.3-.58-.7-1.4-1.16-1.76-2.07-.17-.42-.68-.71-1.03-1.06-.82 0-1.07-1.18-2.04-.96-.16.04-.44-.32-.62-.54a10.9 10.9 0 0 0-2.52-2.07c-.67-.36-1.55-.3-2.02-1.03-.75.3-1.3-.08-1.78-.57a1.44 1.44 0 0 0-1.16-.4l-1.5-.02c-.5 0-1.02-.07-1.5.03-.57.13-.99-.66-1.36-.35-.57.45-.9-.15-1.34-.1-.2.03-.48-.08-.63.02-.84.56-1.92.33-2.77.86-.41.26-.83.52-1.28.72-.53.24-.92.5-1.19 1.1-.27.6-.76 1.15-1.61 1.19-.55.02-.85.43-.9 1-.02.2-.09.52-.2.55-.85.24-.87 1.23-1.54 1.64-.36.2-.63.52-1.03.72-.46.22-.1.9-.51 1.31-.28.28-.4.66-.84.84-.52.2-.65.7-.6 1.24.01.27 0 .61-.32.7-.42.1-.47.35-.6.73-.16.54-.16 1.27-.93 1.49a.4.4 0 0 0-.28.5c.18.69-.34 1.18-.48 1.77-.05.19-.34.16-.48-.03-.08-.11-.24-.22-.25-.34-.06-.89-.22-1.75.3-2.64a48.9 48.9 0 0 0 2.27-4.68 4.4 4.4 0 0 1 1.59-1.94c.54-.36.8-.91 1.25-1.29.51-.43.33-1.08.68-1.48.35-.4.9-.64 1.32-1 .14-.11.2-.36.22-.56.04-.29.03-.6.38-.67.55-.1.45-.67.74-.94.15-.14.13-.25-.08-.3-.34-.08-.74-.08-1-.26-.47-.33-.82-.23-1.07.18-.37.58-1.06.33-1.52.66-.57.4-1.19.32-1.8-.02a.9.9 0 0 0-.57-.12c-1.73.45-1.73.48-3 .02-.2-.07-.38-.03-.6.07a4.52 4.52 0 0 1-3.3.12c-1.08-.37-2.11-.13-3.15-.28-.27-.04-.38.14-.47.34-.2.5-.62.95-.45 1.58.21.8-.61 1.4-.48 2.22.03.22-.34.5-.31.74.06.67-.9.8-.71 1.58.14.6-.39 1.1-.65 1.64-.25.5-.52.98-.43 1.58.04.23-.09.45-.3.5-.43.1-.55.32-.55.74 0 .7.07 1.45-.16 2.09-.16.47-.33.92-.29 1.4.04.56-.15.96-.55 1.3-.1.08-.2.3-.16.32.48.49.14.89-.1 1.32a3.8 3.8 0 0 0-.48 2c.02.88.23 1.82-.35 2.68-.19.28-.06.83.06 1.22.07.26.28.45 0 .7-.41.33-.63.75-.58 1.3.05.5.06.97-.33 1.39-.07.08.06.38.12.57.06.2.26.47.19.56-.48.63-.37 1.34-.36 2.03 0 .47-.17.82-.49 1.12-.34.33-.51.66-.13 1.1.26.29.21.67.07.98-.14.32-.36.6-.34.97.04.91.15 1.83-.4 2.66a.43.43 0 0 0 0 .41c.39.57.44 1.1.04 1.7-.08.13.26.48.24.7a1.4 1.4 0 0 1-.35.75c-.45.58-.52 1.12-.03 1.72.11.14.12.43.06.6-.23.58-.6 1.14.03 1.7-.1.95.26 1.96-.36 2.88-.2.28-.13.68.12.99.28.36.34.8.1 1.17a2 2 0 0 0-.3 1.2c0 1.14.07 2.28 0 3.4-.05.82.2 1.5.53 2.2.07.16.33.25.16.52-.47.71-.21 1.51-.25 2.28-.03.56-.02 1.13.02 1.7.02.62-.2 1.29.33 1.81-.42.47-.4 1.03-.36 1.6.09.95-.27 1.98.45 2.84-.18 1.1.26 2.23-.37 3.32-.34.6.3 1.15.52 1.72.02.08.26.15.37.12.75-.2 1.3.46 2.03.43.78-.03 1.57.02 2.36.02.43 0 .84 0 1.21-.3.47-.35 1.12.04 1.62-.35.71-.56.94.3 1.4.51.47.23.98.24 1.43-.01.94-.55 1.93-.25 2.9-.24.52.56 1.2.34 1.82.35 1.43.02 2.86 0 4.3.02.41 0 .92-.07 1.24.14.54.34 1.1.24 1.65.28.76.06 1.57-.23 2.25.39.08.07.4-.07.56-.16.18-.1.3-.3.47-.44.23-.18.49-.28.76-.06.44.35.89.4 1.37.08.09-.06.24-.08.35-.06 2.17.36 2.17.35 4.33-.12.25-.06.6-.01.8.13.3.2.48.1.73-.06a.46.46 0 0 1 .59.06c.28.25.59.4.93.09.22-.2.49-.25.78-.24.56.02 1.15-.1 1.6.35.44-.41.86-.45 1.28.03.43.5.92.62 1.5.25.38-.25.8-.3 1.2-.06.18.1.34.27.52.03.63-.8 1.58-.87 2.32-.5.7.3 1.36.18 2.16.27Zm-30.9-105.18h-.51c-.94.02-1.07.1-1.43 1.17-.09.29-.24.48-.4.72-.27.4-.54.82-.74 1.25-.11.24-.23.65-.1.8.52.62.34 1.34.38 2.02.04.73.37 1.34.8 1.88.3.39.7.71 1.07 1.04.37.31.6.89 1.14.87.47-.02.94-.26 1.38-.42.56-.2 1.17-.48 1.61-.97.23-.25.55-.64.81-.62 1.02.07 1.44-1.17 2.46-1.01.66-.77 1.67-1 2.5-1.5.5-.3 1.04-.43 1.17-1.1.03-.12.34-.28.5-.26.6.04 1.03-.4 1.6-.51 1.2-.23 4.38-1.93 5.48-2.43.86-.4 1.28-1.31 2.22-1.57.36-.1.36-.43.14-.82-.2-.34 0-.87-.18-1.22-.23-.47-.54-.84-.05-1.3-.56-.83-.23-1.77-.33-2.65-.02-.14-.02-.3-.1-.4-.41-.49-.3-1.06-.31-1.62 0-.5-.07-1-.02-1.49.03-.46-.25-.78-.36-1.17-.16-.52-.69-.76-.8-1.21a6.1 6.1 0 0 0-.56-1.56c-.06-.1-.16-.18-.24-.27-.05.05-.12.1-.13.16-.09.27-.14.6-.52.54-.76-.09-1.34.31-1.99.58-.7.3-1.43.51-2.1.86-.48.25-.77.79-1.45.76-.6-.02-.82.7-1.42.87-.45.12-.84.44-1.37.37-.19-.02-.48.05-.57.17-.45.62-.9 1.19-1.57 1.58-.17.11-.2.5-.24.77-.1.55.2 1.14-.17 1.66-.31.45-.39.91-.02 1.36.2.24.02.37-.09.53-.43.67-.67 1.34-.15 2.08-.13.56.38 1.1.23 1.55-.16.44.16.62.18.93.03.33-.5.53-.16.93.08.1-.32 1-.4 1.07-.42.31-1.48.22-1.72-.27-.39-.8-1.16-1.16-1.8-1.62-.46-.3-1.05-.7-1.67-.53Zm58.62 42.3c0 1.12-.02 2.26 0 3.4.01.7.69 1.52 1.45 1.54 1.22.03 2.08.77 3.04 1.3.41.25.66.8 1.07 1.03.51.28.9.6 1.15 1.12.08.17.34.39.48.37.69-.1 1.06.3 1.47.72.08.08.27.17.37.14.32-.1.63-.27.94-.43.2-.1.34-.25.3-.49-.08-.6.16-1.09.46-1.58.28-.48.51-.97.45-1.57-.02-.24.3-.5.3-.76 0-.24-.25-.48-.31-.74a.83.83 0 0 1 .2-.79c.2-.22.3-.46.1-.75-.13-.18-.28-.38-.27-.56a1.97 1.97 0 0 0-.84-1.82c-.44-.32-.71-.72-.21-1.22a2.22 2.22 0 0 0-.9-1.54c-.23-.16.04-.07-.15.1-.56.47-.92.18-1.23-.26-.37-.54-.7-1.7-.78-2.46-.1-.97-.17-1.27-.61-1.84-.28-.34-.52-.66-.5-1.13a.61.61 0 0 0-.15-.37c-.13-.16-.31-.29-.47-.43-.07.11-.16.21-.21.33-.23.5-.5.97-.43 1.59.08.7.02 1.41 0 2.12-.02.42-.48 1.01-.7.9-.3-.18-.58-.42-.58-.83 0-.2 0-.46-.1-.6-.27-.39-.3-.66-.07-1.13.3-.62.33-1.38-.07-2-.26-.42-.17-.82-.2-1.23-.01-.13-.09-.25-.13-.37-.09.05-.22.09-.26.17-.26.48-.47 1-.77 1.46-.22.35-.56.63-.85.95.34.48.03.91-.18 1.27-.26.45-.42.88-.41 1.39.01.28.06.63-.09.82-.4.5-.33 1.05-.31 1.62v2.55Zm21.03 161.83c0-.8 0-1.3-.49-1.78a2.84 2.84 0 0 1-.78-1.66c-.03-.14-.03-.3-.11-.4-.18-.2-.4-.36-.6-.54-.06.2-.17.4-.17.59-.02 1.34 0 2.7 0 4.04 0 .48.08.97-.3 1.4-.22.26 0 .5.14.76.09.16.19.46.1.57-.24.32-.18.54-.01.9.21.43.22.95-.09 1.4-.4.6-.39 1.2-.03 1.78.29.47.21.94.18 1.43-.8.7-.03 1.82-.7 2.56-.04.03.09.22.16.33a1 1 0 0 1 .06 1c-.15.31-.36.58-.34.97.02 1.06.1 2.13 0 3.18-.1 1.03.33 2.12-.36 3.09.46.45.32 1.05.38 1.6.03.18.17.26.27.17.56-.54 1.27-1.01 1.63-1.66.35-.65.52-1.4 1.05-1.97.04-.04.03-.17 0-.2-.57-.46-.02-.88.05-1.3.05-.25.34-.47.37-.72.08-.56.16-1.15.04-1.7-.13-.63.37-1.14.18-1.76-.09-.34.14-.66-.12-1.08-.22-.36-.07-.96-.08-1.45v-1.28c.02-.35-.07-.83.12-1.01.47-.46-.21-.8-.04-1.11.3-.5.2-.85-.23-1.2-.33-.27-.29-.63 0-.92.13-.14.13-.2-.01-.35-.33-.35-.28-.75-.14-1.18.17-.49.16-.5-.01-.69-.33-.36-.75-.68-.28-1.25.15-.2.15-.51.16-.56Zm-91.43 17.13h-.03v.42c.01.47.28.69.66.47.31-.18.58-.37.97-.35.43.03.86 0 1.28.01.36 0 .47-.22.57-.5.04-.12.16-.26.28-.29.66-.2 1.44.2 2.03-.4.3.15.64.27.93.46.71.45 1.5.47 2.2.13.47-.22.76-.23 1.12.11.67.65 1.55.93 2.36 1.31.65.3 1.48-.48 1.33-1.19-.11-.56-.93-1.32-1.47-1.34-1.12-.03-2.26.2-3.3-.4-.11-.07-.3-.04-.42 0-.2.08-.36.26-.56.3-.22.03-.38-.3-.7-.08a1.4 1.4 0 0 1-1.6.02c-.32-.2-.47-.05-.71.07a1 1 0 0 1-.61.08c-.33-.09-.64-.35-.95-.35-.32 0-.62.32-.94.37-.41.06-.82.03-1.23-.22-.31-.2-1.19.37-1.2.72-.03.22-.01.43-.01.65Zm54.07-68.64c-.04.44.05.88-.28 1.24-.02.02.09.25.17.27.27.06.56.05.82.12.54.15.77 0 .54-.48-.44-.94-.38-1.9-.39-2.88 0-.35.12-.8-.04-1.04-.4-.59-.37-1.2-.36-1.82.03-.61-.19-1.28.33-1.82.08-.08-.01-.46-.14-.56-.58-.47.5-1.04-.12-1.47.37-.6.75-1.15 1.6-1.15.4 0 .56-.48.29-.74a4.52 4.52 0 0 1-1.6-2.83.31.31 0 0 0-.15-.15c-.04 0-.15.08-.15.1.06.45-.75.74-.19 1.29.23.22-.01.5-.15.76-.3.53-.17.57-.21 1.66-.07 1.66.43 3.38-.36 5-.03.05-.03.16 0 .2.58.5.2.95.03 1.5-.17.56-.3 1.25.2 1.81.27.3.14.67.16 1Zm-51.86 78.95c-.16.1-.43.16-.48.3-.05.16.04.43.16.56.18.2.44.34.69.44.25.1.57.08.8.22.35.24.62.23.94-.02.37-.29.83-.13 1.24-.2.11-.03.21-.13.32-.2l-.11-.17c-.62-.85-1.4-1.16-2.38-.66-.27.14-.36-.03-.53-.09-.2-.07-.4-.12-.64-.18Zm34.23 1.94c-.22-.2-.42-.53-.64-.54a2 2 0 0 1-1.48-.71c-.19-.22-.35-.05-.52.05a4.1 4.1 0 0 1-2.19.63c-.19 0-.3.29-.25.5.05.21.24.32.48.3.2-.02.45-.01.6-.13.53-.4 1.03-.4 1.55 0 .27.2.53.13.76-.07.33-.29.63-.25.93.03.18.17.38.16.59.1.05-.02.09-.08.17-.16Zm-10.35-251.6c-.54-.1-.86-.67-1.48-.62-.38.04-.63.22-.85.5-.13.15-.1.3.09.29.65-.07.98.26 1.24.8.05.12.39.14.52-.07.15-.23.26-.47.37-.72.12-.26.2.09.1-.19Zm47.74 208.48v-.98c0-.08-1.16-1.59-1.24-1.59-.13 0-.3.04-.37.12-.08.09-.13.28-.08.38.09.19.23.36.39.49.66.52 1.05 1.13.92 2-.02.07.14.17.22.25.05-.06.12-.1.14-.17l.02-.5Zm-53.84 44.1c.1-.1.23-.17.32-.27.08-.09.2-.27.18-.3-.42-.46-.87-.9-1.32-1.32-.03-.04-.12-.05-.16-.03-.05.04-.1.1-.11.17-.11.7.44 1.56 1.09 1.75Zm-11.53-2.01c.57.14 1-.18 1.34-.67.09-.12-.01-.5-.15-.54-.13-.04-.3-.1-.4-.06-.5.25-.73.87-1.35.94-.04 0-.1.1-.09.13.04.05.1.1.16.12.13.04.27.05.49.08Zm24.39-9.32-.17.12c.34.49.68 1 1.06 1.46.04.05.45-.05.5-.17.2-.37.04-.86-.29-1.03-.3-.15-.6-.28-.91-.41-.05-.02-.13.02-.2.03Zm-13.8.77h-.41a.7.7 0 0 0-.58 1.03c.03.06.12.16.12.16.44-.32 1.07-.32 1.38-.84.04-.05.1-.13.09-.16a.25.25 0 0 0-.17-.12l-.43-.07Zm-11.04-240.37c-.06-.05-.1-.1-.17-.12a.33.33 0 0 0-.2-.02c-.56.2-.87.67-1.17 1.12-.07.1.06.43.19.5.14.1.48.1.53-.14.1-.51.53-.8.79-1.19.03-.03.02-.1.03-.15Zm14.18 241.23c.4.05.57-.25.8-.49.15-.15.15-.22-.05-.28a.76.76 0 0 0-.19-.03c-.38.01-.55.32-.76.57-.02.02.01.1.04.14.03.04.1.06.16.09Zm17.75 8.54c0 .24.15.34.37.37.27.03.5-.25.42-.51-.08-.21-.26-.29-.47-.25-.21.04-.37.14-.32.4Zm11.34 0c.12 0 .2.02.25-.01l.34-.2c-.1-.08-.19-.2-.29-.22-.2-.03-.4-.02-.6.02-.08.01-.14.15-.19.24 0 .02.09.11.15.13.12.03.26.03.34.03Zm2.37-75.93c-.04-.21-.05-.34-.1-.48 0-.06-.07-.1-.12-.16-.04.05-.1.1-.13.16-.03.13-.09.28-.07.4.03.2.13.38.2.57l.22-.49Zm-52-164.73-.21-.2c-.15.12-.29.26-.43.39-.16.13-.15.22.04.29a.5.5 0 0 0 .19.03c.36 0 .4-.25.42-.51Zm108.48 134.7c-.07.1-.18.2-.19.31 0 .1.06.31.12.32.24.04.27-.16.24-.32-.02-.12-.11-.2-.17-.3Zm-107.16-138.48-.2-.31c-.07.1-.17.2-.19.32-.04.24.14.46.25.33.08-.08.1-.22.14-.34Zm-.87 2.16-.2-.34c-.07.18-.15.35-.19.54 0 .02.17.1.26.15l.13-.35Zm2.73 4.43c-.2.14-.14.32-.06.5.03.06.08.1.13.15.04-.04.1-.09.13-.14.08-.18.14-.36-.05-.5-.04-.03-.1-.01-.15-.01Zm59.27 174.53c-.02.03-.07.09-.06.11.03.05.1.14.11.13.16-.07.18-.16.08-.24-.03-.02-.09 0-.13 0Zm-41.59-189.08c-.05.05-.15.1-.15.13.08.2.19.21.29.02.02-.03-.09-.1-.14-.15Zm-.73-.3-.12-.12c-.05.03-.09.08-.13.12l.18.13.07-.12Zm53.58 52.09.13-.13a2.76 2.76 0 0 0-.12-.12l-.13.19.12.06Zm-74.2 198.65-.1-.13-.13.12.18.13a.94.94 0 0 1 .06-.12Zm32.03-237.62c-.02.04-.07.1-.06.12.02.06.1.14.11.13.16-.07.18-.16.08-.24-.03-.02-.09 0-.13 0v-.01Zm-9.26 238.06-.12-.14-.13.12.18.14.07-.13Zm-10.74-241.38a2.31 2.31 0 0 1-.11-.14l-.13.13.18.13.06-.12Zm1.73-.87c-.04-.04-.09-.12-.13-.12-.05 0-.1.08-.14.12l.2.14.07-.13Zm-.87 0a2.93 2.93 0 0 0-.12-.12l-.12.11.18.13.06-.12Zm14.18-5.94-.13-.13-.13.12.2.13.06-.12Zm9.47 249.93c-.05-.05-.1-.15-.14-.15-.05 0-.1.09-.16.13.04.05.09.13.14.14.05 0 .1-.08.16-.12Z" fill="#284855"/><path d="M97.93 157.82c-.73.18-1.58-.27-2.41-.58-.76-.3-1.68-.35-2.23-1.1-.03-.04-.25.05-.38.07.02.1.02.25.08.33.17.23.41.4.56.64.2.33.02.87-.34 1.04-.48.22-.9.66-1.53.12-.4-.35-1.06-.06-1.61-.37-1.6-.87-3.27-1.58-4.87-2.42-.68-.35-1.14-1.02-1.85-1.4-.83-.48-1.66-1-2.44-1.57-.85-.62-1.8-1.12-2.5-1.94-.79-.91-1.92-1.4-2.81-2.2-.2-.18-.48-.28-.7-.46a4.37 4.37 0 0 1-1.3-1.61c-.7-.14-1.06-.71-1.5-1.16-.33-.34-.5-.83-.74-1.26 0 0 .1-.1.15-.12a.36.36 0 0 1 .2-.04c.13.04.28.07.38.15.26.24.52.49.76.75 1.16 1.34 2.74 2.22 3.97 3.49.1.1.24.23.35.23.54 0 .96.14 1.1.72.5.14.85.48 1.2.83.49.5.92 1.1 1.75 1.07.12 0 .27.12.36.21.8.9 2.03 1.3 2.76 2.28.28.37.69.48 1.14.49.11 0 .32.12.33.2.1.73.87.64 1.23 1.03.67-.13 1.07.27 1.46.7a2.8 2.8 0 0 0 1.82.97c.7.05 1.2.34 1.7.74.04.02.15.03.15.01.06-.12.14-.24.16-.37.04-.3 0-.63-.27-.76-1.03-.52-1.65-1.58-2.65-2.06-.83-.4-1.52-.98-2.34-1.38-.37-.18-.67-.51-.98-.8-.24-.23-.27-.65-.05-.72.26-.09.54-.1.82-.11.06-.01.12.07.18.11l1.3 1.1c.8-.18 1.1.55 1.64.84.5.26 1.01.49 1.52.7.64.27 1.2.8 1.97.64.33-.06.56.17.72.39.5.66 1.25.84 2 1.07.59.18 1.16.4 1.75.6.06.02.14-.01.2-.04.16-.07.14-.16 0-.3a2.22 2.22 0 0 0-.9-.56c-.18-.07-.3-.27-.47-.4-.2-.18-.16-.4-.08-.58.1-.25.4-.25.55-.15 1.08.63 2.2 1.19 3.36 1.68.08.03.13.16.17.26 0 .01-.1.11-.16.11-.32 0-.54.17-.72.4-.28.35-.62.56-1.1.5-.2-.04-.42-.01-.86-.01Zm-21.5-20.41c-.96.08-1.75-.44-2.61-.7-.46-.14-.88-.4-1.33-.59-.04-.01-.13.04-.17.08-.04.04-.07.12-.05.15l.39.5c.38.51.33.87-.17 1.21-.06.04-.11.1-.18.12-.07.02-.17.04-.21 0-.63-.55-1.53-.17-2.17-.67-1.44-1.11-3.05-2.02-4.3-3.37-.3-.3-.6-.57-1.03-.7-.32-.1-.16-.69-.64-.76-.54-.08-.39-.7-.7-.99a1.5 1.5 0 0 1 .28-.47c.2-.2.36-.1.41.13.13.6 1 .55 1.03 1.2.93.3 1.4 1.17 2.12 1.72 1.17.9 2.35 1.76 3.56 2.6.1.08.38-.05.55-.15.06-.04.06-.3-.01-.38a38.8 38.8 0 0 0-1.47-1.56l-3.02-3.03c-.18-.18-.16-.38-.07-.57.13-.23.4-.22.56-.12.59.38 1.2.76 1.7 1.23.88.83 1.93 1.37 2.95 1.98.71.44 1.39.96 2.16 1.27.57.23 1.2.31 1.65.8.2.22.36-.06.49-.2.14-.14.25-.3-.03-.46-1.27-.74-2.33-1.75-3.62-2.46-.16-.1-.27-.32-.33-.5-.03-.1.07-.25.13-.37.02-.04.12-.07.18-.07.13.02.28.04.4.1 1.06.53 2.14 1.03 3.18 1.6 1.04.56 2.13.99 3.28 1.26.3.07.48.28.74.38 1.6.67 3.17 1.38 4.85 1.88.43.5 1.09.15 1.6.39.05.03.09.09.13.13-.05.05-.1.13-.16.13-.63.05-1.28.2-1.86-.13-.68-.4-1.56-.07-2.2-.63-.71.03-1.27-.65-2.03-.44-.8-.38-1.77-.45-2.42-1.16-.15-.16-.4-.13-.57.03-.16.17-.13.38 0 .56.07.13.16.24.23.36.03.06.04.13.02.2-.05.12-.1.31-.2.34-.33.07-.69.09-1.04.13Zm16.3 51.9c.08-.11.12-.32.2-.33.34-.07.76-.2 1.04-.07 1.37.65 2.86 1.06 4.2 1.8.04.01.08.1.07.12-.03.06-.1.13-.16.13-.48.05-.97.14-1.44-.15a5.53 5.53 0 0 0-1.12-.56c-.25-.08-.63-.13-.8 0-.44.34-.9.36-1.4.35a1.7 1.7 0 0 1-1.17-.4c-.36-.3-.83-.5-1.25-.75a.9.9 0 0 0-1-.01c-.8.47-1.57.4-2.4.02-2.21-1-2.2-1-4.26-2.84-.46-.41-1.15-.66-1.4-1.2-.26-.54-.85-.73-1.04-1.19-.26-.6-.95-.88-1.02-1.56a7.2 7.2 0 0 1-1.84-2.78c-.27-.84-.82-1.63-.63-2.58.02-.1.15-.18.23-.27.05.05.14.1.14.16-.08.72.51 1.11.77 1.66.23.49.28 1.03.72 1.47.38.37.63.9.91 1.37.41.66.9 1.26 1.45 1.79l1.81 1.8c.93.97 1.81 2 3.17 2.38.48.7 1.31.74 2 1.04.18.07.27.14.33-.06.04-.13.06-.3 0-.4-.1-.17-.27-.32-.42-.47-.7-.7-1.38-1.43-2.12-2.1-.52-.46-.42-1-.38-1.56 0-.07.16-.16.25-.2.03-.02.12.07.18.1 1.23.5 2.02 1.53 2.83 2.5.31.37.2 1 .87 1.26.5.2.87.68 1.41.89.45.17.87.41 1.3.62.06.11.07.26.16.32.11.07.22-.04.14-.15-.06-.08-.21-.1-.32-.14Zm-1.55-74.05c-.84-.02-1.21.02-1.47-.28-.48-.56-1.19-.72-1.8-1.03-.56-.27-.85-.99-1.64-.9-.2.03-.48-.27-.66-.47-.77-.9-1.94-1.45-2.38-2.65-.04-.1-.2-.17-.34-.22-.9-.3-1.18-1.14-1.6-1.85-.24-.42.07-.65.3-.9.04-.05.13-.13.16-.12.1.05.27.14.26.2-.05.64.21 1.09.78 1.37.25.13.51.25.7.44.63.58 1.16 1.27 1.86 1.76.68.48 1.38.95 1.97 1.56.24.26.56.4.87.57.6.33 1.28.58 1.77 1.11.07.09.26.1.39.1.2 0 .45.08.57-.16.1-.19.14-.39-.03-.57-.6-.61-1.15-1.26-1.78-1.83a3.6 3.6 0 0 1-.81-1.18c-.24-.5-.29-.86-.04-.9a.75.75 0 0 1 .75.29c1.05 1.36 2.58 2.17 3.83 3.3 1.07.97 2.45 1.58 3.7 2.34.14.08.46.02.33.29-.06.1-.38.13-.58.13a2.47 2.47 0 0 1-.82-.13c-.51-.2-1-.63-1.51-.66-.7-.04-.95-.57-1.41-.86-.06-.03-.14-.02-.21-.02-.07 0-.13 0-.2.02-.2.08-.2.18-.05.33.16.16.16.32-.01.51-.4.42-.89.41-.9.41Zm21.3 31.03c-.33-.04-.84.13-1.28-.22-.24-.2-.4-.04-.42.17-.05.58-.63.47-.92.75-.33.31-.64.1-.94-.12-.35-.25-.88 0-1.18-.38a5.5 5.5 0 0 1-3.2-1.88c-.24-.28-.53-.46-.93-.44a.7.7 0 0 1-.7-.4c-.27-.74-.9-1.03-1.55-1.29-.42-.17-.7-.44-.88-.84-.05-.13-.12-.33-.2-.35-.82-.11-.7-1.21-1.48-1.35-.23-.04-.35-.18-.45-.39-.6-1.21-1.98-1.82-2.45-3.14-.04-.12-.12-.26-.1-.38 0-.12.1-.28.2-.31.11-.05.37-.01.4.05.62 1.48 2.3 2.1 2.92 3.57 1.13.34 1.56 1.6 2.69 1.99.36.12.63.56.93.85.9.9 1.77 1.83 2.92 2.43.36.66 1.2.3 1.67.8.36.4.92.63 1.42.88.17.08.42.02.64.01.06 0 .13-.06.17-.1.03-.04.05-.13.03-.15-.4-.42-.7-1.01-1.19-1.2-1.15-.48-1.72-1.66-2.86-2.13-.59-.25-.7-1-.9-1.59-.02-.04.03-.14.07-.17.12-.06.31-.16.37-.12.4.29.77.6 1.15.93.42.37.79.89 1.28 1.09.48.2.4.74.83.87 1.03.3 1.73 1.17 2.7 1.58.72.29 1.39.71 2.21.63.06 0 .14.15.2.24 0 0-.1.12-.16.12h-1Zm-12.41 33.63c-.22.44-.4.89-.66 1.29-.12.18-.3.43-.68.22-.54-.3-1.26-.25-1.73-.67l-1.34-1.19c-.96-.85-1.85-1.78-2.75-2.68-.75-.75-1.21-1.7-1.73-2.6-.12-.23-.1-.54-.14-.81 0-.06.07-.17.1-.17a.6.6 0 0 1 .32.07c.11.08.27.2.28.31.07.92.68 1.5 1.3 2.08.25.24.44.53.61.84.23.42.59.84 1 1.07.5.3 1.02.49 1.14 1.13.83.51 1.56 1.18 2.46 1.54.24.1.6.14.78-.15.1-.17.18-.42.12-.59-.16-.44-.4-.87-.61-1.3-.98-.3-.86-1.35-1.38-1.97-.01-.02.04-.12.08-.13.14-.04.34-.13.4-.07.61.58 1.3 1.12 1.78 1.81.29.42.63.69 1 .97-.02.7.77.52 1.03.92.24.37.77.43 1 .71.25.33.45.64.87.8.25.1.5.4.75.25.42-.25-.14-.43-.12-.65.04-.67-.43-1.16-.61-1.76-.06-.2-.21-.37-.28-.56a.77.77 0 0 1 0-.42c.03-.13.1-.28.2-.34.1-.05.33-.06.4 0a11.74 11.74 0 0 0 6.77 2.93c.08 0 .15.16.22.24-.06.04-.1.12-.17.13-2.49.24-3.89-.12-5.74-1.44-.05-.04-.12-.1-.18-.11-.04 0-.1.06-.13.1-.03.06-.07.15-.04.2.4.62.45 1.3.4 2.01-.04.45-.52.77-.93.54-.91-.5-1.95-.8-2.68-1.62-.31-.35-.6-.8-1.14-.9l-.15-.31c-.01-.02-.13 0-.13.01-.04.26.14.26.31.27Zm-63.33-143.05c-.8.31-1.47-.22-2.2-.4-.9-.2-1.38-.94-1.85-1.62-.16-.23-.03-.68-.01-1.04 0-.16.36-.35.5-.27.53.32 1.17.47 1.6.99.19.24.48.25.77.23.5-.03.83-.52 1.39-.42.41.07.85 0 1.27 0 .25-.01.43-.17.41-.38-.05-.61.35-.8.8-1.06.39-.22.96-.24 1.07-.89.04-.27.48-.2.75-.18.12.01.21.13.31.2-.36.4-.29.91-.31 1.4-.02.59.2 1.26-.7 1.52-.33.1-.1.65-.2.98-.05.18-.18.5-.27.5-1.15-.04-2.16.74-3.33.44Zm16.94-17.86c-.65-.15-.47-.97-1-1.2-.9-1.32-1.8-2.62-2.67-3.95a1.63 1.63 0 0 1-.18-.79c0-.13.04-.53.34-.23.35.37.85.04 1.17.31.43.36.83.78 1.24 1.16.2.19.34.47.67.45.05.8.06.81.87.85.01.2-.03.42.06.58.07.13.3.19.47.25.04 0 .2-.2.19-.22-.2-.27-.36-.56-.75-.59-.1-.46-.35-.78-.85-.85 0-.21.06-.47-.04-.62-.2-.3-.43-.56-.7-.78-.4-.35-.6-.74-.55-1.28.01-.25-.11-.53-.24-.77-.09-.17-.13-.3.04-.32.17-.01.5.05.52.13.19.69.73.98 1.3 1.26.18.73.79 1.13 1.29 1.6.44.43.78 1 1.4 1.2l-.03-.03c.02.3.17.45.47.46l-.04-.04c.03.36-.1.81.47.9l-.04-.04c0 .2.09.5-.02.6-.4.37-.18.68-.02 1.04.05.1-.06.25-.09.37-.11-.04-.23-.07-.34-.13-.28-.17-.41-.57-.82-.57 0-.28-.12-.44-.42-.42-.02-.18-.01-.37-.27-.33-.02 0-.04.13-.03.14.1.06.22.1.33.15 0 .29.16.42.43.43l-.01.42c-.01.07-.01.14-.03.2-.07.2-.18.22-.3.1-.86-.84-1.7-1.7-2.57-2.52-.3-.28-.5-.7-.98-.73-.01-.2-.01-.4-.04-.59 0-.05-.1-.14-.12-.14-.09.06-.22.12-.24.2-.05.3.1.48.42.5 0 .28-.04.55.16.8.45.53.97.98 1.28 1.65.22.48.27.92.25 1.4l.02-.01Zm2.12-2.95c-.02-.16-.02-.36-.28-.3-.01 0-.03.12 0 .13l.32.14c.04.1.06.26.14.32.1.07.22-.03.14-.14-.05-.08-.2-.1-.32-.15Zm-.43 17.45c-.26-.62-1-.67-1.4-1.17-.38-.5-.9-.9-1.35-1.36-.08-.08-.09-.23-.13-.34.13-.04.3-.14.38-.1.78.46 1.66.73 2.37 1.3.32.27.72.43 1.09.63.33.18.3-.11.38-.28.05-.13.1-.29.2-.34.11-.06.33-.08.4 0 .77.73 1.52 1.48 2.26 2.24.02.02 0 .11-.04.15a.48.48 0 0 1-.17.12c-.45.07-.83-.07-1.19-.35-.15-.12-.42-.13-.55.09-.03.05.1.22.18.33.04.06.1.1.15.15.15.2.5.32.2.66-.32.37-.63.5-.9.26a3.2 3.2 0 0 0-1.88-.8c-.6-.07-1.14-.5-1.7-.77-.87-.42-1.83-.63-2.59-1.28-.26-.23-.58-.39-.84-.62-.52-.46-.95-1.01-1.66-1.27-.3-.1-.49-.49-.74-.74-.14-.14-.12-.24.08-.3.07-.02.16-.04.21 0 1 .62 2.02 1.22 2.96 1.92.63.46 1.24.93 2.04 1.01.32.04.54.2.71.42.43.53 1 .46 1.56.42.05.1.06.26.14.31.12.08.23-.02.16-.12-.06-.1-.22-.12-.33-.17Zm1.9-.76c-.03.04-.08.1-.07.12.02.05.1.14.11.13.17-.06.2-.16.09-.24-.03-.02-.1 0-.14-.01Zm39.3 170.17c-.69.17-1.24-.23-1.83-.4-1.07-.32-2.16-.59-2.9-1.53-.25-.31-.57.4-.87-.05a2.36 2.36 0 0 0-.6-.6c-1.18-.85-2.36-1.72-3.59-2.5-.27-.18-.51-.34-.4-.6.13-.3.35-.63.76-.65a.5.5 0 0 1 .36.15c.13.15.15.46.3.52 1.36.6 2.42 1.62 3.64 2.42.12.08.23.24.34.23.55 0 .96.15 1.11.72.59.2 1.17.45 1.76.57.37.08.66.22.93.46.25.23.5.57.88.27.05-.05-.18-.44-.27-.67-.02-.06 0-.14.02-.2.07-.2.16-.2.31-.1.36.21.78.36 1.08.63.38.36.8.53 1.31.55.06 0 .12.08.17.13-.04.04-.08.13-.13.13-.82.05-1.51.72-2.38.52Zm-18.2-81.32c-1.3.04-2.1-.44-2.95-.71a3.15 3.15 0 0 0-.83-.13c-.05 0-.17.27-.17.27.46.3-.17.7.1 1.08.18.27-.4.83-.71.73-.13-.04-.25-.14-.37-.16-.76-.15-1.13-.82-1.68-1.23-.55-.4-1.32-.55-1.45-1.37-.67-.12-.76-.9-1.38-1.13-.33-.12-.1-.84.27-1.02.14-.06.2-.05.35.05.65.42.7 1.4 1.55 1.62.22.73.8 1.08 1.44 1.4.37.19.64.55.95.85.15.14.24.14.3-.07.03-.06.05-.14.02-.2a9.52 9.52 0 0 0-2-3.14c-.19-.2-.01.12.08-.15.02-.04.13-.09.18-.07.19.07.45.1.55.24.55.77 1.48 1.05 2.15 1.66.4.36 1.13.12 1.52.62.73-.1 1.28.57 2.01.5.05 0 .11.08.17.12-.1.08-.17.17-.26.23-.05.04-.13.01.15.01Zm23.83 8.53a5.27 5.27 0 0 1-1.96-1.85c-.4-.59-1-1.04-1.27-1.65-.29-.65-.95-.77-1.3-1.25-.21-.27-.36-.59-.54-.87-.04-.06-.1-.13-.16-.14-.89-.2-1.23-1.18-2.03-1.43-.67-.21-.94-1.06-1.83-.95-.44.05-.8-.54-1.08-.94-.02-.04 0-.12.03-.15.05-.05.14-.1.18-.1.63.28 1.34.3 1.9.74 1.17.89 2.57 1.44 3.55 2.57.68-.02.59.7.94 1 .37.32.76.66 1.04 1.06.78 1.15 1.67 2.22 2.47 3.35.1.15.04.4.06.62v-.01Zm3.83 78.31c-.54-.02-.95.04-1.34-.23-.21-.14-.54-.13-.8-.16-.7-.08-1.46.17-2.08-.23-.63-.4-1.46.07-1.99-.57-1.27.2-2.16-.88-3.36-.99-.33-.03-.62-.54-.94-.82-.15-.14-.14-.25.05-.31.06-.03.15-.06.2-.03.49.27 1.04.35 1.56.52.64.22 1.16.79 1.92.73.72-.05 1.27.64 2.02.44.7.53 1.67.18 2.38.7a.6.6 0 0 0 .4.1c.94-.16 1.73.44 2.63.5.06.01.11.1.17.14-.1.07-.2.18-.3.2-.21.04-.43.01-.52.01Zm-51.26-166.87h2.77c.2 0 .42.02.62.1.09.03.18.2.2.3 0 .13-.05.31-.13.36-.42.22-.97.07-1.36.46-.08.07-.43 0-.56-.11-.38-.31-.82-.15-1.22-.24s-.64.6-1.1.14c-.33-.32-.82-.11-1.23-.14-.43-.03-.86 0-1.28-.05-.18-.02-.36-.19-.51-.33-.1-.07-.13-.21-.17-.33 0-.02.1-.12.17-.12h3.81v-.04Zm-4.85 4.68h-2.14c-.44.01-.8-.16-1.2-.33-.56-.23-1.09-.58-1.78-.56-.43.02-.9-.34-1.32-.57-.07-.04-.1-.26-.07-.39.04-.2.15-.16.3-.1.66.24 1.3.52 1.97.64.48.08.97.07 1.38.37.62-.75 1.13.16 1.72.11.64-.05 1.23.08 1.84.34.55.23 1.27.07 1.9.1.06 0 .17.11.17.12-.05.1-.12.25-.19.26h-2.57c0 .02 0 .01 0 0Zm23.94 14.91c-1.22.12-2.1-.66-3.1-1.15-.43-.22-.8-.56-1.24-.78a4.26 4.26 0 0 1-2.2-2.14c-.11-.25-.42-.4-.55-.65a2.34 2.34 0 0 1-.21-.79c-.02-.12.09-.25.15-.37a.3.3 0 0 1 .16.06c.44.44 1.03.78 1 1.53 0 .12.08.3.18.36 1.83 1.15 3.42 2.66 5.44 3.5.2.1.36.19.36.44Zm-19.66-16.62c-.57-.06-1.35.18-2.08-.32-.24-.16-.68-.06-1.04-.07-.57-.01-1.14.03-1.7-.05-.46-.07-.84-.46-1.37-.42-.2 0-.35-.2-.3-.46.03-.24.23-.42.42-.3.56.35 1.18.44 1.8.36.5-.06.8.52 1.16.37a2 2 0 0 1 1.74 0c.54.23 1.25.06 1.9.07.28 0 .57 0 .84.05.13.02.24.13.34.23.1.1.2.21.25.34 0 .04-.17.2-.27.2-.5.02-1 0-1.7 0Zm19.6 10.9c-.04.04-.08.09-.13.12-.07.02-.15.06-.2.04-1.04-.52-2.1-1.02-3.13-1.59-.54-.3-1.03-.7-1.54-1.05-.4-.27-.9-.47-1.17-.83-.28-.4-.57-.73-.99-.97-.12-.08-.05-.51.1-.55a.7.7 0 0 1 .38-.05c.13.04.23.15.33.25.4.39.81.78 1.2 1.18.6.6 1.28 1.1 2.02 1.48.97.51 1.92 1.08 2.86 1.64.11.07.18.21.27.32Zm37 139.4c-.08 0-.16.02-.22 0a20.32 20.32 0 0 1-4.1-1.98 4.65 4.65 0 0 1-1.67-2.11c-.05-.1 0-.27.04-.4.06-.17.18-.17.32-.02.32.37.72.66.9 1.14.23.58.69.88 1.34.82.36-.02.7.03.95.33.65.76 1.46 1.3 2.27 1.86.1.06.1.24.15.37l.01-.02Zm-3.55-64.47c-.06.05-.1.13-.16.13-.28 0-.59.06-.82-.06-.37-.19-.67-.5-1.02-.74-.16-.12-.41-.16-.53-.31-.52-.7-1.36-.98-2.01-1.52-.74-.6-1.02-1.5-1.66-2.15-.09-.1 0-.22.18-.26a.34.34 0 0 1 .2 0c.13.06.3.12.35.22.31.75 1.06 1.04 1.59 1.57.55.55 1.07 1.14 1.69 1.62.64.51 1.38.9 2.08 1.35.05.04.07.1.1.15Zm-7.63 79.8c.42.01.83-.04 1.24.18a7.53 7.53 0 0 0 3.78 1.1c.97.56 2.05.38 3.1.44.12 0 .24.1.36.16-.09.07-.18.2-.28.2-1 .02-2 .02-3 .02-.22 0-.52.08-.63-.03-.53-.54-1.3-.14-1.8-.49-.44-.3-.97-.17-1.39-.44-.3-.2-.64-.3-.92-.5-.22-.15-.5-.3-.46-.65v.01Z" fill="#284855"/><path d="M56.24 14.35c1.5 1.1 2.7 2.33 3.35 3.61.2.39.45.7.68 1.03.26.36.91.55.59 1.19-.49 0-.6-.48-.92-.7-.49-.33-.66-.88-.95-1.34-.3-.47-.9-.7-1.05-1.3-.11-.47-.52-.35-.85-.39l.03.04c-.03-.36.1-.8-.46-.9l.03.04c-.03-.28-.16-.46-.47-.46l.04.04v-.88l-.02.02Zm13.18 34.06c.13.03.3.02.4.1.27.19.2.58.6.77.62.3 1.1.85 1.7 1.22.7.45 1.56.53 2.3.9.2.09.22.2.1.28-.06.03-.13.1-.19.09-.27-.03-.57-.02-.8-.13-.83-.37-1.82-.25-2.54-.84-.5-.41-.95-.86-1.35-1.35-.2-.25-.27-.6-.39-.92 0-.01.12-.07.17-.12Zm-8.31 92.9c.1.06.27.07.3.16a8.5 8.5 0 0 0 2 2.37c.49.43.7 1.01.96 1.57.04.1-.07.25-.12.36a.35.35 0 0 1-.16-.05 14.65 14.65 0 0 1-3-3.43c-.13-.2-.09-.53-.1-.8-.01-.05.07-.11.12-.17Zm1.14-114.15c-.02.07-.04.14-.07.19a.38.38 0 0 1-.13.1c-.36-.33-.82-.62-1.06-1.03a24.62 24.62 0 0 0-2.55-3.51c-.04-.05-.02-.15 0-.2.05-.2.17-.24.29-.13.55.54 1.27 1 1.61 1.66.5.93 1.46 1.52 1.78 2.54l.13.38Zm44.95 105.96c.23 0 .5-.08.65.01.94.63 2.07.8 3.07 1.28.07.03.11.17.13.26 0 .04-.1.13-.16.12-.28-.02-.58-.01-.83-.12-.95-.4-2.1-.3-2.9-1.1-.07-.08-.09-.22-.1-.33 0-.04.1-.09.14-.12Zm-1.59 80.92c.08 0 .19-.01.2.02.62 1.04 1.8 1.4 2.66 2.13.05.04.08.11.12.17-.12.05-.27.18-.35.15-.69-.3-1.38-.59-2.04-.94-.53-.27-.6-.9-.88-1.36-.15-.23-.03.13.1-.12.02-.04.13-.03.2-.05Zm-34.77-166.91c.76-.2 1.33.27 1.96.52.05.02.08.09.12.13-.12.06-.24.18-.36.18-.66-.02-1.09-.24-1.7-.84h-.02Zm-51.02-.46h-1.05c-.06-.01-.16-.1-.15-.13.04-.1.11-.24.17-.24.53 0 1.07.02 1.6.06.06 0 .11.08.16.12-.05.04-.1.11-.16.12l-.57.07Zm-.57 1.3c-.5 0-.7.02-.9-.01-.08-.02-.14-.16-.18-.25 0-.03.1-.13.14-.13.55 0 1.1.02 1.64.05.06 0 .11.08.16.12-.04.05-.09.12-.13.12l-.73.1Zm1.06-2.97-.48-.23c.19-.07.37-.16.57-.2.12-.01.26.04.39.09.06.02.1.08.16.13-.06.04-.1.1-.17.12-.12.04-.26.05-.47.09Zm53.54 16.17c.34.01.68.02 1.02.05.06 0 .12.07.16.12.02.02-.02.1-.04.11-.26.05-.52.13-.78.12-.21 0-.35-.18-.35-.4h-.01Zm36.93 133.68c.13 0 .27-.02.4 0 .16.02.42 0 .29.28-.03.07-.23.12-.35.1-.22-.02-.31-.19-.33-.4l-.01.02Zm-58.83 45.96v.4c-.02.17 0 .41-.28.3-.07-.03-.12-.23-.1-.35.02-.22.17-.33.4-.33l-.02-.02Zm13.3-94.94-.13.34c-.1-.06-.27-.13-.26-.16.05-.18.13-.34.2-.51l.19.33Zm34.38 64.3c-.11-.06-.27-.08-.33-.16-.08-.12.04-.23.16-.16.09.05.11.2.16.32Zm2.98-79.6c.11.05.26.07.31.15.08.1-.02.2-.13.13-.09-.05-.1-.2-.15-.3l-.03.03Z" fill="#284855"/><path d="M102.2 130.14c.3-.01.42.15.41.44l.04-.04c-.29 0-.44-.12-.44-.41h-.02Zm-12.52-21.49c-.05.05-.1.12-.15.12-.06 0-.1-.08-.15-.13.06-.05.11-.13.16-.13s.1.09.14.14Zm-19.27-61.95c.29 0 .44.13.43.43l.01-.02c-.28 0-.43-.13-.42-.42l-.02.01Z" fill="#284855"/><path d="M70.43 46.68c-.11-.05-.27-.06-.33-.15-.07-.12.05-.23.16-.16.1.06.1.22.16.33v-.02Zm-16.77-27.65c.11.05.27.07.32.15.07.12-.04.23-.15.16-.08-.06-.1-.21-.15-.32l-.02.01Zm2.6-4.7c-.1-.05-.26-.07-.31-.14-.08-.11.03-.22.15-.15.08.06.1.2.14.31l.02-.02Zm-23.1 53.27c.08.28-.36.73-.5 1.26-.02.09.12.2.19.3.49-.53 1.37-.2 1.86-.88.45-.62 1.15-1.07 1.62-1.68.3-.4.45-.79 1.08-.79.28 0 .53-.47.84-.57 1.02-.32 1.44-1.4 2.3-1.82a4.48 4.48 0 0 0 1.85-1.9c.15-.25.47-.45.72-.3.31.17.85.38.39.94-.04.04.09.21.12.33.04.2.18.47.1.57-.34.46-.83.81-1.1 1.3-.3.49-.48 1.01-1.13 1.12-.29.77-.92 1.15-1.61 1.5-.2.11-.26.49-.42.7-.26.34-.52.7-.85.95-.52.4-1.42.1-1.71 1-.23.7-1.04.87-1.57 1.3-.52.41-1.32.5-1.86.9a16.9 16.9 0 0 1-3.07 1.73c-.45.19-.84.6-1.32.09-1.21.5-2.5.18-3.74.31-1.14.13-1.98-.59-2.89-1.07-.24-.12-.3-.58-.46-.89.35-.26.23-.83.68-1 .26-.1.73-.05.78-.18.33-.89 1.25-1.32 1.57-2.21.26-.73.72-1.38 1.36-1.84.42-.3.6-1.02 1.33-.83.05.5-.22.9-.5 1.26-.31.4.08 1.24-.8 1.3-.27.4-.52.81-.84 1.18-.26.31-.28.64-.21.99.01.1.2.27.28.25.39-.1.79-.23 1.15-.42.3-.14.26-.47.25-.74-.02-.46.1-.83.47-1.12.1-.1.17-.23.27-.33.28-.33-.07-.93.44-1.1.38-.14.8-.12 1.18-.4.32-.22.55-.02.66.5.03.13-.02.3.03.41.09.22.34.36.5.25.52-.35 1.16-.5 1.6-.99.2-.21.35-.7.75-.47.15.06.1.48.21 1.1Zm-2.73 1.03a3.89 3.89 0 0 0-.12-.18c-.44.35-.96.63-1.1 1.22-.01.07 0 .14.03.2s.09.11.13.17c.4-.38.97-.6 1.1-1.22 0-.05-.03-.12-.04-.19Zm148.2 38.93c.02.57.03 1.08-.45 1.55a16.64 16.64 0 0 1-3.92 3.16c-.1.05-.14.17-.2.26.12.05.25.13.37.15.21.02.43.01.64.02.31 0 .56.09.57.46.01.29 0 .58-.27.75-.95.56-1.92 1.1-2.87 1.67-.1.06-.15.23-.23.34.12.05.25.16.37.16.49 0 .98.06 1.42-.29.37-.28.67.02.9.28.3.33.36.9.1 1.16-.33.35-.7.7-1.1.97-1.08.74-2.22 1.4-3.28 2.17-.65.46-1.27.9-2.1.81-.48-.04-.81.28-1.15.48-.5.28-1.09.3-1.55.56-.48.28-.95.22-1.44.26-.36.02-.68.1-1 .3-.22.13-1.34-.3-1.46-.51-.01-.04.05-.14.1-.18.2-.14.3-.55.66-.27.34.28.77-.34 1.07.15.39-.53 1.05-.27 1.55-.55.91-.5 1.89-.87 2.9-1.08.14-.03.3-.05.39-.14.85-.75 1.91-1.11 2.9-1.62.75-.38 1.43-.86 2.15-1.3.05-.03.12-.1.11-.13-.03-.06-.1-.14-.15-.14-.49-.02-1.05-.18-1.46 0a4.5 4.5 0 0 1-1.83.4c-.46.5-1.21.28-1.74.67-.2.14-.54.1-.81.09-.1-.01-.23-.17-.26-.27-.04-.11 0-.33.07-.38 1.5-.88 2.87-1.96 4.46-2.69.25-.11.49-.24.72-.4.09-.06.12-.21.15-.33 0-.02-.1-.11-.16-.12-.57-.01-1.14.01-1.7-.02-.18 0-.35-.14-.52-.22.08-.11.16-.24.26-.34.6-.6 1.16-1.19 2.1-1.3.38-.04.78-.32 1.07-.6 1.37-1.32 3.07-2.27 4.28-3.76.07-.09.24-.1.37-.15l-.04-.03Zm-41.5 43.03c.81.02 1.38-.1 1.87.35.15.13.57.05.8-.06.26-.1.42-.25.72-.04.44.3.96.21 1.43.06.25-.1.42-.29.72-.05.37.28.93.27 1.23.1.95-.54 1.94-.27 2.91-.38.55-.06 1.11.09 1.62-.34.15-.13.65.24.9.15.72-.25 1.56-.27 2.03-1 .12-.19.7.07.46-.41a1 1 0 0 0-.65-.48c-.67-.14-1.44.12-2.04-.43-.03-.03-.16-.03-.2 0-.72.59-1.42.24-2.16 0-.38-.11-.86-.13-1.23.19-.15.13-.26.14-.33-.02-.08-.2-.1-.4.08-.57.25-.26.51-.42.88-.52.87-.22 1.75-.46 2.55-.85.55-.28 1.2-.47 1.56-1.05a.55.55 0 0 1 .15-.15c.71-.43 1.48-.8 2.14-1.3.68-.5 1.26-1.14 1.9-1.7.06-.04.25.04.38.08.02 0 .04.13.02.15-.86.84-1.48 1.92-2.66 2.38-.6.77-1.65 1.04-2.11 1.96-.37.73-1.15.4-1.72.6-.06.01-.1.08-.15.13.06.04.11.12.17.12.42.04.87.16 1.26.06.92-.23 1.64.36 2.46.51.84.16.97 1.3.31 1.86-.3.25-.87.18-.92.76 0 .1-.21.26-.3.25-.9-.2-1.58.63-2.46.47-.73-.13-1.3.5-2.03.43-.71-.05-1.47-.12-2.13.06-.45.13-.72.27-1.06-.13-.15-.18-.17-.12-.68-.06-.77.08-1.55.15-2.33.13-.69-.01-1.39.12-2.07-.3-.37-.23-.97-.1-1.46-.12-.32-.01-.5-.25-.68-.45-.05-.05-.1-.12-.1-.18 0-.05.06-.13.1-.14l.81-.07Zm30.76-18.77c.36.03.73-.01 1.06.09.65.2.92 1.07.48 1.55-.54.57-1.1 1.12-1.68 1.64-.33.3-1.05-.07-1.16.67-.04.21-.34.22-.47.34-.6.54-1.58.25-2.05 1-.64.25-1.3.46-1.93.75-.7.31-1.36.7-2.05 1.04-.18.09-.4.17-.6.18-.63.01-1.24-.02-1.83.37-.24.16-.7.03-1.05 0-.16 0-.34-.37-.26-.5.07-.12.16-.26.27-.28.28-.04.58-.06.86-.02a3.2 3.2 0 0 0 2.01-.49c.72-.4 1.7-.34 2.2-1.15.5 0 .8-.59 1.37-.5a.7.7 0 0 0 .56-.22c.76-.86 2.04-.93 2.81-1.8.3-.34.9-.37 1.28-.66.3-.23.32-.78.85-.8.04 0 .08-.1.12-.14-.12-.06-.24-.14-.37-.18-.6-.19-1 .47-1.6.4-.5-.06-1-.01-1.5.05-.2.02-.36.24-.55.32-.95.41-1.92.79-2.87 1.22-.41.2-.67.03-.91-.24-.13-.15-.29-.35.02-.47.84-.3 1.56-.94 2.53-.96.68-.48 1.67-.39 2.19-1.16.75-.04.99-1.09 1.85-.9.8-.55 1.73-1 1.75-2.18 0-.09.15-.18.23-.27.05.06.12.1.14.17l.06.84c.03.7-.14 1.24-.9 1.47-.41.12-.77.36-.82.85-.2.01-.4 0-.6.04-.05.01-.08.16-.1.24 0 .03.1.1.15.1.28.03.48-.08.51-.4Zm15.46-44.7c.24 1.3-.26 2.42-.88 3.51-.2.37-.48.67.06 1 .31.18.45.5.41.9-.03.4-.04.79-.36 1.14-.6.66-1.4 1.15-1.78 2-.1.04-.26.06-.32.14-.07.11.04.22.16.14.08-.06.09-.21.13-.32.36.03.63.56 1.1.12.23-.22.57.03.6.32.08.58.06 1.1-.42 1.55-.79.72-1.53 1.49-2.3 2.22-.2.2-.44.35-.68.48a18.9 18.9 0 0 0-3.9 2.8c-.28.25-.38-.03-.5-.15-.14-.12-.33-.26-.1-.5a15.87 15.87 0 0 1 3.66-2.77c.5-.27.97-.56 1.37-.96l1.94-1.97c.03-.03 0-.12-.03-.15-.04-.05-.12-.1-.17-.1-.2.05-.41.1-.58.2-.77.47-1.7.57-2.48 1.04-.07.04-.26-.05-.37-.11-.14-.08-.14-.5 0-.56a3.59 3.59 0 0 0 1.76-1.72c.3-.53.84-.97 1.36-1.33.3-.2.58-.31.67-.7.1-.39.76-.54.6-.96-.09-.25-.58-.35-.85-.56-.23-.18-.29-.45-.1-.74.12-.18.18-.39.3-.55a7.4 7.4 0 0 0 1.4-3.19c0-.08.21-.12.33-.18l-.03-.04Zm-6.44 43.85c0 .28.07.57-.16.8l-3.6 3.58a.97.97 0 0 1-.54.29c-.45.04-.83.1-.93.65-.01.08-.21.19-.34.2-.63.02-1.26.02-1.9.01-.05 0-.1-.08-.14-.14-.02-.03 0-.12.03-.14.37-.18.73-.43 1.11-.5a7.5 7.5 0 0 0 3.72-2.18c.89-.88 1.68-1.88 2.77-2.54l-.02-.03Zm.44-71.7c.23-.17.35-.13.4.06.25 1.08.51 2.15.48 3.29-.03.95-.24 1.95.23 2.9.17.36-.48 1.33-.89 1.5-.02.01-.1-.04-.13-.09-.04-.05-.07-.14-.06-.19.11-.32.24-.63.36-.95-.6-.89-.28-1.9-.38-2.86-.11-1.1.3-2.24-.33-3.3-.03-.05.26-.3.32-.36Zm-14.6 89.16c-.01.43-.35.61-.65.78-.6.33-1.22.77-1.88.87-.7.1-1.25.66-1.99.57-.61.53-1.35.3-2.05.3-.09 0-.2-.16-.27-.26-.09-.13.12-.48.27-.52.67-.14 1.36.06 2.07-.32.57-.3 1.32-.34 1.98-.53.62-.18 1.14-.5 1.7-.75.28-.12.54-.15.83-.14h-.02Zm-12.47-10.22c-.52 1.18-1.73 1.51-2.68 2.17-.75.52-1.63.73-2.47 1.06-.28.1-.39.02-.5-.13-.1-.12-.44-.28-.1-.46.35-.2.75-.42 1.14-.46a3.53 3.53 0 0 0 1.68-.78c.42-.28.8-.48 1.31-.58.45-.1.8-.52 1.22-.77.1-.07.28-.02.42-.02l-.02-.03Zm30.5-77.84c-.02.13 0 .44-.14.66-.18.28-.2.46.02.7.08.09.13.34.07.38-.55.5-.16 1.4-.82 1.85-.16.1-.26.15-.3.02-.06-.2-.03-.42-.1-.6-.24-.63.43-1 .42-1.57-.01-.55 0-1.11.07-1.66.02-.18.24-.33.38-.49.04-.05.15-.12.17-.1.09.07.2.16.22.26.04.12 0 .27 0 .55Zm-1.73 58.25c0 .21.06.48-.05.62-.8 1.07-1.52 2.2-2.58 3.03-.16.13-.24.14-.31-.06-.02-.07-.05-.16-.02-.2.84-1.25 1.59-2.59 2.99-3.36l-.03-.03Zm2.53-34.22c0 .06.03.13.02.2-.27 1.2-1.38 1.85-1.92 2.87-.1.2-.48.24-.72.37-.14.08-.23.06-.3-.12a.33.33 0 0 1 0-.2c.05-.12.1-.26.19-.35.44-.45.84-.94 1.34-1.32.54-.4.55-1.12 1.08-1.5.06-.03.12-.1.18-.1.04 0 .08.09.13.15Zm-1.22-16.41c-.08-.73.54-1.26.57-1.97.01-.2.37-.4.58-.58.04-.03.15-.03.2 0 .1.07.25.2.24.23-.3.63-.6 1.26-.95 1.85-.13.22-.31.48-.66.45l.02.02Z" fill="#284855"/><path d="M183.37 87.15c.01-.34.01-.67.03-1 0-.06.09-.11.12-.16.08.06.23.13.23.2 0 .26-.02.53-.08.79-.01.07-.2.1-.32.15l.02.02Zm-4.29 31.5c0-.2 0-.4.03-.58.01-.06.17-.1.26-.1.02-.02.1.09.1.14.04.3-.1.5-.42.52l.03.02Zm-.43-11.07c.01-.19 0-.39.02-.58 0-.05.1-.14.12-.13.09.05.21.1.23.17.06.3-.07.49-.4.52l.03.02Zm-48.53 48.53c.07-.59.52-.41.87-.42l-.03-.02c-.08.56-.5.41-.86.43h.02Zm.87-.42c-.02-.3.13-.43.42-.43l-.02-.02c.02.3-.16.41-.43.42l.03.03Zm.42-.43c0-.29.15-.43.43-.42l-.03-.03c0 .28-.12.44-.42.43l.02.02Zm.43-.42c.05-.11.06-.27.15-.32.11-.08.22.03.15.14-.06.08-.22.1-.33.15l.03.03Zm-1.28-1.7c-.01-.3.14-.44.43-.43l-.03-.03c0 .27-.15.42-.43.42l.03.03Z" fill="#284855"/><path d="M130.99 152.72c.04-.12.06-.26.13-.33.11-.07.22.03.15.14-.05.09-.2.1-.32.15l.04.03Zm-.87-1.3c-.02-.3.14-.42.43-.42l-.02-.01c.02.3-.13.43-.43.43h.02Z" fill="#284855"/><path d="M130.55 151c0-.28.15-.42.43-.42l-.02-.02c.01.3-.13.44-.43.43l.02.01Zm.43-.42c.05-.1.07-.27.16-.32.12-.07.22.05.14.16-.06.08-.21.1-.32.14l.02.02Zm-1.28 0c0-.18 0-.37.27-.33.02.01.04.13.02.14-.1.06-.22.1-.33.16l.03.03Zm33.46-2.58c0 .28-.13.43-.42.43l.01.01c0-.3.15-.43.44-.41l-.03-.03Zm-12.45-10.22c.02.3-.13.45-.43.43l.02.02c0-.28.15-.43.43-.43l-.02-.02Z" fill="#284855"/><path d="M150.73 137.8c0-.28.16-.4.44-.41l-.03-.03c.02.3-.14.43-.43.43l.02.02Zm.44-.41c.05-.11.09-.22.16-.32 0-.02.13 0 .13.02.04.26-.15.26-.32.27l.03.03Zm25.76-6.4c.05-.1.07-.26.16-.32.1-.07.21.04.14.16-.06.08-.21.1-.32.14l.02.03Zm3.41-63.02c-.04.1-.06.26-.14.31-.12.08-.23-.03-.16-.14.05-.09.2-.1.32-.16l-.02-.01Zm-17.15 80.06c.05-.11.06-.26.15-.32.1-.08.21.02.14.13-.05.09-.2.11-.31.15l.02.04Zm-129.7-128.85c-.02-.93.3-1.23.89-.97.51.23 1.1.24 1.55.54.57.38 1.03.35 1.54-.02a.7.7 0 0 1 .4-.11c.65-.02 1-.36 1.23-.95.09-.25.33-.45.53-.63.05-.04.26.03.34.1.3.28.5-.3.67-.09.15.2.23.6.12.78a19.2 19.2 0 0 1-1.45 2.03c-.16.2-.46.37-.7.4-.36.04-.67.12-.98.34-.27.2-.61.32-.93.48-.35-.44-.93-.24-1.36-.47-.43-.22-.82-.57-1.28-.68-.59-.16-.57-.54-.56-.75Zm59.26 202.05c0 .28-.1.68.2.75.72.17.78 1.13 1.55 1.2.45.57 1.17.7 1.74 1.06.4.26.76.6 1.11.94.09.07.1.25.1.37-.04.23-.2.34-.44.34-.28 0-.56.03-.85.04.02-.29-.12-.44-.42-.43 0-.3-.15-.43-.44-.42 0-.23-.1-.39-.32-.42-.12-.01-.32.03-.35.1-.13.29.12.27.29.29h.4c0 .28.13.44.43.44 0 .29.16.4.44.41-.04.36-.28.44-.6.47-.17.02-.25.16-.16.26.36.45.73.85 1.3 1.04.31.1.31.45.28.73-.02.13-.06.28-.15.36-.17.15-.39.17-.56.01-.47-.43-.92-.89-1.38-1.33l-.92-.89c-.14-.14-.25-.15-.32 0-.03.07-.07.13-.07.2.02.27-.1.64.2.76.55.23.89.57 1.16 1.12.19.37.76.51.93 1.02.08.24.36.42.55.63.03.04.04.15.03.16-.12.06-.25.13-.38.14-.28.03-.65.03-.73-.27-.18-.68-.75-1.03-1.2-1.45a6.44 6.44 0 0 1-1.43-2.04c-.26-.55-.24-.7.23-1.38.12-.16.16-.28-.03-.3-.55-.1-.53-.5-.66-.92-.18-.55-.34-1.19-1.06-1.42-.3-.1-.24-.5-.2-.77a1.7 1.7 0 0 0-.62-1.69c-.35-.3-.19-.6.06-.9.19-.23-.1-.34-.18-.51-.17-.38-.35-.75-.5-1.14-.02-.04.02-.13.05-.18.03-.05.11-.1.13-.1l.34.26c.61.44.82 1.22 1.56 1.6.67.34 1.05 1.13 1.8 1.44.72.3 1.1 1.05 1.86 1.38.55.22.93.85 1.38 1.3.03.03.03.14.02.15-.13.04-.3.15-.38.1-.68-.35-1.38-.68-1.9-1.27a4.2 4.2 0 0 0-1.91-1.24c-.08-.57-.52-.4-.87-.42.02-.26.06-.53-.16-.74-.12-.12-.52-.12-.53 0 0 .1.02.24.08.3.17.2.32.44.64.42.09.56.51.43.86.44Zm.87 2.54.16.33c.01.01.14 0 .14-.02.04-.27-.16-.25-.33-.28-.04-.1-.06-.26-.15-.32-.11-.07-.22.04-.14.15.06.08.21.1.32.14Zm1.7 11.52.02-1.72-.02.03c.78.45.77 1.39 1.24 2.03.07.1-.1.38-.2.55-.22.32-.55.4-.93.39-.34-.02-.52.1-.3.46.08.11.19.28.15.37a2 2 0 0 0 0 1.3c.11.52.4.85.66 1.26.37.54.44 1.17 0 1.74-.2.26-.22.48-.03.75.12.17.2.36.28.55.14.35.51.68.05 1.08-.07.06.04.4.15.56.24.38.37.79.06 1.14-.27.31-1.23.24-1.56-.1a49.2 49.2 0 0 1-2.38-2.41c-.27-.3-.45-.71-.57-1.1-.14-.42 0-.8.38-1.11.34-.27.63-.26.93.01.24.22.52.18.8.18.06.11.07.27.16.33.11.07.23-.04.17-.16-.05-.09-.22-.1-.34-.16a5.56 5.56 0 0 0-1.47-2.16c-.14-.13-.16-.24-.04-.3a.75.75 0 0 1 .39-.1 1 1 0 0 1 .57.15c.5.34.81.91 1.43 1.11l.04.59c0 .05.1.14.11.14.1-.06.23-.12.24-.2.05-.3-.09-.49-.41-.5.07-.76-.42-1.29-.78-1.86-.56-.87-1.14-1.72-1.69-2.59-.1-.17-.13-.41.08-.55.05-.04.23.08.34.16.14.1.24.09.3-.1a.8.8 0 0 0 .04-.2l.01-.85-.01.03c.59.27 1.2.5 1.66 1 .12.12.33.17.5.25.04.11.06.26.14.32.12.08.23-.03.16-.14-.06-.1-.22-.12-.33-.17Zm.28 9.67c.2-.44.05-.6-.1-.75l-2.39-2.38c-.14-.15-.25-.15-.31.05-.03.12-.07.3 0 .4.3.52.79.91 1.08 1.48.27.53.88.87 1.37 1.27.05.05.24-.04.36-.1.05-.02.07-.1 0 .03Zm-.43-2.7c-.1-.06-.22-.15-.32-.14-.1 0-.2.1-.3.17.04.05.07.11.12.13.17.1.35.13.5-.04.02-.02 0-.08 0-.13Zm-.29-27.4c.2.01.4 0 .6.03.06.01.1.16.13.25 0 .02-.1.1-.16.1-.3.03-.5-.06-.54-.4l-.03.03Z" fill="#284855"/><path d="m95.34 233.57-.33-.15c-.01-.01 0-.14.02-.15.28-.05.27.15.28.32l.03-.02Zm-2.15.43c-.1-.05-.25-.06-.3-.15-.07-.1.03-.2.14-.13.08.05.1.2.14.3l.02-.02Zm-.86 12.36c.05-.11.07-.26.15-.32.1-.08.22.03.15.15-.05.08-.2.1-.32.15l.02.02Zm-83.3-181.8c-.08-.01-.2 0-.21-.03-.23-.78-.73-1.48-.64-2.33.08-.82-.19-1.64.25-2.47.4-.75.06-1.66.13-2.5.01-.05-.16-.13-.26-.16-.01-.01-.13.1-.12.15.26 1.43-.61 2.71-.5 4.12-.46.36-.07.71 0 1.08.07.42.01.85.03 1.27.04.7-.2 1.47.2 2.07.37.58.02 1.28.46 1.8.19.22.07.38-.15.42-.2.04-.53.07-.62-.04a3.6 3.6 0 0 1-.7-1.24c-.14-.53-.03-1.11-.43-1.6-.1-.12-.1-.49 0-.6.57-.6.37-1.32.4-2 0-.36-.12-.83.06-1.03.33-.4-.04-.76.12-1.07.14-.26.27-.5.23-.8-.16-1.08.25-2.05.64-3 .17-.4.09-.86.35-1.19.36-.43.8-.81 1.17-1.23.21-.23.36-.1.5.05.11.14.4.29.17.5-.43.37-.1.97-.45 1.36-.39.42-.2.94-.24 1.42-.04.69-.53 1.26-.45 2.01.08.77.01 1.55.02 2.33l.02 2.13-.01.63.02-.05Zm-.3-8.4c-.02.05-.07.1-.05.14.01.06.1.15.1.14.17-.08.19-.18.08-.27-.02-.02-.08 0-.12 0Z" fill="#284855"/><path d="M10.31 62c-.11-.05-.32-.1-.33-.17a31.8 31.8 0 0 1-.1-1.67 9.35 9.35 0 0 1 .5-4.28c.02-.06.09-.11.13-.16.08.1.2.2.21.32.03.27.1.61-.03.83-.5.9-.37 1.89-.4 2.85-.02.77 0 1.55 0 2.31l.02-.02Zm-4.72-.74c0 .03-.07-.46.14-.77.3-.46.22-.93.32-1.4.08-.38.3-.74.46-1.12.03-.06.1-.1.15-.15.07.12.2.23.2.34-.02.28-.08.54-.16.8-.04.13-.24.25-.22.34.2 1.14-.6 2.13-.49 3.24 0 .05-.1.16-.12.16-.1-.04-.25-.1-.26-.17-.03-.26-.02-.55-.02-1.27Z" fill="#284855"/></svg>