<svg viewBox="0 0 237 261" fill="none" xmlns="http://www.w3.org/2000/svg"><path d="M56.76 174.83a4.61 4.61 0 0 0 2.21-2.15c.74-1.3 1.69-2.47 2.39-3.8.7-1.33 1.48-2.62 2.23-3.92.19-.32.33-.71.61-.94.78-.63 1.03-1.59 1.59-2.34.16-.22.16-.6.35-.76 1.44-1.31 2.02-3.19 3.11-4.72.6-.83 1-1.75 1.39-2.73.6-1.56 1.22-3.19 2.43-4.45 0-1.04 1.36-1.38 1.3-2.46-.07-.99 1.1-1.29 1.18-2.22.03-.35.44-.66.46-1a4.37 4.37 0 0 1 1.59-2.94c.85-.8 1.35-1.8 1.88-2.81.34-.64.38-1.45 1.21-1.81.65-.28.67-1.09 1.02-1.63.4-.63.64-1.37 1.08-1.97.34-.47.62-.9.67-1.52.06-.84.85-1.23 1.38-1.76.13-.13.74.03.74.2 0 1.4 1.1 2.36 1.37 3.68.24 1.17.84 2.26 1.17 3.43.08.27.22.52.36.76 1.2 2.12 1.98 4.48 3.52 6.43.16.2.14.53.24.8.14.34.34.67.46 1.02.35 1.06 1.3 1.77 1.53 2.98.19.97.96 1.82 1.43 2.74.52 1 .97 2.04 1.49 3.04.39.76.76 1.54 1.41 2.12.21 1.73 1.47 3.02 1.96 4.65.47 1.51 1.13 2.96 1.78 4.4.35.78.83 1.48 1.32 2.18 1.2 1.69 2.21 3.5 3.38 5.2.49.74.36 1.73.94 2.32.58.56.84 1.27 1.22 1.91.66 1.14.96 2.43 1.4 3.66.3.79.5 1.62 1.15 2.23.18.17.31.23.46.09l.83-.8c1.27-1.33 1.26-1.33.11-3.1-.25-.4-.44-.83-.68-1.24-.53-.88-.76-1.93-1.55-2.68-.7-.66-.34-1.89-1.3-2.46-.19-.1-.26-.5-.28-.77-.08-.84.15-1.75-.6-2.45.24-.85-.34-1.55-.74-2.09-.5-.67-.2-1.57-.8-2.1a2.5 2.5 0 0 1-.94-2 14.35 14.35 0 0 1-2.26-2.9c-.1-.16-.32-.26-.39-.43-.41-.93-.67-1.97-1.24-2.8-.6-.86-1.2-1.65-1.38-2.74-.1-.62-.57-1.17-.82-1.78-.32-.77-.95-1.38-.97-2.32-.01-.79-1.13-1.03-1.14-1.9-.71-.61-.66-1.57-.93-2.34-.47-1.39-1-2.65-2.1-3.63a1.32 1.32 0 0 1-.48-1c0-.85.2-1.78-.66-2.38-.72-.5-.3-1.5-.9-2.03-.87-.79-1.09-1.97-1.75-2.88-.92-1.24-.96-2.65-.84-4.1 0-.14.2-.4.32-.4.25.01.57.08.74.25.18.19.16.58.35.76.5.46.16 1.13.5 1.6.33.47.68.91 1 1.38.6.84 1.21 1.65 1.42 2.71.1.53.53.99.83 1.46.2.32.65.63.63.91-.04.83.72 1.37.66 2.15-.05.73.15 1.32.72 1.78.6.49.92 1.18 1.32 1.83.41.66.28 1.44.75 2.11.34.48.88 1.05.76 1.8-.02.17.07.38.16.54.33.56 1.09.84 1 1.66-.08.7.55 1.14.65 1.85.11.79.92 1.47 1.05 2.27.14.82.44 1.41.99 1.98.53.54.15 1.5.91 2.03a4.11 4.11 0 0 1 1.36 1.8c.3.68.6 1.38 1.23 1.9.23.2.12.78.34 1.04.63.75.17 2.14 1.46 2.51.12.04.21.3.24.48.32 2.24 1.22 4.28 2.11 6.34.41.95.66 1.96 1.47 2.67-.37 1.2.94 1.57 1.21 2.48.24.82.9 1.05 1.75 1.18 1.37.2 1.8.1 1.69-1.16-.13-1.38.8-2.5.6-3.9-.2-1.24-.08-2.5-.08-3.76 0-.28-.04-.64.12-.83.56-.67.36-1.45.4-2.2.08-1.22-.32-2.5.44-3.63-.7-.8-.4-1.51 0-2.36.32-.64-.06-1.5.49-2.19.2-.24.11-.73.14-1.1.05-.85-.03-1.66.43-2.5.32-.6.1-1.5.1-2.27.03-1.04-.17-2.09.5-3.05.18-.26.06-.76.03-1.14-.03-.7-.6-1.16-1.26-.88-.77.32-1.52.14-2.27.16-.59.02-1.28-1-.94-1.42.54-.64.12-1.56.78-2.1l.44-.36c.1.13.27.25.3.39.05.48 0 .97.11 1.43.04.16.54.37.7.3.42-.2.68-.42 1.23-.12.56.32 1.33.33 1.91-.06.42-.29.65.04.98.07 1.3.13 2.65.43 3.9-.28.63-.36 1.32-.14 1.97-.2.56-.07 1.2.02 1.68-.2.59-.28.08-1.1.5-1.55.1-.1.1-.3.09-.47a3.96 3.96 0 0 0-1.49-.42c-1.43.31-1.44.34-3.82-.21-.57-.13-.92.75-1.52.18-.4-.36-.92-.16-1.4-.16-1.14 0-2.3.04-3.45.04a5.85 5.85 0 0 1-1.12-.14c-.23-.05-.3-.25-.22-.47.07-.16.14-.4.27-.45.79-.25 1.7.07 2.44-.64.27-.27.92-.14 1.33.22.32.27.7.26 1.09.23.57-.05.93-.73 1.58-.54.53.16 1.05.37 1.6.5.26.05.6.08.85-.03.6-.28 1.15-.36 1.77-.01.2.11.56 0 .84-.05.97-.18 2 .11 2.37.74.13.23.22.52.24.8.04.57.06 1.15.03 1.73-.03.64.32 1.43-.3 1.89-.42.31-1.14.04-1.57.53-1.31.1-2.58.45-3.84.77-.27.07-.69.1-.84-.06-.76-.78-1.37-.23-2.04.13-.73.4-.92 1.15-1.1 1.84-.17.64.1 1.49-.22 1.95-.51.71.25 1.02.2 1.54-.05.37.15.88-.03 1.13-.68.95-.55 2.02-.52 3.04.05 1.36.02 2.67-.81 3.83-.1.15-.24.33-.25.5-.05.67.08 1.38-.1 2-.15.54-.5 1-.48 1.61.03 1.13.1 2.23-.43 3.36-.34.72-.07 1.7-.09 2.57-.01.56.04 1.1-.28 1.66-.54.95-.28 2.03-.12 3.06.01.07.12.13.19.2.06-.07.15-.13.18-.22a6.6 6.6 0 0 1 1.78-2.85.66.66 0 0 0 .19-.22c.86-2.14 2.57-3.7 3.79-5.62 1.21-1.9 2.5-3.76 3.75-5.64.1-.16.18-.33.24-.51.9-2.42 2.74-4.27 4-6.47.22-.4.58-.42.86-.63.3-.22.76-.58.74-.84-.09-1.16.75-1.71 1.39-2.4 1.3-1.4 2.09-3.14 3.19-4.68.32-.45.62-.93.99-1.37.24-.3.66-.55.72-.88.3-1.6 1.6-2.55 2.4-3.82.75-1.2 1.38-2.52 2.52-3.44 1.2-2.45 3.36-4.32 4.24-6.96.26-.75 1.19-1.04 1.17-1.92 0-.33.76-.5.2-.87-.16-.1-.57.03-.77.18-.43.32-.9.3-1.37.3-1.44.03-2.88.04-4.33.1-.93.02-1.93-.32-2.74.48-.1.1-.41.1-.54 0-1.33-.88-2.81-.23-4.2-.44-.56-.08-1.19.2-1.69-.16-.38-.27-.6-.2-.98.03-.3.18-.72.19-1.1.2-3.36.03-6.73.04-10.1.09-.6 0-1.13-.04-1.6-.45-.12-.09-.41-.08-.54 0-1.42.93-3 .44-4.48.48-1.2.03-2.5.45-3.64-.39-.12-.08-.44-.1-.54 0-.73.7-1.69.26-2.46.55-.73.28-1.34.36-2.06.02-.48-.22-.87.3-1.3.4-.25.06-.7-.57-1-.33-.92.7-1.73.58-2.6-.03-.13-.08-.39.03-.58 0-.52-.12-.87.81-1.51.18-.4-.4-1.1-.09-1.62-.47-.35-.26-.9.27-1.45-.16-.43-.33-1.06.02-1.59.34-.28.18-.85.25-1.08.08-.78-.57-1.62-.47-2.47-.46h-4.33c-.33 0-.56-.4-.53-.87.04-.4.11-.78.62-.8 3.08-.04 6.15-.06 9.23-.12a3 3 0 0 1 1.35.38c.32.16.77.04 1.1.17.6.22.97-.67 1.53-.3.54.35 1.1.25 1.67.26.58 0 1.16 0 1.73-.04 1.12-.1 2.29.27 3.34-.51.32-.23.94-.06 1.41-.08l10.97-.16c.66-.02 1.34.11 1.9-.41.35-.3.7-.03 1.04.17 1.06.67 1.99-.07 2.95-.32.84.6 1.76.74 2.66.2.48-.29.83-.31 1.28.01.2.14.61.26.77.16a3.12 3.12 0 0 1 3.5-.05c.08.05.18.05.27.08.75.27 1.18-.6 1.85-.53.52.05.9.82 1.54.3.22-.18.41-.3.72-.08.5.38 1.04.42 1.59.08.15-.1.39-.28.45-.23 1.25.85 2.63.21 3.94.35 1 .1 2.07-.18 3.02.4.83-.73 1.84-.3 2.77-.42.4-.05.73.11 1.03.38.32.27.59.63.37.98-.6.98-.69 2.12-1.05 3.17-.03.1 0 .23-.05.28-1.08 1-1.38 2.47-2.23 3.61-1.07 1.44-1.93 3-3.06 4.41-.88 1.07-1.34 2.48-2.12 3.65-.33.49-1.04.67-1.27 1.37-.17.52-.64.93-.96 1.4-1.38 2-2.4 4.25-3.89 6.2-.91 1.2-1.5 2.62-2.65 3.65-.22.19-.44.4-.56.66-.61 1.29-1.2 2.62-2.36 3.5-1.11.84-1.39 2.29-2.45 3.14-.14.13-.34.28-.36.44-.34 2.17-2.46 3.3-3.1 5.3-1.3 1.5-2.22 3.27-3.29 4.94-.4.62-1.25.74-1.4 1.63-.1.6-.75 1.13-.88 1.75-.17.82-1.06 1.12-1.2 1.9-.08.5-.5.5-.8.7-.35.22-.3.69-.07 1 .49.64 1.3.74 1.91 1.16.1.07.41-.03.51-.15.53-.65.54-1.69 1.31-2.1.77-.4.64-1.38 1.37-1.73.56-1.43 1.85-2.35 2.6-3.69.45-.79 1.13-1.5 1.63-2.3.35-.56.64-1.33 1.15-1.55.68-.28.62-.92 1-1.29.5-.46.95-.96.85-1.73a.42.42 0 0 1 .06-.27l1.59-2.01c-.18-.91.68-1.32.97-1.99.34-.83 1.02-1.37 1.49-2.07 1-1.48 1.84-3.08 3.13-4.36.19-.9.94-1.4 1.5-2.05.18-.22.47-.4.57-.65.64-1.62 1.9-2.8 2.86-4.2.94-1.38 1.9-2.78 2.73-4.25.65-1.13 1.46-2.18 2.16-3.29.1-.16.19-.4.33-.43 1.5-.42 1.86-1.8 2.48-2.94.4-.74.6-1.61 1.29-2.17.73-.6 1.48-1.18 2.25-1.72.24-.15.51-.24.8-.25 1.2-.07 2.48.26 3.6-.58.18-.14.56-.07.85-.05a5.1 5.1 0 0 0 3.47-1c.5-.35.5-.3.42-1.33-.07-.76 0-1.55-.11-2.3-.05-.34-.39-.63-.6-.94-.15-.23-.27-.2-.45 0-.54.57-1.31.48-1.89.29-.97-.34-1.96-.79-2.56-1.72a1.3 1.3 0 0 1-.23-.8c.2-1.46 1.3-2.46 2.03-3.66.14-.21.71-.15 1.07-.24.18-.05.33-.63.18-.74-.14-.1-.35-.25-.48-.2-.35.1-.65.38-1 .47-.58.14-1.15.05-1.54-.48a.98.98 0 0 1-.16-.45c-.01-.05.13-.16.22-.16 1.02-.12 2.03.03 3.05-.53.59-.33 1.48-.17 2.15.4.24.2.78.03 1.07.21.47.3.26.88.27 1.34.06 3.46.07 6.94.13 10.4.02.7-.16 1.26-.63 1.82-.72.84-.66 1.22-.11 2.01.43.62.83 1.25 1.25 1.88-.19 1.2.85 2.13.72 3.28-.11.94.37 1.65.67 2.43.14.36.64.45.95.14a4.12 4.12 0 0 1 2.22-1.15c.43-.09.83-.5 1.32-.4 1.11.25 1.96-.63 3-.65.95-.01 1.93.17 2.76-.53.11-.1.4.03.56-.04.66-.28 1.16.58 1.83.24.5-.26 1-.5 1.5-.74.44.51.77.08 1.2-.08.43-.17.95-.16 1.34.21.18.17.3.19.48.06.95-.67 2.05-.23 3.08-.36.58.64 1.16.03 1.75 0 .48 0 .93-.2 1.29-.52 1.02.8 2.23.28 3.32.5.54.1 1.06.41 1.53.72.45.3.86.41 1.28.02.19-.18.32-.22.47 0 .54.76 1.4.85 2.22 1.07 1.35.37 2.63.96 3.9 1.55.25.12.53.48.72.43 2.26-.52 3.4 1.4 5 2.27.8.44 1.28 1.42 2.42 1.3.2-.02.55.3.64.54.6 1.5 1.99 2.28 2.97 3.43.52.6 1.25.87 1.8 1.36.44.4.58 1.16.88 1.74.09.17.25.3.38.44.9.88 1.74 1.81 2.67 2.63.87.77 1.15 1.96 2.12 2.66a9.8 9.8 0 0 1 1.63 1.64c.48.56.8 1.28 1.33 1.8.61.62.68 1.56 1.46 2.08.63.42 1.12 1.05 1.68 1.59.57.54 1.07 1.1.92 1.99-.03.18-.04.42.05.56 1.13 1.66 1.45 3.65 2.26 5.44.58 1.27 1.27 2.53 1.28 4 0 .67.74 1.11.57 1.86-.14.62.25 1.08.53 1.59.12.22.15.68.01.83-.63.66-.1 1.2.11 1.77.1.26.47.66.43.7-.75.77.22 1.36.2 2.07-.1 2.3 0 4.62.01 6.93 0 .39.04.77-.24 1.09-.38.43-.19.79 0 1.28a7.9 7.9 0 0 1-.08 4.71c-.11.3-.2.57-.01.8.27.33.37.6.04.96a.59.59 0 0 0-.03.78c.56.7.6 1.36.1 2.1a1.8 1.8 0 0 0-.2.81c-.1.93.3 1.93-.45 2.76 1 .8-.2 1.56-.05 2.28.2.97-.55 1.59-.62 2.45-.08.82-.44 1.61-.7 2.41-.04.17-.3.41-.25.47 1.02 1.32-.35 2.02-.77 2.96-.08.16-.34.29-.35.44-.05 1.28-1 2.24-1.21 3.43-.1.5-.23.9-.58 1.25-.61.6-1.37 1.11-1.2 2.16.02.07-.05.18-.1.25-.5.58-1.28 1.1-1.45 1.76a9.5 9.5 0 0 1-.74 2.12c-.24.5-.7.9-1.1 1.31-.93.98-1.86 1.96-2.82 2.9-.46.45-.6.93-.58 1.55.03.47-.03.85-.6 1.13-.58.27-1.08.79-1.5 1.3-.67.8-1.33 1.63-1.81 2.55-.48.91-1.85 1-1.92 2.27-.02.28-.46.7-.77.79-1.14.3-1.73 1.22-2.35 2.03-2.25 2.96-2.22 2.99-5.4 4.19-.52.2-1.11.25-1.57.54-.47.3-.86.77-1.23 1.2-.53.63-1.12 1.08-1.98.91-1.18-.23-2.09.94-3.28.63-.99.82-2.17.6-3.3.59-.62 0-1.14.09-1.53.61-.38.53-.96.48-1.52.6-1.28.29-2.53.78-3.88.63-1.12.7-2.38.54-3.6.58l-.29.01c-.74.1-1.26.75-2.13.67-.72-.06-1.12-.72-1.86-.64-1.05.1-2.12.07-3.17.06-.37-.01-.83-.05-1.06-.27-.76-.7-1.44-1.18-2.53-.52-.43.26-1.05-.24-1.47-.53-.62-.45-1.27-.33-1.92-.32-.89.93-1.81.33-2.53-.14-.69-.44-1.5-.24-2.12-.74-.59-.47-1.3-.16-1.96-.2-1.22-.08-2.34-.7-3.57-.73-.67-.72-1.66-.19-2.43-.62-.74-.42-1.52-.75-2.29-1.11-.25-.12-.51-.31-.77-.31-1.72.02-2.99-1-4.36-1.81-.97-.58-1.97-1.1-2.98-1.6-.84-.42-1.8-.66-2.4-1.44-.58-.73-1.75-.82-2.01-1.87-.94-.61-1.87-1.26-2.82-1.85-.6-.37-1.1-.77-1.08-1.55.01-.31-.1-.64-.37-.69-1.29-.24-1.58-1.4-1.85-2.32-.27-.9-.51-1.51-1.5-1.81-.64-.2-1.05-.82-.96-1.6a3.16 3.16 0 0 0-.62-2.44c-.74-.89-1.11-1.93-1.57-2.95-.46-1.03-.82-2.15-1.5-3.02-.72-.9-.15-2.07-.95-2.95a4.56 4.56 0 0 1-1.18-2.51c-.06-1.17-.9-2.13-.71-3.31-.7-1.02-.57-2.17-.64-3.31-.06-.94-.7-1.74-.61-2.74.09-.96 0-1.93-.02-2.89 0-.28.01-.64-.15-.82-.6-.65-.13-1.64-.53-2.15-.67-.83.2-1.38.09-2.1-.16-1.13-.08-2.3-.04-3.46.03-.93-.17-1.9.46-2.77.32-.44-.74-.86-.15-1.52.26-.3.16-.9.19-1.38.04-.75-.02-1.47.42-2.21.3-.51-.03-1.36.19-1.97.25-.7.45-1.41.62-2.14.08-.36.39-.7.38-1.04-.04-1.36.44-2.59.88-3.83.13-.35.2-.72.24-1.09.04-.57.03-1.15.04-1.73 0-.1-.01-.24.05-.27.72-.53.25-1.5.78-2.1.52-.59-.01-1.59.8-2.07.35-1.26 1.02-2.4 1.45-3.64.43-1.22 1.3-2.28 2.02-3.38.2-.32.5-.56.5-1 .02-.9.59-1.56 1.02-2.28.29-.48.6-.96.87-1.44.47-.83.88-1.67 1.64-2.31.57-.5 1.14-1.04 1.06-1.94-.01-.15.14-.44.25-.46 1.3-.24 1.48-1.43 1.92-2.31a5.28 5.28 0 0 1 2.07-2.31c.8-.44 1.32-1.07 1.96-1.63.36-.31.63-.82 1.04-.98 1.48-.6 2.25-2.02 3.55-2.83 1.35-.84 2.47-2.02 4-2.64 1.39-.56 2.66-1.4 4.03-2.02.41-.2.6-.4.6-.82 0-.48.13-1.04-.07-1.42-.85-1.63-.47-3.37-.57-5.07-.04-.58.02-1.16-.06-1.73-.05-.44-.47-.98-.31-1.25.48-.86-.25-1.08-.66-1.22-.51-.18-1.13-.08-1.71-.07-.18 0-.48.07-.5.17-.32 1.06-1.68 1.13-2.02 2.23a9.7 9.7 0 0 1-1.38 2.77c-.83 1.15-1.55 2.38-2.6 3.4-.81.77-1.33 1.84-2.1 2.65a8.48 8.48 0 0 0-1.87 2.83c-.41 1.07-1.73 1.53-1.92 2.78a73.06 73.06 0 0 0-5.07 7.47c-.28.48-.75.87-1.16 1.28a16.14 16.14 0 0 0-3.17 4.68 8.12 8.12 0 0 1-1.86 2.81c-.58.51-.89 1.22-1.32 1.84-.8 1.16-1.7 2.27-2.57 3.39-1.63 2.06-3.03 4.31-4.51 6.49-.16.22-.23.51-.38.75l-1.22 1.9c.73.67.35 1.63.6 2.42.7 2.14.68 2.42.15 4.4a5.7 5.7 0 0 0-.18 1.4c-.02 1.2-.34 2.14-1.53 2.76-.65.34-1.13 1.03-1.66 1.59-.5.53-1.43.6-1.58 1.49-.72.22-1.02.67-.95 1.47.08.86.02 1.73 0 2.6-.01.56.15 1.31-.14 1.66-.58.7.26 1.01.17 1.52-.01.1.04.21 0 .29-.78 1.53-.43 3.17-.48 4.77-.01.48-.01.95-.36 1.35-.3.36-.14.71.11 1.02.34.41.44 1 .19 1.34-.51.7-.42 1.45-.45 2.2-.06 1.13.24 2.3-.49 3.34-.06.1.04.37.14.52.22.31.53.67.27 1.02-.67.87-.34 1.85-.4 2.78-.03.46-.27 1.14.2 1.33.69.27 1.35 1.1 2.08.7 1.05-.6 1.94.2 2.93.05.98-.16 1.8.47 2.53 1.07.11.09.2.4.16.44-.34.35-.22.61.03.96.15.2.25.62.15.8-.68 1.15-.43 2.4-.52 3.63-.04.6-.73 1.2-1.4 1.16-1.01-.07-2.1.34-3.04-.48-.19-.17-.8-.06-1.08.13-.97.7-2.05.28-3.06.42-1.02-.68-2.19-.48-3.3-.56-.55-.03-1.06-.36-1.6-.52-1.39-.41-1.92-.96-1.46-2.22.48-1.31.42-2.6.48-3.93.02-.68.58-1.3 1.2-1.36l.29-.01c.19 0 .38-.02.58-.01 2.78.09 3.22-.16 3.06-3.02-.04-.84-.22-1.72.4-2.5.15-.18.1-.54.1-.82.05-.94-.19-1.9.5-2.76.18-.24.08-.75.04-1.13-.07-.93.24-1.93-.45-2.76.6-.73.42-1.6.42-2.45 0-.96-.08-1.93 0-2.89.09-1.11-.42-2.31.38-3.35-.37-.57-.5-1.07-.08-1.78.3-.5.05-1.3.16-1.96.19-1.1-.2-1.69-1.22-2.2-.82-.41-1.36-1.47-2.2-1.78-.84-.3-1.9-.05-2.86-.05h-1.73c-.45 0-.65.24-.69.68-.2 2.17.55 4.4-.4 6.53.9 1.42.37 2.99.5 4.48.08.96.1 1.91-.52 2.74.14.77-.75 1.53-.05 2.34.06.07-.07.36-.16.5a5.21 5.21 0 0 0-.89 3.51c.14 1.23-.34 2.22-1.04 3.15-.17.23-.4.43-.52.68-.33.68.11 1.5-.52 2.17-.57.61-.93 1.41-1.44 2.09-.46.6-.6 1.4-1.26 1.89-.33.24-.33.68-.3 1.06.1.88-.28 1.5-1.09 1.8-.44.15-.63.4-.6.81.06.82-.12 1.51-.77 2.06-.5.43-.77 1.07-1.16 1.59-.84 1.13-1.41 2.47-2.55 3.41-.48.4-.8 1.06-1.05 1.66-.43 1.07-1.28 1.86-1.78 2.88-.04.07-.13.18-.2.19-1.24.22-1.62 1.61-2.72 2-.7.24-1 .75-1.25 1.43-.22.6-.6 1.18-1 1.7-.35.43-.7.93-1.38.93-1.15.01-1.57.93-2.1 1.72.34 1.13-.67 1.26-1.28 1.58-.81.43-1.63.98-2.65.86-.48-.05-.68.32-.65.73.06.69-.29 1.2-.81 1.41a17.4 17.4 0 0 0-4.26 2.73c-.32.26-.66.31-1.03.42-.9.25-1.79.55-2.62.95-.87.4-1.94-.05-2.7.75-.14.14-.68.15-.82 0-.55-.55-.98 0-1.48.02-1.53.07-2.96.44-4.34 1.11-.44.22-.87.15-1.36-.03-1.35-.5-1.86-.57-2.98-.05-.68.33-1.54.1-2.11.8-.16.18-.86.2-1.06.01-.67-.6-1.41-.5-2.18-.5-.83-.01-1.74.31-2.46-.4-.48.34-1.11.7-1.56.39-.8-.56-1.63-.48-2.47-.46-.83.03-1.37-.6-2.06-.9-.52-.2-.87-.23-1.29.11-.5.4-.9.1-1.24-.26-.6-.6-.93-.76-1.77-.64-.84.11-1.37-.12-1.75-.99-.34-.76-.67-.77-1.6-.32-.42.2-.73.18-1.05-.08-.5-.41-.93-.9-1.71-.91-.83-.02-1.24-.86-1.77-1.38-.6-.57-1.15-.98-2.01-.86-.26.04-.6-.06-.8-.2-.77-.55-1.3-1.42-2.27-1.7-.23-1.35-1.92-1.46-2.3-2.7-.07-.24-.36-.44-.6-.62-2.18-1.75-3.53-4.27-5.62-6.1-.6-1.37-1.74-2.25-2.77-3.25-.26-.25-.38-.65-.6-.94-.94-1.2-1.63-2.55-2.78-3.6-.69-.61-1.16-1.47-1.69-2.26a1.4 1.4 0 0 1-.18-.8c.07-.94-.43-1.7-.91-2.34-.55-.72-1.03-1.36-.93-2.3.05-.43-.26-.7-.53-.97a4 4 0 0 1-1.19-3.37c.13-1.28-1.01-2.27-.75-3.56-.93-.76-.12-2.12-1-2.9l-.11-3.15c-.04-.66.1-1.36-.45-1.9-.07-.07-.15-.16-.15-.25-.02-.77-.02-1.54-.06-2.3-.03-.76-.03-1.47-.4-2.22-.33-.62-.07-1.5-.22-2.25-.1-.58.72-.95.24-1.54-.52-.62.04-1.04.27-1.53.07-.16.03-.38.01-.57-.1-1.37.08-2.66.94-3.8.29-.38.12-.7-.12-1.02-.25-.32-.32-.62-.1-1.03.58-1.08.65-2.36 1.43-3.35-.01-1.14.98-2.08.66-3.3-.1-.38 0-.79.33-1.04.66-.52.63-1.33.92-2 .42-.92.46-2 1.31-2.78.44-.4.61-1.16.76-1.79a5.13 5.13 0 0 1 1.43-2.72c.5-.46.95-.92.9-1.7 0-.23.23-.5.4-.72.62-.71 1.47-1.3 1.28-2.43.67-.92 1.3-1.87 2.02-2.75.43-.52.71-1.03.88-1.72.22-.89.66-1.76 1.42-2.42.56-.5 1.24-.93 1.4-1.77.09-.45.61-.37.89-.6.36-.3.78-.57.76-1.15-.03-.51.26-.74.66-1.09 1.3-1.09 2.73-2.1 3.45-3.75.15-.33.49-.6.75-.86.34-.35.64-.8 1.05-.99 1.75-.77 2.96-2.32 4.64-3.19.42-.22.76-.58 1.3-.5.73.1 1.3-.17 1.76-.74.56-.68 1.3-.95 2.13-1.25.84-.31 1.48-1 2.54-1.07.77-.06 1.5-.7 2.26-1.07 1.66.38 2.7-1.34 4.28-1.26.08 0 .17-.09.25-.14 2.52-1.41 3.41-1.76 5.66-2.23.36-.08.68-.3 1.04-.41 1.44-.44 2.84-1.04 4.42-.82.64.09 1.27-.16 1.92-.35a6.4 6.4 0 0 1 4.46.06c.59.26 1.1.32 1.61-.02.26-.17.49-.26.7 0 .54.65 1.2.78 2.02.86.8.09 1.54.64 2.31.97.7.3 1.79-.09 1.86-.83.2-1.84 1.74-3.14 1.83-4.99 1.19-1.17 1.17-2.94 2.13-4.23.73-.98.65-2.3 1.48-3.31.76-.92 1.16-2.13 1.88-3.14.69-.98 1.2-2.13 2-3.05.33-.4.45-.84.4-1.32a2.61 2.61 0 0 1 1.04-2.5c.54-.46.92-.97.3-1.72-.2-.25-.2-.72-.2-1.09-.05-1.44.02-2.9-.09-4.33-.11-1.4.34-2.9-.58-4.19-.09-.13-.03-.38-.03-.57l-.1-7.22c0-.41.07-.76.38-1.04.14-.13.28-.3.45-.34.07-.03.32.22.3.3-.12.74.5 1.24.58 1.88.08.86.04 1.74.05 2.6.03 1.54.2 3.1.04 4.62-.1 1.03.73 1.93.2 2.92.75.93.43 2.03.48 3.06.07 1.63.07 3.27.1 4.9 0 .08.1.18.18.22.05.02.16-.03.22-.08.79-.59 1.5-1.2 1.3-2.36-.1-.56-.11-1.15.33-1.63a.57.57 0 0 0 .02-.79c-.58-.66-.4-1.44-.42-2.2-.02-.77-.1-1.55-.01-2.3.08-.62-.96-1.13-.14-1.77-1.03-1.49-.31-3.18-.55-4.77-.12-.74.06-1.5-.46-2.2-.28-.36-.1-.88.08-1.36.28-.74-.4-1.8-1.06-1.8-1.83.01-3.66.02-5.48.07-.56.01-1.19-.13-1.67.25-.7.55-1.14-.44-1.83-.23-.53.16-1.15 0-1.72.05a4.1 4.1 0 0 1-2.44-.56c-.5-.26-.93-.64-1.57-.57-.5.05-.63-.33-.63-.75-.04-1.35-.12-2.7-.09-4.04.03-1.03-.19-2.06.44-3.08.3-.5.08-1.31.11-1.98.02-.28-.04-.7.12-.82 1.04-.8.93-2.01 1.2-3.1.22-.92.94-1.39 1.7-1.72.85-.36 1.88-.12 2.7-.7.05-.04.18.02.27.03 1.45.23 1.45.23 1.43-1.08l-.04-3.18c0-.19-.04-.4.02-.57.24-.77-.6-1.15-.62-1.85-.02-.68.09-1.3.43-1.87-.83-.65.32-1.13.14-1.8-.18-.62-.03-1.33-.03-2 .9-.66-.02-1.56.28-2.25a4.4 4.4 0 0 0 .19-2.26c-.1-.84.65-1.36.59-2.17-.06-.74-.2-1.54.42-2.18.06-.06.1-.18.09-.26-.3-1.64.84-3.11.58-4.76-.05-.27-.03-.62.12-.83 1.16-1.67 1.02-3.77 1.85-5.57.42-.91.32-2.02.81-2.96.49-.9 1.14-1.74 1.17-2.86.01-.32.43-.6.64-.93.15-.23.4-.5.38-.73-.1-1.33.7-2.33 1.15-3.46.24-.6.76-1.12.6-1.86.72-1.52 1.17-3.15 1.98-4.65.36-.64.78-1.26.84-2.08.05-.68.23-.74.58-.35.54.61 1.33.72 1.93 1.2 1.63.03 2.83 1.48 4.56 1.33.48-.04 1.01.45 1.52.7 1.18.6 2.42 1.08 3.52 1.8.78.5 1.64.16 2.46.53.82.37 1.3 1.17 2.13 1.39.45.12.9.17 1.36.33 1.05.36 2.16.55 3.25.77.38.08.8-.4.6-.73-.36-.6-.7-1.15-.08-1.78-.05-1.92.8-3.63 1.25-5.44.05-.24-.01-.58.38-.47.1.02.14.32.2.49.1.23.23.32.39.23.16-.1.3-.25.48-.3.76-.26 1.55 1.07 2.31-.03.77-.03 1.54-.14 2.3-.1 1.11.08 2.3-.4 3.36.34.08.05.32-.08.47-.16a1.48 1.48 0 0 1 1.61 0c.68.4 1.15-.48 1.83-.28.53.15 1.14-.12 1.67.25.12.09.37.15.46.1.73-.53 1.38-.41 2.13.02.37.2.93.1 1.4.12.1.01.2 0 .28-.04.1-.02.17-.08.23-.16.02-.04-.02-.17-.07-.21-.3-.24-.57-.51-.9-.68-1.26-.62-2.55-1.19-3.8-1.83-.16-.08-.22-.48-.21-.74 0-.1.29-.27.44-.27 1.05.01 1.94.6 2.93.84.43.72 1.36.69 1.87 1.24 1.04 1.1 2.54 1.18 3.8 1.78a1.7 1.7 0 0 0 1.67-.13c.37-.27.6-.2.98-.03.22.1.65-.37.97-.36 1.54.08 2.64-.93 3.9-1.5.66-.3.96-1.12.55-1.71-.85-1.26-.43-2.6-.46-3.9 0-.28.41-.36.58-.53.5-.5 1.8-.27 1.53-1.3-.19-.75-1.16-.4-1.78-.38-.8.04-1.34-.7-2.17-.62-.28.03-.62-.38-.93-.6-.23-.15-.48-.45-.7-.43-.77.04-1.27-.32-1.76-.83-.4-.42-.78-.89-1.26-1.18-.46-.27-1.07-.3-1.57-.53a19.38 19.38 0 0 1-5.66-3.71c-.6-.6-1.11-1.37-2.16-1.23-.14.02-.33-.17-.48-.27-1.43-1.03-6.65-4-8.33-4.63-.86-.33-1.78-.54-2.7-.7-1.2-.22-2.3-.78-3.6-.6-1.13.17-2.3.08-3.45.1-.4 0-.72.12-1.07.3a19.82 19.82 0 0 0-4.5 2.88c-1.08.92-2.38 1.58-3.25 2.76-.26.35-.23.71-.2 1.1-.16.06-.36.08-.44.2-.1.14.04.29.2.2.11-.08.14-.28.2-.43.97.2 1.55-.62 2.33-.9.7-.26.98-.25 1.45.33.27.33.34.68.04 1.03-.5.56-.94 1.16-1.77 1.38-1.75.46-2.25 2.13-3.1 3.45.13.79-.48 1.2-.89 1.72-1.14 1.44-2.66 2.43-4.14 3.45-1.62 1.1-3.25 2.18-5.2 2.67a6.2 6.2 0 0 0-2.03.96c-.6.4-1.18.58-1.87.56-.57-.02-1.13.02-1.61.44-.19.15-.55.08-.81.16-.48.15-.7-.69-1.26-.29-.38.27-.8.53-1.25.64-1.26.3-2.41 1.08-3.8.9-.75-.09-1.53-.12-2.19.46-.18.16-.55.12-.83.13-1.73.02-3.46.02-5.2.05-.49.01-.94-.05-1.33-.38a.62.62 0 0 0-.8-.01c-1.1.82-2.1.25-3.2-.12-2.16-.75-3.17-2.6-4.41-4.26-.04-.76-.29-1.59-.06-2.26.36-1.06 1.03-2 1.57-3 .71-1.32 2.19-1.38 3.32-2.01.15-.09.37-.03.57-.03.1 0 .24-.04.28.01.79.92 2.02.23 2.96.87.57.38 1.26.78 2.08.81.63.02 1.12.75 1.85.56 1.98 1.16 3.86.33 5.67-.4.95-.38 2-.63 2.81-1.2.87-.6 1.8-1.03 2.68-1.57a3 3 0 0 1 1.6-.47c1.54-.01 3.08-.09 4.62-.02 1.02.05 1.92.72 3.03.53.67-.12 1.23-.2 1.82-.64.9-.68 1.94-1.15 2.92-1.71 1.37.23 1.4-.97 1.83-1.73.04-.07.02-.2-.02-.28-.03-.08-.15-.22-.18-.2-1.61.79-3.35.39-5.03.49-.65.04-1.27 0-1.93-.36-.53-.29-1.3-.19-1.95-.2-.76-.02-1.49.06-2.2-.43-.76-.53-1.42.54-2.12.4-.61-.12-1.19-.74-1.85-.34-.52.3-1.02.59-1.6.48-1.2-.25-2.25.33-3.28.7-.91.32-1.8.53-2.75.53-1.05 0-2.12.04-3.17.03-.67 0-1.38.05-1.98-.17-1.3-.5-2.8-.42-3.95-1.37-.27-.23-.78-.16-.88-.61-.3-1.32-1.7-2.06-1.8-3.47a2.37 2.37 0 0 1 1.7-2.36c.55-.16 1.08-.3 1.58-.6.14-.08.37-.02.56-.02.69-.03 1.13.67 1.88.57.54-.08 1.17-.22 1.66.18.51.42 1.1.3 1.66.3 2.11 0 4.23-.06 6.35-.06.73 0 1.21-.12 1.53-.92.16-.42 3.06-1.4 3.59-1.41.38-.01.8-.04 1.12.11.43.21.82.4 1.33.41.76.02 1.5-.16 2.27.15 1.9.77 3.92 1.22 5.74 2.22.73 1.34 2.32.63 3.3 1.37.07.05.32-.1.47-.18.54-.32 1.1-.35 1.6.02.47.35.83.09 1.3 0a10.59 10.59 0 0 0 5.28-2.48c.95-.05 1.71-.75 2.69-.75 1.92 0 3.84-.06 5.77-.08.28 0 .68-.05.83.11.81.87 2.1.03 2.94.9a2.3 2.3 0 0 0 1.53.63c.8-.01 1.16.58 1.73.9.47.26 1.1.25 1.58.5 1.67.86 3.16 2.05 4.96 2.67.25.09.46.34.67.55a24.9 24.9 0 0 0 7.3 4.77c1.74.78 3.13 2.11 4.94 2.72.7.24 1.35.9 2.03.9.64.01 1.11.86 1.82.27.28-.24.48.14.67.3.7.64 1.58 1.05 2.52 1.2.26.04.52.18.76.33.85.51.51 1.57 1.02 2.3.27.37.11 1.1.04 1.65-.04.24-.3.58-.53.65-.99.29-1.57 1.06-2.22 1.75-1.58 1.67-3.6 2.7-5.5 3.92-.47.32-1.03.49-1.6.48-.66.02-1.42-.24-1.94.23-.51.47-1.05-.45-1.48.18-.08.12-.34.16-.51.18-.48.02-.97-.02-1.44.02-.6.05-1.15-.03-1.6-.45a3 3 0 0 1-1.3.5c-.54.03-.89-.85-1.53-.18-.42.44-.85-.08-1.25-.29-.99 1.13-1.89-.31-2.9-.1-1.02.23-2.11.08-3.17.09-1.92.02-3.85.04-5.77.04-.57 0-1.19.17-1.67-.24-.46-.4-.95.4-1.47-.14-.32-.33-.82-.01-.85.35l-.03.57c-.12 1.12.16 2.22-.45 3.36-.45.84.1 2.06-.57 3-.08.13.14.54.3.76.15.22.16.4-.12.4-.75.04-1.63.27-2.24-.03a4.64 4.64 0 0 0-2.2-.4c-.66 0-1.34.15-1.98-.16-1.08-.53-2.42-.56-3.3-1.49-.6-.64-1.56-.66-2.13-1.38a2.37 2.37 0 0 0-1.46-.8c-1.37-.15-2.46-.93-3.62-1.5-.55-.27-1.15-.13-1.61-.48a7.6 7.6 0 0 1-1.3-1.14c-.56-.65-1.53-.17-2.07-.83-.27.24-.74.45-.77.71-.11.97-.58 1.79-.98 2.63-.44.93-.6 1.97-1.08 2.88-.54 1-.73 2.11-1.24 3.13-.45.9-.43 2.03-.87 2.94-.46.94-.62 1.95-1.01 2.9-.36.85-.58 1.76-.85 2.66-.37 1.25-1.01 2.45-.85 3.82.09.72-.8 1.1-.58 1.86.2.73-.22 1.32-.55 1.86-.66 1.06-.51 2.21-.5 3.34 0 .73-.2 1.3-.73 1.79-.18.17-.4.37-.13.7.48.61.4 1.25-.05 1.84-.33.43-.2.92-.2 1.4-.03.74.11 1.5-.37 2.21-.23.35-.15.92-.15 1.4 0 2.12.04 4.24.04 6.36 0 .75.16 1.53-.45 2.2-.14.16-.16.62-.04.82.98 1.61.4 3.37.57 5.06.01.1.03.22-.01.28-.11.14-.26.34-.4.36-.58.06-1.16.02-1.73.09-.64.08-1.08-1-1.8-.31-.5.46-1.1.27-1.65.32-.45.04-.55.34-.77.68-.7 1.06-.48 2.37-1.03 3.48-.35.72.12 1.66-.43 2.48-.47.69.16 1.76-.64 2.42-.12 1.05-.15 2.02.47 3.02.55.87 1.54 1.04 2.15 1.75.07.08.43.06.53-.04.99-.97 2.49-.06 3.48-.98.39.3.8.47 1.32.44.6-.03.93-.74 1.58-.55.53.15 1.05.4 1.6.5.55.08 1.14.01 1.72.04 1.02.06 2.11-.39 3.05.42.1.1.42.07.53-.03.65-.6 1.44-.44 2.19-.47.96-.04 1.93.03 2.88-.04 1.02-.08 2.08.2 3.06-.5.4-.29 1.13-.05 1.68-.16.88-.17 1.75.8 2.62.02.87-.02 1.73-.02 2.6-.06.75-.04 1.48 0 2.22-.4.54-.29 1.31-.23 1.97-.2 2.05.15 3.9-.49 5.67-1.43.44-.23.84-.46 1.34-.4.17.03.33.16.49.24l-.14.25c-.92 1.34-2.46 1.72-3.8 2.37-.47.23-1.03.43-1.56.6-.62.2-1.33-.08-1.93.38-.4.32-.91-.26-1.47.17-.36.29-1.1.12-1.68.12l-6.34.1c-.76.02-1.52-.11-2.2.43-.26.2-.73.16-1.1.17-1.25.03-2.51.14-3.75 0-.74-.07-1.32.84-2.08.26-.04-.03-.34.17-.35.27l.03 4.62c.01.67.72 1.09.6 1.86-.09.64-.12 1.34.4 1.9.32.35.08.69-.1 1.04-.13.23-.27.66-.16.77.63.64.45 1.43.48 2.18.03.58.19 1.2.03 1.72-.2.68.73 1.08.23 1.83-.27.42-.19 1.1-.2 1.67-.02.58.02 1.16.05 1.74.06 1.04.57 1.56 1.59 1.57l2.6.01c.84.01 1.74-.24 2.47.44.7-.71 1.6-.48 2.45-.5l12.41-.19c.84-.01 1.73.22 2.47-.45.12-.1.37-.08.55-.09 2.5-.04 5.01-.16 7.5-.07.8.04 1.53.16 2.34 0 .62-.14 1.37-.3 1.95.18.6.5 1.08-.16 1.5-.1.54.08.98.54 1.55.04a.79.79 0 0 1 .52-.2c1.58.18 3.24-.54 4.79.34.7-.63 1.35-.32 2.03.06.11.06.39-.04.51-.15.4-.33.9-.27 1.34-.4.85-.27 1.56.63 2.38.18.72-.4 1.5-.19 2.25-.23a7.11 7.11 0 0 0 1.91-.39 5.38 5.38 0 0 1 3.63.01c.57.22 1.1.27 1.66.34 1.68.2 3.43-.5 5.09.34.1.05.32-.12.46-.22a1.98 1.98 0 0 1 1.67-.16c1.07.3 2.1.76 3.14 1.19.12.05.2.3.22.46.05.36-.2.52-.5.53-2.02.04-4.05.2-6.06.06-.8-.05-1.52-.12-2.32.05-.71.15-1.54.27-2.2-.34a32.7 32.7 0 0 0-7.12.04c-.62.64-1.44.45-2.18.46-6.16.07-12.32.12-18.47.17-.56 0-1.14.1-1.66-.3-.1-.09-.45.2-.7.24-.36.05-.75.11-1.1.03-1.95-.48-1.94-.48-4.09 0-.45.11-.94.12-1.42.12-2.02.04-4.04.05-6.06.1-.74.02-1.5-.1-2.23.36-.25.17-.96-.38-1.22-.22-.65.42-1.13.49-1.8.03-.38-.27-.92-.2-1.33.13a1.9 1.9 0 0 1-2.16.19c-.83-.5-1.67-.26-2.5-.39-.6-.08-1.08.43-1.56.42-.4-.02-.83-.38-1.33-.37a2.4 2.4 0 0 0-1.35.35c-.3.2-.8.34-1.07.22-.7-.32-1.35-.82-2.03 0-.67.02-1.36-.02-2 .1-.33.06-.8.38-.86.67-.23.92-.93 1.43-1.5 2.06-.12.15-.34.33-.32.46.13 1.02-.72 1.4-1.22 2-.24.29-.47.64-.54 1-.15.73-.72 1.28-.69 2.14.02.6-.92.9-1.1 1.62-.08.36-.48.68-.47 1 .04 1.22-.52 2.2-1.04 3.2-.48.92-.87 1.86-1.5 2.71a7.5 7.5 0 0 0-1.4 2.76c-.5 2.38-1.97 4.25-3.02 6.33-1.12.68-.83 2.08-1.54 2.97-.17 1.56-1.04 2.8-1.84 4.07-.6.95-1.03 2-1.57 2.98-.66 1.25-1.2 2.53-2.02 3.72a6.81 6.81 0 0 0-1.37 3.06c-.07.78-.76 1.08-1.02 1.68-.25.6-.09 1.31-.69 1.82-.9.74-.5 2.26-1.65 2.88-.24 1.05-1.23 1.66-1.56 2.68-.13.37-.2.72-.18 1.1-.37 0-.96-.1-1 .3-.1 1.02-.68 1.72-1.25 2.45.26 1.05-.57 1.52-1.1 2.16-.24.28-.55.6-.58.93-.16 1.36-1.02 2.38-1.57 3.54-.18.38-.16.72-.16 1.1-.81.32-1.38.92-1.71 1.72a7.23 7.23 0 0 1-1.84 2.78c-.67.59-.5 1.38-.37 2.12.04.27.21.3.38.13.6-.59 1.4-1.04 1.28-2.07.64-1.12.91-2.44 1.85-3.4.37-.38.44-.81.39-1.3.16-.06.4-.08.5-.2.6-.82 1.16-1.67 1.74-2.5.02-1.41.92-2.37 1.63-3.47.75-1.15 1.22-2.48 1.79-3.74.09-.16.02-.38.02-.57Zm88.02 64.4c.71.04 1.08-.17 1.24-.51a8.63 8.63 0 0 1 1.85-2.52.8.8 0 0 0 .2-.5c0-.65.15-1.14.9-1.22.52-1.28 1.85-1.98 2.41-3.14a8.4 8.4 0 0 1 2.65-2.97c.78-.6 1.56-.96 1.57-2.13 0-.33.59-.68.95-.99.28-.23.82-.35.9-.62.41-1.38 2.17-1.97 2.08-3.62l1.07-.85c-.27-1.24 1.05-1.74 1.28-2.77.1-.44.85-.28 1.03-.87.43-1.4 1.41-2.45 2.46-3.44a4.2 4.2 0 0 0 1.13-1.61 3.3 3.3 0 0 1 1.37-1.67 5.12 5.12 0 0 0 2.29-2.86c.17-.58.54-.98.9-1.43.66-.8 1.2-1.73 1.9-2.47.74-.77 1.3-1.62 1.85-2.5.7-1.13 1.45-2.23 2.45-3.15.63-.58.53-1.2-.23-1.61-.65-.37-1.36-.64-2.02-1-.75-.4-1.11-1.58-2.02-1.47-1.1.12-1.01-.97-1.7-1.25-1.8-.74-2.97-2.6-5-3-.22-.54-.54-.9-1.14-1.12-.6-.23-1.01-.8-1.65-1.09a2.7 2.7 0 0 1-1.51-1.65c-.09-.3-.29-.52-.61-.48-.78.08-1.32-.35-1.69-.9-.44-.68-1.4-.66-1.73-1.37-.32-.64-.84-.93-1.43-1.28-.58-.37-1.58-.35-1.67-1.35-1.29-.53-2.12-1.61-3.05-2.55-.95-.96-2.2-1.55-3.1-2.49a22.05 22.05 0 0 0-3.81-2.99c-.64-.41-1.25-.84-1.8-1.35-.94-.85-.94-.84-1.5.61-.06.17-.17.44-.28.46-.78.12-.84.64-.82 1.26 0 .37.1.86-.3 1.04-.46.2-.94.37-.84.96.17 1-.33 1.63-1 2.24-.27.25-.67.63-.63.9.14 1.2-.77 2.15-.63 3.33.12.97.1 1.91-.8 2.6-.19.14-.28.51-.27.77.02.7-.33 1.27-.5 1.9-.3 1.15-.5 2.39-.87 3.5-.44 1.36-.24 2.64-.27 3.96 0 .68.19 1.45-.08 2-.44.92-.31 1.87-.53 2.77-.23.92-.57 1.79-.5 2.76.02.26-.16.53-.25.8a7.2 7.2 0 0 0-.27 3.65c.06.56.11 1.13-.3 1.65a1.26 1.26 0 0 0-.02 1.59c.3.42.38.85.38 1.35l.07 3.75c.02.6-.03 1.14-.44 1.62-.19.2-.14.5.04.79.26.39.38.92.7 1.21.72.64.99 1.4.89 2.31-.12 1.05.17 1.85 1.03 2.5.38.26.74.61.73 1.17-.03 1.06-.06 2.1.96 2.83.18.13.2.51.23.79.04.38 0 .77.02 1.15.02.4.13.7.6.83.84.23 1.26.82 1.17 1.72-.04.5.05.94.44 1.3.27.27.5.58.71.9.4.62 1.07 1.25 1.12 1.91.08 1.02.99 1.38 1.26 2.2.43 1.28 1.7 1.32 2.43 1.72Zm83.42-24.08c.1-.02.24-.01.26-.06.26-.7.87-1.23.84-2.06-.04-.86 0-1.72 0-2.59.84-1 .45-2.2.5-3.32.01-.48-.15-1.12.1-1.4.83-.94.09-2.32.98-3.2l-.03-3.75c0-.57-.04-1.15.36-1.65.32-.4.36-.97.08-1.35-.43-.6-.44-1.24-.45-1.9-.02-.78-.13-1.55-.03-2.31a4.23 4.23 0 0 0-.71-2.7 3.15 3.15 0 0 1-.19-3.24c.19-.37.23-.66 0-1.04-.17-.32-.34-.7-.32-1.06.07-1.4-.05-2.69-1.38-3.53a.82.82 0 0 1-.35-.45c-.12-.54-.04-1.14-.56-1.56-.36-.3-.51-.83-.79-1.14-.47-.53.04-1.03-.17-1.46-.7-1.44-1.4-2.87-2.14-4.29-.21-.41-.64-.74-.53-1.28.2-1.01-.45-1.59-1.08-2.2-.62-.6-1.2-1.23-1.8-1.85.03-1.46-1.19-2.1-2-2.98-.53-.56-1.05-1.1-1.29-1.85-.14-.44-.12-1-.39-1.33-.34-.42-.94-.61-1.35-.98-.65-.57-1.43-1.1-1.8-1.84-.39-.77-1.06-1-1.61-1.47-.94-.8-2.12-1.27-2.95-2.22-.19-.23-.52-.2-.77 0-.3.25-.65.48-.82.8-.8 1.57-2.1 2.7-3.27 3.94-.25.28-.47.6-.63.93a10 10 0 0 1-1.69 2.6c-.77.82-1.26 1.92-2.09 2.67-2.4 2.21-4.03 5.04-6.1 7.51a6.27 6.27 0 0 0-1.44 2.39c-.2.82-.6 1.36-1.1 1.92-.84.91-1.62 1.87-2.34 2.87-.76 1.06-1.7 2.02-2.36 3.16-.56 1-1.49 1.76-2 2.72a30.9 30.9 0 0 1-2.46 3.78c-.46.62-1 1.46-.1 2.3.2.2.07.75.09 1.13.02.43.22.78.68.7.75-.1 1.21.5 1.85.67.7.19 1.31.92 2 .98 1.2.11 2.05.99 3.15 1.18 1.25.2 2.22.99 3.35 1.44.6.25 1.16.69 1.78.79.62.1 1.07.32 1.5.72 1.26 1.16 2.78 1.91 4.25 2.76 1.31.75 2.94.87 4.1 1.74 1.23.92 2.82 1.04 3.92 2.15.31.3.83.53 1.27.57a4 4 0 0 1 2.52 1.14c.81.79 2 .52 2.81 1.2.14.12.38.21.41.35.24 1.13 1.29 1 2.02 1.26.49.16.89.23 1.02.8.03.14.28.36.4.34.9-.13 1.43.42 1.95 1 .91 1.06 2.24 1.46 3.45 1.82 1.14.34 2.1.78 2.97 1.55.1.11.3.13.48.18Zm-30.46 35.25c.65.18.66.2.91-.02.87-.77 1.79-1.39 3.03-1.35 1.03.03 1.47-.84 1.93-1.51.3-.43-.32-.82-.51-1.24-.6-1.27-1.11-2.6-1.86-3.8-.5-.79-1.08-1.55-1.56-2.36-.47-.8-1.1-1.65-1.2-2.52-.13-.97-.68-1.73-.86-2.67-.17-.86-.77-1.67-1.11-2.56-.36-.95-.5-1.99-1.06-2.89-.55-.85-.74-1.92-1.24-2.81-.87-1.56-1.22-3.35-2.16-4.88a1.46 1.46 0 0 1-.2-.8c.06-1.1-.56-1.98-.87-2.94-.35-1.06-1.28-2-1.42-3.05-.16-1.21-1.67-1.71-1.32-3.04-1.27-.91-1.14-2.56-1.94-3.7-.22-.33-.4-.65-.36-1.06.05-.71-.24-1.26-.72-1.8a3.9 3.9 0 0 1-.98-1.7c-.14-.69-.44-1.18-.78-1.77-.99-1.68-2.29-3.25-2.32-5.37 0-.15-.19-.45-.27-.44-.26.02-.7.11-.73.25-.23 1.13-1.33 1.6-1.82 2.53-1.39 2.7-2.93 5.3-5.17 7.4-.14.13-.34.27-.37.43-.22 1.13-1.38 1.6-1.77 2.55-.38.95-1.4 1.39-1.7 2.26-.36 1.1-1.34 1.6-1.95 2.44-.16.22-.41.5-.39.73.08.9-.54 1.38-1.06 1.94-.93.97-1.98 1.86-2.76 2.94-1.26 1.75-1.98 3.85-3.55 5.42-.05.06-.02.2-.05.28a8.63 8.63 0 0 1-2.13 3c-.99 1.02-2.19 1.87-2.74 3.26-.94-.01-.78.97-1.25 1.4-.55.5-1.26.94-1.32 1.81a16.05 16.05 0 0 0-3.28 4.62 1 1 0 0 1-.4.42c-.75.4-.83 1.24-1.21 1.88-.3.52-.17.72.46 1.03.6.3 1.21.48 1.86.63.63.14 1 .8 1.63 1.1.75.35 1.25 1.25 2.01 1.57 2.05.9 3.97 2.2 6.3 2.31.4.02.77.12 1.02.44.53.7 1.27.7 2.06.72.93.02 1.92-.32 2.76.45.17.15.55.07.83.08.38.02.77 0 1.15.01.66 0 .47.8.88.99.76.35 1.56.6 2.35.86.77.26 1.33.54 2.1.07.68-.42 1.44-.35 2.18-.04.34.15.73.36 1.06.31 1.45-.23 2.72.9 4.17.54.15-.03.34.14.51.2a7.9 7.9 0 0 0 4.71 0 3.73 3.73 0 0 1 2.76-.06c.24.09.4.25.73.08.49-.27 1.1-.29 1.57-.57.9-.57 2.1-.12 2.94-.9.16-.16.57-.1.85-.06.84.12 1.49-.15 2.04-.78.42-.52 1-.48 1.6-.26Zm-142.35-55.27c-.15 0-.29-.04-.34.01-.87.87-2 .46-3 .59-.4.05-.77.08-.82.57-.05.38-.06.77.24 1.08l1.23 1.22c.54.55 1.24 1 1.6 1.66.43.8 1.17 1.14 1.75 1.7.4.39.59.98.97 1.38.3.33 1.03.46 1.1.78.18.76.86.69 1.25 1.06.2.2.57.47.53.63-.28 1.15.87 1.32 1.3 1.96a76.77 76.77 0 0 0 2.5 3.44c.68.92 1.41 1.77 2.19 2.61.2.2.47.45.49.69.08 1.34.85 2.1 1.88 2.9.77.59 1.14 1.71 1.96 2.39.14.11.22.3.3.47.74 1.41 2.09 2.43 2.59 4 .08.24.4.41.58.63 1.05 1.23 2.26 2.36 3.08 3.72.55.92 1.46 1.53 1.9 2.46.44.94 1.13 1.62 1.73 2.4.71.93 1.56 1.69 2.33 2.52 1.03 1.1 2.23 2.07 2.95 3.47.04.07.15.11.21.18.19.18.4.14.4-.13-.01-.8.93-.66 1.1-1.14.21-.57.56-.99.95-1.41.39-.43.81-.82 1.2-1.25.46-.48 1-.93 1.31-1.51a16.73 16.73 0 0 1 3.22-4.27c.33-.32.73-.76.76-1.17.04-.76.47-1.2.86-1.74.39-.52.84-1.17.83-1.75-.01-1.07.46-1.77 1.07-2.54.39-.48.03-1.33.69-1.8.52-.36.62-.93.58-1.53a3.79 3.79 0 0 1 1.13-3.1 4.12 4.12 0 0 0 1.11-2.84c.04-.54.42-1.05.5-1.6.1-.56-.18-1.3.1-1.69.67-.99.45-2.02.43-3.05-.01-.82.12-1.51.79-2.04.31-.25.52-.66.24-1-.4-.5-.34-1.07-.49-1.6-.18-.66.88-1.08.16-1.82-.51-.52.2-1.11.45-1.51.56-.9.56-1.54-.28-2.2-.33-.25-.38-.63-.37-1.03 0-.48 0-.96-.06-1.44 0-.1-.31-.29-.32-.28-.6.63-1.19.18-1.78 0-.73.64-1.63.42-2.47.44-2.21.04-4.42.04-6.63.08-.58 0-1.25-.11-1.7.14a3.43 3.43 0 0 1-3.52.03c-.3-.15-.75-.1-1.1 0-2.26.58-2.26.6-4.07.04-.47-.15-.92-.16-1.36.12-.23.15-.5.32-.76.33-2.3.06-4.61.08-6.92.1-.36 0-.51-.44-.98-.34-2.4.46-2.4.43-4.4-.04-.26-.07-.55-.1-.83-.1-1.25 0-2.5.03-3.75.06-1.32.04-2.63-.06-3.91.53-.54.25-1.3.04-1.97-.04-.28-.06-.5-.3-.71-.43Zm-45.52 20.82c0 1.81-.03 1.84.98 2.85.5.5.9.99.78 1.75-.08.51.14.92.52 1.27.35.33.56.7.68 1.2.24 1.06.56 1.16 1.25.44 1.2-1.24 2.85-1.92 3.88-3.35a.6.6 0 0 1 .22-.18c1.74-.76 2.74-2.35 3.98-3.64.5-.52.8-1.2 1.53-1.53.68-.33 1.1-1 1.75-1.46 1.46-1.03 3.04-1.97 4.15-3.43.56-.74.83-1.72 1.9-1.96.35-1.04 1.22-1.68 1.9-2.46.45-.49.9-.96 1.25-1.56.36-.6 1.2-.89 1.68-1.43.81-.92 1.9-1.59 2.36-2.84.19-.5.7-.98 1.17-1.24 2-1.1 3.22-2.87 4.5-4.66.65-.93.66-1.73.13-2.63-.29-.5-.5-1-.87-1.46a10.28 10.28 0 0 1-1.69-2.56c-.22-.54-.22-1-.92-1.22-.46-.14-1.9-2.39-2.04-2.95-.1-.38-.04-.79-.52-.9-1.24-.32-1.5-1.47-1.76-2.4a6.41 6.41 0 0 0-1.85-3.1c-.27-.25-.59-.52-.56-.97.06-.78-.5-1.2-.95-1.69-.5-.56-1.27-.9-1.43-1.75-1.58-1.76-2.44-4.01-3.94-5.83-.54-1.64-1.87-2.82-2.52-4.4-.2-.5-.35-.5-.73-.1-.26.29-.57.53-.78.85a61.5 61.5 0 0 0-1.74 2.9c-.28.5-.48 1-.86 1.45a29.56 29.56 0 0 0-3.4 5.16 6.95 6.95 0 0 1-1.82 2.53 2.15 2.15 0 0 0-.9 2.26c.21 1.16-.24 2.01-1.1 2.77-.75.63-1.28 1.51-1.12 2.51.16 1.03-.65 1.79-.57 2.73.09 1.15-.62 1.93-1.04 2.88-.32.74-.9 1.48-.64 2.41.04.16-.02.43-.14.53-.8.64-.92 1.59-1.22 2.47a5.3 5.3 0 0 1-.65 1.26c-.38.56.46.76.31 1.25-.08.26 0 .62-.14.81-.4.51-.39 1.05-.37 1.63.02 1.16.03 2.32.02 3.47-.01.47-.03.92-.19 1.4-.57 1.79-.52 1.94.23 3.48.13.25.22.53.38.75.28.38.15.7-.04 1.05-.13.23-.32.65-.22.77.67.84.42 1.83.53 2.75.04.37.12.74.26 1.08.19.43.46.82.66 1.25.28.57-.53.95-.3 1.55.08.17.03.4.02.24Zm51.38 37.5c.28-.03.86.1 1.21-.13.61-.4 1.22-.48 1.9-.5.65-.02 1.34.2 1.94-.28.6-.48 1.54-.15 2.05-.87.65-.03.97-.57 1.39-.94.53-.46 1.4.02 1.82-.67 1.04-.07 1.44-1.15 2.38-1.47 1.06-.36 1.98-1.1 3-1.6.92-.45 1.67-1.13 2.5-1.72.16-1.04 1.1-1.23 1.81-1.63.91-.49 1.85-.93 2.76-1.42.33-.18.61-.43.91-.64.23-.16.23-.3.02-.46-.76-.56-1.56-1.07-2.26-1.69-1.08-.96-2.08-2-3.1-3.02a5.5 5.5 0 0 1-.75-.86c-.44-.68-.46-1.53-1.35-2.03-.67-.38-1.14-1.24-1.53-1.97-.24-.47-.44-.8-.97-.88-.12-.02-2-2.6-2.08-2.73-.13-.24-.23-.52-.4-.72-.77-.93-2.03-1.52-2-3 0-.1-.27-.22-.43-.32-.24-.15-.58-.21-.72-.42-.58-.87-1.08-1.78-1.93-2.43a.7.7 0 0 1-.18-.22c-.24-.41-.52-.8-.67-1.24-.37-1.11-1.4-1.78-1.82-2.84-1.11-.37-1.38-1.37-1.87-2.28-.48-.9-1.17-1.71-1.82-2.51-1.55-1.9-2.8-4.02-4.53-5.77-.03-.8-.88-.6-1.23-1-.37-.45-.8-.84-1.21-1.24a14.5 14.5 0 0 1-2-2.4c-.7-1.08-1.3-2.33-2.46-3.1a1.11 1.11 0 0 1-.2-.2c-.24-.26-.54-.2-.79-.1-.13.07-.24.31-.25.48-.03.67-.02 1.34-.02 2.02l.02 2.02c0 .67-.03 1.34-.04 2-.78.63.19 1.17.09 1.77-.12.73.2 1.5-.33 2.22-.22.28.43.7 0 1.2-.25.3-.2.92-.16 1.38.04.35.5.74.42.99-.15.44-.42.8-.41 1.32.05 1.93.05 3.85.06 5.78 0 .86.14 1.77-.07 2.58-.14.52-.35.94-.1 1.46-.46.47-.34 1.06-.34 1.63 0 .57-.05 1.16.4 1.62.05.04.01.18-.03.24-.68.96-.31 2.05-.33 3.08-.03 2.4.03 4.81.04 7.21 0 .96.23 2.01-.1 2.84-.36.87.72 1.84-.34 2.52-.04.03-.01.19-.01.28 0 .68-.02 1.36.02 2.03.03.56-.24 1.23.2 1.66.66.65-.2 1.3.04 1.75.58 1.13.25 2.24.26 3.36-.77.7.23 1.14.27 1.74.02.3.48.27.73.17.32-.13.5-.4.97-.16.99.48 2.02.43 2.98-.2.26-.18.51-.1.8-.02 1.9.57 1.92.58 3.8-.03.66-.21 1.36-.32 1.92.02.64.37 1.27.3 2.12.33Zm-14.57-48.32h.03l-.05-4.91c0-.53-.2-.78-.72-1.04-.66-.33-1.18-.96-1.75-1.46-.25-.23-.61-.26-.78-.08-.43.49-1.3.36-1.47 1.22-.1.56-.96.42-1.14 1.14-.16.6-.75 1.07-1.06 1.65-.3.52-.64.9-1.2 1.16-1.03.48-1.56 1.68-2.7 2.03-.15 1.25-1.68 1.58-1.87 2.8a48.39 48.39 0 0 1-4.8 4.97c-1.18.35-1.66 1.6-2.64 2.12-1.15.6-1.92 1.55-2.8 2.4-1.3 1.24-2.43 2.65-4.04 3.61-1.28.77-2.36 1.9-3.47 2.93-.4.36-.62.91-.99 1.32-.93 1-.89 1.38.07 2.4.53.57 1.2 1.2.53 2.13-.07.1.02.4.13.51.26.28.54.6.87.71.85.26 1.32.75 1.29 1.65-.02.45.28.7.55.96.52.55 1.04 1.06 1.38 1.8.35.75 1.2 1.18 1.62 1.97.37.68.48 1.4.76 2.09.34.84 1.44.84 2.02 1.5.63.73 1.31 1.41 2.05 2.03.52.45.13 1.22.56 1.54.42.31 1.03.38 1.55.56.09.03.13.15.2.2.58.38.21 1.11.56 1.55.44.55 1.36.02 1.78.71.29.48.58.96.9 1.41.25.34.62.53 1 .28.33-.21.57-.41.97-.1.37.29.87.4 1.22.7.98.81 2.04 1.36 3.36 1.22.38-.04.77 0 1.07.3.82.76 1.62 1.54 2.9.89.15-.08.5.18.73.34.31.2.58.6.9.66.54.1 1.34.35 1.61-.16.35-.65 1.25-1.3.45-2.29-.26-.31-.25-.91-.22-1.37.16-1.89-.5-3.83.37-5.66-1.02-.98-.05-1.92.05-2.88.06-.56.1-1.16-.37-1.63-.23-.23-.25-.6-.05-.78.5-.44-.13-.9.05-1.2.36-.58.39-1.03-.05-1.54-.06-.06.07-.34.17-.47.5-.64-.25-1.02-.3-1.54-.07-.66.7-1.16.44-1.88a2.19 2.19 0 0 0-.25-.51c-.22-.33-.42-.68-.1-1.03.42-.5.34-1.08.34-1.65-.01-2.4-.03-4.81-.03-7.22 0-.66-.05-1.29.34-1.93.34-.55.2-1.26-.01-1.93-.57-1.7-.53-1.9-.04-3.83.12-.45.16-.94.12-1.4-.04-.35-.48-.75-.4-1 .15-.45.42-.83.4-1.34l-.04-4.63Zm159.94 42.05c.09-.03.23-.03.25-.08.59-1.26 1.4-2.17 2.9-2.4.6-.09.98-.81 1.61-1.13.51-.25.8-1 1.13-1.57.51-.9.86-1.97 2.23-1.83.07 0 .15-.1.23-.15 1.2-.77 1.62-2.3 2.93-2.98.24-.12.5-.39.56-.63.24-1.02 1.23-1.46 1.68-2.29.45-.82.9-1.66 1.22-2.54.18-.49.49-.8.81-1.15.6-.63 1.18-1.27 1.82-1.86.5-.46.82-.92.44-1.6.44-.6.46-1.54 1.28-1.83a2.04 2.04 0 0 0 1.35-2.22c-.16-1.5.43-2.77.8-4.11.13-.44.26-.62-.3-.76a5 5 0 0 1-1.53-.7 7.62 7.62 0 0 1-1.26-1.18c-.43-.48-.88.3-1.45-.18-.97-.82-1.92-1.84-3.36-1.9-.14 0-.4-.2-.4-.33-.03-.8-.83-.68-1.2-1.05-.49-.47-.94-.92-1.73-.9-.3.01-.66-.32-.94-.55-.58-.5-1.1-1.03-1.84-1.32-.6-.22-.9-1.03-1.69-.95-.89.07-1.2-.87-1.92-1.13-.6-.21-1.07-.98-1.64-1.04a3.62 3.62 0 0 1-2.02-.94c-.26-.2-.7-.23-1.07-.25-.5-.01-.95-.06-1.28-.48-.37-.49-.96-.6-1.45-.86-.9-.5-1.9-.9-2.65-1.59-.8-.75-1.9-.83-2.7-1.4a34.24 34.24 0 0 0-5.6-3.19 43.16 43.16 0 0 1-3.78-1.91c-1.62-.93-3.55-1.2-5.03-2.43-.11-.1-.37-.02-.56-.02-.42-.01-.8.4-.65.72.36.76.68 1.55 1.14 2.26.67 1.04.87 2.29 1.49 3.3 1.9 3.13 1.95 3.1 3.24 7.1 1.1 1.3.97 3.29 2.49 4.37.2.14.4.49.37.72-.09 1.07.55 1.74 1.08 2.54.4.59.7 1.28.81 2.08.18 1.17.38 2.42 1.33 3.34.19.18.29.47.37.73.44 1.33.77 2.7 1.5 3.9.22.36.31.7.28 1.09-.04.6.24 1.07.54 1.58.62 1.05 1.14 2.16 1.67 3.26.28.59.7 1.2.7 1.8-.02.84.58 1.43.65 2.14.08.9.72 1.52.98 2.32.4 1.15 1.35 2.06 1.44 3.35.01.16.12.43.24.47 1.04.31 1.62.94 1.55 2.08 1.16 1.16 1.66 2.72 2.44 4.1.07.1.33.12.5.18Zm-160.36-57.84c.25-.27.71-.55.7-.82-.01-1.1.7-1.73 1.37-2.4.26-.29.5-.6.8-.84a3.97 3.97 0 0 0 1.3-2.16c.2-.97.63-1.76 1.04-2.6.45-.94.78-1.91 1.49-2.72.6-.7.63-1.69 1.23-2.49 1.23-1.64 2.18-3.5 3.4-5.19.37-.52.7-1.17.77-1.79.12-.9.7-1.54 1-2.33.45-1.2 1.63-2.13 1.38-3.6.34-.57.58-1.24 1.02-1.69.9-.9 1.33-2.05 1.93-3.12.82-1.46.96-3.3 2.42-4.41.17-.14.11-.54.22-.8.4-.94.72-1.95 1.26-2.82.55-.88.33-2.12 1.35-2.76a.2.2 0 0 0-.16-.37c-1.1.19-2.04-.37-3-.66-.93-.27-1.79-.6-2.76-.5-.98.1-1.92.11-2.57-.84-.25-.35-.47 0-.7.09-.8.27-1.59.56-2.4.75-.38.1-.77.1-1 .44-.52.72-1.21.9-2.03.81a2.7 2.7 0 0 0-2.58.92c-.2.23-.7.28-1.06.27a1.8 1.8 0 0 0-1.5.67c-.34.39-.77.52-1.29.51-.56 0-1.15-.12-1.67.23-.85.6-1.94.77-2.7 1.53-.27.25-.64.58-.95.56-1.23-.04-2.19.56-3.15 1.17-1.31-.04-2.2 1-3.4 1.3-1.3.3-2.16 1.44-3.44 1.87-.68.23-1 1.13-1.93 1.11-1.13-.01-1.07 1.2-1.63 1.77-.2.2-.43.41-.69.49-.6.17-.94.65-1.35 1.04-.07.07-.11.16-.18.22-.2.17-.18.31.03.48 1.11.85 1.15 2.38 2.15 3.31.7.66.92 1.65 1.7 2.27.69.54.8 1.49 1.27 2.17.54.79 1.3 1.42 1.95 2.13.12.13.26.33.25.5-.08 1.03.78 1.46 1.31 2.1.36.45.95.88 1 1.35.07.88.57 1.37 1.1 1.92.27.26.65.56.7.87a6.03 6.03 0 0 0 1.28 2.78c.6.83 1.04 1.78 1.6 2.65.61.94 1.15 1.98 1.93 2.75.8.8 1.42 1.64 1.89 2.66.19.41.65.7 1 1.03.08.05.17.1.3.2Zm125.02-35.52c-.42.23-.26.5.07.83.26.26.69.6.66.89-.1 1.37 1 2.49.7 3.87-.17.84.19 1.47.83 2.01.19.16.3.49.32.75.05.48.02.96.02 1.44-.01.59.06 1.13.57 1.56.27.23.46.59.59.93.43 1.23.92 2.46 1.17 3.73.12.59.63.93.64 1.54.03 1.13-.16 2.3.62 3.3-.13 1.4.29 2.6 1.1 3.73.18.27.09.74.14 1.1.05.44.93 2.69 1.28 3.06.35.38.44.8.5 1.3.02.25.22.5.38.72.4.57 1.02.6 1.42.07.53-.67.77-1.49 1.17-2.23a28.65 28.65 0 0 1 3.05-4.42c1.09-.34 1.3-1.54 2.1-2.14.74-.55.83-1.49 1.45-2.07.7-.66 1.41-1.3 1.33-2.4 0-.15.19-.34.33-.46a9.89 9.89 0 0 0 2.58-3.37c.4-.8 1.27-1.03 1.59-1.83.37-.92 1.24-1.43 1.86-2.16.44-.5 1.15-.91 1.32-1.49.3-.95 1.14-1.47 1.49-2.39.28-.75 1.05-1.37 1.72-1.9.79-.62.96-1.62 1.64-2.3.55-.53 1.3-1.04 1.5-1.7.29-.92 1.24-.83 1.62-1.5.18-.35.25-.92-.07-.99-1.12-.24-1.93-1.15-3.12-1.27a3.72 3.72 0 0 1-2.2-1.19c-.28-.28-.61-.53-1.01-.43-.83.2-1.5-.23-2.14-.59a3.74 3.74 0 0 0-2.17-.52c-1.04.07-2.11.09-3.02-.56-.75-.53-1.56-.56-2.44-.57-1.3-.02-2.66.28-3.9-.47-.29-.17-.9-.2-1.12-.01-.9.74-1.72.2-2.59 0-.54-.1-1.09-.07-1.66-.3-.4-.16-1 .26-1.53.32-.57.07-1.16.02-1.73.05-.58.03-.9.63-1.56.63-.52 0-1.03.4-1.57.5-.56.1-1.15.03-1.73.04l-3.74.08c-.39 0-.8.55-.57.75.66.57.44 1.42.79 2.1.51.98.89 2.04 1.35 3.06a.9.9 0 0 1-.03.9Zm-90.36 35.78v-.04c1.15.04 2.32-.04 3.43.17.48.1.78.12 1.23-.07.51-.21 1.07-.22 1.6-.5a2.02 2.02 0 0 1 2.17.13c.2.15.64.25.77.13.73-.67 1.6-.51 2.46-.52 1.24-.02 2.5.01 3.75-.02.84-.01 1.72.13 2.47-.51.12-.11.54.01.77.14.34.19.66.4 1.03.13.28-.21.35-.85.06-1.32-.5-.8-.9-1.67-1.67-2.29-.5-.4-.68-.88-.2-1.48.39-.5.36-1.08-.02-1.6-.4-.52-.47-1.25-1.07-1.65-.88-.6-1.18-1.45-1.05-2.48.03-.29 0-.58-.02-.87-.02-.4-.18-.63-.6-.82-1.12-.5-1.89-1.3-1.76-2.67.02-.25-.12-.57-.3-.77-.45-.5-.76-1-.91-1.71-.15-.71-.67-1.33-.58-2.15a.97.97 0 0 0-.3-.75c-.65-.52-1.02-1.11-.88-1.98.06-.41-.13-.74-.42-1.01-.56-.53-1.03-1.3-1.69-1.52-.83-.26-1.17.82-1.78 1.22-.31.21-.66.36-.98.55a19.44 19.44 0 0 0-4.74 3.58c-.5.56-1 1.13-1.91 1.1-.3 0-.65.38-.92.63a53.2 53.2 0 0 0-1.84 1.84c-1.84 1.92-3.57 3.97-6.04 5.16-.17.07-.3.24-.43.38-.88.87-1.92 1.56-2.83 2.36-1.02.9-2.28 1.37-3.27 2.2-.67.56-1.56.74-2.09 1.43a5.68 5.68 0 0 1-2.3 1.62c-.98.44-1.55 1.42-2.6 1.7-.15.03-.34.25-.37.41-.14.78-.83.95-1.36 1.3-.62.44-.94 1.23-1.74 1.45-.15.05-.27.2-.4.31.16.08.33.24.49.24 1.64 0 3.27-.03 4.9-.06.38 0 .87.08 1.11-.12.78-.63 1.64-.4 2.49-.44.67-.03 1.35-.05 2.02-.04.56.02 1.1-.03 1.66.26.57.3 1.12-.51 1.82-.32.53.15 1.14-.1 1.65.32.18.15.64.24.76.12.66-.6 1.43-.44 2.19-.46.58-.02 1.17-.15 1.73-.04.6.12 1-.69 1.53-.3.65.47 1.03 0 1.54-.22.33-.15.75-.11 1.13-.12.77-.03 1.54-.03 2.31-.03Zm80.73-39c-.43-.07-.77 0-1.13.2-1.24.67-2.46 1.33-3.84 1.72-1.33.39-1.7.85-3 2.34-.32.36-.66.7-1 1.04-.76.75-1.39 1.73-2.3 2.17-1.15.55-1.01 1.74-1.7 2.46-.46.47-.82 1.04-1.54 1.24-.46.12-.82.53-.94 1.02-.28 1.2-1.22 1.79-2.06 2.53-1.72 1.5-2.22 2.03.15 4.03.66.56 1.5.77 2.11 1.43.82.87 1.53 2.01 2.99 2 .22-.01.45.32.67.51.65.56 1.22 1.34 1.97 1.61 1 .36 1.03 1.32 1.63 1.88.21.19.47.3.7.46.95.63 1.96 1.17 2.8 1.91.86.75 1.77 1.42 2.68 2.1.98.72 1.78 1.7 2.92 2.24.5.24.95.6 1.43.9-.02.8.73.75 1.15 1.08.45.36.84.8 1.27 1.18.28.26.53.65.86.75 1.64.46 2.72 1.67 3.94 2.72.48.4 1.16.6 1.64 1.1.38.4.94.4 1.34.2.58-.3.16-.73.03-1.19-.32-1.17-.44-2.4-1.2-3.41-.5-.68-.2-1.5-.3-2.24-.1-.8-1.15-1.02-1.13-1.91.01-.46 0-1.02-.24-1.37-.48-.71-.24-1.69-1.06-2.29-.92-.67-.34-1.8-.59-2.7a.54.54 0 0 0-.15-.24 2.8 2.8 0 0 1-1-2.56 8.01 8.01 0 0 1-1.11-3.15c-.16-1.13-1.01-2.09-.72-3.29-.8-.64-.26-1.7-.7-2.4-.87-1.37-1.01-3.04-1.96-4.35-.14-.2-.17-.28 0-.48.39-.42.4-.88-.05-1.25a2.2 2.2 0 0 1-.84-2.03c.03-.37.07-.86-.13-1.1-.57-.68-.19-1.6-.54-2.15-.46-.73-.47-1.43-.55-2.18a.54.54 0 0 0-.5-.54Zm-111.84 40.48c.1 0 .2.03.28 0 .72-.4 1.55-.61 1.86-1.57.13-.41.58-.75 1.13-.73.56.02.92-.2.99-.78 1.77-1.4 3.46-2.91 5.26-4.26 1.12-.84 2.35-1.55 3.46-2.43 1.13 0 1.77-1.01 2.72-1.34.66-.23.48-.92 1.06-1.23 1.15-.62 2.17-1.48 3.2-2.3 1.2-.93 2.27-2.02 3.52-2.86.57-.38 1.03-.7 1.39-1.3a8.53 8.53 0 0 1 3.5-3.26c.74-.38 1.73-.56 2.11-1.26.5-.91 1.47-1.12 2.1-1.83 1.11-1.28 2.25-2.61 4-3.1.1-.02.17-.1.24-.16 1.32-1.33 1.64-1.35.22-2.68-.42-.4-.94-.77-1.16-1.26-.33-.73-.74-1.53-1.4-1.74-.97-.32-1.06-1.27-1.7-1.76-.22-.17-.51-.32-.76-.31-.79.03-1.28-.39-1.57-1.03-.45-1.03-1.08-1.78-2.28-1.85-.44-.03-.7-.31-.94-.59-.74-.85-1.9-1.34-2.2-2.58-.05-.2-.24-.18-.42.03-.19.21-.46.4-.56.65a12.96 12.96 0 0 1-2.15 3.95c-.11.13-.13.35-.15.54-.13 1.08-.76 1.89-1.4 2.73-.66.9-.96 2.01-1.7 2.92a32.67 32.67 0 0 0-3.25 4.94c-1.26 2.3-2.35 4.74-4.14 6.73-.24.26-.31.68-.5 1a27.82 27.82 0 0 1-2.48 3.76c-1.25 1.54-1.77 3.53-2.98 5.11-.28.38-.46.82-.53 1.3a5.5 5.5 0 0 1-1.4 2.73 23.92 23.92 0 0 0-3.54 5.43c-.09.18-.08.3.17.4Zm58.64-2.95v.01c.49 0 .97.03 1.44-.02.27-.04.54-.17.76-.32.32-.22.98-2.18.81-2.52-.5-1-.5-2.23-1.36-3.06-.42-.4-.61-.9-.77-1.48-.3-1.17-1.14-2.15-1.32-3.39-1.27-1.43-1.91-3.22-2.77-4.9-.47-.92-.93-1.85-1.49-2.72-.36-.56-1.06-.94-1.3-1.52-.23-.6-.37-1.23-.7-1.82-.7-1.22-1.17-2.55-1.68-3.85-.16-.44-.18-.94-.38-1.35-.66-1.35-1.51-2.63-2.05-4.02-.54-1.4-1.89-2.38-2.02-3.97a6.13 6.13 0 0 1-1.68-3.22 5.62 5.62 0 0 0-1.29-2.49c-.76-.89-1.04-2.08-1.78-2.86-.86-.9-.84-2.09-1.5-3.01-.38-.53-.5-1.26-.92-1.74-.49-.56-.13-1.3-.64-1.85a8.88 8.88 0 0 1-2.07-3.96c-.14-.54-.45-1.03-.7-1.54-.07-.16-.7-.24-.74-.09-.19.9-1.26 1.32-1.34 2.14-.08.88-.54 1.4-1.06 1.95-.33.34-.5.81-.77 1.16-.82 1.06-1.16 2.43-2.04 3.37-1.02 1.07-1.54 2.37-2.25 3.59-.3.53-.2.74.42 1.05 1 .5 2.07.94 2.97 1.6 1 .72 1.75 1.76 2.94 2.22 1.5 1.61 3.54 2.58 4.98 4.27.25.29.52.6.85.78.58.31 1.19.58 1.63 1.1.37.45.96.81 1.1 1.3.23.84 1.16.62 1.46 1.23.11.25.29.5.32.77.05.38.08.78.4 1.03.71.56.87 1.46 1.37 2.14.16.22.25.56.46.65 1.57.66 1.94 1.98 1.94 3.48 0 .64.19 1.1.65 1.51a5.1 5.1 0 0 1 1.7 2.88c.05.27.12.6.3.77.88.8 1.16 1.94 1.75 2.9.14.23.32.66.22.76-.5.6-.24.98.22 1.4.2.19.45.5.42.71-.16 1.46.88 2.48 1.3 3.7.15.44.57.76.51 1.3-.12 1.2.45 2.18.97 3.2.34.66.9 1.24.86 2.07-.03.47.26.67.7.67h1.17Zm56.47-47.74h.05c0-.48.06-.98-.03-1.44a10.98 10.98 0 0 0-1.6-4.15c-.3-.45-.8-.5-1.28-.42-.52.08-1.18.67-1.15 1.12.09 1.3-.42 2.7.57 3.87-.03 1.15 1 2.09.65 3.3-.18.66.56.98.59 1.56.02.58.01 1.16.05 1.74.02.17.14.35.24.5a5.45 5.45 0 0 1 .93 3.8c-.16 1.44 1.25 2.33 1.19 3.71v.29c-.06.7.3 1.24.54 1.86.56 1.38 1.37 2.71 1.24 4.28-.05.65.36 1.07.61 1.57a5 5 0 0 1 .66 2.44c-.02.35.03.87.26 1.05.88.7.94 1.62.9 2.59-.04.69.08 1.3.52 1.88.28.36.6.83.6 1.25-.03.99.67 1.72.72 2.73.03.96.78 1.87 1.09 2.84.45 1.42 1.23 2.73 1.26 4.28 0 .17.1.4.22.5 1.02.84.92 2.26 1.63 3.22.53.73.44 1.63.93 2.37.32.48.24 1.3.17 1.95-.08.85.56 1.38.75 2.1.08.35.48.28.73.18.35-.13.65-.39 1-.5.98-.3.97-.28.7-1.18-.2-.71-.2-1.53-.56-2.15-.58-1-.88-2.07-1.28-3.12-.53-1.39-.95-2.82-1.41-4.23.26-1.1-.3-2.06-.65-3-.36-.97-.33-2.08-.84-2.92-.45-.74-.04-1.58-.48-2.17-.53-.7-.18-1.58-.54-2.16-.49-.8-.56-1.6-.55-2.46 0-.55-.29-.9-.65-1.22a1.53 1.53 0 0 1-.55-1.26c.03-.48-.16-.9-.32-1.35-.42-1.23-.5-2.57-1.34-3.66-.14-.2-.13-.56-.1-.84.11-.9-.3-1.65-.66-2.42-.2-.43-.56-.88-.52-1.29.1-.84-.5-1.44-.58-2.15-.08-.78-.2-1.5-.62-2.15.22-1.1-.5-1.99-.7-3-.21-1.08-.8-2.1-1.23-3.12-.32-.77-.75-1.52-.97-2.32-.18-.75-.13-1.54-.19-2.3Zm-46.9 41.27c-.58.05-1.07-.05-1.32.14-.56.45-1.3.31-1.82.68-.35.25-.49.79-.71 1.2-.38.67.11 1.52-.44 2.19-.34.41.3.61.3.97 0 .2.06.4 0 .57-.1.35-.39.68-.38 1.02 0 .34.42.7.38 1.02-.14 1.13.5 1.77 1.27 2.4.48.39.86.33 1.12-.18.45-.86.69-1.75.58-2.73-.06-.54.26-.9.64-1.2.07-.07.17-.16.23-.15.07.01.18.14.18.22-.11 1.35.83 2.5.7 3.86 0 .12.22.32.36.37.16.05.48 0 .52-.1.66-1.34 1.71-2.45 2.23-3.88a4 4 0 0 0-.07-3c-.25-.5-.58-.98-.78-1.5-.56-1.51-1.88-1.67-2.99-1.9Zm-6.34 9.63-.16-.23c-.7-.88-1.43-1.49-2.6-.65-.2.15-.76-.01-1.05-.2-.45-.27-1-.46-1.35-.22-.96.64-2 .51-3.04.57-.84.04-1.7-.16-2.46.5-.29.25-.92.13-1.34-.19-.32-.24-.68-.4-1.02-.06-.48.46-1.07.31-1.63.35-.76.05-1.55 0-2.28.19-1.74.46-1.72.48-4.06.01-.73-.14-1.66-.24-2.24.08-.93.53-1.85.4-2.78.44-1.73.06-3.47-.04-5.18.08-1.78.12-3.63-.43-5.35.5-.13.07-.46-.31-.73-.38-.28-.07-.55.07-.63.4a.5.5 0 0 0 .38.64c.27.07.57.06.86.06l2.3-.05c.86-.02 1.8.26 2.54-.22.82-.54 1.32.5 2.1.2.44-.15.9-.21 1.29-.53.44.45 1 .48 1.59.47.67 0 1.34.03 1.88-.5.1-.1.43-.12.53-.03.6.51 1.14.6 1.76.03.19-.18.52-.11.78.1.6.45 1.23.52 1.84.03.46-.38.85-.25 1.27.06.43.3.93.28 1.35.06 1.36-.71 2.78-.56 4.16-.24.42.1.64-.03.97-.1 1.56-.33 3.15-.2 5.3.3.28.06.68.15.84.01.87-.74 2.07-.25 2.94-.9.18-.14.28-.1.48.03 1 .7 1.68-.63 2.61-.42.02 0 .08-.13.13-.19Zm4.73 34.37v-.01l-3.73.04c-.83.01-.83.02-1.06.92-.05.18 0 .43-.1.54-.7.78-.35 1.34.27 1.94.72.7 1.44.93 2.28.28.37-.3.7-.17 1.03.06.32.23.67.4 1.02.09.38-.35.83-.4 1.32-.4 1.14 0 2.3.02 3.44-.04.74-.03 1.63.33 2.17-.31.39-.46.1-1.3.65-1.81.05-.04.03-.2 0-.28-.07-.16-.18-.44-.26-.44-1.51 0-2.9-.82-4.44-.63-.85.11-1.72.04-2.58.05Zm-54.23-208.21c-.7 0-1.03-.08-1.27.03-.86.37-1.95.58-2.28 1.54-.45 1.32-.85 2.71-.6 4.16.05.26.2.54.37.74.38.43.83.8 1.23 1.22.45.5 1.03.45 1.6.4.25-.01.65-.15.7-.32.11-.34.16-.81 0-1.1-.29-.48-.77-.84-1.15-1.28-1.04-1.22-.64-2.58.9-3.05.28-.08.6-.09.8-.25.74-.52 1.38-.45 2.1.04.4.26.8.01 1.2-.47.17-.22.2-.35-.03-.44a18.2 18.2 0 0 0-3.57-1.22Zm8.88-10.97c-.05-.17-.06-.45-.15-.49-.35-.11-.72-.13-1.08-.2-1.08-.24-2.19-.46-3.22-.81a6.5 6.5 0 0 0-2.5-.24c-.67.03-1.2.95-1.06 1.73.13.66.66.55 1.12.55l2.28-.01c.66-.02 1.32-.07 1.98-.1.68-.85 1.35.27 2.02.01.17-.07.34-.12.5-.2.06-.05.07-.16.11-.24Zm15.92 10.69c.28-.02.76-.03 1.22-.1.12-.03.26-.28.27-.44 0-.16-.14-.46-.2-.46-1.06.13-2.01-.79-3.18-.2-.51.25-1.32.25-1.9-.28-.23-.23-.5-.16-.78-.07-1.73.54-3.47 1.5-5.11 2.84a.45.45 0 0 0-.16.24c-.01.05.07.14.13.18.07.05.19.12.25.1 1.58-.57 2.97-1.54 4.6-2.03.96-.3 1.9-.52 2.74-.1.66.31 1.27.3 2.12.32Zm-4.34-13.25c-.67.01-1.25 0-1.82.04-.13.01-.23.2-.35.32.07.07.14.18.22.19.75.06 1.59-.08 2.24.2.65.28 1.25.43 1.91.38.87-.05 1.64.23 2.45.5.9.29 1.77.57 2.53 1.14.3.23.6.5.96.57.64.13 1.28-.03 1.91.4.66.46 1.5.06 2.25.15.08.02.19-.21.28-.33-.07-.06-.16-.18-.22-.17-.98.13-1.82-.46-2.73-.55-.8-.09-1.45-.17-2.03-.8-.36-.41-.72-1.02-1.37-.94-.82.1-1.33-.74-2.17-.57-.45.09-1.09.15-1.4-.09-.87-.68-1.83-.37-2.66-.44Zm-1.62 18.48c-.75-.27-1.72.25-2.54.82-.73.5-1.71.18-2.33.93-.12.15-.54.1-.81.08-.63-.06-1.07.27-1.56.57-.2.12-.57.07-.54.38 0 .1.5.24.74.2.9-.2 1.71-.79 2.7-.6.7-.67 1.85-.39 2.52-1.14l3.14-.1c.08 0 .2-.04.24-.1.09-.16.2-.33.19-.5-.02-.15-.14-.4-.26-.42-.36-.08-.74-.07-1.5-.12h.01Zm-27.24 170.9c.95-.01 1.9 0 2.84-.06.1-.01.23-.45.26-.7.01-.08-.34-.3-.41-.26-1.49.8-3.11.47-4.68.53-.38.02-.77 0-1.14.05-.17.02-.38.1-.48.22-.1.13-.18.42-.1.51.23.3-.16.38.15.22 1.15-.62 2.38-.36 3.56-.51Zm17.1-171.94c1.03.09 1.21.03 1.8-.53.1-.09.13-.29.14-.44 0-.05-.14-.15-.22-.15-1.3-.05-2.61.12-3.84-.48-.05-.03-.3.2-.33.35-.04.16.03.46.12.5.86.3 1.73.57 2.33.75Zm93.33 101.9c-.04-.22.18-.82-.37-1-.84-.25-.73.63-1 1.02-.16.22-.21.5-.3.74-.02.07.03.19.08.25.28.33.67.24 1.03.24.33 0 .49-.21.56-.48.04-.17 0-.37 0-.78Zm-70.35-107.9v.01c.38 0 .75.02 1.12-.02a.62.62 0 0 0 .43-.3c.18-.4.55-1 .4-1.2-.37-.54-.77.04-1.15.23-.58.27-1.17.5-1.74.77-.25.1-.28.25-.12.37.07.05.15.14.23.14h.84Zm-19.3-6.13c-.97-.46-1.87.73-3 .62-.07 0-.17.22-.22.35 0 .03.14.17.21.16.56-.03 1.24.12 1.64-.16.7-.47 1.43-.37 2.16-.46.09 0 .16-.21.2-.34.02-.03-.12-.15-.2-.17-.18-.02-.38 0-.79 0Zm-15.47 184.05c.86 0 1.16.03 1.43-.03.28-.05.5-.24.45-.59a.62.62 0 0 0-.08-.25c-.11-.19-.26-.17-.44.02-.37.38-.87.29-1.33.34-.1 0-.18.21-.23.34-.02.02.13.15.21.16.19.03.38.02-.01.01Zm12.7-.66c-.37.01-.74 0-1.1.03-.11.02-.2.2-.29.32.08.05.15.16.23.16l2.18-.06c.07 0 .14-.11.2-.17-.12-.1-.25-.26-.39-.28-.27-.04-.55 0-.83 0Zm26.1-184.81c-.9 0-1.18-.03-1.45.03-.13.03-.22.21-.33.32.07.07.13.15.2.18.26.11.56.15.76.32.45.38.63-.03.86-.26.1-.1.11-.29.13-.44 0-.05-.14-.14-.22-.15-.18-.03-.37-.02.05 0Zm-32.86 184.28c-.33.08-.75-.1-1.02.26a.72.72 0 0 0-.09.53c.05.24.22.27.4.17.33-.17.66-.31 1-.48.08-.04.14-.12.21-.18l-.5-.3Zm20.65-170.2-.16-.46c-.02-.03-.16-.03-.2.01-.2.18-.39.36-.57.55-.14.15-.1.32.15.36.36.06.72.03.78-.46Zm-18.82 171.03c.14.09.27.24.43.27a.7.7 0 0 0 .46-.17c.16-.16-.13-.4-.45-.34-.15.03-.3.16-.44.24Zm22.5-173.3c-.02.06-.08.13-.07.16.03.08.13.18.15.18.2-.1.23-.22.1-.32-.04-.03-.11 0-.17-.01Zm-14.23-.37c-.05-.02-.12-.08-.16-.07-.07.02-.13.1-.18.15l.33.09a.8.8 0 0 0 .01-.17Zm-17.13 173.76c-.05-.06-.11-.16-.16-.16-.06 0-.12.1-.18.15l.26.17.08-.16Zm34.13-184.4c-.03.05-.09.11-.07.16.03.06.1.11.15.17l.09-.32h-.17Z" fill="#284855"/><path d="M96.72 75.51c-.08-.36-.04-.85-.26-1.07-1.26-1.24-1.61-2.98-2.58-4.37-.1-1.62-.95-3.03-1.26-4.58a15 15 0 0 0-.99-3.2c-.28-.67-.26-1.3-.26-1.95 0-.07.1-.16.18-.22.04-.02.16 0 .18.04.13.25.24.5.35.76.37.85 1.17 1.56 1.01 2.59-.17 1.13 1.08 1.46 1.25 2.48.2 1.16.45 2.41 1.48 3.27.17.15.16.52.24.8.55 1.83 2 3.17 2.75 4.89.04.08.12.17.2.2.79.2 1.06 1.04 1.64 1.37.6.34 1.02.87 1.6 1.18.25.13.55.17.78.33.33.23.7.22 1.06.31.63.18 1.27.4 1.8.78.5.36.94-.41 1.48.11.42.4 1.08.23 1.57-.19.42-.34.92-.22 1.39-.2.7.02 1.32-.13 1.78-.7.33-.4.77-.51 1.27-.55.25-.02.55-.2.72-.4.54-.6.87-1.37 1.7-1.76.7-.32 1-1.1 1.33-1.8.11-.25.36-.45.58-.64 1.76-1.62 2.95-3.69 4.32-5.62.87-1.23 1.7-2.48 2.5-3.76.35-.55.77-1.15.84-1.76.08-.74.4-1.24.88-1.73a5.67 5.67 0 0 0 1.44-2.7c.2-.8.74-1.52 1.03-2.3.12-.33.14-.84-.03-1.1-.53-.73-.64-1.87-1.8-2.05-.37-.64-.72-1.29-1.1-1.92-.25-.41-1.39-.5-1.52-.08-.31.97-1.07 1.56-1.72 2.25-.2.2-.45.4-.57.64-.54 1.11-1.08 2.3-2.01 3.03-.98.77-1.69 1.76-2.41 2.68a44.9 44.9 0 0 1-3.93 4.53c-1.4 1.34-2.94 2.37-4.95 2.45-.84.6-1.57.13-2.24-.3-.29-.18-.63-.63-.6-.9.18-1.12-.81-1.93-.7-3.01-.93-1.28-1.14-2.75-1.24-4.3-.04-.8-.61-1.55-.55-2.45a4.05 4.05 0 0 0-.49-2.19c-.28-.54-.13-1.32-.13-2-.01-.66.07-1.34-.48-1.88.86-.72.09-1.33-.1-2.02-.15-.64-.06-1.34-.15-2-.04-.25-.32-.47-.42-.73-.06-.15 0-.45.1-.52.3-.19.54.09.63.3.39.94.78 1.89.98 2.9.25 1.28.78 2.51.65 3.88-.06.75.78 1.3.58 2.16-.16.68.05 1.3.5 1.87.15.19.12.56.08.84-.22 1.65.94 3.1.66 4.76.9.96.45 2.37 1.17 3.42.62.9 1.32 1.26 2.46.9a.64.64 0 0 0 .38-.38c.06-.27.05-.57.05-.86-.05-4.81-.13-9.63-.14-14.44 0-1.26-.91-2.31-.69-3.59-.66-.6-.5-1.4-.55-2.15-.02-.47.08-1.1-.18-1.38-.92-.94.19-1.55.25-2.32.02-.22.21-.18.42 0 .7.57 1.05 1.41 1.15 2.21.1.78.32 1.46.62 2.16.22.5.31 1.03.47 1.55-.56.49.08.8.14 1.21.09.57.06 1.15.07 1.73.02.48-.04.98.35 1.36.17.17.14.28-.02.48-.54.68-.2 1.49-.26 2.23-.05.76-.15 1.54.48 2.19.1.1-.03.55-.17.76-.31.47-.27.84.02 1.3.2.3.36.81.23 1.06-.65 1.17-.52 2.41-.47 3.63.03.64-.5 1.03-.5 1.6 0 .16.11.39.24.47.14.08.45.1.54.02 1.22-1.22 2.42-2.47 3.63-3.7 0-1.03 1.27-.82 1.51-1.53.3-.87.94-1.42 1.48-2.08.35-.43.57-.97.9-1.41.35-.46.8-.85 1.13-1.31.16-.21.15-.53.22-.8.05-.18.08-.48.17-.51.9-.27.78-1.14 1.14-1.73a7.1 7.1 0 0 1 2.63-2.6c.4-.21.58-.43.6-.83.01-.2-.05-.44.05-.56.62-.73 1-1.54 1.28-2.48.27-.87 1.05-1.59 1.43-2.41.47-1.03 1.5-1.5 1.97-2.42.42-.83 1.03-1.11 1.85-1.44 1.2-.47 2.28-1.3 3.34-2.07.44-.31.92-.74.9-1.4a1.52 1.52 0 0 1 .55-1.26c.68-.56.59-1.76 1.52-2a5.41 5.41 0 0 1 2.28-.05c1.23.24 2.15-.7 3.3-.68.88-.8 1.98-.56 3-.56.94 0 1.91-.32 2.8.31.2.15.53.16.81.16.87 0 1.65.2 2.47.5.66.26 1.47.05 2.15.58.3.23.7-.08.75-.55l-.04.04 1.2.53c.03.37-.07.75.22 1.07.62.7 1.42 1.23 1.68 2.21.06.23.37.53.6.57.95.17 1.06.88 1.16 1.64.02.16.6.3.72.17.12-.13.27-.36.22-.47-.4-.92-.84-1.83-1.3-2.73-.08-.16-.23-.35-.39-.4-1.21-.35-1.79-1.6-2.94-2.03-.03-1.05-.59-1.94-.92-2.9-.34-.96-.96-1.81-.9-2.93.02-.52-.73-.9-.54-1.55.05-.18.12-.35.19-.51.12.08.28.13.35.24.37.58.5.6.84.19.43-.51.47-1.08.15-1.58-.33-.52-.5-1.02-.34-1.61.02-.1.09-.2.16-.23.06-.02.17.07.23.13.2.2.56.41.57.63.02 1.4 1.08 2.36 1.4 3.66.27 1.15 1 2.23 1.65 3.26.72 1.16.38 2.63 1.22 3.73-.05.61.31 1.07.57 1.58.83 1.7 1.03 3.43.12 5.18.23.92-.45 1.62-.65 2.43-.22.9-.24 1.92-.66 2.69-.41.77-.17 1.74-.88 2.36.04 1.17-.5 2.17-.9 3.23-.36.94-.87 1.87-.87 2.94-.8 1.02-.47 2.34-1.02 3.47-.48.99-.6 2.15-.7 3.3-.07.8-.44 1.6-.54 2.45-.05.48-.65.9-1.02 1.33-.23.29-.48.2-.68-.04-.18-.21-.4-.44-.48-.7-.18-.61-.52-.7-1.05-.44-.33.16-.7.3-1.05.38-.71.16-1.1-.7-1.87-.58-.64.09-1.35.22-1.93-.28-.07-.05-.2-.13-.23-.11-.83.75-1.5-.46-2.37-.16-1.05.38-2.04-.16-2.95-.69-.34-.19-.65-.43-1.05-.36-.99.17-1.85-.43-2.75-.49-1.64-.1-3-1.02-4.6-1.23-.26-.04-.44-.3-.44-.64 0-1.34-.02-2.7-.04-4.04 0-.4.05-.74.3-1.08.44-.6.22-1.28.18-1.94-.01-.07-.1-.18-.17-.21-.05-.03-.17.03-.22.1-.21.2-.46.38-.59.62-.3.58-.37 1.37-.82 1.77-.86.77-.94 1.83-1.34 2.76-.32.77-.48 1.56-1.03 2.28-.54.7-.5 1.8-1.25 2.47 0 0 .17.31.28.31.47.04.96-.02 1.44.03 1.12.14 2.25-.24 3.38.24.93.4 1.99.53 2.97.73.76.16 1.3.88 2.13.67.73-.2 1.25.38 1.86.6.7.25 1.33.7 2 1.05.25.13.59.14.77.32 1.93 1.85 4.28 3.21 6 5.3.26.3.4.6.47 1a4.77 4.77 0 0 0 1.73 2.86c1.57 1.28 2.39 3.2 3.93 4.5.18.16.15.53.21.8.21.93.93 1.41 1.68 1.81.22.12.6.09.84-.02.52-.23 1.08-.45 1.47-.83 1.18-1.18 2.8-1.56 4.16-2.39.3-.18.72-.22 1.08-.25.94-.07 1.9.08 2.75-.53.3-.22 1.16.5 1.23.97.17 1.1-.26 2.06-.8 2.95-.35.56-.91.99-1.34 1.5-.09.12-.1.4-.02.55.07.14.28.28.44.3.38.04.77.05 1.15.02.62-.06 1.1.12 1.56.55.33.31.8.49 1.2.73.19.12.24.68.05.76a4.62 4.62 0 0 0-2.08 1.85c-.05.07-.03.2 0 .3.06.23.19.28.37.23 2.2-.58 2.89-.57 4.98-.04.36.1.74.14 1.12.14.76.03 1.54.01 2.3.01.68.74 1.63.4 2.43.64.7.22 1.32.75 2.03.98.54.18.93.57 1.56.66 1.71.26 2.84 1.36 3.53 2.94.2.43.45.83.65 1.25.07.16.15.47.07.54-.83.74-.14 1.9-.75 2.69-.33.42-.3.89-.32 1.37-.01.27-.03.59-.17.81-.53.86-1.66 1.36-1.54 2.64 0 .1-.23.32-.38.37-.8.23-1.27.88-1.76 1.44a9.98 9.98 0 0 1-3.48 2.4c-.35.15-.66.36-1.06.33-.87-.05-1.64.27-2.46.51-.88.25-1.86 1.1-2.86.17-2.5.02-5 .03-7.5.07-.53.02-.82.45-1.1.85a.43.43 0 0 0-.07.26c.11.6-.28 1.06-.4 1.59.72.74-.4 1.29-.2 2.09.2.87.33 1.92-.26 2.79-.24.36.1.5.2.72.23.5.5 1 .68 1.53.05.1-.12.32-.23.46-.04.06-.16.09-.25.1-1.82.02-3.65.06-5.48.05-.9 0-1.44-.53-1.48-1.39-.02-.48-.2-1.09.03-1.42.64-.95-.24-1.77-.09-2.65.13-.7-.74-1.1-.6-1.86.13-.59-.07-1.1-.46-1.6-.26-.34.03-.7.24-1.03.1-.15.2-.42.13-.52-.83-1.19.07-2.04.45-3.06.45-1.16 1.37-1.8 2.2-2.57.93.2 1.54-.77 2.42-.67 1.12.12 2.3-.43 3.35.42.13.1.55-.03.76-.17.34-.22.68-.34 1.08-.3.58.08 1.08.53 1.78.03.48-.35 1.33.08 1.9-.43.32-.3.46.15.7.19.38.05.9.23 1.1.06.76-.66 1.63-.53 2.46-.5 2.17.11 3.56-1.11 4.75-2.68.1-.13.1-.42.02-.54-.2-.32-.52-.57-.74-.88-.76-1.07-1.82-1.22-3.03-1.16-.53.02-.87.77-1.54.25-.32-.24-.91-.17-1.38-.17a3.1 3.1 0 0 1-1.62-.46c-.29-.18-.73-.12-1.12-.12-.96 0-1.93.1-2.88 0-1.48-.16-2.8.41-4.13.83-.53.17-1.04.4-1.62.44-1.16.06-1.94-.54-2.08-1.76-.1-.85-.07-1.71-.14-2.57 0-.1-.33-.27-.45-.23-.72.2-1.33.62-2.16.59-.73-.04-1.3.8-2.13.61-.94.74-1.7-.16-2.53-.3 0-.85-1.01-.73-1.28-1.35-.16-.34-.4-.63-.6-.95-.83-1.35-2.36-1.42-3.63-1.97-1.02.2-1.8-.46-2.68-.8-.35-.13-.7-.27-1.02-.47a6.6 6.6 0 0 0-3.76-1.03c-2.44-.01-3.44.04-5.56.88-1.22.47-2.43.96-3.6 1.55-1.33.68-2.72 1.36-4.28 1.23-.74-.06-1.12.72-1.87.6-.66-.1-1.35-.01-2.02.02a2.1 2.1 0 0 0-.83.17c-1.76.92-3.53 1.76-5.6 1.65-1 1.17-2.7-.01-3.72 1.14-.04.05-.18.01-.28.02-1.31.09-2.68-.16-3.9.58-.59-.36-1.13-.15-1.74.05-.98.3-2.12-.3-3.05.48-1.12-.74-2.5.04-3.54-.53-.7-.38-1.03.21-1.52.1-.44-.1-.85-.37-1.3-.48-.45-.1-.97.14-1.39-.18-.7-.54-1.62-.35-2.37-.86a4.09 4.09 0 0 0-1.82-.72 3.7 3.7 0 0 1-2.2-1.19c-.86-.92-1.97-1.5-3.03-2.08-1.28-.71-1.87-1.8-2.33-3.05-.02-.06.05-.18.12-.24.04-.04.15-.07.2-.05.42.22 1.06.34 1.2.69a3.62 3.62 0 0 0 2.79 2.14c.66.15 1.21.83 1.87 1.23 1.1.66 2.2 1.02 3.49.87.86-.1 1.74-.12 2.34.72.1.15.3.24.46.34.08.05.18.05.28.05 1.42-.01 2.85-.16 4.18.51.97-.8 1.9.23 2.91.05 1.13-.2 2.3-.06 3.46-.08 1.06 0 2.13-.1 3.17-.01.92.07 1.53-.75 2.44-.65.76.08 1.55.01 2.3-.06.27-.02.5-.3.76-.38 1.26-.34 2.47-.94 3.84-.79.96.1 1.72-.81 2.74-.58.98.22 1.8-.5 2.72-.58.53-.05.9-.3 1.22-.65.43-.47.89-.75 1.46-.22.18.17.3.14.49-.04.27-.27.54-.7.86-.73 1.25-.14 2.32-.67 3.44-1.17 1.1-.48 2.29-.77 3.41-1.23.26-.1.55-.12.83-.13.48-.04.96-.04 1.45-.06 3.36-.1 3.37-.08 6.8 1.4.77.32 1.58.53 2.38.79.07.02.18-.05.24-.11.05-.04.1-.18.08-.2-1.25-1.43-2-3.22-3.36-4.56-1.83-1.8-3.78-3.5-4.9-5.9-.1-.24-.37-.42-.59-.61-.57-.54-1.08-1.08-1.03-1.97.02-.25-.45-.48-.66-.33-1.03.77-2.4.41-3.45 1.12-.21.14-.6.03-.8.18-1.3.99-2.79 1.11-4.34 1.05a4.08 4.08 0 0 0-1.9.43c-.66.3-1.6-.03-2.23.3a4.8 4.8 0 0 1-2.2.48c-.66.02-1.31-.02-1.88.47-.34.3-.72.03-1.02-.23-.37-.33-.72-.2-.96.13-.22.3-.27.8-.55.96-1.36.77-2.35 1.93-3.46 2.98-.12.1-2.65 1-2.89 1-1.63.02-3.27.02-4.9.06-.54.02-.88-.26-1.24-.59-.28-.25-.54-.55-.98-.53-1.7.12-2.71-1.17-3.92-2-.85-.6-1.36-1.61-2.38-2.02l.08.03Zm60.68-49.28c.06.15.08.36.2.44.14.1.3-.04.2-.2-.07-.12-.28-.14-.43-.2-.02-.46-.03-.92-.06-1.37 0-.07-.1-.16-.18-.2-.03-.03-.16.02-.16.05-.07.25-.15.51-.17.77-.03.4.14.69.6.71Zm.23 20.86-.62-.03.04.03c.03-1.13-.2-2.28.17-3.4.35-1.06.83-2.1.92-3.23.98-.84.3-2.2 1.01-3.2.48-.66-.41-1.71-1.3-1.74-.2 0-.43-.04-.57.06-.4.28-.7.37-1.23.1-.47-.23-1.13-.05-1.68-.16-.64-.13-1.27-.57-1.87-.5-1.3.13-2.44-.38-3.51-.84-.88-.37-1.7-.1-2.5-.34-.9-.27-1.64-.92-2.6-1.05-.27-.04-.56 0-.86-.01-.28-.02-.64.05-.83-.1-1.14-.85-2.41-.38-3.63-.45-.42-.03-.6.24-.79.63-.7 1.45-.87 1.84 1.04 1.68.29-.02.67.1.85-.05 1.02-.8 2.2-.45 3.32-.56.98-.1 1.72.73 2.7.67.52.53 1.24.88 1.43 1.71.11.49.56.74.96 1 1.07.73 1.11 2.04.05 2.7-.3.2-.72.16-1.08.26-.13.04-.24.2-.33.32-.02.03.08.17.15.24.13.14.26.35.42.38 1.22.22 1.09 1.12 1.01 1.98-.03.3-.3.4-.56.55-.62.33-.66.42-.28 1.04.34.54.46 1.05.2 1.6-.35.71-1.14 1.02-1.95.63-.57-.27-.98-.5-1.53-.02-.19.17-.54.22-.8.2-1.98-.17-4.02.57-5.92-.45-.73.15-1.64-.36-2.17.29-.3.35-.25 1.1-.15 1.64.21 1.2-.54 2.2-.56 3.33-.02.95.09 1.89-.5 2.77-.21.33-.13.98.03 1.4.19.55.8.49 1.24.4.8-.14 1.5 1.15 2.34.13.84.57 1.8.36 2.72.38.28 0 .65-.05.83.1.85.72 1.83.44 2.76.46.57.01 1.15 0 1.73-.01.4-.01.76.02 1.07.3.56.53 1.1 1.2 1.91.37.8.82 2 .14 2.93.8.7.52 1.14.22 1.52-.52.32-.6.63-1.15.54-1.87a3.41 3.41 0 0 1 0-1.15c.16-.8.31-1.63 1.13-2.08l-.05-.04.08 2.92c-.16.08-.43.14-.45.23-.07.55-.11 1.1-.11 1.66 0 .08.21.17.34.24.02.01.16-.14.16-.21v-1.96c.86-.41 1.07-1.27 1.12-2.05.08-1.22.88-2.3.63-3.58-.05-.23.11-.6.3-.74 1-.8.76-1.88.75-2.9.16-.07.42-.1.47-.22.66-1.42.92-3 1.77-4.34.13-.2.03-.55 0-.84 0-.08-.08-.17-.15-.22-.04-.04-.16-.04-.2 0-.25.28-.69.56-.69.85 0 .7-.29 1.28-.62 1.83a4.56 4.56 0 0 0-.55 2.98Zm-28.18 14.75c-.81.2-1.91-.4-2.67.24-.77.65-1.27 1.63-1.86 2.48-.2.3-.3.69-.48 1.02a38.28 38.28 0 0 1-3.4 5.19c-.45.6-.82 1.26-1.29 1.85-.47.6-1.02 1.14-1.53 1.72-.02.03.02.15.06.2.06.05.17.12.24.1.53-.18 1.03-.43 1.57-.53.56-.1 1.09-.22 1.64-.42 1.31-.47 2.64-1.03 4.1-.84.69.09 1.27-.18 1.87-.54a3.92 3.92 0 0 1 2.42-.65c.49.06.93-.09 1.34-.38.54-.39 1.35-.11 1.83-.7.42.34.79.3 1.22-.02.2-.14.56-.11.84-.11.66.01 1.4-.11 1.97.14.44.2.65.88.99 1.33.57.75 1.26 1.43 1.7 2.25a13.91 13.91 0 0 0 2.76 3.25c.63.59 1.21 1.2 1.53 2.02 1.04.19 1.11 1.17 1.55 1.85.4.64.76 1.3 1.22 1.9.52.67.62 1.61 1.4 2.12.67.44.8 1.27 1.31 1.83.37.4.67.98 1.32 1.01.55.03.73-.57 1.14-.8 1.14-.63 2.31-1.2 3.36-2.04.44-.34 1.12-.55 1.14-1.1.03-.5-.33-1.05-.6-1.54a3.27 3.27 0 0 0-.76-.86 7.21 7.21 0 0 1-2-2.73 2.81 2.81 0 0 0-.6-.95c-.52-.53-1.09-1-1.36-1.8a2.1 2.1 0 0 0-1.16-1.2c-.86-.28-1.05-1-1.48-1.57-.21-.3-.25-.78-.51-.98-1.5-1.16-1.83-3.3-3.6-4.22-.39-1.19-1.42-1.65-2.34-2.33-.98-.72-2.2-1.14-2.96-2.18-.24-.33-.63-.4-1.04-.37-.59.05-1.08-.2-1.62-.42-1.28-.53-2.7-.66-4.02-1.12a1.77 1.77 0 0 0-.54-.12l-2.7.03Zm42.4 42.92c.9 0 1.69-.13 2.43 0 .94.17 1.5-.8 2.43-.64 1.22.22 2.17-.46 3.1-1.11l2.53-1.8c.15-.1.45-.12.48-.24.31-.96 1.1-1.53 1.7-2.26.06-.08.14-.15.16-.24.03-.18.07-.38.04-.57-.15-1.2.38-2.2.9-3.21.16-.31.3-.8.16-1.08-.46-1-.76-2.15-2.1-2.46-.53-.13-1-.52-1.51-.76-.95-.44-1.5-.14-1.52.8-.02.58.06 1.18-.06 1.74-.14.68-.69 1.25.24 1.9.66.47.62 1.48.2 2.1-.63.88-1.08 2-2.24 2.4-.54.2-.99.5-1.44.88a4.39 4.39 0 0 1-3.13 1.08c-.58-.04-1.31-.2-1.7.07-1.06.76-2.21.43-3.32.56-.28.03-.67-.06-.83.1-.83.77-1.82.44-2.75.49-1.05.05-2.1.07-3.16.05-.59 0-1.1.07-1.6.44-.54.37-1.22.52-1.77.87-.48.3-.83.7-.85 1.38-.08 2.27-.09 2.52.98 5.5.17.48.37 1 .12 1.36-.77 1.07-.31 2.22-.37 3.34 0 .13.24.38.37.38.56 0 1.16.04 1.68-.14.42-.14.74-.52.77-1.1.08-1.5-.35-3.05.48-4.47.04-.07.04-.24 0-.27-1.08-.81.1-1.55.05-2.31-.05-.8.49-1.23.97-1.66.34-.3.87-.4 1.21-.7.78-.67 1.97.05 2.66-.83.4.36.8.35 1.2-.01 1.12.84 2.41.27 3.5.42Zm-29.72-58.67 4.03-.06c.12 0 .25-.2.35-.32.01-.02-.08-.17-.16-.23-.21-.19-.45-.52-.66-.51-1.31.05-2.63-.32-3.94.33-.62.31-1.49.17-2.24.18-.16 0-.33-.18-.47-.31-.19-.18-.53-.34-.34-.64.18-.28.37-.7.85-.54.26.09.61.37.75.28.96-.59 2.02-.6 3.04-.5 1.3.13 2.36-.55 3.55-.78.1-.02.19-.3.21-.46.05-.33-.22-.54-.52-.5-.57.05-.93.56-1.57.55-1.92-.05-3.84.03-5.76.04a.83.83 0 0 1-.51-.15.66.66 0 0 1-.2-.49c.05-.53.49-.93.9-1.01 1.18-.22 2.28-.93 3.56-.7 1.37.22 2.5-.82 3.84-.76.2.02.43-.35.65-.53.18-.16.18-.32-.05-.46-.31-.2-.62-.5-.96-.55a6.11 6.11 0 0 0-4.03.97c-1.26.72-2.71.66-3.97 1.31-.46.24-1.13.06-1.7.05-.32 0-.56-.17-.53-.52 0-.16.09-.44.2-.48.7-.22 1.28-.84 2.11-.72.8.12 1.46-.23 2.15-.57 1.09-.53 2.24-.92 3.4-1.24.18-.05.4-.1.5-.21.1-.12.11-.34.13-.51 0-.07-.07-.19-.14-.22a2.22 2.22 0 0 0-.52-.17c-.8-.15-1.47.15-2.15.54-.67.37-1.35-.8-2.04-.02-1.07-.1-1.88.9-2.99.72a.95.95 0 0 0-.76.3c-.55.6-1.16.83-2 .9-.7.06-1.4.5-2.03.9-.39.24-.7.65-.98 1.04-.26.37-.27.9-.87 1.01-.44.09-.36.62-.58.9-.3.38-.63.73-.98 1.06-.35.34-.49.78-.7 1.2-.48.92-.71 1.95-1.17 2.84-.53 1.03-.37 1.72.15 2.6.66 1.1 1.62 1.88 2.52 2.71.06.06.33-.03.43-.13.66-.59.9-1.42 1.12-2.23.1-.37.13-.74.42-1.02.61-.61 1.13-1.37 1.84-1.82 1.34-.86 2.55-2.51 4.5-1.08.25.18.75.05 1.13.04 1.07 0 2.13-.02 3.19-.03Zm35.22 46.49v-.04c.57 0 1.15.02 1.72-.03.24-.02.3-.22.2-.4-.22-.4-.35-1.07-.66-1.18-.66-.23-.98-.52-.94-1.2.03-.35-.2-.58-.47-.59-.94-.01-1.96-.29-2.8.19-.6.34-.93.29-1.51-.03a5.15 5.15 0 0 0-4.62-.36 4.76 4.76 0 0 1-4.13-.16c-.52-.3-1.2-.29-1.66-.02-.8.49-1.5 1.15-1.93 2.03-.02.05.1.16.15.24.34.41.23.9.26 1.37.01.2-.03.47.08.55.2.16.61.37.71.29 1.45-1.18 3.16-1.15 4.87-1.18.75 0 1.54.18 2.18-.47.08-.1.43-.1.53-.01.82.79 1.83.33 2.75.46.35.05.6.67.96.3.53-.55 1.35-.05 1.85-.61.3-.34.49-.1.53.2.05.32.21.55.5.6.46.05.95.03 1.43.05Zm-23.85-2.1c.14 0 .51.1.7-.03.85-.63 1.89-.8 2.85-1.08 1.26-.36 2.25-1.34 3.63-1.4.34-.01.67-.3 1-.47 1.5-.78 2.99-1.56 4.47-2.36.32-.17.6-.44.88-.67.07-.05.15-.16.14-.23 0-.06-.13-.16-.21-.16-.47-.03-1.03-.2-1.4-.02-.87.45-1.77.56-2.72.56-.26 0-.51.2-.78.28-.53.17-1.16.2-1.56.53-.67.54-.99-.38-1.52-.21-.09.02-.2-.01-.29 0a8.08 8.08 0 0 0-2.97 1.88c-.19.22-.3.44-.63.47-1.3.12-2.05 1.24-3.11 1.8-.36.19-.07.45.1.65.34.38.75.57 1.41.46Zm5-9c.1.86.03 1.4.31 1.97.54 1.06.45 1.03 1.48.62a9.96 9.96 0 0 0 3.22-2.3c.55-.55.66-1.4 1.33-1.77.82-.44.82-1.47 1.56-1.95.17-.1.08-.35-.18-.38-.47-.04-1.05-.17-1.42.03-1.74.93-3.65 1.47-5.38 2.42-.61.34-1 .89-.93 1.36Zm-12.5-51.05c-.42 0-.8 0-1.19.03-.17.01-.33.13-.5.2.1.11.17.25.29.32.32.2.65.38 1 .5.78.29 1.74-.18 2.45.58.13.15.56.07.84.03 1.07-.14 2.05.24 3.03.57l1.3.42c.45-.56.8-.03 1.2.1.26.1.57.04.86.02.08 0 .23-.1.23-.14 0-.14 0-.36-.1-.42-.55-.36-1.11-.95-1.7-.97-1.24-.05-2.32-.79-3.57-.73-.56.02-1.26.14-1.67-.13-.82-.54-1.67-.28-2.46-.38Zm12.31-1.78c-.06.05-.14.08-.19.14a.6.6 0 0 0-.13.23c-.15.92.5 1.56.85 2.3.06-.05.13-.08.18-.14a.53.53 0 0 0 .13-.23c.13-.91-.47-1.56-.84-2.3Zm-2.1-3.29c0-.12.03-.22 0-.3-.08-.16-.2-.3-.28-.45-.1.15-.24.29-.27.44-.03.27-.03.55.03.82.01.09.2.16.33.2.03.01.15-.12.16-.2.04-.18.03-.36.03-.5Zm.23 1.63c-.03.05-.09.13-.07.17.02.07.13.19.15.17.2-.1.24-.23.1-.33-.04-.03-.12 0-.18-.01Zm-36.21-7.9c-.83.22-1.58-.27-2.4-.5-1.52.51-2.47-.72-3.63-1.28-.66-.31-1.13-1.02-1.67-1.57a.56.56 0 0 1-.1-.45c.3-.88.5-1.84 1-2.59a2.7 2.7 0 0 1 1.9-1.05c.85-.1 1.73.1 2.47-.55.16-.15.6-.13.83-.01 2.1 1.07 4.27 2.05 5.9 3.85.44.5.6 2.19.24 2.7a.65.65 0 0 1-.48.24c-.64-.06-1.05.39-1.56.63-1.22.57-1.22.58-2.5.59Zm-2.36-6.32c-.38 0-.77.04-1.15 0-1.2-.14-1.97.5-2.61 1.39-.3.4-.23 1.27.18 1.56 1.14.83 2.3 1.61 3.56 2.24.45.22 1.06-.11 1.34-.63.63-1.13.97-2.51 2.48-2.9.27-.07.28-.28.09-.4-.32-.18-.74-.27-.96-.53-.57-.65-1.28-.78-2.06-.74-.3.02-.58 0-.87.01Z" fill="#284855"/><path d="M96.67 75.47c.02.47.11.98-.38 1.3-.78.49-1.52 1.08-2.53 1.09-.38 0-.74.11-1.06.3-2.5 1.52-5.37 2.05-8.01 3.21-.85.37-1.89.35-2.65.81-.76.46-1.7.27-2.35.94-.08.09-.35.01-.53-.02-.08-.02-.2-.12-.2-.2-.03-.17-.07-.5 0-.52 1.6-.72 2.93-2.07 4.83-2.12.18 0 .46-.01.53-.13.91-1.38 2.62-.85 3.81-1.6.35-.21.92-.15 1.25-.55.47-.55 1.12-.56 1.77-.73 1.52-.4 2.98-1 4.47-1.52.35-.11.73-.15 1.09-.22l-.04-.04Zm59.05-45.17c-.82-.15-.76-1-1.12-1.5a5.95 5.95 0 0 1-1.17-2.52c-.2-1.4-.05-2.86-.05-4.3 0-.06.12-.14.18-.22.06.07.16.13.18.2.05.38.11.75.13 1.13.05.76-.17 1.66.16 2.26.53 1 .5 2.23 1.25 3.1.52.59.39 1.23.39 1.89l.05-.04Zm-63.15-5.36c-.56.62-.33 1.42-.52 2.13-.1.4-.56.7-.89 1.02-.13.13-.67-.11-.7-.3-.02-.09-.04-.18-.03-.27.14-1.13.49-2.16 1.47-2.85.1-.07.35.03.52.09.05.01.1.12.15.18Zm64.44 22.12c0 .18.03.36.02.54-.02.23.01.56-.37.42-.1-.04-.16-.32-.15-.47.03-.3.24-.45.54-.46l-.04-.03Zm-2.2 6.42v-.54c.03-.22-.02-.56.36-.42.1.04.16.32.15.47-.04.3-.25.44-.56.46l.05.03Zm12.87 36.45c.02.06.08.13.07.17-.03.07-.1.12-.16.18-.03-.11-.05-.23-.09-.34l.18-.01Zm-4.68-.04c.06.07.19.17.18.2-.13.28-.28.27-.38-.02-.01-.03.13-.11.2-.18Z" fill="#284855"/></svg>