<svg viewBox="0 0 101 111" fill="none" xmlns="http://www.w3.org/2000/svg"><g clip-path="url(#a)" fill="#284854"><path d="M46.52 91.66c.66.23.71.76.68 1.35-.08.03-.2.05-.24.11-.05.09.02.16.11.1.06-.04.07-.15.1-.24.43.14.62.7.55.87-.26.69.18.54.38.32.83-.89 1.87-.36 2.8-.49.3.87.94.22 1.41.3.48.07.98-.09 1.45.14.1.05.2.17.28.16.8-.09 1.44-.78 2.4-.35.8.37 1.72-.04 2.5-.38.44-.19.86-.13 1.26-.23.67-.17 1.2.67 2 .15.4-.27 1.14-.5 1.78-.19.16.08.32-.05.37-.22.15-.48.4-.42.73-.2.29.21.68.23.94.1.64-.32 1.23-.71 2-.5.47-.72 1.55-.17 1.99-.95.05-.08.17-.12.27-.16.55-.18 1.2.32 1.68-.3.43-.53 1.15-.43 1.65-.74.55-.35 1.14-.31 1.7-.43.96-.22 2.02-.6 2.92.27.24.25.35-.07.52-.1.71-.1 1.05.15 1.14.8v.17l-.1 1.65c.83-.19 1.7-.27 2.46-.6.4-.17.71-.45 1.18-.4.2.01.47 0 .63-.1 1.18-.87 2.52-.49 3.8-.56.6-.03.94.24.95.86.01.44.72.84.05 1.29.15.15.36.46.45.43.28-.1.53-.47.8-.02.26.42.46.88.34 1.4-.05.2-.2.37-.3.56-.35.76-.35.76.48.79.22 0 .38.06.52.3.33.55.44 1.17.25 1.72-.08.23-.67.25-.88.7-.17.36-.56.66.21.6.6-.06.76.2.74.75-.01.55-.01 1.07-.33 1.56-.28.43-.32 1.08-1.05 1.02-.04 0-.13.05-.13.08-.2 1.2-1.29 1-2.05 1.34-.58.25-1.27.33-1.64.95l-1.55.35c-.34-.16-.5.11-.7.28-1.26 1.01-1.87 1.18-3.48 1-.37-.05-.73-.12-1.07.2-.55.54-1.15.95-1.97.45-.17-.1-.42 0-.55.23-.08.13-.22.38-.26.36-.58-.2-1.02-.27-1.56.26-.35.34-1.04.26-1.54-.06-.12-.08-.15-.03-.27.02-.89.37-.9.37-1.89.18-.83-.15-1.6.23-2.33.5-.47.19-.75.5-1.15-.04-.16-.22-.26.07-.4.1-.99.17-1.91.85-3 .43-.53-.21-.71.92-1.35.37-.54.43-1.05.21-1.66.09-.38-.09-1.13-.37-1.47.35-.06.13-.2.15-.25.06-.43-.73-.97-.34-1.54-.23-.58.12-1.23-.08-1.8.07-.54.13-.89.18-1.42-.16-.53-.35-1.24.03-1.71.43-.43.36-.74.44-1.09-.02-.23-.31-.65-.44-.86-.26-.55.44-1.3.05-1.7.4-.52.45-.96-.14-1.48.16-.47.26-1.19.07-1.8.08-1.25.05-1.22-.03-2.16-.4-.48-.19-1.08.08-1.62.2-.2.04-.43.3-.58.14-.69-.8-1.44-.26-2.13-.1-.28.05-.47.14-.73-.05-.65-.49-1.43-.51-2.19-.46-1.51.11-3.06-.33-4.54.3-.5-.51-1.25-.05-1.7-.34-.55-.38-1.11.3-1.61-.2-.14-.14-.52-.1-.79-.1-1.68.06-3.27-.6-4.94-.66-.26 0-.4-.17-.55-.31-.16-.14-.28-.4-.53-.33-.61.17-1.24.42-1.78-.08-.52-.49-1.17-.1-1.72-.37-.58-.27-1.2-.46-1.77-.75-.3-.16-.47-.03-.73.08-.51.22-1.13.26-1.55-.09-.83-.7-1.74-.58-2.6-.31-.4.12-.6.12-.85-.15-.44-.5-1.27-.27-1.66-.92-.13-.2-.5-.14-.76.01-.63.38-1.34-.17-1.97.2-.1.04-.4-.08-.42-.17-.25-.87-1.08-.75-1.68-.95a7.74 7.74 0 0 1-3.22-2.33c.83-.94-.34-1.28-.6-1.83-.43-.88-.66-1.77-.89-2.7-.23-.96.58-1.9-.15-2.74-.01-.02.02-.1.06-.13 1.27-1.15 1.17-3.13 2.5-4.23.23-.19.29-.42.36-.7.1-.4.26-.86.54-1.15a5.33 5.33 0 0 0 1.53-2.44c.18-.71 1.15-.73 1.74-1.1.18-.12.54-.57.96-.1.37.4.57.78.47 1.31-.01.1-.06.2-.13.28-1.37 1.23-2.3 2.77-3.28 4.3-.38.59-1.2.93-1.3 1.71-.08.78-.95 1.08-.96 1.89 0 .22-.34.45-.23.74.27.73-.32 1.5 0 2.14.37.73.23 1.6.79 2.28.26.31.38.77.72 1.06.25.21.66.48.66.71-.04.98.82.84 1.3 1.14.54.35 1.45-.46 1.83.55.63.18 1.25.44 1.93.2.08-.02.2.06.3.11.32.22.5.8 1.07.37.42-.31.6.82 1.18.25.08-.08.49.67 1 .33.3.38.87.41 1.19.41.84 0 1.66.01 2.5.11.48.06 1.01-.36 1.5 0 .46.33 1.12 0 1.51.51.04.06.17.08.25.07 1.01-.22 1.51-.32 1.9-.12.42.22.76.42 1.2.08.3-.23.62.16.66.22.41.68 1.04.77 1.67.6.91-.24 1.77.01 2.6.23 1.1.3 2.23.36 3.34.6.3.07.55-.48 1.07-.2.41.23.9.38 1.3.63.5.28.89-.01 1.2-.25a.82.82 0 0 1 1.12.07c.3.3.43.71.72.03.04-.1.29-.07.44.04.5.36 1.14.37 1.55.08.52-.37.83.17 1.18.06.4-.12.65.1.94.13.68.08 1.22.63 1.83.56.6-.07 1.24.03 1.8-.16.47-.17.92.16 1.17.07.4-.14.89-.07 1.2-.4.1-.1.17-.09.28.01.7.63 1.5.1 2.25.17.51.05 1.1.42 1.55-.24.13-.18.5-.14.76.04.48.32.86.37 1.14-.3.11-.27.54-.23.72-.08.33.3.8.11 1.05.36.3.31.54-.1.85.06.6.33.77-1.08 1.4-.5.58.5 1.2-.06 1.74.3.17.1.45 0 .42-.33-.05-.42.13-.88-.16-1.28-.51-.73-.38-1.48-.21-2.31.1-.54 0-1.1-.3-1.56-.36-.53-.58-1.05.13-1.48.23-.14.02-.24 0-.37-.13-1.3-.52-2.58-.31-3.92.03-.22-.11-.48.08-.73.26-.34.2-.8.03-1.08-.32-.52-.63.13-.98.16-1.16.08-2.34.22-3.45.63-.2.06-.5.09-.64-.02-.59-.44-1.17.21-1.8-.1-.66-.3-1.41-.62-2.16.05-.25.22-.8.13-1.22-.17-.6-.44-.65-.4-.88.37-.2.67-.39 1.26-1.16 1.63-.6.3-1 .85-1.61.05-.06-.08-.56.23-.68.14-.65-.5-1.77-.42-1.97-1.51-1.52-.83-2.28-2.68-4.11-3.07-.3-.07-.48-.25-.65-.47-.06-.08-.04-.22-.1-.3-.3-.33-2.06-1-2.16-.83-.32.64-.04 1.22.13 1.86.18.72.78 1.51.09 2.3.57 1.24-.18 1.62-1.2 1.82-.36.99-.97.4-1.56.28-1.2-.23-1.99-1.25-3.16-1.52-.16-.03-.28-.31-.36-.5-.07-.15 0-.44-.09-.47-1.06-.45-1.23-1.52-1.77-2.35a50.67 50.67 0 0 1-1.55-2.51c-.54-.93-1.75-1.29-2.8-1.63-.1-.03-.27-.04-.33.01-.85.94-1.8.19-2.7.16-.08 0-.25-.1-.25-.09-.43.92-1.23.17-1.83.41-.6.24-1.2-.28-1.85-.2-.7.1-1.43 0-2.14.05-.38.02-.63-.19-.9-.35-.87-.56-1.69-1.21-2.58-1.74-.48-.29.03-.77-.34-1.05-.31-.23-.55-.54-.83-.81-.38-.37-.12-.86-.24-1.25-.23-.77-.56-1.5-.76-2.28-.23-.91-.2-1.91-.82-2.75a1.4 1.4 0 0 1-.02-1.28c.44-.68 0-1.24-.06-1.84-.05-.61-.3-1.17 0-1.83.18-.41-.13-.92-.16-1.37-.02-.4.56-.75.26-1.27.6-.35-.12-.83.14-1.3.22-.38.12-.96.1-1.45 0-.36.15-.6.35-.9.46-.68.87-1.37.72-2.3-.1-.59.83-1.44 1.47-1.47.37-.02.77-.13 1.11.15.9.73 2.17.6 3.05 1.37.74-.1 1.4 0 1.96.63.2.24.33-.14.5-.23.6-.36.35-1.21.94-1.65.48-.35 1.13-.27 1.55-.82a5.7 5.7 0 0 1 1.59-1.54c.58-.36.95-1.36.82-2.08-.08-.48.05-.77.12-1.17.07-.42.43-.84.06-1.34-.16-.2-.01-.53.21-.73.25-.23.3-.4.18-.8-.15-.48.58-1.05 1.14-1.13a2.12 2.12 0 0 1 1.66.5 8.43 8.43 0 0 0 2.93 1.62c.85.27 1.7.77 2.34 1.4.86.84 1.95 1.22 2.94 1.8.29.16.73.3.73.55-.01.56.37.68.65.99.24.26.31.68.72.81.1.03.25.1.26.16.1.48.12 1.06.74 1.13.38.05.29.98.89.44.36.32.7.6 1.25.67.4.04.86.62 1.14.52.82-.27 1.62.33 2.44-.14.38-.22.97-.22 1.43-.3.6-.11 1.22-.02 1.76-.22.45-.17.77-.78 1.22-.9 1.33-.33 2.49-1.24 3.99-1.06.86.1 1.55-.67 2.4-.84.1-.01.22-.14.23-.22.13-1.35 1.34-1.06 2.07-1.19a2.43 2.43 0 0 0 1.65-.88 2.96 2.96 0 0 1 1.73-1.14c.43-.09.7-.3.95-.57.43-.45.86-.69 1.42-.21.2.17.41.08.57-.1.36-.39.74-.68 1.27-.33.36.24.55-.24.87-.16.55.11.62-1.06 1.28-.59.45.33.97.14 1.4.36.23.12.42.3.73.12 1.02-.6 2.27-.65 3.26-1.25 1.04-.63 2.17-.79 3.3-1.07.74-.18 1.49-.08 2.23-.17.6-.07 1.14-.35 1.71-.35.5 0 1.05.03 1.53.1 1.47.18 2.97.18 4.4.6 1.54.44 3.13.7 4.59 1.3 2.4.98 4.98 1.72 6.5 4.12 1.2.83 1.59 2.22 2.28 3.39.27.44.76.78.88 1.24.23.89 1.3 1.51.83 2.6.38.88.82 1.73 1.09 2.64.16.54-.17 1.13.13 1.77.62 1.28-.04 2.62-.03 3.94-.47.36-.03.73.1.97.17.35.86.6.84.85-.03.43-.18.77.26 1.07.2.13.22.42.01.56-.58.37-.38.91-.11 1.21.46.51.04 1.23.54 1.69.05.05.02.2 0 .3a11 11 0 0 0 .03 5.1c.05.2.1.57-.1.6-.64.08-.23.63-.44.91-.22.28-.45.7-.4 1.03.06.45-.23.78-.22 1.2.02.44-.05.97-.71.98-.26 0-.51.2-.37.38.54.7-.2.8-.43 1.2-.56.92-1.3 1.74-1.58 2.8-.1.37-.2.5-.6.6-.67.16-1.09.62-1.12 1.4-.02.43.01 1.15-.84.63-.25-.16-.47.19-.69.33-.69.44-.98.36-1.49-.32-.41-.56-.34-.8.25-1.45.66-.73 1.46-1.28 2.2-1.9.55-.47 1.15-.88 1.33-1.6.23-.96.9-1.56 1.54-2.23.33-.34 1.05-.63.46-1.33-.02-.03.17-.25.28-.36.5-.56.71-1.24.6-1.96-.08-.62.69-1.2.05-1.81-.03-.04.02-.26.09-.29.68-.35.27-1 .44-1.48.27-.7-.18-1.13-.45-1.63a1.24 1.24 0 0 1-.08-.95c.26-.78.12-1.52-.39-2.02-.5-.49.2-1.06-.26-1.4-.5-.38-.3-.9-.39-1.37a5.5 5.5 0 0 0-1.44-2.84c-.27-.3-.8-.53-.32-1.06.09-.1.09-.2-.04-.26-.65-.3-.96-.8-.9-1.53a3.2 3.2 0 0 1-1.2-1.15c-.25-.35-1-.42-.72-1.1a8.8 8.8 0 0 0-2.1-1.87c-.22-.14-.52-.1-.52-.47-.01-.22-.03-.46-.3-.52-.95-.23-1.68-.9-2.49-1.4a1.54 1.54 0 0 0-.9-.3c-.27.02-.63.06-.8-.08-1.07-.92-2.18-.64-3.35-.28-.44.13-.98.17-1.43-.13a.84.84 0 0 0-.78-.11c-.39.13-.57.8-1.1.5-.58-.31-.66.46-1.07.42-.5-.04-.76.39-1.13.58-.85.43-1.8.61-2.3 1.61-.12.25-.66.53-1.13.5-.27-.03-.54.04-.77.19-.97.65-1.8.12-2.57-.42-.18-.12-.1-.34-.5-.22-1.05.3-1.98.12-2.6-1-.33-.62-1.06-.9-1.67-1.2-1.3-.61-1.42-.75-1.01-2.05.15-.5-.01-.55-.4-.62-1.2-.23-1.2-.24-.9-1.44.03-.1.08-.21.07-.3-.11-.83.18-1.38 1-1.58.29-.06.34-.26.27-.48-.07-.18-.31-.2-.43-.12-.39.28-.72.33-1.2.13-.5-.2-.6.48-.96.66-.22.1-.31.56-.63.31-.73-.55-1.23-.25-1.71.37-.24.3-.62.35-.98.5-1.36.54-2.83.89-4 1.84-.21.16-.37-.3-.52-.03-.1.17-.06.59-.13.6-.76.12-1.23.94-2.02.88-.66-.06-1.14.29-1.65.6-.18.12-.34.26-.53.38-.35.21-.74-.43-.98-.07-.19.26-.31.62-.61.72-.4.12-.72.51-1.21.37-.46-.14-.85.12-1.22.34-.98.58-1.47.9-2.1.63-.76-.33-1.29.18-1.9.3-.33.07-.63.31-.93.06-.73-.59-1.69-.17-2.46-.64-.53-.32-1.25-.73-1.76-.6-.66.17-.77-.15-1-.51l-.53-.82c-.37.27-.41-.11-.63-.24-1.1-.65-1.48-1.91-2.45-2.66-.3-.22-.37-.76-.87-.86-.36-.08-.48-.86-1.04-.36-.02.01-.2-.1-.25-.19-1.03-1.26-2.55-1.76-3.87-2.56-.6-.37-1.18-.76-1.76-1.13-.2-.13-.3-.52-.63-.17-.16.16-.37.41-.24.56.52.54.2.86-.2 1.23-.1.1-.17.35-.12.43.68.97-.7 1.88-.07 2.83-.37.42-.82.79-.7 1.48.04.19-.33.25-.54.22-.44-.06-.75.12-.99.45-.8 1.08-2 1.77-2.73 2.94-.34.56-1.23.55-1.56 1.23-.04.07-.35.1-.47.02-.92-.52-1.93-.59-2.95-.74a3.22 3.22 0 0 1-1.62-.65c-.28-.23-.93-.15-1.36-.45-.4-.28-.54-.07-.6.35-.27 1.7-.62 3.4-.7 5.14-.03.72-.45 1.41.01 2.14.12.19-.08.4-.16.61-.27.63-.5 1.28.01 1.92l.1.13c.24.5-.54.85-.2 1.38.23.34.48.7.44 1.12-.12 1.2.49 2.23.66 3.36.02.15.17.3.15.44-.19 1.14.45 1.95 1.07 2.78.22.3.4.64.58.97.45.8.45.83 1.53.82.33-.01.6.1.68.34.2.66.45.56.8.14.15-.18.46-.28.6-.16.63.56 1.45-.31 2.05.3.6-.58 1.47-.12 2.16-.58.37-.25.9.58 1.49.08.49-.43.98.54 1.49.1.55-.48.99-.06 1.5.05.6.13.98.42 1.4.88.54.57 1.24.94 1.43 1.81.05.23.51.34.77.53.22.17.42.38.22.69-.12.19-.28.34.1.43.5.13.75.47.66.98-.07.46.2.73.5.98.88.76 1.64 1.65 2.6 2.34.4.28.76.37 1.2.33.04.08.05.2.12.24.08.06.16-.02.1-.1-.04-.06-.16-.08-.23-.11.02-.19.14-.34.3-.33.6.03.78-.23.69-.8-.13-.8-.23-1.6-.37-2.4-.04-.2-.22-.38-.26-.58-.14-.6-.72-2.42-1.05-2.66-.5-.38-.31-1.07-.88-1.44-.5-.31-.82-.92-1.21-1.4-.3-.37-.48-.37-.6.13 0 .06-.22.14-.25.11-.46-.36-1.06-.19-1.54-.4-.32-.13-.52-.42-.44-.8.08-.36.16-.75.71-.54.34.13.53-.27.84-.31.14-.02.26-.28.4-.05.3.5.73.15 1.08.22.95.2 1.6.84 2.01 1.78.26.6.35 1.3 1.12 1.68.4.2.55 1 .69 1.56.15.6.44.38.74.23.2-.09.37-.22.54-.35.16-.13.29-.34.52-.1.45.45 1.18.29 1.65.84.38.44 1.23.43 1.52 1.05.28.6.92.2 1.29.6.36.39.83.7 1.31.93.37.17.76.33.77.75.04.92 1.22.87 1.36 1.7.04.23.21.12.34.03.3-.23.64-.05.95-.14.3-.08.63-.21.84-.43.1-.1-.13-.46-.15-.7-.04-.56-.08-1.12-.02-1.67.05-.52-.14-.8-.6-.99-.14-.05-.34-.32-.32-.34.7-.9-.36-1.09-.63-1.57-.18-.33.1-.51.11-.75.02-.26-.4-.18-.54-.47-.4-.9-1.59-.53-2.15-1.26-.08-.11-.72.09-1 .28-.4.3-.81.27-1.24.27-.23 0-.48 0-.55-.25-.08-.25-.13-.59.14-.75.87-.54 1.76-1.27 2.81-.94a9.6 9.6 0 0 1 1.7.83c1.45.83 1.46.83 2.22 2.32.2.41.48.73.79 1.02.34.34.17.73.25 1.1-.08.03-.2.05-.24.1-.05.1.03.17.11.11.16-.04.18-.14.2-.23Zm32.38 1.32c.08-.04.2-.04.25-.1.06-.09-.02-.18-.11-.12-.07.03-.08.16-.12.24-.08.04-.2.05-.24.12-.06.08.02.16.11.1.06-.03.08-.15.11-.24Zm9.6-34.51c-.56-.42-1.13-.84-1.92-.7-.26.05-.59.09-.76-.18-.59-.9-1.6-.6-2.37-.72-1.55-.25-1.58-.11-2.38-.74-.23-.19-.4-.27-.68-.08-.16.1-.43.02-.64.07-.5.13-.95-.37-1.46-.14-.35-.54-1.06.49-1.36-.33-.07-.2-.26-.07-.38.02-.35.27-.78.17-1.11.1-.81-.19-1.52 0-2.27.26-1.05.37-2.13.63-3.18 1.04-1.02.4-1.82.93-2.58 1.74-.72.77-1.86 1.1-2.54 1.98a.41.41 0 0 0-.1.13c-.1.25-.03.43.23.51 1 .3 1.86-.16 2.35-.89 1.04-1.52 2.82-1.33 4.18-2.08.12-.07.32.01.49 0 .37-.01.65.07.63.53-.02.38.07.85-.54.77-.63-.07-1.1.53-1.72.37-.5-.13-.58.94-1.21.41-.03-.02-.17.1-.26.16-.2.13-.22.36-.31.55-.12.23-.3.47-.6.53-.63.13-.82.82-1.41 1.08-.42.2-.68 1.02-.48 1.38.32.6.85-.02 1.27-.16.24-.08.45-.3.64-.48.65-.66 1.27-1.34 2.1-1.8.78-.41 1.74-.43 2.36-1.25.23-.3 1.1.12 1.29-.66 0-.05.22-.1.3-.05.35.2.59.47.53.93-.05.32.03.64-.46.7a2.3 2.3 0 0 0-1.64.96c-.45.63-1.32.1-1.78.67-.05.07-.21.06-.29.12-.65.56-1 1.42-1.95 1.69-.21.06-.35.64-.4 1-.02.3.43.2.6.4.42.5.67.5.66-.24 0-.15.16-.26.35-.28.81-.06 1.3-.7 1.94-1.08.42-.26.55-.8 1.03-.9.63-.15 1.32-.19 1.3-1.11 0-.15.12-.18.22-.11.69.51 1.05-.27 1.58-.4.4-.12.74-.4 1.21-.42.56-.01.59.4.74.7.25.5-.3.25-.43.42-.16.2-.45.36-.7.38-.84.06-1.47.65-2.14 1-.7.38-1.17 1.14-2.07 1.33-.45.09-.58.89-.34 1.43.31.69.72.01 1.08.07.32.06.47-.2.7-.36.62-.43 1.34-.75 1.87-1.27.58-.58 1.35-.64 1.97-1 1.28-.77 2.68-.99 4.07-1.3.55-.14 1.2-.49 1.7-.31 1.01.36 2.1.19 3.1.72 1.2.64 1.92.07 1.95-1.31 0-.28.1-.67-.03-.82-.5-.53.2-1.15-.05-1.45-.52-.63.28-1.03.08-1.53.08-.04.2-.05.23-.12.06-.09-.02-.16-.1-.11-.05.02-.07.14-.1.23Zm-7.65 38.16c-.42-.06-.88.2-1.27-.12a.93.93 0 0 1-.22-.25c-.16-.27.11-.2.21-.28 1.14-.78 2.6-.6 3.76-1.32 1.71.1 2.84-1.14 4.19-1.85.18-.1.34-.29.28-.55-.07-.28-.3-.28-.51-.28-.93 0-1.8.27-2.63.65-.81.38-1.77.36-2.48 1-.63-.6-.85.41-1.36.35-.63-.08-1.17.23-1.66.56-1 .69-2.3-.05-3.27.75-.03.02-.1-.02-.15-.04-.56-.4-1.07-.29-1.67 0-.59.27-1.3-.05-1.41-.46-.1-.34.45-1.02 1.02-1.11 1.28-.2 2.47-.6 3.55-1.35.83.14.93-.59 1.22-1.07.26-.43.03-.58-.4-.58-.27 0-.6-.1-.8.01-.84.48-1.98.22-2.63 1.11-.14.2-.41.28-.59.18-.73-.42-1.1-.05-1.53.53-.19.26-.6.42-1.1.22-.6-.24-.42.84-.98.89a.79.79 0 0 1-.44-.14c-.27-.17-.52-.23-.63.15-.08.25-.25.38-.48.34-.26-.04-.56-.29-.73-.2-.24.11-.2.65-.67.55-.4-.09-.67.57-1.05.3-.54-.38-.99.11-1.49.05-.54-.08-1.04.14-1.56.25-.75.17-1.5.23-2.26.54-.9.36-1.03.18-1.02.9.01.53-.11 1.07.1 1.62.18.44-.2.9.09 1.47.25.53-.04 1.3.11 1.95-.66.51-.57 1.05-.1 1.63.2.23.17.53.05.78-.67 1.36-.08 2.61.3 3.9.14.53.47.61.95.58.55-.03.72-.72 1.26-.68.53.05.97.5 1.55.33.21-.05.47.06.66-.02 1.25-.54 2.67-.2 3.9-.79.1-.04.22-.1.27-.08.88.61 1.52-.05 2.25-.38.34-.15.72-.45 1.15-.07.29.26.65.28.98.01.41-.32.9-.36 1.39-.32.83.06 1.57-.14 2.33-.52a2.8 2.8 0 0 1 1.64-.36c.57.06 1.34-.11 1.94-.35.7-.29 1.32-.77 2.15-.45.12.04.33-.04.44-.14.25-.21.49-.45.7-.7.35-.44.64.3.98.03.25-.2.46-.64.8-.44.5.31.93 0 1.08-.26.3-.47.72-.68 1.16-.77.57-.1.76-.46 1.03-.9.61-1-.16-.4-.47-.53-.54-.2-.95-.33-1.52 0-.49.27-1.36-.26-1.6.69-.01.02-.25.03-.3-.03-.46-.44-.75-.1-1.12.16-.56.37-1.1.87-1.9.32-.4-.27-.66-.5-.34-.6.55-.18.67-1.05 1.43-.82.32.1.63-.03.92-.25 1.05-.8 2.49-.56 3.58-1.29.72.53 1.03-.14 1.44-.5l.76-.6c.08-.08.42-.19.16-.22-.55-.06-1-.68-1.52-.4-.72.39-1.6.23-2.26.76-.53.4-1.16.48-1.82.58-.48.07-1.05-.06-1.51.42-.66.7-.74.64-1.4-.09-.3-.35-.28-.64.13-.69.47-.05.8-.33 1.2-.46.35-.1.75-.52.97-.43.76.3.4-.64.83-.65.15 0 .31-.14.45-.12.63.08 1.1-.4 1.74-.38.98.04 1.4-1 2.2-1.35.16-.06.16-.21.01-.21-.62.02-1.09-.7-1.82-.24-1.46.91-3.23 1.04-4.76 1.81-.58.3-1.21.47-1.88.32Zm16.23-28.17c0-.3 0-.52-.3-.72-.46-.33-.93-.86-.95-1.39-.02-.77-.55-1.3-.65-1.94-.09-.65-.85-.7-.83-1.44.01-.5-.38-1.28-1.28-1.21-.15.01-.43-.23-.47-.4-.25-1.25-1.5-1.42-2.24-2.15-.17-.17-.46-.1-.5.15-.04.4-.46.63-.2 1.2.37.83.45 1.86.12 2.75-.23.62.1 1.11.05 1.68-.02.22.12.33.36.44.88.4 1.96.5 2.4 1.58.63 0 .93.33.96.96 0 .13.2.3.34.34.77.22 1.01 1.04 1.66 1.43.5.3.88.9.84 1.5-.06.64.46.77.66 1.16.12.22.22.39.46.33.26-.07.22-.33.23-.54a4.75 4.75 0 0 0-.43-2.5c-.28-.49-.7-.72-.23-1.23Zm-18.9 25.02a.8.8 0 0 0-.1-.1.74.74 0 0 0-.1.1l.15.1.05-.1Z"/><path d="M35.02 59.78c-.52-.06-.9-.64-.69-1.09.22-.43.6-.75.84-1.2.3-.52 1.16-.45 1.35-1.33.14-.62.96-.97 1.56-1.36.35-.24.59-.6 1.04-.76.2-.07.75-.1.65-.5-.15-.55.2-.63.54-.75.44-.16.2-.58.34-.84.2-.33.48-.64.55-1 .2-.97.43-1.98-.02-2.96a4.73 4.73 0 0 1-.45-1.4c-.08-.64-.56-1.2-1.09-1.7-.7-.69-1.04-1.76-2.12-2.08-.42-1.17-1.73-1.68-2.08-2.96-.34-1.24-1.34-2.22-1.57-3.54-.86-.36-.18-1.65-1.17-1.94.06-.71-.3-1.4-.13-2.15.09-.35-.12-.86-.35-1.2-.7-.99-.36-2.07-.4-3.13.52-.22-.55-.97.35-1.07-.23-.42.17-.75.16-1.14-.03-.5.02-1-.02-1.5-.04-.48.25-1.02.47-1.15 1.27-.76 1.71-2.36 3.14-2.96.37-.16.64-.58 1.14-.48.23.04.45 0 .59-.2.83-1.12 2.23-.96 3.31-1.49 1.43-.7 3.21-.7 4.28-2.1.83-.08 1.46-.58 2.16-.95.97-.51 1.08-.75 1.82-2.01.43-.74 1.02-1.37.99-2.33-.01-.2.32-.43.5-.63a.64.64 0 0 1 .28-.18c.1-.03.66 1.16.61 1.3-.4 1.08-.38 1.06.23 1.8.3.36.98.67.37 1.32.52.89 1.09 1.76 2.11 2.15.15.06.39.04.45.14.8 1.4 2.62 1.48 3.58 2.75.27.36.82.41.46 1.03-.1.16.07.3.23.36.87.4 1.04 1.16 1.06 2.01 0 .56-.08 1.05.54 1.55.48.4.73 1.37.7 2.07-.04 1.07.92 2.07.16 3.15.46.7.17 1.48.27 2.22.07.52-.56.89-.33 1.4.46.99.07 1.83-.28 2.73-.14.34-.2.86-.05 1.12.4.61.2 1.24-.08 1.63-.61.87.08 1.76-.25 2.62-.15.38.07.86-.27 1.25-.12.14-.18.47-.1.61.6.94.1 2.07.58 3 .19.38.06.76.09 1.14.05.74.28 1.11.89 1.54.32.23.61.51.24.95-.17.2-.13.4.07.56a6.23 6.23 0 0 1 2.1 2.65c.12.23.2.37.44.37.3.02.59.1.55.45-.06.56.21.92.55 1.3.24.26.05.5-.14.7-.21.23-.35.06-.55-.02-.25-.11-.51-.17-.68-.41a5.5 5.5 0 0 0-2.01-1.75c-.3-.15-.41-.44-.5-.8-.11-.54-.55-.67-1.14-.5-.7.2-1.61.81-2.16 1.47-.2.25-.37.53-.75.56-.3.02-.55-.3-.73-.23-.19.06-.25.44-.4.66-.3.4-.74-.28-.82-.05-.3.83-1.1.5-1.6.8-1.2.73-2.58.7-3.9.76-.36.02-.76-.04-1.16.03-.52.1-1.1-.15-1.59.24-.6.46-.74-.63-1.2-.38-.35.19-.48-.12-.73-.16-.5-.05-.98.65-1.36.27-.37-.36-.64-.63-1.18-.63-.56 0-.76-.57-1.13-.88-.7-.6-1.03-.6-1.62.11-.2.25-.35.54-.49.83-.2.42-.64-.1-.77.15-.63 1.22-1.83 1.77-2.83 2.56-.17.13.17.54-.19.77-.25.15-.65.11-.7.58-.03.24-.34.23-.56.23Zm11.5-42.83c-.03-.09-.05-.2-.12-.24-.08-.05-.16.03-.1.12.04.06.15.07.23.1-.43.36-.49 1.41-1.45.76-.06-.04-.25.18-.39.2-.44.04-.7.37-.88.68-.36.59-.89-.2-1.1.14-.24.4-.77.85-.91.77-.62-.35-.73.1-1.12.35-.45.3-1.1.36-1.6.7-.45.33-1.1.27-1.5.74-.4.47-1.02.48-1.55.66-.17.06-.39.14-.36.25.16.74-.56.71-.86 1.04-.68.74-1.42 1.45-1.18 2.62.1.5.04 1-.42 1.34-.23.19-.04.35 0 .54.07.3.48.51.24.86-.3.45.05.8.1 1.2.07.55.7 1.08.37 1.53-.53.72-.08 1.21.13 1.8.34 1 1.12 1.85.92 3.02-.03.17.09.37.24.37.68.05.17.9.78 1.09.44.13.5.77.71 1.19l.67 1.3c.7-.27.66.4.86.71.26.38.22.4.8.85.37.3.45.79.71 1.16.12.16.34.26.5.4 1 .87 2.16 1.63 1.98 3.23 0 .1.02.23.09.3 1.21 1.04.15 2.42.53 3.58-.53.5-.14 1.28-.57 1.84-.17.21-.1.66.41.66.39 0 .92-.03 1 .38.17.76.83.67 1.26.8 1.06.36 2.31.9 3.29.4 1-.5 1.82-.26 2.74-.22.33.01.63.02.94.2.33.2.59.1.94-.25.44-.45 1.16-.87 1.76-.85.9.02 1.59-.3 2.27-.76.27-.2.48-.48.84-.21.14.1.26.15.35-.07.33-.85 1.07-1.15 1.85-1.45.17-.07.29-.3.43-.46-.56-.37-.02-1.1-.48-1.5-.34-.31-.66-.64-.2-1.1-.28-.34-.57-.66-.83-1a.34.34 0 0 1 .01-.46c.56-.66.42-1.37.08-2.03-.34-.64-.05-1.3-.19-1.94-.05-.3.3-.39.23-.72-.12-.53.16-2 .33-2.43.2-.52.62-1 .13-1.61-.15-.2 0-.52.21-.74.2-.19.43-.37.4-.68-.13-1.44.24-2.82.34-4.23.06-.82-.56-1.64 0-2.47.05-.09-.08-.3-.14-.45a7.22 7.22 0 0 1-.3-2.4c.05-.23-.04-.3-.13-.38a2.24 2.24 0 0 1-.66-1.77c.06-.8-.7-1.14-.73-1.8-.06-1.47-1.14-2.28-2.02-3.21-1.23.04-1.72-1.12-2.6-1.66-.7-.44-1.46-.94-2.05-1.52-.58-.57-.4-1.62-.84-2.37-.15-.25-.27-.08-.53-.05-.95.12-.5 1.12-1.07 1.5-.9.58-1.68 1.38-2.79 1.65Z"/><path d="M56.45 4.97c-1.03.09-1.94-.08-2.41-1.18-.08-.18-.3-.42-.47-.44-.88-.08-1.61-.58-2.37-.91-.57-.26-.96.3-1.48-.02a2.38 2.38 0 0 0-1.36-.44c-.96.04-1.91.23-2.82.55-.93.34-2.04.23-2.8 1.04-.19.2-.54.16-.76-.03-.23-.2-.44-.12-.5.09-.21.6-.73.78-1.23.85-.98.14-1.5 1-2.28 1.42-.14.07-.14.43-.42.38-.67-.11-.83.51-1.23.78-.6.38-1.17.8-1.65 1.28-.52.51-1.44.73-1.42 1.76 0 .28-.46.6-.75.84-.45.36-1.1.58-.86 1.36-.62.45-.8 1.24-1.3 1.76-.43.47-.6.95-.71 1.58-.16.89-.17 1.82-.58 2.68-.2.43-.22.94 0 1.47.27.63-.07 1.31-.1 1.98-.07.97-.01 1.96-.25 2.91-.02.1-.04.3.01.32.9.44.13 1.25.4 1.86.22.52.17 1.17.4 1.72.16.35-.24.53-.2.88.08.6.06 1.21.05 1.82-.02.4.04.85.14 1.15.3.93.16 1.84.16 2.76 0 .5.36 1 .26 1.4-.1.36-.17.8-.16 1.12.02 1.8-.98 3.45-.77 5.29.04.33-.16.76-.39 1.04-1 1.22-1.34 2.67-1.55 4.16-.07.49-.52.86-.37 1.4-.85.7-.62 1.67-.64 2.59 0 .38 0 .77-.08 1.14-.1.5-1.08 1.12-1.53 1.03-.4-.08-1.07-1-.9-1.46.35-.95.04-2.05.76-2.94.35-.43.19-1.14.26-1.7.15-1.3 0-1.34.8-2.29.58-.7.7-1.56.96-2.36.26-.78.05-1.73.95-2.24.11-.07.14-.3-.01-.44-.3-.3-.27-.57.02-.84.26-.23.48-.46.4-.84-.42-1.94.19-3.86.06-5.8-.07-1.09-.25-2.15-.37-3.22l-.01.02c.12-.04.28-.05.23-.23-.01-.06-.15-.09-.23-.13l.01.02c-.07-.81.07-1.62-.27-2.42-.19-.42-.1-.99-.05-1.48.17-1.41.19-2.45-.18-3.4-.15-.4-.17-.7.03-1.08.2-.39.39-.74.19-1.3-.26-.7.51-1.52-.05-2.29.24-.72.07-1.5.35-2.22.28-.75.62-1.47.89-2.22.1-.31.29-.59.53-.8.44-.43.78-.93.85-1.54.06-.44.29-.66.65-.86a3.47 3.47 0 0 0 1.44-1.65c.5-.98 1.06-2.16 2.42-2.35.15-.02.42-.13.42-.18-.1-1 .66-1.08 1.33-1.3.23-.09.42-.36.59-.57.96-1.2 1.62-1.49 3.15-2.07.92-.36 1.97-.58 2.7-1.22 1.48-1.28 3.17-.88 4.82-.96.96.7 2 .24 3 .13.39-.04.7-.14 1.05.1.7.48 1.49.82 2.31 1 .95.22 1.66.86 2.35 1.48.68.61.6 1.47.54 2.3l.03-.04Z"/><path d="M56.43 5c.37-.02.3-.4.45-.6.26-.33.58-.49 1-.41.6.1 1.18.68 1.82.05.04-.04.32.06.42.17.31.37.68.5 1.16.46a.7.7 0 0 1 .75.53c.18.8.85 1 1.45 1.1a2 2 0 0 1 1.46 1.07c.62 1.04 1.73 1.71 2.09 2.94.1.36.4.63.34 1.06-.1.63.9.76.72 1.46.66.4.48 1.31 1.04 1.79.1.09.2.33.16.43-.31.68.11 1.2.35 1.76.34.84.63 1.69.73 2.62.06.48-.03 1.05.41 1.55.46.5.36 1.34.15 1.9-.26.65-.1 1.3-.23 1.93-.13.62-.04 1.28-.35 1.9-.1.2-.11.55.1.77.76.82.25 1.73.12 2.58-.05.36-.25.64.02 1.02.14.2.11.53-.08.76a.83.83 0 0 0-.1.93c.33.68.4 1.32-.03 2.01-.14.24-.03.65.04.96.16.73.57 1.47.5 2.17-.07.7.12 1.33.09 2-.04.7.14 1.37.24 2.06.13.8.86 1.48.5 2.4-.08.2.2.67.42.83.89.62.98 1.67 1.38 2.52.38.82.65 1.69 1.2 2.42.1.12.4 2.2.4 2.38.02.53-.41.71-.74.93-.27.19-.62-.52-.95-.02l-.15-.43-.25-1.93c-.22-.49-.35-1.03-.77-1.41-.25-.23-.26-.42-.03-.67.05-.06.05-.26 0-.3-.25-.2-.55-.35-.79-.57-.2-.2.26-.5-.1-.8-.67-.56-1.03-1.47-1.38-2.33-.4-.99-.71-2-1.07-3-.11-.32-.22-.6-.22-.94 0-.65-.08-1.27-.28-1.9a2.97 2.97 0 0 1-.07-2c.25-.62.1-1.2-.08-1.79-.06-.2-.28-.44-.22-.58.42-1-.1-2.09.31-3.05.27-.62.29-1.25.34-1.9.08-.85.28-1.69.45-2.52.03-.15 0-.3.03-.4.22-.84-.62-1.55-.17-2.45.4-.78.06-1.66-.15-2.44-.13-.49.4-.85.07-1.34-.26-.39-.4-.88-.55-1.33-.11-.33.45-.54.24-.89-.15-.25-.58-.21-.66-.66-.04-.25-.08-.41-.02-.7.1-.4.36-1-.38-1.2.14-.6-.06-1.03-.48-1.48a3.04 3.04 0 0 1-.87-1.41c-.08-.38-.4-.75-.65-1.1a4.21 4.21 0 0 1-.85-1.99c0-.15 0-.33-.08-.47-.21-.48-.74-.37-1.1-.58-.4-.25.07-1.15-.34-1.12-.77.06-.85-.8-1.61-.85-.77-.05-1.48-.76-2.32-1.02a3.13 3.13 0 0 0-1.72-.11c-.79.19-.79.19-1.07-.8l-.04.03Zm-26.1 68.5c-.01.42.12.94-.58.92-.19 0-.34.07-.38.23-.11.48-.53.69-.82 1-.63-.44-1.38-.08-2.03-.31-.2-.07-.34-.28-.5-.44-.1-.1-.2-.14-.24-.04-.04.1-.06.2-.05.31.1 1.33.06 1.4-.8 2.27-.15.14-.2.37-.34.53-.17.22-.36.42-.57.6-.3.23-1.13.21-1.2-.04-.1-.38-.3-.92.23-1.11.4-.14.37-.5.6-.71.53-.48 1.13-1 1.07-1.85-.04-.43.07-.96-.13-1.28-.24-.38-.81-.17-1.23-.17-.53 0-.57-.28-.65-.71-.17-.86.5-1.3.88-1.84.19-.28.78-.2 1.18.11.5.38.68.98 1.06 1.45.28.33-.14.66-.29.96-.16.35.09.4.25.33.57-.26 1.11.05 1.67.04.54-.02 1.11.1 1.5-.44.19-.26.5-.19.75-.26.64-.18.63-.2.62.45Zm-1.99-5.32c-.3.39-.54.91-.95 1.19-.33.21-.83.1-1.19-.27-.38-.38-.63-1.14-.44-1.48.26-.47 1.41-.72 1.9-.36.3.22.64.43.68.92Zm-8.6 6.18c-.28-.02-1.2-.94-1.2-1.2 0-.36.89-1.08 1.29-1.05.4.03.92.57.92.93-.01.6-.58 1.35-1 1.32Zm7.63-44.14c-.13-.02-.28-.03-.23-.22 0-.05.15-.07.23-.1l-.01-.02v.35l.01-.01Zm18.2-1.26c-.48.43-.35 1-.35 1.54 0 .28.07.37.36.21.32-.18.66-.38 1.01-.45.29-.06.7-.16.88.2.15.29-.17.48-.27.72-.18.48-.65.52-1.03.68-.23.1-.54.06-.81.02-.4-.05-.7.67-1.16.15a3.98 3.98 0 0 1-.43-1.9c.1-.81.82-1.54.18-2.46-.17-.24.2-.9.4-1.33.1-.23.33-.48.63-.4.25.09.48.3.53.59.02.2.02.5-.1.61-.55.45-.34.9-.09 1.36l.25.46Zm5.56 6.25c0 .71-.87 1.7-1.77 2-.6.21-1.3.07-1.84.5-.18.14-.28.02-.4-.07-.24-.2-.42-.47-.82-.45-.42 0-.73-.25-.72-.7 0-.26.9-.7 1.17-.5.4.3.82.21 1.24.22.68 0 1.24-.17 1.58-.84.27-.54.77-.52 1.28-.47.16.01.3.1.28.31Zm-11.09-6.96c-.86-.08-1.48-.71-1.44-1.45.05-.73.83-1.6 1.4-1.53.73.09 1.3.75 1.25 1.45-.04.48-.89 1.56-1.2 1.53h-.01Zm10.32-6.61c.32.33.66.24.99.3.58.1.98 1.1.63 1.63-.18.27-.48.43-.54.8-.03.17-.26.2-.41.17a2.7 2.7 0 0 1-1.7-1.3c-.2-.33.16-.46.21-.7.09-.42.49-.65.82-.9Z"/></g><defs><clipPath id="a"><path fill="#fff" d="M0 0h101v111h-101z"/></clipPath></defs></svg>