<svg viewBox="0 0 119 100" fill="none" xmlns="http://www.w3.org/2000/svg"><g clip-path="url(#a)" fill="#284855"><path d="M118.36 22.03c-.07.48.34.98-.2 1.4-.13.1-.12.45-.08.67.09.54-.01 1.06 0 1.6 0 .7-.18 1.26-.62 1.82-.4.5-.45 1.22-1.01 1.64-.2.16-.09.46-.12.68-.02.19 0 .5-.1.53-.94.32-.81 1.3-1.2 1.96-.37.6-.85 1.14-1.42 1.56-.26.2-.5.34-.4.63.21.6-.63 1.13-.21 1.62.48.58-.36 1 0 1.6.21.37-.18 1.03-.1 1.59.04.19.07.4.01.57-.3.93-.27 1.81.27 2.66a.33.33 0 0 1 .02.28c-.43.81.07 1.62.01 2.43-.06.86-.01 1.73-.02 2.6 0 .27.07.56-.15.82-.2.23-.25.6-.11.8.47.72.29 1.36-.13 1.97-.2.3-.1.49.04.76.28.54.6 1.08.17 1.72-.21.31-.11.64.17.9.39.34.47.75.06 1.1-.4.34-.16.52.08.77.08.09.16.34.13.36-.65.45-.3 1.14-.43 1.7-.01.1-.12.2-.1.26.51.99-.25 1.74-.46 2.6-.07.28-.27.6-.02.78.66.49.38.98.06 1.46-.24.36.37.73-.11 1.14-.32.27.38.83-.02 1.26.3.29-.1.8.33 1.06.23.14.06.3 0 .47a.97.97 0 0 0-.07.56c.13.53.48 1.05.02 1.58.23.47.44.94-.02 1.41.64.86-.13 1.71-.02 2.58.04.27.06.63-.08.83-.38.59-.16 1.08.1 1.6.2.38.46.74.1 1.16-.22.25-.03.43.1.63.15.27.11.58.05.84-.26.96-.39 3.02-.16 3.9.04.16.25.31.12.5-.5.74-.38 1.45.04 2.17.04.07 0 .19 0 .28.01.35-.62.62-.4.74.4.22.46.47.4.8-.14.54.4 1.04.03 1.6-.29.44.05 1.04-.18 1.42-.28.48.38.77.05 1.19-.24.3-.51.67-.2 1.1.04.06-.02.2-.06.27-.73 1.33-.75 1.32-.76 2.48 0 .5-.02.88-.66.78-.4.68-1.43.32-1.81 1.09-.04.06-.27.05-.41.05-1.5.06-2.94.34-4.37.76-.31.1-.7.18-.97.08-.8-.3-1.61-.03-2.38-.18-.77-.15-1.62.15-2.33-.38-.9.33-1.81-.08-2.69.05-.83.12-1.62.42-2.45.05-.18-.08-.26.06-.33.15-.3.4-.58.3-.97.07-.74-.45-1.44-.18-2.08.29-.47.35-.7.4-1.13-.07-.2-.23-.32-.29-.56-.13-.2.13-.45.21-.55.39-.34.58-.78.44-1.19.2a2.22 2.22 0 0 0-2.36-.11c-.2.1-.33.24-.6.07a.96.96 0 0 0-1.08.07c-.07.06-.23.1-.24.09-.73-1-1.63.1-2.47-.22-.62-.23-1.4.6-2.13 0-.03-.04-.15.06-.24.08-.45.12-.77.65-1.4.24-.26-.17-.83.3-1.32.23-.19-.03-.43.04-.55-.06-.3-.23-.55-.3-.88-.03a.53.53 0 0 1-.66-.04c-.92-.77-1.81-.22-2.73.01-.58.16-1.11.48-1.75.4-.33-.04-.64.06-.78-.41-.07-.24-.48.2-.66-.14-1.04.4-2.09.4-3.14.02-.4-.14-.65.25-1.06.27-1.17.04-2.36-.3-3.5.18-.03.01-.09-.03-.12-.05-1.38-.8-2.83.09-4.23-.16-.86.45-1.86.09-2.73.47-.2.09-.35.09-.5-.05-.25-.21-.55-.1-.83-.13-.42-.03-.84.23-1.2.21-.43-.02-.9-.4-1.31-.13-.38.25-.82-.4-1.1.16-.51-.12-.98-.25-1.56-.12-.45.1-.98.16-1.48.15-.66 0-1.3.32-2.02.05a1.67 1.67 0 0 0-1.5.16c-.1.08-.3.12-.4.06-.81-.45-1.7.2-2.52-.24-.32-.17-.76.29-.89.2-.9-.56-1.71.14-2.57.13-.8-.01-1.59-.06-2.37-.14-.99-.1-1.96-.16-2.9-.48-.62.41-1.3.08-1.95.13-.16.02-.3.15-.51.03-.75-.4-1.55-.54-2.38-.7-1.07-.23-2.19-.33-3.19-.9-.38-.22-.89-.2-1.1-.7-.08-.21-.3-.19-.49-.19-.24 0-.5.03-.64-.2-.43-.71-1.17-1-1.78-1.48-.79-.62-1.23-1.55-1.9-2.3-.68-.76-1.08-1.71-1.55-2.62-.04-.08-.15-.17-.14-.24.16-1.31-.69-2.6-.13-3.93.04-.08-.17-.3-.13-.33.76-.9.86-2.23 2.1-2.88.68-.35 1.2-.89 2.03-.73.26.05 1.54.56 1.8.86.13.15.2.28.41.29.1 0 .2.01.28-.03.24-.1.04-.24-.03-.3-.31-.29-.26-.54-.18-.97.1-.52-.3-1.12.1-1.7.04-.06-.05-.34-.11-.36-.53-.12-.47-.52-.45-.9.02-.45-.44-1 .22-1.35.05-.03.03-.18.06-.27.2-.68-.5-1.29-.24-1.92.26-.66.43-1.24 0-1.89-.1-.13-.08-.39-.02-.56.25-.81.32-1.62-.02-2.43-.02-.03.02-.1 0-.14-.23-.43.7-.27.39-.82-.17-.3-.1-.74-.12-1.12v-1.16c.02-.27-.1-.6.17-.8.82-.68.52-1.5.26-2.27-.13-.39-.08-.72-.07-1.1.03-.72.3-1.38.3-2.13-.02-.7.1-1.48.23-2.21.14-.79.09-1.7.87-2.27.28-.2.3-.45.06-.73-.2-.24-.16-.57-.08-.82.18-.48.39-.98.7-1.38.29-.4-.18-.77.2-1.25.4-.51.57-1.36.51-2.12-.02-.23-.07-.62.16-.64 1.02-.1.72-.6.44-1.16-.04-.09.08-.26.13-.38.29-.6.86-1.2.8-1.76-.07-.68.35-1.1.42-1.64.05-.4.32-.67.4-1.04.03-.17.3-.36.19-.5-.55-.64-.06-1.14.18-1.67.09-.19.12-.36.13-.55.04-.67-.29-1.3-.04-2.03.21-.64.06-1.42.04-2.14 0-.23 0-.55-.14-.67-.38-.36-.23-.79-.34-1.18-.1-.4-.58-.76-.63-1.22-.09-.6-.49-.95-.9-1.23-.6-.4-1.37-.6-1.66-1.4-.06-.18-.3-.26-.49-.22-1.03.24-1.88-.4-2.82-.61-.18-.04-.4-.27-.5-.21-.66.35-1.34.39-2.08.25-.72-.13-1.35.44-2 .46-1.03.05-1.97.81-3.04.4a.52.52 0 0 0-.29 0 8.7 8.7 0 0 1-4.68-.05c-.27-.6-.78.25-1.08-.17-.26-.36-.64-.35-1.02-.39-.5-.05-.44-.73-.98-.89-.67-.2-.9-.99-1.35-1.49-.35-.38-.38-.97-.83-1.36-.41-.35-.48-1.03-.26-1.45.24-.48 0-.79-.02-1.18-.03-.42-.67-.84-.06-1.28-.21-.4.12-.73.17-1.07.14-1.04.7-1.9 1.03-2.85.2-.55.4-1.17 1.23-1.15.28 0 .61-.26.82-.49.27-.3.44-.15.72-.05.61.2 1.18-.2 1.76-.3a31.6 31.6 0 0 0 2.27-.57c.63-.17 1.36-.29 1.64-1.1.1-.27.36-.59.76-.58.56 0 .85-.45 1.1-.82.37-.55.69-1.11 1.35-1.36.16-.05.25-.25.32-.45.37-1.12.63-1.4 2.05-2.3.07-.05.17-.1.2-.17.77-1.43 2.17-2.3 3.12-3.57.89-1.18 2.16-2.05 3.35-2.99 1.07-.83 2.36-1.21 3.38-2.08.36-.31.9-.09 1.36-.22.91-.26 1.73-.81 2.73-.87.36-.02.69-.24 1.04.03.1.08.3.13.4.08.74-.4 1.42-.05 2.09.2.26.09.41-.02.63-.06.76-.13 1.47-.27 2.27.26a6 6 0 0 0 2.05.72c.5.1.85.29 1.2.62.51.47.86 1.15 1.69 1.22.41.04.41.59.65.88.2.24.52.24.7.6.4.75 1.26 1.2 1.48 2.1.03.13.19.22.3.31.74.62.67.64 1.12 1.93.3.86.68 1.77 1.28 2.4.61.64.66 1.38.91 2.1.08.2.1.44.2.65.86 1.66 1.17 3.53 2 5.2.12.23.1.55.1.84-.01.39-.01.76.35 1.02.22.16.22.4.22.65 0 .2-.05.4.02.57.26.64.72 1.24.8 1.89.09.66.3 1.26.48 1.87.14.46.64.86.16 1.4-.03.03.04.17.08.25.21.46.2 1.03.7 1.34-.56.65.14.89.43 1.25.12.15.24.32.17.5-.15.48-.3.9.4 1.04.15.04.15.22.16.36.01 1.13.01 1.13.41 1.86.07.13.15.25.18.38.09.45-.24 1.13.2 1.32.72.32.22.95.56 1.36.26.31.17.87.39 1.31.45.9.8 1.86 1.22 2.78.1.21.29.41.2.65-.34.95.08 1.75.62 2.38.47.55.48 1.2.74 1.79.19.46.02 1.06.55 1.4.14.09.13.28.04.38-.28.32-.14.54.02.88.3.6.14 1.4.87 1.82.11.07.27.54.26.76-.05.98.47 1.68 1 2.4.22.29.33.66.47 1 .25.63.36 1.33 1.04 1.71.13.08.23.31.25.49.18 1 .95 1.7 1.3 2.61.03.09.1.16.14.23.05-.07.13-.14.15-.23.1-.5-.1-1 .15-1.54.2-.45.9-.57.76-1.22.52-.19.6-.45.28-.95-.16-.25.2-.52.42-.67.41-.29.8-.58.96-1.1.08-.3.26-.52.56-.59.24-.06.3-.21.3-.41-.05-.8.53-1.29.98-1.8.21-.23.47-.37.44-.74-.02-.25.06-.4.34-.53s.63-.4.7-.66c.3-1.07 1.28-1.73 1.53-2.8.08-.3.45-.2.51-.42.1-.3.48-.62 0-.95-.22-.15-.3-.42-.07-.6.44-.36.44-.82.41-1.3-.05-.94.2-1.9-.27-2.8-.05-.12-.06-.32 0-.43.44-.68.02-1.35-.06-2-.06-.52-.2-.99-.12-1.56.09-.57.01-1.15-.21-1.67-.08-.17-.18-.36-.16-.53.1-1.2-.46-2.33-.32-3.53.04-.3-.01-.57-.28-.76-.26-.18-.32-.46-.3-.76.06-.46-.04-.86-.44-1.14-.41-.28-.42-.7-.4-1.15.05-.71.26-.82.97-.63.52.14 1.04.2 1.04.91 0 .17.1.26.24.3.89.27 1.02 1.14 1.1 1.81.07.69.55 1.06.77 1.61.08.21.44.32.67.48-.2.23-.22.51-.23.8-.02.4.18.67.52.77.5.15.5.54.68.93.2.46.13 1.06.64 1.38.23.14.22.45.15.66-.2.55.4 1.05.05 1.6-.11.19.11.35.24.48l.78.84c.25.27-.14.73.28.95.1-.36.34-.54.72-.48.55.09.66-.42.71-.71.12-.56.54-.8.84-1.17.37-.46.63-.76 1.22-.7.27.02.37-.28.57-.39.53-.3.46-1.01.9-1.33.43-.32.88-.56.86-1.2 0-.14.16-.18.29-.26a2.85 2.85 0 0 0 1.41-1.84c.13-.5.3-.99.55-1.42.17-.3.44-.47.15-.86-.07-.1.06-.45.2-.6.36-.41.66-.8.53-1.4a.54.54 0 0 1 .17-.52c.89-.8 1-1.86.97-2.97a2.5 2.5 0 0 1 .3-1.36 4.3 4.3 0 0 0 .7-2.57c0-.15 0-.25.08-.35.92-1.35 1.12-2.2 1.55-3.81.23-.83.35-1.72.72-2.51.4-.84.48-1.85 1.29-2.46.31-.24.2-.62.35-.91.49-.95.97-1.91 1.4-2.9.5-1.14.9-2.35 1.82-3.26.04-1.26 1.5-1.37 1.89-2.37.08-.24.46.27.72.1.47-.33.74-.05 1.04.27.5.55.97 1.08 1.26 1.82.4 1.02 1.17 1.86 1.56 2.94.5 1.35 2 1.66 2.95.96.5-.36.75-.94.98-1.5.2-.54.17-1.22.84-1.5-.03-.6.35-1.06.6-1.56.41-.88 1.24-1.23 2.14-1.4.46-.1 1.3.42 1.55.93.06.12.02.34.1.39.64.42 1.04.9 1.2 1.74.15.68.7 1.32 1.2 1.87.28.3-.56.69.18.89.33.08.38.7.4.98.08 1.56 1 2.8 1.41 4.22.15.49.5.91.4 1.47-.02.1-.03.23.01.28 1.1 1.23.9 2.8 1.12 4.27.09.6.17 1.22.35 1.78.19.57.19 1.06.24 1.55Zm-15.45 71.98v1.84c0 .13.13.34.17.27.32-.5.8.3 1.1-.17.17-.26.44-.27.74-.33.68-.12 1.44-.2 1.44-1.2 0-.15.19-.34.34-.44.73-.48.87-1.17.8-2-.03-.45-.08-.91.2-1.38.27-.41-.07-1.03.3-1.47-.39-.46-.05-1.08-.28-1.5-.25-.48.25-.96-.18-1.41-.19-.2-.14-.64.1-.94.12-.15.19-.32.06-.5-.32-.45-.25-.86-.01-1.33.22-.44-.37-.85-.19-1.34.02-.04 0-.1.03-.13.4-.53.27-.96-.2-1.37-.16-.13-.2-.4-.1-.52.38-.45.12-.88-.02-1.29-.17-.5.24-.95.06-1.46-.23-.66 0-1.37-.26-2.09-.2-.56.16-1.34.3-2.02a5.17 5.17 0 0 0-.08-3.19 2.58 2.58 0 0 1-.16-.66c-.04-.42.33-.86-.1-1.28-.02-.02.24-.27.21-.34-.24-.63.58-1.12.2-1.77-.35-.59.2-1.13.13-1.75-.1-.85.06-1.73-.05-2.58-.05-.45.54-.74.17-1.2-.08-.09-.14-.34-.1-.37.21-.18.45-.38.7-.44.45-.08.29.34.4.57.35.72-.1 1.52.28 2.22a.34.34 0 0 1-.01.28c-.37.63-.28 1.3-.03 1.9.14.33-.44.56 0 .87.28.2.4.47.14.85-.23.31-.19.8-.06 1.11.47 1.21.26 2.43.11 3.64-.02.22 0 .33.1.48.56.88-.23 1.91.3 2.8.02.05-.07.2-.13.24-.48.27-.33.64-.11.93.28.38.06.67.05 1.01-.01.43-.53.7-.24 1.2.36.64.5 2.07.33 2.84-.06.24-.2.41-.01.64.19.24.24.55.03.79-.27.3-.14.63-.19.96-.05.44.17.81.28 1.2.13.43-.4.73-.3 1.22.07.32.03.66.33.9.1.07.25.17.16.33-.4.78-.14 1.6-.17 2.4-.02.67-.03 1.33-.32 1.93a3.65 3.65 0 0 0-.28 1.65c0 .36.16.82-.22 1.06-.55.36-.14 1.02-.52 1.43-.17.19.04.24.15.26.92.14 1.94-.5 1.99-1.36.05-.76.34-1.46.38-2.22.04-.73.07-1.48.18-2.23.13-.86.23-1.8-.22-2.65.36-.58-.13-1.15-.04-1.74.1-.66-.21-1.47.07-1.98.34-.6-.33-1.19.2-1.68.08-.07 0-.38-.1-.53-.24-.38-.06-.68.05-1.05.18-.62.42-1.23.4-1.93-.02-.47-.65-.61-.45-1.07.2-.47.22-.93.03-1.38-.2-.5.4-.95 0-1.45-.34-.46-.19-1.02-.16-1.52.04-.82.39-1.6 0-2.45-.15-.36.07-.88.09-1.33.02-1.2-.78-2.35-.18-3.58.02-.04-.16-.15-.15-.23.06-.9-.35-1.76-.11-2.72.2-.8-.05-1.7.3-2.5-.42-.43-.18-.82 0-1.29.17-.45-.14-1.07.4-1.44.14-.09.16-.21.02-.32-.5-.4-.42-.75.02-1.15.6-.54.57-.58.03-1.4-.11-.17-.24-.36-.07-.5.48-.4.18-.68 0-1.12-.22-.53-.32-1.22.22-1.73.27-.26.4-.6.18-.9-.38-.48-.33-.96-.2-1.52.1-.44.2-.97.15-1.35-.16-1.32-.33-2.61.1-3.91.14-.4-.3-.56-.4-.86-.15-.4.6-.53.39-.93-.43-.83-.2-1.69-.23-2.53-.04-.82-.04-1.63 0-2.45.03-.8.67-1.51.28-2.37-.04-.08.1-.26.18-.36.8-.9 1.31-2.02 2.19-2.86.43-.42.5-.98.53-1.55.6-.19.97-.7 1.05-1.22.08-.63.33-1.14.58-1.7.71-1.62.68-1.63.61-3.7-.02-.41-.23-.91-.16-1.2.3-1.28-.38-2.35-.58-3.5-.14-.72-.43-1.42-.42-2.19 0-.28-.12-.57-.14-.82-.07-1.12-1.17-1.78-1.2-2.9-.75-1.01-.76-2.37-1.49-3.4 0-1.15-.79-1.99-1.2-2.96-.31-.72-.85-1.35-1.32-1.99-.19-.25-.37-.33-.65.03a15 15 0 0 0-1.62 2.76c-.44.91-.94 1.8-1.48 2.67-.2.31-.35.4-.64.37-.83-.08-1.68.18-2.5-.24-.27-.13-.66.54-.97.01-.2-.35-.54-.67-.52-1.14.02-.34-.22-.6-.31-.92-.19-.56-.36-1.21-.84-1.6a4.65 4.65 0 0 1-1.4-2.14c-.09-.26-.13-.24-.35-.13-1.05.5-1.14 1.83-2.08 2.45-.27.18.26.43.08.74-.32.55-.34 1.3-1.1 1.55-.07.03-.13.1-.2.14.73.82-.96 1.16-.38 1.94-.7.66-.6 1.8-1.42 2.4-.53.38-.19.97-.28 1.47-.09.5-.82.62-.72 1.18.03.22.26.51.13.66-.4.49-.34 1.01-.4 1.58-.06.62-.1 1.4-.83 1.86-.26.17-.4.64-.45 1-.1.52.22 1.15-.52 1.45-.08.03-.06.25.04.38.38.5.1.87-.26 1.24-.3.3-.86.51-.44 1.1-.32.97-.43 2-.86 2.93-.18.37-.5.66-.76 1 .5.43-.04.77-.13 1.13-.06.21-.29.38-.24.65.1.52-.1.89-.43 1.29-.2.26-.3.67-.46 1-.6 1.27-1.09 2.61-2.22 3.59-.3.25-.7.05-.83.39-.11.3-.15.62-.3.92-.13.26-.26.37-.52.37-.21 0-.27.17-.4.31-.61.66-.95 1.62-1.96 1.86-.11.03-.27.2-.27.31 0 .73-.35 1.05-1.06.98-.2-.02-.3.1-.41.3-.23.46-.57.86-.8 1.32-.1.22-.21.57-.38.55-.46-.06-.53.07-.59.52-.05.34-.4.64-.79.76-.4.12-.53.53-.84.73-.4.26-.21.7-.33 1.04-.16.45-.95.09-1 .62-.05.69-.65.84-1 1.23-.5.56-1.08 1.04-1.4 1.77a5.5 5.5 0 0 1-.98 1.68c-.28.29-.53.48-.46.9.1.48-.2.63-.55.84-.66.37-1.17.89-1.16 1.74 0 .72-.29 1.35-.87 1.69-1.02.58-1.25 1.49-1.44 2.54-.14.76-.57 1.47-.82 2.21-.14.4-.45.25-.69.33-.07.02-.17.13-.17.2a5.4 5.4 0 0 1-.82 2.5c.47.79-.13 1.23-.56 1.69-.24.26-.38.52-.37.88.02.28.03.55-.14.83-.27.43-.47.92-.42 1.46 0 .14-.04.27-.1.4-.52.95-.54.97-.48 1.76.02.3.02.65-.27.75-.7.23-.58.77-.56 1.27.02 1.04-.07 2.08-.27 3.1-.08.36-.5.4-.47.93.06.84-.16 1.7-.14 2.57 0 .18 0 .5-.08.52-.66.2-.38.76-.52 1.17-.14.46-.76.79-.28 1.4a.75.75 0 0 1-.27.3c-.38.16-.45.46-.62.82-.28.6-.35 1.42-1.16 1.68-.14.04-.2.18-.2.34.04.88-.44 1.28-1.25 1.4-.16.02-.33.22-.41.38-.7 1.43-.87 1.59-2.12 2.07-.25.1-.68-.05-.76.26-.16.71-.65.7-1.2.71-.14 0-.4.19-.42.32-.12.62-.6.46-.99.57-.29.08-.66-.04-.83.12-.35.35-.66-.28-1.01.05-.22.2-.64.06-.9.33-.04.04-.2.04-.26-.01-.79-.65-1.72.56-2.5-.2-.01-.02-.15.07-.23.13-.87.66-1.96.6-2.93.61-.6.01-1.34.19-1.93-.2-.52-.35-1-.4-1.58-.07-.25.16-.64.06-.97.09-.46.03-.75-.36-1.16-.45-.5-.11-.67.63-1.23.45-.3-.1-.66.02-.9-.3-.08-.1-.27-.25-.32-.22-.44.25-.88-.28-1.4.1-.43.32-.86-.42-1.36-.47-.05-.01-.11-.02-.14 0-.66.53-1.3.2-1.98 0-.43-.12-.9.01-1.38-.17-.3-.11-.64-.44-1.14-.21-.53.25-.71-.5-1.11-.69-.09-.03-.18-.08-.27-.07-.53.07-.84-.34-1.25-.53-.57-.25-1-.77-1.56-.9-.65-.15-.97-.52-1.18-1.07-.29-.74-.94-1.3-.98-2.16a.7.7 0 0 0-.34-.56c-.46-.28-.83-.7-1.24-1.05-.2-.17-.4-.53-.7-.29-.39.3-1.16.1-1.21.8-.04.44-.38.64-.52.97-.15.35.24.76-.09 1.14-.6.72-.31 1.47.1 2.1.6.9 1.08 1.86 1.66 2.76.37.57.79 1.25 1.55 1.36.46.06.83.14.99.62.08.23.25.25.45.25.72 0 1.21.44 1.71.89.24.21.4.5.78.58.84.2 1.66.59 2.51.67.47.04.92.12 1.38.2.53.11.9 1 1.6.34.01-.01.14.1.2.17.56.57 1.23.39 1.86.24.21-.05.46-.27.65-.15.53.32 1.1.34 1.64.23.57-.1 1.07.52 1.48.26.61-.38 1.06.09 1.59.07.69-.01 1.42-.21 2.07.25.1.07.32.06.41-.01.38-.28.87-.43 1.2-.2.6.4.66-.39 1.05-.34.14.01.32-.04.42.04.39.31.73.26 1.16.02.26-.14.66-.11.98-.07.58.08 1.4.12 1.75-.03.39-.16.73-.43 1.17-.1.3.24.6.02.92-.07.56-.15 1.16-.65 1.72-.31.48.29.88 0 1.27.09.49.1.89-.02 1.33-.05.52-.04 1.05-.3 1.58-.1.57.2 1.13.15 1.7 0 .07-.02.18.05.25.1.43.32.8.22 1.11-.17a.7.7 0 0 1 .78-.23c.85.27 1.8-.56 2.6.26.05.05.27-.04.37-.11.19-.15.35-.34.53-.48.09-.06.24-.3.3-.08.24.81.66.14.98.14.67 0 1.35-.1 2 .02.4.08.7.18 1.15.14.56-.06 1.13.18 1.7-.17.14-.1.37-.03.51.13.35.39.68.52 1.24.28.39-.16.93.14 1.24-.43.17-.31.64-.47.84-.16.44.67.86.47 1.41.24.23-.1.45-.46.86-.14.35.27.92.62 1.3.32.48-.4 1 .18 1.37-.24.43-.48.87.2 1.27-.03s.77-.54 1.18-.77c.14-.08.37-.08.55-.05.58.1 1.25-.5 1.75.21.38-.14.75-.8 1.14 0 .54-.39 1.12-.38 1.77-.34.63.03 1.72.03 2.18.31.52.33 1.01.37 1.53.01.15-.1.35-.14.5-.25.28-.23.5-.31.87-.05.4.28.9.62 1.31-.06.11-.18.24-.01.34.06.36.22.68.3 1.13.11.35-.15.77.25 1.2-.19.3-.3.95-.3 1.32.05.64.59 1.23.38 1.95.17.58-.17 1.31-.79 1.88.15.08.12.48.14.66.07.37-.16.66-.13 1.03-.02.45.14.87.04.77-.62-.04-.34.13-.63.4-.7.61-.16.45-.62.46-1.02.03-.44-.08-.78-.48-1.1-.7-.56-1.7-.47-2.35-1.1-.09-.09-.4-.03-.53.06-.6.46-1.22.4-1.75.03-.46-.3-.69.29-1.04.11-.33-.16-.65-.37-1-.5-.15-.05-.4.01-.53.1-.27.2-.55.1-.82.15-.7.14-.9-.77-1.4-.75-.5.02-.91.72-1.54.32-.32-.2-.6-.05-.92 0-.62.12-1.17.57-1.87.35a3.74 3.74 0 0 0-3.12.18c-.2.1-.32.17-.46-.02-.29-.38-.53-.4-.96-.1-.35.23-.73-.07-.92-.44-.1-.2-.11-.44-.18-.67-.23-.76-.18-.93.53-1.15.7-.22 1.39-.44 1.93-1.02.2-.21.67-.46.85-.37.73.34 1.22-.2 1.57-.51.62-.56 1-1.34 2.02-1.42.36-.02.65-.7 1.05-.9.43-.22.53-.46.48-.88-.05-.55.14-.95.76-.96.48 0 .47-.46.57-.7.16-.4.26-.78.55-1.12.43-.5.98-.95.98-1.7.72-.27.55-.88.55-1.42 0-.85.27-1.69-.23-2.54-.2-.34 0-.97.1-1.38.14-.56.25-1.03-.14-1.45-.45-.49.32-1.07-.17-1.52a.48.48 0 0 1-.1-.1c-.43-.73-.98-1.4-.87-2.33.03-.27-.15-.43-.31-.6-.59-.67-1.63-1.05-1.44-2.24 0-.03-.04-.1-.07-.1-.78-.14-.67-.94-1-1.4-.13-.2-.16-.39-.43-.5-.25-.09-.44-.35-.63-.55-.19-.2-.22-.48-.1-.66.13-.17.45-.38.58-.33.65.28 1.53.25 1.91.92.3.52.75.95.93 1.56.12.4.24.92.9.92.14 0 .57.46.3.9-.11.19-.06.42.16.44.95.06 1.06.8 1.19 1.5.09.53.33.95.64 1.38.2.29.59.61.25 1.08-.05.06.05.32.13.35.63.29.66.83.7 1.42 0 .3.23.7.11.89-.27.41.11.6.15.9.04.32.06.65-.16.95-.57.77-.08 1.8-.57 2.6-.03.04.03.17.07.21.3.28.54.61.32 1-.2.36-.23.87-.73.99-.3.07-.36.26-.33.52.04.36-.2.6-.35.9-.41.79-1.24 1.21-1.66 2-.18.34-.17.81-.7.96-.56.16-.2.78-.44 1.14-.13.19-.26.2-.44.27-.58.18-1.18.34-1.36 1.06a.48.48 0 0 1-.3.28c-1.09.24-1.73 1.28-2.79 1.55-.13.03-.27.1-.11.26l.2.2c.18.15.39.13.5-.04.28-.42.58-.33.95-.14.14.06.3.4.45.15.45-.73 1.31-.15 1.8-.6.58-.56 1.24 0 1.79-.19.52-.17.76.06 1 .35.13.16.25.37.4.28.93-.6 1.68.09 2.48.32.45.13.78.23 1.3.1.47-.1 1.03.17 1.44-.36.03-.04.2-.03.26.01.4.38.9.2 1.36.23.2.01.4 0 .47.23.21.72.93.72 1.42 1.05.22.14.34.09.32-.19-.04-.55.04-1.1-.25-1.65-.31-.59.28-1.17.24-1.79-.01-.08-.08-.17-.14-.24-.23-.3-.24-.75-.08-.95.35-.42-.1-.7-.08-1.05.03-.44.36-.76.32-1.22-.04-.38 0-.76-.35-1.03a.75.75 0 0 1-.19-.92c.31-.61.35-1.15-.03-1.73-.08-.14-.08-.4.09-.53.72-.56.48-1.15.07-1.73-.2-.26-.11-.55-.19-.81-.15-.54.42-1.01.18-1.48-.27-.53-.1-1.04-.15-1.55-.03-.23-.03-.5.06-.7.42-.96.15-1.95.13-2.93-.02-.68-.44-1.35.06-2.04.14-.19.14-.64.01-.83-.5-.72-.1-1.37.13-2 .14-.38.17-.6-.13-.85-.33-.28-.31-.55 0-.84.1-.1.32-.18.17-.44-.5-.82.15-1.7-.13-2.55-.14-.44.41-.93.98-.9.62.04.47.5.28.83-.13.24.09.33.1.48.01.75.23 1.52-.15 2.23a.7.7 0 0 0 0 .69c.59 1.15.04 2.34.02 3.5-.02.67-.07 1.28.21 1.89.1.2.33.35.21.63a4.6 4.6 0 0 0-.06 3.04c-.38.52.43 1.25-.3 1.7-.2.13.02.23.04.34.09.55.14 1.12.46 1.6.1.16.27.35.12.5-.57.62-.15 1.31-.2 1.97a8.3 8.3 0 0 1-.15 1.1c-.16.76-.57 1.57.04 2.35.2.24.06.52-.05.8-.16.38.4.46.4.8.01.09-.01.22-.07.26-.66.44-.4.94-.1 1.44.08.11.13.2.06.36-.24.6-.08 1.32-.48 1.89-.1.14-.29.28-.05.45.47.33.36.83.38 1.3.02.64-.23 1.36.44 1.85.1.08.06.13 0 .24-.25.6.05 1.3-.08 1.84Zm-71.64-92.03c-1.58-.18-3.89.59-5.02 1.17-.82.43-1.56 1.03-2.51 1.14a.5.5 0 0 0-.25.13c-1.23 1.05-2.53 2.03-3.73 3.12-.46.42-.5 1.18-1.19 1.36-.75 1.2-2.04 1.9-2.8 3.09-.08.1-.15.33-.2.32-.62-.08-.55.46-.8.76-.24.3-.75.45-.92.82-.3.7-.96 1.05-1.35 1.63-.43.64-1.2.84-1.67 1.47-.38.5-1.11.84-1.75 1-.43.12-.57.88-1.15.48-1.12.26-2.26.42-3.4.5-.44.03-.6.24-.46.65.06.17.13.37.25.5.55.56.71 1.16.3 1.88-.06.1-.01.29 0 .43.13 1.05 0 1.03-.5 1.86-.4.71-.93.98-1.67 1.03-.38.02-.53.22-.27.55.2.24.46.44.23.8.91.49 1.36 1.45 2.06 2.14.22.22.36.14.59.03.21-.11.43-.19.58-.38.76-.92 1.44-1.93 2.53-2.53.42-.9 1.5-1.02 2.09-1.73.1-.13.32-.19.49-.26.32-.14.52.17.76.27.39.16 0 .38-.06.54-.16.48-.46.9-.96 1.08-.48.16-.78.54-1.12.87-.65.62-1.16 1.39-1.98 1.82-.27.14-.26.39-.2.62.05.22.26.23.45.22 1.18-.07 2.37.18 3.53-.14.17-.05.24-.02.35.05.69.42 1.3.2 1.85-.27.2-.16.44-.32.63-.2.48.3.84.25 1.21-.17.21-.23.55-.17.81-.12.5.1 1.17-.4 1.47.4.54-.06 1.06-.2 1.6-.14.22.02.36.12.48.27.28.35.62.46 1 .2.53-.36.84-.08 1.2.29.45.45.96.83 1.43 1.25.74-.24.8.55 1.14.84.54.45 1.09 1.05 1.1 1.87.02.5.5.68.68 1.05.2.4-.38 1-.03 1.28.74.6.26 1.3.32 1.94.02.16-.05.33.02.52.25.58.22 1.17.02 1.79-.13.4-.1.85-.13 1.28 0 .32.38.63-.1.98-.28.21.26.62.05 1-.32.6-.67 1.2-.27 1.93.09.15-.03.36-.11.54-.32.66-.47 1.39-.86 2.03-.3.5-.68 1.06-.3 1.7.1.16.06.27-.05.34-.48.34-.38.84-.37 1.3.03.73-.13 1.42-.58 1.98-.32.4-.33.76-.21 1.2.03.11.28.25.1.33-.69.34-.22.98-.38 1.47-.1.25.19.65-.22.91-.09.05-.15.32-.1.38.43.47.2.83-.24 1-.57.23-.45.63-.2.88.4.43.52.76 0 1.17-.08.07-.17.3-.13.36.48.65.13.93-.45 1.14-.15.05-.18.3-.1.36.38.36.37.75.22 1.2-.14.43.25.78.06 1.31-.24.67-.1 1.47-.3 2.22-.13.54.36 1.2-.3 1.74-.14.12-.14.68.17.92.47.35.22.58-.05.89a1.7 1.7 0 0 0-.37 1.72c.18.47.26.76-.15 1.09-.22.18-.03.3.08.44.1.15.4.32.27.46-.43.45.1.87-.02 1.28-.14.45-.01.91-.2 1.39-.17.46-.08 1.03.44 1.4.18.12.5.42.35.55-.48.39.22 1-.31 1.35-.2.13-.33.37-.11.6.18.2.27.52.14.66-.4.44-.17.84.05 1.15.3.4.35.85.25 1.22-.21.78.54 1.64-.2 2.36l.07.1c.2.57.31 1.17.74 1.65.5.56 1.13.98 1.84 1.22.61.22 1.21.6 1.87.16.18-.13.24.03.35.07.36.14.57.04.4-.37-.08-.22-.2-.42-.19-.66.03-.42-.12-.83.17-1.24.4-.56-.56-.68-.46-1.2.04-.23 0-.48 0-.72v-2.16c0-.39.14-.95-.05-1.12-.61-.52-.2-1.1-.24-1.65-.03-.53-.12-1.09.03-1.57.15-.53-.04-.98-.04-1.46 0-.52.37-1.07-.1-1.56-.11-.12-.05-.22-.02-.36a7.3 7.3 0 0 0-.28-4.03c-.27-.65-.39-1.38.24-1.97.15-.14.26-.37.15-.5-.5-.64.12-1.45-.37-2.1-.25-.31.1-.6.28-.81.16-.19 1.18-.09 1.19.06.07.8.77 1.5.57 2.25-.13.47.31.89.03 1.15-.53.5.07.87.03 1.3-.06.7.15 1.43-.27 2.08.35.52.23 1.1.26 1.66.04.52.07 1.05.2 1.56.1.43.12.78-.08 1.22-.24.51-.3 1.1.25 1.55.15.13.3.38.2.5-.52.55.12 1.19-.21 1.8-.27.48.09 1.09.16 1.64.07.5-.43 1.08-.34 1.55.08.39 0 .84.25 1.22.17.26.27.6.33.91.2 1.03.8 2.06 0 3.1-.18.25.09.58.5.6.93.02 1.88-.07 2.78.28a.9.9 0 0 0 .56 0c.29-.12.54-.16.39-.7-.18-.57-.57-1.1-.61-1.64-.04-.56-.07-1.22.38-1.76.53-.62-.45-1.22-.09-1.88l.09-.11c.25-.4.14-.84.07-1.25-.04-.2-.36-.45-.21-.64.6-.8-.18-1.7.25-2.5.23-.44-.42-.81-.21-1.2.6-1.15-.18-2.18-.22-3.28-.01-.38-.2-.7.14-1 .33-.3.34-.61.18-1.02a2.9 2.9 0 0 1 0-2.08c.03-.12.12-.34.08-.38-.61-.52-.54-.99 0-1.52.12-.13.13-.53.02-.7-.65-.99.1-1.94.05-2.9-.02-.3.38-.28.58-.2.33.16.98 1.56.77 1.83-.37.5-.16.86.03 1.3.07.18.34.32.15.62-.37.57-.04 1.08.22 1.58.11.21.34.41.11.63-.77.76-.5 1.7-.36 2.55.07.35-.05.6-.04.88.02.6-.56 1.13-.3 1.63.41.75-.01 1.57.28 2.23.35.79.16 1.43-.02 2.17a2 2 0 0 0 .1 1.26c.25.58.32 1.2-.02 1.78-.15.27-.15.59-.09.83.22.82-.1 1.67.04 2.42.12.66-.35 1.35.15 1.97.24.3 1.6 1.36 2.05 1.5.1.03.16.12.25.14.9.24 1.85.17 2.77.22.4.02 1.1.33 1.4-.41.08-.18.33.03.5.06.87.19 1.76.34 2.6-.07.28-.14.43-.45.85-.2.28.17.63-.38 1.01-.08.48.36.95.3 1.43-.06.24-.18.8.17.8-.2 0-.33-.45-.65-.7-.97-.03-.02-.1-.01-.14 0-.55 0-.74-.41-.84-.83-.13-.6-.47-.97-1-1.18-.2-.08-.35-.17-.31-.39.12-.78-.18-1.27-.91-1.55-.24-.09-.19-.4-.26-.62-.32-.96-.4-2.05-1.3-2.73-.1-.07-.06-.27-.11-.4-.43-.95-.4-2-.56-3-.15-.97-.48-2 .25-2.92.05-.06.04-.2 0-.28-.3-.63.19-1.32-.23-1.97-.17-.26-.17-.76.08-1.1.23-.3.17-.63.16-.96-.03-.82.24-1.51.65-2.24.5-.86 1.03-1.8 1.04-2.82 0-.74.36-1.14.8-1.57.27-.28.63-.36.86-.08.2.24.4.63.1.97a3.9 3.9 0 0 0-.75 1.76c-.16.63-.17 1.32-.63 1.84-.47.54-.12 1.2-.3 1.78-.13.4.14.92-.18 1.24-.45.44.27.88-.08 1.28.31.82.37 1.64-.07 2.43.31.57-.07 1.3.42 1.86.21.25.52.59.34 1-.4.97.06 1.72.64 2.37.4.46.7 1.02.84 1.52.32 1.3.99 2.22 2.12 2.86.28.16.73.54.68.66-.32.84.63.8.8 1.27.72 0 .94.5 1 1.08.05.42.3.42.6.42.13 0 .29-.03.42.01.46.14.53-.72 1.06-.4.15.1.25-.06.33-.15.44-.49 1.38-.44 1.41-1.36.67-.28 1.21-.66 1.4-1.42.73-.2.83-.79.86-1.43 0-.05.14-.1.22-.14.48-.17.63-.54.55-1.01-.07-.5.78-.4.6-.99-.13-.42.08-.81.26-1.2.17-.39-.03-.94.29-1.22.48-.42-.25-.86.06-1.13.46-.42.39-.85.25-1.35-.12-.4.34-.7.26-1.08-.07-.33-.3-.61.24-.83.31-.12-.44-.53.02-.83.39-.23.34-.65.34-1.03 0-.33.03-.67-.01-1-.05-.36.28-.73.17-.91-.35-.58.49-.28.42-.7-.07-.31-.11-.68.38-.93.47-.23-.3-.63-.11-.99.21-.4.1-.97.55-1.21.27-.15.38-.34.3-.55-.3-.85.73-1.5.32-2.36-.05-.12.1-.23.26-.29.6-.2-.04-1.2.8-1.26l-.07-.13c-.3-.44-.14-.8.2-1.13.15-.15.22-.26-.08-.38-.62-.24-.95-.68-1.2-1.37-.25-.66-.59-1.25-.52-2 .02-.22-.19-.26-.32-.38-.27-.24-.61-.64-.46-.94.5-1-.55-1.24-.77-1.86-.42.32-.4.02-.44-.28a7.85 7.85 0 0 0-1.41-3.33c-.43-.59-.57-1.27-.84-1.91-.12-.29.05-.7-.08-.99-.62-1.43-.97-2.98-1.73-4.36-.15-.27-.15-.45-.06-.77.42-1.54.17-2.22-1.1-3.43-.23-.21-.54-.6-.33-.8.59-.55.13-.9-.12-1.3-.2-.32-.53-.61-.59-.95-.19-1.2-.76-2.3-.87-3.5-.02-.24 0-.48-.2-.66-.58-.48-.3-1.5-1.14-1.84-.09-.03-.1-.35-.08-.53.05-.57.26-1.15-.28-1.63-.04-.04 0-.18-.02-.28-.18-.95-.14-1.95-.8-2.78-.12-.14-.13-.51-.03-.69.29-.51.05-.84-.3-1.13-.38-.32-.6-.63-.32-1.15.1-.18.07-.65-.02-.68-.86-.36-.55-1.21-.8-1.82-.24-.6-.3-1.26-.83-1.76a1.3 1.3 0 0 1-.32-1.05c.13-1.12.09-1.14-.83-2.04-.17-.17-.32-.33-.34-.6-.08-1.1-.44-2.04-1.43-2.64-.22-.13-.28-.37-.28-.62 0-.19.01-.47-.1-.54-.64-.42-.76-1.17-1.08-1.77-.6-1.12-1.5-2.03-1.95-3.22-.2-.51-.63-.83-1.06-1.13-.42-.3-.95-.46-1.27-.83-.78-.94-1.97-1-2.96-1.45a9.72 9.72 0 0 0-4.35-.61Zm42.54 41.63c.09.1.16.24.27.3.2.1.5-.15.52-.43.01-.18-.09-.26-.24-.27-.29-.02-.4.22-.55.4Z"/><path d="M110.52 25.88c-.61 0-1.2.07-1.71-.46-.33-.34-.96-.19-1.21.28-.23.43-.5.49-.88.49-.19 0-.41-.02-.55.07-.87.59-1.36-.31-2.02-.52-.16-.06-.15-.44.02-.64.18-.2.37-.52.69-.26.56.46.94-.1 1.4-.2-.04-.69.92-.23.93-.82.01-.56.49-.79.76-1.16.14-.2.06-.34-.03-.51-.17-.33-.33-.67-.48-1.02-.26-.63.13-1.28.77-1.3.48 0 .96-.02 1.43.02.56.05.86.42.65.98-.13.33.17.82-.37 1.03-.39.14-.38.63-.6.92-.15.2-.09.36.05.5.6.68 1.16 1.45 2.24 1.18a1 1 0 0 1 .28-.01c.44.02.64.44.36.78-.3.36-.58.79-1.16.65-.19-.03-.39 0-.57 0Zm2.54-7.63c-.25.43-.51.68-.75.73-.1.02-.2 0-.29 0-.27-.01-.6.08-.75-.2a2.7 2.7 0 0 1-.3-.92c-.08-.45.62-1.1 1.17-1.18.1 0 .3.1.47.25.41.38.61 1.04.45 1.32Zm-9.03-1.07c.47-.03 1.08.57 1.17 1 .08.34-.5 1.27-.86 1.34-.36.07-.86-.14-1-.32-.24-.29-.2-1.09-.08-1.48.06-.21.55-.52.77-.54Zm-74.27 6.16c.51-.79.2-1.62.04-2.5-.12-.72-.2-1.51.14-2.25.18-.38.14-.82.01-1.25-.23-.8-.62-1.66.5-2.16.2-.08.16-.33.17-.51.03-.38-.14-.79.1-1.12.16-.23.06-.36-.09-.45-.56-.36-.58-.8-.2-1.26.27-.31.15-.64.18-.96a7.2 7.2 0 0 1 1.18-3.23c.16-.26.36-.23.52.05.09.17-.14.58.22.48.24-.06.73-.1.65-.6-.15-.9.47-1.49.86-2.18.19-.34.46-.3.7-.2.31.11.68.38.78.56.58 1.08 1.68 1.85 1.7 3.29 0 .65.47 1.3.93 1.85.28.34.63.76.04 1.17l-.1.11c.76.27-.01 1.05.47 1.4.36.27.4.64.33 1.03-.09.51.14.93.35 1.35.13.25.34.46.08.75-.21.22-.12.43.08.6.42.39.45.77.12 1.26-.16.24-.07.62.05.96.15.4.73.72.29 1.25.22.43.17.83.03 1.3-.05.15-.02.37-.16.54-.26.3-.8.5-.35 1.04-.29.4-.1.76.1 1.13.14.24.34.46.29.78-.04.22 0 .43-.25.6-.92.64-1.1 1.56-.76 2.58.13.4.31.67-.33.4-.06-.02-.28.25-.36.41a3.68 3.68 0 0 1-1.44 1.5c-.26.16-.42.35-.6.57-.36.43-.77.82-1.4.45-.09-.05-.21-.14-.24-.12-1.17.91-1.62-.8-2.57-.73-.23.01-.36-.4-.34-.71a4.37 4.37 0 0 0-.98-3.15c-.21-.26-.2-.55-.16-.82.11-.83-.1-1.6-.43-2.33a2.14 2.14 0 0 1-.15-.88Zm7.42-2.82c0-.17-.04-.35-.16-.3-.2.08-.4.23-.38.5.02.16.09.26.25.25.36-.01.27-.29.3-.45Zm-2.05-11.77c-.07-.05-.12-.13-.2-.13-.07-.01-.2.03-.21.08-.04.17.1.2.21.18.07-.02.13-.09.2-.13Zm1.6 10.3c-.14.11-.11.23-.06.36l.08.1c.05-.12.1-.23.13-.34 0-.03-.1-.08-.15-.11Zm-15.45-3.74c-.47.49-.86-.01-1.17-.26-.34-.27-.33-1.3-.1-1.65.1-.15.23-.3.31-.46.19-.4.45-.81.87-.84.43-.02.9.15 1.31.34.43.19.88 1.93.64 2.32-.06.1-.23.14-.34.2-.47.26-.94.49-1.52.35Z"/></g><defs><clipPath id="a"><path fill="#fff" d="M0 0h119v100h-119z"/></clipPath></defs></svg>